<?xml version="1.0" encoding="utf-8"?>
<!-- Generator: Adobe Illustrator 24.0.0, SVG Export Plug-In . SVG Version: 6.00 Build 0)  -->
<svg version="1.1" id="Capa_1" xmlns="http://www.w3.org/2000/svg" xmlns:xlink="http://www.w3.org/1999/xlink" x="0px" y="0px"
	 viewBox="0 0 512 512" style="enable-background:new 0 0 512 512;" xml:space="preserve">
<style type="text/css">
	.st0{fill:#FEFEFE;}
	.st1{fill:#241E18;}
	.st2{fill:#251E18;}
	.st3{fill:#251E19;}
	.st4{fill:#27201B;}
	.st5{fill:#261F1A;}
	.st6{fill:#271F1A;}
	.st7{fill:#5D534E;}
	.st8{fill:#332D28;}
	.st9{fill:#615954;}
	.st10{fill:#FDFDFD;}
	.st11{fill:#68635F;}
	.st12{fill:#DCDAD8;}
	.st13{fill:#3A3530;}
	.st14{fill:#534F4B;}
	.st15{fill:#6E6966;}
	.st16{fill:#74706C;}
	.st17{fill:#6B6665;}
	.st18{fill:#3C3834;}
	.st19{fill:#5C5350;}
	.st20{fill:#FCFCFC;}
	.st21{fill:#D9D6D5;}
	.st22{fill:#403934;}
	.st23{fill:#5F5956;}
	.st24{fill:#746D6A;}
	.st25{fill:#36322D;}
	.st26{fill:#C3BFBE;}
	.st27{fill:#231E18;}
	.st28{fill:#28221C;}
	.st29{fill:#3A3531;}
	.st30{fill:#2E2924;}
	.st31{fill:#6E6A67;}
	.st32{fill:#6F6C68;}
	.st33{fill:#837D7A;}
	.st34{fill:#696664;}
	.st35{fill:#716E6C;}
	.st36{fill:#625E5B;}
	.st37{fill:#888382;}
	.st38{fill:#514D49;}
	.st39{fill:#777170;}
	.st40{fill:#44403E;}
	.st41{fill:#4E4B49;}
	.st42{fill:#464240;}
	.st43{fill:#54504D;}
	.st44{fill:#252320;}
	.st45{fill:#474442;}
	.st46{fill:#7F7B78;}
	.st47{fill:#4F4A49;}
	.st48{fill:#211E1B;}
	.st49{fill:#201D1A;}
	.st50{fill:#363330;}
	.st51{fill:#292623;}
	.st52{fill:#524E4A;}
	.st53{fill:#312E2B;}
	.st54{fill:#2B2825;}
	.st55{fill:#201E1A;}
	.st56{fill:#625E5C;}
	.st57{fill:#787373;}
	.st58{fill:#7F7A7A;}
	.st59{fill:#75716E;}
	.st60{fill:#76726F;}
	.st61{fill:#706D6C;}
	.st62{fill:#757171;}
	.st63{fill:#474341;}
	.st64{fill:#44413E;}
	.st65{fill:#7A7773;}
	.st66{fill:#7B7676;}
	.st67{fill:#403E39;}
	.st68{fill:#3C3735;}
	.st69{fill:#544F4E;}
	.st70{fill:#504E47;}
	.st71{fill:#3D3836;}
	.st72{fill:#3F3C39;}
	.st73{fill:#3A3831;}
	.st74{fill:#474241;}
	.st75{fill:#53504E;}
	.st76{fill:#3C3934;}
	.st77{fill:#413E3D;}
	.st78{fill:#484442;}
	.st79{fill:#595652;}
	.st80{fill:#5E5855;}
	.st81{fill:#35312D;}
	.st82{fill:#3D3733;}
	.st83{fill:#716D69;}
	.st84{fill:#5F5C58;}
	.st85{fill:#393531;}
	.st86{fill:#2B2722;}
	.st87{fill:#352F2A;}
	.st88{fill:#322F2A;}
	.st89{fill:#2D2824;}
	.st90{fill:#312D28;}
	.st91{fill:#6F6D6B;}
	.st92{fill:#6A6866;}
	.st93{fill:#413E3C;}
	.st94{fill:#64625F;}
	.st95{fill:#62605D;}
	.st96{fill:#656260;}
	.st97{fill:#4B4846;}
	.st98{fill:#413E3B;}
	.st99{fill:#686563;}
	.st100{fill:#3D3A38;}
	.st101{fill:#3E3B38;}
	.st102{fill:#504D4B;}
	.st103{fill:#484543;}
	.st104{fill:#464341;}
	.st105{fill:#2C2823;}
	.st106{fill:#645F5D;}
	.st107{fill:#625F5B;}
	.st108{fill:#5D5857;}
	.st109{fill:#938D8B;}
	.st110{fill:#67635F;}
	.st111{fill:#595753;}
	.st112{fill:#5B5755;}
	.st113{fill:#7F7876;}
	.st114{fill:#3D3A37;}
	.st115{fill:#43413E;}
	.st116{fill:#605D5B;}
	.st117{fill:#4D4A47;}
	.st118{fill:#5F5C5A;}
	.st119{fill:#494442;}
	.st120{fill:#262320;}
	.st121{fill:#2A2724;}
	.st122{fill:#3D3A35;}
	.st123{fill:#292724;}
	.st124{fill:#211F1B;}
	.st125{fill:#24221E;}
	.st126{fill:#272421;}
	.st127{fill:#524E4C;}
	.st128{fill:#585451;}
	.st129{fill:#66605F;}
	.st130{fill:#575351;}
	.st131{fill:#2D2A27;}
	.st132{fill:#504B46;}
	.st133{fill:#615C58;}
	.st134{fill:#26221D;}
	.st135{fill:#605B57;}
	.st136{fill:#302D2A;}
	.st137{fill:#696463;}
	.st138{fill:#45413D;}
	.st139{fill:#302D29;}
	.st140{fill:#352E2B;}
	.st141{fill:#35312E;}
	.st142{fill:#433E39;}
	.st143{fill:#342F2A;}
	.st144{fill:#2E2A26;}
	.st145{fill:#575250;}
	.st146{fill:#595350;}
	.st147{fill:#615F5D;}
	.st148{fill:#615D5C;}
	.st149{fill:#575452;}
	.st150{fill:#5F5B58;}
	.st151{fill:#27221D;}
	.st152{fill:#56514C;}
	.st153{fill:#28241F;}
	.st154{fill:#3C3937;}
	.st155{fill:#4A4745;}
	.st156{fill:#413B38;}
	.st157{fill:#3F3732;}
	.st158{fill:#322E2B;}
	.st159{fill:#443F3B;}
	.st160{fill:#34312E;}
	.st161{fill:#34302B;}
	.st162{fill:#2F2C28;}
	.st163{fill:#35322F;}
	.st164{fill:#33302C;}
	.st165{fill:#1C1C1A;}
</style>
<g id="_x36_Ljm9w.tif">
	<g>
		<path class="st0" d="M148.1,0.2c71.3,0,142.7,0,214,0c1.5,0,1.8,0.3,1.8,1.8c0,169.3,0,338.6,0,507.9c0,1.5-0.3,1.8-1.8,1.8
			c-70.7,0-141.5,0-212.2,0c-1.5,0-1.8-0.3-1.8-1.8C148.1,340,148.1,170.1,148.1,0.2z"/>
		<path class="st1" d="M239.9,435.3c0.3,2.9,0,5.7,0,8.6c-0.3,21.8-0.7,43.6-1,65.4c0,1.6-0.4,2-2,2c-18.6,0.1-37.1-0.9-55.7-1.5
			c-9.9-0.3-19.9-0.7-29.8-0.9c-1.4,0-1.9-0.3-1.9-1.8c1.8-123.3,2.5-246.5,4.5-369.8c0.4-26.7,2-53.4,5.2-79.9
			c1.2-9.8,3-19.5,5.1-29.2c0.2-0.8,0.2-1.6,0.3-2.3c0.1-5.8,0.2-11.7,0.3-17.5c0-2.2,0.7-2.9,2.9-3.1c18.4-1.8,36.9-2.9,55.4-3.6
			c17.2-0.6,34.4-0.7,51.6-0.3C295.4,1.9,316,3.2,336.6,5c1,0.1,2.1,0.1,3,0.7c1.3,1,1.8,2.4,1.8,4.1c-0.1,3.7,0,7.3,0,11
			c0,0.6,0.1,1.2-0.2,1.7c-0.4,0.8-1,1.2-1.9,1.1c-0.8-0.1-0.9-0.9-0.9-1.5c-0.1-2.8,0-5.6-0.1-8.4c0-0.8,0.1-1.7-0.3-2.5
			c-0.2-0.5-0.7-1-0.4-1.7c-3,0.7-6,1.1-9,1.5c-0.9,0-1.8-0.1-2.7,0.3c-2.7,0.8-5.6,0.9-8.2,1.3c1,0.8,0,1.3-0.5,1.9
			c-0.7,1.4-0.1,2.8-0.3,4.2c-0.1,0.8,0.1,1.8-1.3,1.7c-0.8-0.8-0.5-1.8-0.6-2.8c-0.1-1.4,0.1-2.7-0.1-4.1c-0.4-2.3-1-2.6-3.4-1.8
			c-0.4,0.4-0.5,0.9-0.7,1.3c-0.3,0.6-0.6,1-1.3,0.4c-0.5-0.4,0-1.6-1.1-1.5c-1.3,0.1-2.4,1.3-3.7,1.2c-2.1-0.1-4,0.6-6.1,0.6
			c-0.8,0-1.9,0.2-2.1-1c-0.1-1,0.6-1.8,1.6-2.2c0.7-0.3,1.5-0.2,2.3-0.5c4.1-0.6,8.3-0.6,12.5-1.2c2.5-0.3,5-0.5,7.4-1.5
			c1.5-0.6,3.5,0.5,4.9,0.2c-5.8-0.5-12.1-0.5-18.4-1.2c-2.6-0.3-5.2-0.3-7.8-0.4c-4.8-0.1-9.6-0.4-14.5-0.6
			c-5.4-0.2-10.8,0.1-16.2-0.3c-8.4-0.6-16.8-0.5-25.2-0.2c-6.6,0.2-13.3-0.2-19.9,0.6c-1.5,0.2-3,0-4.5,0
			c-9.3,0.3-18.6,0.9-27.9,1.6c-3.5-0.1-6.9,0.5-10.3,0.4c0.2,0.2,0.7,0.2,1.1,0.1c2.9-0.7,5.5,0.8,8.3,1.2c0.7,0.5,1.3,1.3,1.5,2.1
			c0,0.2,0,0.5,0,0.7c-0.1,6.4,0,12.8-0.1,19.2c0,2.2-0.5,2.6-2.5,2.3c-6.3-1-12.6-2-18.9-3.5c-1.8-0.4-2.1-0.2-2.6,1.9
			c-2.1,9-3.4,18.1-4.6,27.3c-1.2,8.7-1.9,17.4-2.8,26.5c2-3.3,3.5-6.7,5.3-9.7c1.5-2.6,2.6-5.4,4.5-7.8c0.8-0.4,1.6-0.8,1.9,0.6
			c-0.3,2.1-1.5,3.9-2.5,5.7c-3,5.4-5.8,10.8-8.8,16.2c-0.6,1-0.7,2-0.8,3.2c-0.9,8.9-1.1,17.9-1.4,26.8c-0.2,7.8-0.5,15.7-0.6,23.5
			c-0.1,11.1-0.1,22.3-0.4,33.4c-0.3,9.1,0.1,18.2-0.3,27.3c-0.5,11.1,0,22.1-0.4,33.2c-0.4,10,0,20-0.3,30c-0.5,12.5,0,25-0.4,37.5
			c-0.4,10.5,0,21.1-0.3,31.6c-0.5,12.9,0,25.8-0.4,38.7c-0.4,11.3,0.1,22.7-0.4,34c-0.5,11.5,0.1,22.9-0.4,34.3
			c-0.4,10.2,0.1,20.4-0.4,30.6c-0.3,6.7-0.3,13.5-0.3,20.2c0,1.2-0.1,2.4,0.5,3.4c0.3,0.5,0.2,1,0,1.5c-0.2,0.4-0.3,0.8-0.4,1.3
			c-0.6,3.5-0.2,4.1,3.3,4.5c0.8,0.1,1.6,0.2,2.3,0.2c9.9-0.1,19.8,0.7,29.8,0.9c8.1,0.2,16.2,0.4,24.3,0.8c6.3,0.3,12.7,0,19,0.6
			c3,0.3,3.3-0.2,3.1-3.2c-0.3-6.1-0.1-12.3,0.1-18.4c0.3-7.6,0.1-15.2,0.3-22.8c0-1.2-0.1-2.4,0.6-3.4c0.7-0.7,1.1-1.3,0.5-2.4
			c-0.4-0.7-0.3-1.7-0.3-2.5c0-4.4,0-8.9,0-13.3c0-1.1,0-2.2,0.6-3.2c0.3-0.4,0.4-1,0.2-1.5c-0.8-2.8-0.3-5.7-0.4-8.6
			c-0.1-1.3,0.7-2.2,1.4-3.1c0.3-0.4,0.7-0.6,1.2-0.4c0.5,0.2,0.4,0.6,0.4,1C240,429.2,240.3,432.3,239.9,435.3z"/>
		<path class="st1" d="M355.3,380.5c0.2,10.9,0.3,21.8,0.5,32.8c0.4,31.3,0.8,62.7,1.2,94c0,1.1,0,1.7-1.4,1.7
			c-28.6,0.6-57.2,2.3-85.8,2.4c-2,0-2.5-0.5-2.6-2.5c-0.3-32.3-0.8-64.5-1.5-96.8c0-0.5,0-1,0.1-1.6c-0.2-0.7-0.1-1.4-0.1-2.1
			c0-0.4-0.2-1,0.4-1.2c0.4-0.1,0.8,0.2,1.2,0.5c1.1,0.8,1.5,2.1,1.8,3.3c0.6,2.1,0.5,4.2,0.5,6.4c0.1,4.9-0.3,9.7,0.2,14.6
			c0.3,5.2-0.1,10.3,0.2,15.5c0.3,5.9,0.3,11.9,0.4,17.8c0.2,10.4,0.5,20.8,0.4,31.2c0,1.5,0.1,3,0.6,4.4c0.5,1.6-0.3,3.2-0.2,4.8
			c0.1,1.2,0.2,2.2,1.7,2.1c6.1-0.6,12.1,0,18.2-0.6c1.2-0.2,2.5-0.2,3.7-0.2c6.5,0.2,13.1-0.3,19.6-0.5c8.7-0.3,17.4-0.4,26-1
			c3.6-0.1,7.3,0.1,10.9-0.4c1.4-0.2,2-0.7,1.9-2.1c0-1.3,0.2-2.6-0.6-3.8c-0.2-0.3-0.3-0.6-0.1-0.9c1.4-2.9,0.6-5.9,0.7-8.9
			c0.1-10-0.6-20.1-0.4-30.1c0-0.8,0-1.7,0.1-2.5c1.1-1.3,0.9-2.7,0-4c-0.2-5.4-0.4-10.7-0.4-16.1c0-8.5,0.2-17-0.1-25.5
			c-0.4-10.7,0.1-21.4-0.4-32.2c-0.5-10.1-0.1-20.3-0.3-30.4c0.1-4.7,0-9.4,0.1-14.1c0-1.4,0.3-2.6,1.4-3.5c0.4-0.3,0.9-0.7,1.4-0.5
			c0.5,0.2,0.3,0.8,0.3,1.3c0,4-0.2,8,0,12c0.7,11.8,0.2,23.6,0.4,35.5C355.1,379.8,355,380.2,355.3,380.5z"/>
		<path class="st2" d="M300.3,10.5c-0.8,0.8-2.3-0.2-2.8,1.3c-0.1,0.4-0.8,0.7-0.5,1.2c0.2,0.4,0.7,0.2,1.1,0.3c0.7,0,1.4,0.1,2.1,0
			c2.9-0.5,5.9-0.8,8.7-1.9c0.8,2.1,0.6,4.4,0.6,6.5c0,5.5,0,11.1-0.1,16.6c0,0.4-0.2,0.9,0.4,1.1c0.5,0.1,1,0.2,1.2-0.5
			c0.1-0.2,0.2-0.3,0.4-0.4c0.6-0.3,1.3-0.2,1.9-0.1c0.4,0.1,0.8,0.6,1.3,0.1c0.3-0.3,0.6-0.5,0.8-0.9c0.7-0.9,0.2-1.8-0.2-2.6
			c-0.1-1-0.3-1.9,0.1-2.9c0.7-2.5,0.5-5,0.1-7.4c-0.1-0.2,0-0.4,0.1-0.6c1.2-0.3,0.6-1.3,0.7-1.9c0.3-1.5-0.6-3.2,0.5-4.7
			c0.5,0.7,0.4,1.5,0.4,2.3c0,2.2,0,4.4,0,6.7c0,2.4-0.3,4.8,1.2,7.1c0.5,0,1.5-0.3,2.4-0.4c0.5-0.1,1.1-0.1,1.5,0.2
			c0.6,1.3-0.6,1.5-1.2,2.1c-1.1,0.8-2.5,0.4-3.7,1c0.2,0.6,0.7,1,0.7,1.7c-0.2,1.3-1.2,1.7-2.2,2.2c-2.2,0.6-4.4,0.6-6.6,0.5
			c-1.2,0-2.1-0.4-2.2-1.7c-0.1-1.2-1-1.4-2-1.4c-2.1,0-4.2,0.2-6.2,0.5c-3.4,0.4-6.8-0.1-10.1,0.6c-10.3,0.3-20.6,0.7-31,0.5
			c-3.7-0.1-3.7,0-3.7,3.7c0,20.4,0,40.8,0,61.3c0,1.4-0.2,2.8,0.9,3.9c0.3,0.3,0.3,0.8,0.1,1.1c-0.9,1.4-0.6,2.9-0.6,4.4
			c-0.1,7.5,0,15.1,0,22.6c0,1.6,0.3,2.9,1.4,4.1c1.6,2,2.3,4.5,2.8,7c1.5,7.8,2,15.7,2.6,23.6c0.7,9.4,0.7,18.8,1.5,28.2
			c0.2,2.9,0.3,5.9,0.3,8.8c0.2,9.1,1.1,18.2,0.9,27.2c0.4,2.4-1.8,3.6-2.8,5.7c-0.9-2.4,0.1-4.6-0.6-6.7c-0.3-6.7-0.6-13.3-0.9-20
			c-0.9-18.7-1.4-37.5-3.2-56.2c-0.4-4.6-0.8-9.3-2.4-13.7c-0.2-0.6-0.3-1.5-1-1.6c-0.9,0-0.9,1-1.1,1.6c-1.2,3.5-1.8,7.1-2.1,10.7
			c-2.2,24.6-2.9,49.2-4,73.9c-0.1,2.8-0.3,5.6-0.4,8.4c-0.6,2.4-0.1,4.8-0.3,7.2c0,0.5,0.3,1.2-0.3,1.4c-0.6,0.3-1.1-0.3-1.5-0.7
			c-0.8-0.7-1.2-1.7-1.2-2.8c0-1.2,0-2.5-0.1-3.7c-0.1-10.1,0.6-20.1,1.1-30.2c0.1-2.9,0.3-5.9,0.3-8.8c0.2-8.8,0.8-17.6,1.3-26.4
			c0.4-7.8,0.9-15.7,2.2-23.4c0.7-4,1.2-8.1,4.3-11.1c0.6-0.6,0.5-1.5,0.5-2.2c-0.1-7.2,0.3-14.4-0.3-21.6c-0.3-3.6,0-7.3,0-11
			c0-20.8,0-41.6,0-62.4c0-0.9-0.1-1.8,0.1-2.7c0-0.2,0.1-0.5,0.2-0.7c0.8-0.6,1.1-1.3,1-2.3c-0.1-4.1,0-8.3,0-12.4
			c0,4.1,0,8.2,0,12.3c0,0.6,0.5,1.7-0.9,1.6c-0.6-0.8-0.4-1.6-0.4-2.5c0-4.6,0-9.1,0-13.7c0-1.5-0.5-2.2-2-2.1
			c-1.9,0.1-3.8,0-5.7,0c-4.9-0.1-9.8,0.4-14.6-0.4c-1.7-0.2-3.4,0-5.1,0c-8.3-0.1-16.5-0.8-24.7-1.2c-0.2,0-0.4,0-0.6-0.1
			c-0.6-0.2-0.9-0.6-1.3-1c-0.6,0-0.8,1.2-1.6,0.6c-0.4-0.5-0.4-1.2-0.9-1.6c-1.1-0.6-2.6,0.2-3.6-0.8c-0.7-0.3-0.9-1-1.2-1.6
			c0.3-0.3,0.6-0.5,1-0.5c2.6,0.3,5.3,0,7.8,0.9c1.3,2.1,3,3.1,5.5,2.4c0.3-0.1,0.7-0.1,1,0c1.9,1,3.2,0.5,4-1.5
			c0.4-0.1,0.9-0.1,1.2,0.2c1.1,1.7,2.7,2.5,4.7,2.2c3.9-0.5,7.7,0.7,11.7,0.4c2.1-0.1,4.2,0.1,6.2-0.6c0.9-0.3,1.8-0.2,2.7,0.2
			c1.5,0.8,3.1,0.9,4.8,0.8c4.3-0.2,8.7,0.2,13.1-0.5c2.3-0.4,4.9-0.4,7.1,1.1c-0.6,1.4-1.9,0.9-2.9,0.9c-3.7,0-3.7,0-3.7,3.6
			c0,4,0,8,0,12c0,0.7-0.2,1.5,0.5,2c0.5,1.1,1.1,0.8,1.7,0c2.2-0.6,4.4-0.2,6.6-0.2c4.6,0,9.1-0.3,13.7,0.1
			c2.3,1.2,4.9,0.4,6.9,0.8c-0.9,0-0.9,0-1.8-0.6c2-1.3,4.1-0.6,6.2-0.6c1.2,0.7,2.4,0.8,4,0.8c-0.6-0.1-0.8-0.2-0.8-0.6
			c0.3-0.4,0.7-0.6,1.2-0.6c3.1,0.3,6.2-0.8,9.3-0.3c0.2,0,0.4,0.1,0.5,0.2c0.7,0.8,0.8,0.1,1-0.4c0.4-0.2,0.9-0.3,1.3-0.3
			c2.5-0.2,2.5-0.2,2.5-2.8c0-4.2-0.1-8.4,0-12.5c0-1.5-0.5-2.2-2-2.1c-5.6,0.6-11.3,0.6-17,1.1c-1.9,0.2-3.8,0-5.7,0
			c-5.9,0.1-11.7,0.6-17.6,0.4c-1,0-2.1,0.2-2.9-0.8c0.6-1.1,1.7-0.8,2.6-0.8c1.6-0.1,3.2,0,4.7-0.9c1.2-0.7,2.7-0.4,4-0.1
			c4.2,0.8,8.4,0.9,12.6,0c1.7-0.4,3.3,0.2,5,0.2c2.1,0,3.7-0.7,4.8-2.4C297.3,9.8,298.8,9.5,300.3,10.5z"/>
		<path class="st2" d="M260.7,230.4c1,1.9,0.1,3.9,0.7,5.9c-0.4-2.2,3.1-2.5,2.2-4.9c0.7,0.2,0.9,0.8,0.9,1.4
			c-0.1,6.4,0.9,12.8,0.3,19.3c-0.1,0.3-0.3,0.8-0.5,0.7c-2-0.5-1.8,0.8-1.8,2c0,0.8-0.1,1.7,0.1,2.5c0.8-0.2,1.5-1.4,2.3-0.2
			c0.7,3.1,0.7,6.4,0.8,9.5c0.1,10.7,0.7,21.4,0.9,32.2c0.2,9,0.5,17.9,0.8,26.9c0.3,11.3,0.5,22.6,0.8,33.9
			c0.3,10.2,0.7,20.4,0.7,30.6c0,1,0.1,2.1-0.2,3.1c-0.1,0.4-0.3,0.7-0.5,1c-0.6,0.6-1.2,1.6-2,1.4c-1-0.2-0.3-1.3-0.5-2
			c-0.1-0.3,0-0.5-0.3-0.7c-0.2-8.6-0.5-17.3-0.7-25.9c-1-35.1-2-70.2-3-105.4c-0.1-3.8-0.5-7.5-0.2-11.3c2.1-0.5,2.2-0.6,1.5-2.8
			c-0.4-1.2,0.4-2.1,0.4-3c-1.9,1.5-0.8,4-1.9,5.9C260.9,243.9,260.7,237.2,260.7,230.4z"/>
		<path class="st3" d="M243.9,280.9c0.2,4.5-0.2,9-0.3,13.5c-0.7,28.5-1.5,57-2.3,85.5c-0.2,5.9-0.4,11.7-0.5,17.6
			c-0.8-0.6-0.6-1.5-0.6-2.4c0-2.4-0.1-4.8,0-7.2c0.1-2-0.3-3.6-2-4.7c-0.4-0.9-0.4-1.8-0.4-2.7c-0.3-10.1,0.3-20.3,0.5-30.4
			c0.2-9.7,0.5-19.3,0.8-29c0.2-8.8,0.5-17.6,0.8-26.4c0.1-4,0.3-8,0.3-12c0-0.8,0-1.6,0.4-2.3c0.6-0.8,1.4-1.5,2.2-2.1
			c0.9-0.6,1.4-0.5,1.3,0.7C244,279.7,244.1,280.3,243.9,280.9z"/>
		<path class="st4" d="M346.3,52.1c1.1,6.1,1.6,12.3,2.3,18.5c3.1,29.1,3.8,58.2,4.2,87.4c0.5,41.4,1,82.8,1.5,124.3
			c0.1,10.5,0.2,20.9,0.3,31.4c0.3,2.4,0.1,4.8,0.1,7.2c0,0.5,0.4,1.3-0.5,1.4c-0.6,0.1-1-0.5-1.1-1.2c0.3-1.2,0.3-2.5,0.3-3.7
			c0-7.1,0.3-14.1-0.1-21.2c-0.6-11,0.2-22.1-0.4-33.1c-0.5-10.4,0.1-20.8-0.4-31.2c-0.6-12.2,0-24.5-0.4-36.7
			c-0.2-5.8-0.2-11.5-0.3-17.2c0-0.4,0.2-0.8-0.3-1.1c-1,1.1-0.7,2.4-0.8,3.7c-0.2,1.9,0.5,3.9-0.6,5.8c-1.1-0.1-0.9-1-1-1.6
			c-0.2-5.6-0.2-11.3,0-16.9c0.1-0.9,0.8-1.5,1.3-2.1c0.6-0.6,1.1-1.3,1-2.4c-0.7-0.3-1.6,1.6-2.2-0.1c-1-4.9-0.4-9.8-0.5-14.7
			c0-1.4-0.4-2.9,0.4-4.2c1.4,0.1,1.1,1.2,1.1,2c0.1,2.9,0,5.8,0,8.6c0,0.6-0.1,1.3,0.2,2.1c0.9-0.5,1-1.3,0.9-2.1
			c-0.2-5.1,0.6-10.3-0.5-15.4c-0.3-1.3,0.2-2.7,0.2-4.1c0-10.4-0.6-20.8-1.1-31.1c-0.6-10.8-1.3-21.7-2.4-32.4
			c-0.5-5.3-1.1-10.5-1.7-15.8c-0.2-1.3-0.5-2.6-0.2-3.9C345.8,52,346,52,346.3,52.1z"/>
		<path class="st3" d="M238.3,383.2c1.8,0.2,2.5,1.1,2.5,2.9c-0.1,3.8,0,7.6,0,11.3c-0.1,8-0.3,15.9-0.4,23.9c-0.1,4-0.1,8-0.2,11.9
			c0,0.6-0.1,1.3-0.2,1.9c0-2.9,0-5.8,0-8.6c0-0.5,0.2-1.2-0.5-1.3c-0.7-0.1-0.4,0.7-0.7,1c-1.3,1-1.2,2.4-1.1,3.7
			c0.2,2.4-0.6,5,0.6,7.3c0,0.1,0,0.3,0,0.4c-1.9,4.3-0.6,8.8-1,13.1c-0.1,1.8,0,3.5,0,5.3c0,0.6-0.1,1.1,0.4,1.7
			c0.9,1.1,0.4,1.9-0.8,2.4c-0.7-0.9-0.5-2-0.6-3c-0.3-10.4,0.4-20.8,0.4-31.1c0-7.4,0.5-14.7,0.3-22.1c0-1.2-0.1-2.4,0.6-3.4
			c0.3-0.5,0.6-0.8,0.5-1.5c-0.5-5-0.3-10.1-0.1-15.2C238,383.6,238.1,383.4,238.3,383.2z"/>
		<path class="st5" d="M243.9,280.9c0-0.9,0-1.8,0-3c-1.1,1-1.9,1.7-2.8,2.4c-0.6-0.5-0.6-1.3-0.6-2c0-2.9-0.3-5.9,0.1-8.8
			c0.6-5,0.4-10.1,0.6-15.1c0.3-5.6,0.7-11.2,0.5-16.8c0-0.9-0.2-2,0.9-2.6c0,1,0.1,2,0,2.9c-0.2,1.8,0.5,3.1,2.4,4.1
			c0-2.3,0-4.4,0-6.5c0-0.7-0.3-1.5,0.4-2c-0.2,6.9-0.4,13.8-0.6,20.7c-0.3,8.4-0.5,16.8-0.8,25.3C244,280,243.9,280.5,243.9,280.9z
			"/>
		<path class="st6" d="M338.3,10.5c0.8,0.5,0.5,1.3,0.5,1.9c0,3.1,0,6.1,0,9.2c0,0.6-0.4,1.5,0.5,1.6c0.8,0,1.6-0.6,1.8-1.6
			c0.1-0.9,0-1.8,0.1-2.7c0-2.5-0.1-5,0-7.4c0.1-2.2-0.3-4.1-1.6-5.8c1.5,0.3,1.9,1.3,1.9,2.7c0,5.9,0,11.7,0.2,17.6
			c0.1,4.1,1.6,8,2.3,12.1c0.3,1.4-0.2,2.9,0.7,4.2c0.3,1.5-0.7,2.1-1.7,2.7c-0.8,0.5-1.1-0.3-1.4-0.9c-0.9-4.1-1.6-8.2-2.6-12.2
			c-0.7-2.8-0.8-2.9-3.5-2.4c-3,0.6-6,1.4-9,1.5c-1.4-0.1-1.8-0.7-0.9-1.9c0.2-0.3,0.5-0.4,0.8-0.5c1.5-0.2,2.9-0.4,4.4-0.8
			c1.3-0.2,2.6-0.4,3.8-0.7c2.8-0.5,3.4-1.4,3.4-4.2c-0.1-3.3,0-6.6,0-9.9C337.8,12.1,337.7,11.2,338.3,10.5z"/>
		<path class="st7" d="M353.2,321.2c0.2,0.4,0.5,0.7,1.3,1c0-2.9,0-5.7,0-8.5c0.5,4.2,0.2,8.3,0.3,12.5c0.2,17.6,0.4,35.2,0.6,52.8
			c0,0.5-0.1,1-0.1,1.5c-0.7-0.6-0.4-1.5-0.4-2.2c-0.1-9.1,0-18.3-0.2-27.4c-0.1-6.3-0.2-12.7-0.3-19c0-0.3,0-0.6-0.1-1.1
			c-1.7,1-2.3,2.2-2.3,4.1c0.1,4.6,0.3,9.3,0,13.9c-0.8-0.2-0.9-0.9-0.9-1.6c0.1-6-0.3-12.1,0.1-18.1c0.1-0.4,0.2-0.8,0.7-0.8
			c1.9-0.1,2.6-1.4,1.6-3.1c-0.6-1-1.6-1.5-2.1-2.6c-0.2-0.8-0.3-1.6,0.1-2.4C352.7,319.5,352.9,320.4,353.2,321.2z"/>
		<path class="st8" d="M265.4,393.1c0.8,0.6,0.2,1.6,0.6,2.5c1-0.2,1.3-1.3,2.2-1.7c0.9,0.4,1,1.2,1,2c0.1,4.4,0.1,8.9,0,13.3
			c0,0.6-0.1,1.2-0.5,1.6c-0.6-1.2-1.1-2.6-2.7-3.3c-0.1,1-0.1,2-0.2,3C265.4,404.7,265.3,398.9,265.4,393.1z"/>
		<path class="st9" d="M341.9,44.2c0.7,1,1.1,0.2,1.6-0.3c0.5-0.5,1-1,1.2-1.7c0.6,3.3,1.3,6.5,1.6,9.9c-0.1,0-0.3,0-0.4,0
			c-0.8-0.8-1,0.1-1.4,0.4c-0.5,0.4-0.4,1.5-1.4,1.1c-0.8-2.8-0.9-5.6-1.4-8.5C341.5,44.8,341.7,44.5,341.9,44.2z"/>
		<path class="st0" d="M242.6,235c-0.3,6.9-0.6,13.8-0.9,20.7c-0.3,7.5-0.5,15-0.8,22.5c0,0.7,0.1,1.4,0.1,2.1
			c-0.5,0.6-0.2,1.3-0.3,1.9c-1,31.7-1.9,63.3-2.6,95c0,2,0,4,0,6.1l0,0.1l0.1,0.1c-0.4,5.2-0.2,10.3-0.1,15.5
			c0,0.6,0.1,1.2-0.3,1.6c-0.2,5.9-0.4,11.9-0.5,17.8c-0.3,13.3-0.5,26.5-0.8,39.8c0,0.7,0.1,1.4,0.1,2.1c-0.2,7.5-0.4,15-0.5,22.6
			c-0.1,5.4,0,10.7-0.3,16.1c-0.2,2.4,0,4.9,0,7.3c0,1.8-0.3,2.4-2.3,2.4c-15.5-0.6-31.1-1-46.6-1.5c-10.9-0.4-21.8-0.8-32.7-1.1
			c-1.3,0-1.7-0.4-1.6-1.7c0.1-0.8,0.2-1.7,0-2.5c-0.4-1.5,0.7-2.2,1.4-3.2c-1.8-0.5-1.2-2-1.2-3.2c0-2.4,0.1-4.7,0.1-7.1
			c1-88.4,2-176.9,3.1-265.3c0.5-38.3,0.6-76.6,2.1-114.9c0.2-5,0.6-10,0.9-15.1c0.1-1.1,0.5-2,0.9-2.9c3.6-6.7,7.2-13.4,10.8-20.1
			c0.3-0.6,0.6-1.3,0.9-1.9c0.4-2,1.7-3.5,2.5-5.2c0.4-0.8,0.8-1.5,1-2.3c1.7-2.8,3.3-5.7,4.8-8.6c0.5-0.8,0.9-1.6,1.2-2.5
			c1.5-2.1,2.3-4.5,3.6-6.6c1.1-1.9,2.2-3.7,3.1-5.7c0.6-1.3,1.5-1.8,3-1.6c1.9,0.3,3.9,0.1,5.9,0.2c0.8,0,1.4-0.2,1.5-1.1
			c0.2-1.2,1-1.6,2.1-1.6c5.9,0.5,11.8,0.6,17.7,1.1c0.7,0.1,1.4,0,2.1,0c9.7,0,19.4,0,29.1,0c1,0,2-0.2,2.8,0.6
			c0,0.8,0.1,1.6,0.1,2.3c0,21.2,0.1,42.4,0.1,63.6c0,10.9,0,21.8,0.1,32.7c0,1.1,0,2-1.2,2.6c-0.9,0.5-1.3,1.6-1.7,2.6
			c-2,5.5-2.6,11.2-3.1,16.9c-1.9,22.5-2.4,45.1-3.5,67.6C242.7,227.2,242.7,231.1,242.6,235z"/>
		<path class="st0" d="M170,68.2c-3.4,6.2-6.8,12.5-10.1,18.7c-0.1,0-0.3-0.1-0.4-0.1c0.1-1,0.1-2,0.2-3c1.5-17.6,3.4-35.1,7.2-52.4
			c0.7-3.1,0.2-2.9,3.3-2.2c6.2,1.4,12.4,2.6,18.6,3.3c0.7,0.7,0,1.3-0.2,1.9c-1.2,2.9-3,5.5-4.4,8.3c-1,2-2.2,3.9-3.2,5.9
			c-0.5,0.8-0.8,1.6-1.2,2.5c-2.2,3.7-4,7.6-6.2,11.3C172.4,64.4,171.5,66.4,170,68.2z"/>
		<path class="st0" d="M190.5,6.6C240,2.6,297,4.4,327.2,7.5c-1.5,0.3-2.7,0.5-4,0.7c-0.6,0.1-1.1,0.3-1.5-0.4
			c-0.3-0.4-1-0.5-1.2-0.2c-2.1,2.5-5,1.2-7.5,1.8c-2.7,0.1-5.3,0.2-7.9,0.6c-3.3,0.5-6.7-0.2-9.8,1c-0.2,0.1-0.5,0.1-0.8,0.1
			c-4.2-0.2-8.5,0.3-12.7,0.5c-15.4,0.5-30.8,0.4-46.2,0.3c-7.8-0.1-15.6-0.2-23.4-0.8c-3.8-0.3-7.7-0.1-11.5-0.8
			c-3.5-0.6-6.9-1-10.4-1.1c-0.5,0-0.8-0.3-1.2-0.5c-0.3-0.3-0.4-0.6-0.3-1C188.8,6.4,189.9,7,190.5,6.6z"/>
		<path class="st0" d="M175.2,10c4.7,1,9.5,1.5,14.3,2.1c-0.1,0.6-1.9,1.1-0.2,1.8c0.6,0.3,0.4,0.9,0.4,1.4c0,4.1,0,8.1-0.1,12.2
			c0,0.5,0.2,1.2-0.3,1.5c-1.4,0.7-0.6,1.2,0.2,1.8c-7.4-0.6-14.5-2.1-21.7-3.6c0.3-0.7,2-1,0.4-1.8c-0.7-0.3-0.4-1-0.4-1.6
			c0-4,0.1-8,0.2-12c0-0.6-0.1-1.2,0.7-1.6c0.6-0.3,0-0.8-0.4-1.2c1,0.1,2,0.2,2.9,0.3c1.1-0.1,1.3,0.9,2,1.4
			C174,11.4,174.1,9.1,175.2,10z"/>
		<path class="st0" d="M338.3,10.5c0.1,4.4,0.2,8.9,0.3,13.3c0,0.4,0.2,1-0.3,1.2c-1.3,0.6-0.1,1,0.1,1.7c-2.6,0.7-5.1,1.3-7.7,1.5
			c-0.6,0.2-1.1,0.2-1.7,0c-0.7-0.6-1.4-1.1-2.1,0c-0.1,0.3-0.4,0.5-0.7,0.7c-0.1,0.1-0.3,0.2-0.4,0.4c-0.6,0.4-1.2,0.6-1.8,0.5
			c-0.6,0-1.2-0.2-1.7-0.6c-0.3-0.3,0.5-0.7-0.1-0.9c-0.4-0.1-0.5,0.4-0.6,0.7c-0.1,0.2-0.3,0.4-0.5,0.6c-1.3,0.6-2.8,0.5-4.2,0.6
			c0-0.8,2.1-1.3,0.1-2c-0.2-0.1-0.3-0.6-0.3-0.9c0-4.4-0.1-8.7-0.1-13.1c0-0.2,0.2-0.5,0.3-0.7c0.4,0,0.8,0.1,1-0.4
			c0.3-0.9-1-0.4-1-1.1c3-0.4,6-0.9,8.9-1.3c0.5-0.4,1.1-0.2,1.7-0.2c1,0,0.7,0.5,0.2,1.1c1-0.3,0.6-1,0.8-1.4c3-0.5,6.1-1,9.3-1.5
			C337.9,9.4,337.3,10.3,338.3,10.5z"/>
		<path class="st10" d="M313.6,34.7c-0.8,0-1.5,0.1-2.3,0.1c-1.3,0.1-1.1-1.4-2.1-1.7c-0.2-1.2-0.1-2.5,0-3.7c1-0.6,0.7-1.1,0-1.7
			c-0.2-1.2-0.1-2.5-0.1-3.7c0.8-0.5,0.9-1.1,0.1-1.7c0-1.4-0.7-2.8,0.5-4c0.4-0.4,0.1-0.8-0.2-1.2c-0.8-1.2-0.6-2.5-0.2-3.9
			c0-0.1,0.2-0.1,0.3,0c0.5,0.5,0.8,0.2,0.9-0.3c0.1-0.5,0-1.1,0.3-1.6c1.1-0.3,2.3-0.7,3.1,0.5c1.1,1.5,2,3.1,1,5
			c-0.4,0.6-0.3,1,0,1.7c0.6,1.3,1.1,2.8-0.1,4.1c-0.5,0.5-0.3,0.8,0.1,1.3c1.1,1.3,1,2.7,0.1,3.9c-0.6,0.8-0.4,1.1,0,1.8
			c0.9,1.4,0.5,3-0.5,3.9C314.1,33.8,314.1,34.5,313.6,34.7z"/>
		<path class="st11" d="M183.8,42.6c1.6-3.4,3.8-6.5,5.1-10.1c0.5,0,0.7,1,1.5,0.4c0.6-0.4,0.5-1,0.5-1.5c0-6,0-12.1,0.1-18.1
			c0-0.7-0.3-1.4,0.4-2c0.5-0.1,0.8,0.1,1.1,0.4c0.1,0.2,0.4,0.5,0.3,0.7c-1.3,2.2,0.2,4.6-0.6,6.9c0,0.1-0.1,0.3-0.1,0.4
			c1,2.8-0.7,5.7,0.5,8.5c0.2,0.5,0.3,1,0.2,1.5c-0.9,3-0.8,3.2,1.7,4.9c0.6,1.2,2.1,0.8,2.7,1.1c-0.3-0.2-0.5-1.2-1.6-1
			c-0.4-0.8-0.2-1.4,0.4-1.9c1.2-0.9,0.9-1.9,0.1-2.8c-0.8-0.9-0.8-1.7,0-2.5c0.9-1,1-2-0.1-2.9c-0.8-0.7-1.1-1.6-0.3-2.2
			c1.5-1.1,1-2.4,0.8-3.7c-0.1-0.6-0.1-1.2,0-1.8c0.5-1.3,0.1-2.5-0.4-3.7c0.8-0.1,0.6-0.8,0.8-1.3c0.4-0.9,0.7-0.4,0.9,0.1
			c0.7,3.3,0.1,6.7,0.3,9.4c0-1.7,0-4,0-6.4c0-0.6-0.2-1.3,0.4-1.8c0.1,0,0.3,0,0.4,0c0.7,0.9,0.6,2,0.6,3c0,4.3,0.1,8.6,0,13
			c-0.1,1.7,0.5,2.4,2.1,2.5c0.2,0.1,0.4,0.2,0.5,0.4c-0.1,1.3-1.6,0.8-2,1.6c-0.9,0-1.4,0.3-1.2,1.2c0.3,1.5-0.6,1.7-1.8,1.6
			c-2-0.1-4,0.1-5.9-0.3c-1.7-0.3-2.2,0.4-2.9,1.7c-0.9,1.9-1.9,3.8-3.2,5.6C184.6,43.1,184.1,43,183.8,42.6z"/>
		<path class="st12" d="M190.5,6.6c-0.4,0.6-1.2,0.1-1.6,0.8c-0.4,0.2-0.7,0.4,0,0.7c1.9,1.5,4.3,1,6.4,1.1
			c11.6,0.9,23.3,1.4,35,1.8c14.6,0.4,29.3,0.2,43.9,0.2c6.6,0,13.3-0.4,19.9-0.7c5.7-0.3,11.4-0.8,17.2-1.1c0.6,0,1.2,0,1.8,0.1
			c-3.8,0.8-7.7,0.6-11.5,1.1c-0.4,0-0.8,0.1-1.2,0.1c-1.5-0.1-2.9,0-4.3,0.3c-0.5,0.5-1.1,0.6-1.8,0.6c-2.2,0-4.3,0.3-6.5,0.4
			c-18.8,0.6-37.6,0.6-56.5,0.3c-6.3-0.1-12.5-0.2-18.8-0.7c-0.7-0.1-1.4-0.1-2-0.6c-0.4,0-0.8,0-1.2-0.1c-3.5,0.5-6.9,0.2-10.2-0.7
			c-3-0.3-6-0.5-9-0.8c-3.5-0.4-6.9-1.7-10.5-1.7C183.2,7,186.8,6.6,190.5,6.6z"/>
		<path class="st13" d="M314,33.2c0.4-0.4,1.6-0.1,1.2-1.2c-0.3-0.8,0.8-1.9-0.8-2.4c-0.9-0.3-0.9-1.5-0.1-2c1.3-0.8,1.2-2.6,0-3.4
			c-0.8-0.6-1-1.3,0-1.9c1.2-0.8,1.2-2.7,0.1-3.5c-1-0.6-0.9-1.7-0.2-2c1-0.4,0.7-1,0.9-1.6c0.6-1.6-1.3-1.8-1.4-3
			c-0.3-2.1-1.9-0.3-2.8-0.9c1.2-0.9,2.5-0.4,3.7-0.4c0.7,0,0.5,0.7,0.6,1.2c0.6,2.7,0.2,5.4,0.4,8.1c0,0.1,0,0.3,0,0.4
			c0.6,2.6,0.5,5.2,0,7.8c0,0.9,0,1.9,0,2.8c0.4,0.9,0.5,1.8,0,2.7c-0.1,0.5-0.3,0.8-0.9,0.8C313.7,34.7,314.2,33.8,314,33.2z"/>
		<path class="st14" d="M309.7,29.4c-0.7,1.3-0.8,2.6,0,3.8c0.5,0.6,0.5,1.2,0.2,1.9c-0.3,0.3-0.6,0.3-0.9,0c-0.2-8-0.1-16,0-23.9
			c1.3,0.2,0.7,1.2,0.8,1.9c-0.9,1.7-0.7,2.5,0.6,3.5c0.7,0.6,0.7,1.7,0,2c-2.1,1-1,2.3-0.6,3.6c0.4,0.6,0.5,1.1-0.1,1.6
			c-0.7,1.3-0.8,2.6,0.1,3.9C310.1,28.3,310.2,28.9,309.7,29.4z"/>
		<path class="st15" d="M170,68.2c0.7-2.1,1.9-4,3.1-5.9c1.1,0,1.1-1.8,2.4-1.5c-1,2.7-2.4,5.1-4,7.4
			C171.1,67.5,170.6,68.1,170,68.2z"/>
		<path class="st16" d="M175.2,10c-0.2,0.3-0.9-0.2-0.7,0.4c0.2,0.8-0.1,1.2-0.9,1c-0.5-0.1-1.7,0-1.4-0.9c0.4-1.2-0.7-0.8-1-1.3
			C172.6,9.3,173.9,9.5,175.2,10z"/>
		<path class="st17" d="M328.6,10.4c0.2,0.7,1.1,1.6-0.4,1.9c-0.5,0.1-1.2,0.4-1.5-0.4c-0.3-0.9,0.6-0.7,1.1-1
			c-0.7,0-1.3-0.1-1.9-0.1C326.7,10.3,327.6,10.4,328.6,10.4z"/>
		<path class="st18" d="M192.1,11.7c-0.3-0.1-0.5-0.3-0.8-0.4c0-0.1,0-0.3,0-0.4c1.4,0.2,2.9-0.5,4.3,0.4
			C194.4,12,193.3,11.8,192.1,11.7z"/>
		<path class="st0" d="M268.6,410.7c0-5.6,0.1-11.3-0.4-16.9c0.3-0.7,0.1-1.4,0.1-2.1c-1-42.3-1.9-84.7-3.5-127
			c-0.1-2.6,0.3-5.4-0.5-8c-0.2-1.3-0.3-2.6,0-4c0-7.1-0.3-14.2-0.8-21.3c-0.3-7.3-0.4-14.5-0.8-21.8c-0.8-17.2-1.3-34.4-2.6-51.6
			c-0.4-5.2-0.9-10.4-2.2-15.5c-0.6-2.6-1.2-5.4-3.7-7.1c-0.6-0.4-0.4-1.1-0.4-1.6c0-8.9,0-17.8-0.1-26.7c0-1.3,1.2-1.6,1.3-2.5
			c-1.6,0-1.3-1.2-1.3-2.1c0-14.3-0.1-28.5-0.1-42.8c0-7.7,0-15.4,0-23.2c0-0.9-0.1-1.8,1.3-1.8c11.3-0.1,22.6-0.3,33.9-0.5
			c0.5,0.3,1,0.3,1.5,0.1c1-0.5,1.9-0.1,2.8,0.4c2.2,1.2,4.5,1.4,6.8,0.4c1.6-0.7,3.2-0.4,4.8,0c0.9,0.3,1.6,0.8,1.6,1.8
			c0.1,1.4,0.8,1.4,1.9,1c0.7-0.3,1.5-0.2,2.3-0.2c2.4,0,2.5,0.5,3.2,2.7c1,2.8,1.2,5.4,0.8,8.3c-0.3,2.1,1.3,3.7,2.7,5
			c3.1,2.8,5.8,5.9,8.6,8.8c1.5,1.6,3.4,2.7,4.4,4.9c0.6,1.3,1.1,2.6,1.1,4.1c0,1.9,2.3,1.5,2.7,3c0.2,0.8,0.6,1.5,0.7,2.3
			c0.1,0.8,0.4,1.5,1.4,1.7c1.2,0.2,1.3,1.1,1.3,2.1c0.1,1.9-0.1,4,2.3,5c0.4,0.2,0.6,0.7,0.7,1.1c0.3,1.1,0.7,1.8,1.9,2.3
			c1.3,0.5,1.4,1.9,1.5,3c0.1,1.7,0.4,3.1,2.5,3.2c1,0.1,1.1,1.1,0.7,1.8c-0.6,1.1-0.4,1.9,0.3,2.9c0.8,1.4,0.8,2.9,0.1,4.3
			c-0.5,1-0.4,1.8,0.1,2.8c1,1.7,1.1,3.5,0.1,5.2c-0.5,0.8-0.5,1.7-0.5,2.7c0,7.2,0,14.4,0,21.6c0,2.1,0.6,4.1,1.6,6
			c0.3,0.7,0.6,1.3,0.4,2c-0.6,2.9-0.2,5.9-0.2,8.8c0.1,3.1,0.7,6.9-3.3,8.8c-1.1,0.5-1.4,2-2,3.1c-0.4,0.6-0.6,1.5-1.3,1.7
			c-2.4,0.7-3.9,2.7-5.7,4.3c-0.6,0.5-1.2,1.1-1.4,1.8c-0.3,1.2-1.1,1.9-2.1,2.5c-2.3,1.4-4.5,3-5.5,5.7c-0.2,0.7-0.8,1-1.4,1.3
			c-2,0.9-3.4,2.4-4.6,4.2c-0.6,0.9-1.4,1.6-2.2,2.3c-1.4,1.1-1.9,2.4-1.1,4.1c0.7,1.7,0.3,2.3-1.4,2.2c-3.3-0.3-5.7,1-7.4,3.8
			c-0.1,0.2-0.3,0.3-0.4,0.4c-3.2,3.1-3.4,4.5-1.3,8.2c1,1.8,2.3,3.5,4.2,4.6c1.8,1,3.3,1.1,4.8-0.3c2.4-2.3,4.8-4.6,7-7.1
			c0.8-0.9,1.5-2,1.4-3.4c-0.1-0.8,0.2-1.3,1.1-1.2c2.4,0.4,3.8-1.1,5.1-2.6c2.6-2.9,5.1-6,8.2-8.4c1.2-1,2.4-2.2,3.1-3.5
			c0.9-1.9,2.8-2.5,4.4-3.4c0.6-0.4,1.1-0.2,1.4,0.5c0.9,1.8,1.2,3.7,0.6,5.7c-0.9,2.8-1.2,5.5,0.4,8.1c0.4,0.6,0.4,1.4,0.4,2.1
			c0,5.4,0,10.9,0,16.3c0,0.9-0.2,1.7-0.5,2.5c-0.9,2.8-1.3,5.6,0.5,8.3c0.5,0.7,0.4,1.5,0.4,2.3c0,5.7,0,11.4,0,17.1
			c0,1-0.2,1.9-0.5,2.9c-0.9,2.8-1.2,5.6,0.5,8.3c0.5,0.8,0.4,1.6,0.4,2.5c0,6.1,0,12.2,0,18.3c0,1-0.2,1.9-0.5,2.9
			c-0.9,2.9-1.2,5.8,0.4,8.5c0.5,0.8,0.4,1.6,0.4,2.5c-0.1,4.6,0.2,9.3-0.2,13.9c-0.1,1.1,0.1,2.3,0.2,3.5c0.1,2.1-1,3.8-1.4,5.7
			c-0.3,1.2-1.2,0.5-1.7,0.1c-1.1-1.1-2.3-2.1-3.7-2.9c-1.4-0.9-2.8-1.2-4.5-1c-1.8,0.2-3.6-0.2-5.4-0.7c-2.3-0.6-4.6-0.7-6.7,1.3
			c-4,4-8,8.1-12,12.1c-2.4,2.4-3.1,5.1-1.6,8.2c0.7,1.3,0.7,2.6,0.3,4c-0.8,3.2,0.6,5.5,2.8,7.7c2.7,2.6,5.5,5,8,7.7
			c2.9,3.2,6.9,3.2,9.9,0.2c2.5-2.5,5.2-4.8,7.6-7.3c1.8-1.9,3.7-3.7,5.5-5.6c0.5-0.5,0.9-1,1.5-1.3c0.8-0.5,1.2-0.4,1.2,0.7
			c0,3.2,0.2,6.4-0.5,9.5c-0.6,2.8-0.4,5.6,0.5,8.3c0.7,2,0.7,4.1-0.1,6.1c-0.5,1.3-0.1,2.5,0.1,3.7c0.7,3.7,0.6,7.4,0.2,11.1
			c-0.3,2.9-0.7,5.8-0.7,8.7c0,1.1,0.1,2.1,0.7,3c0.5,0.7,0.6,1.6,0.5,2.5c-0.2,2.9-0.3,5.9-0.2,8.8c0.1,3.6-0.2,7.2,0.3,10.7
			c0.1,0.7-0.1,1.4-0.3,2.1c-1,3.2-1.1,6.4,0.2,9.6c0.5,1.3,0.6,2.5,0,3.8c-0.6,1.2-0.4,2.3,0,3.7c0.6,2.2,0.6,4.6,0.3,7
			c-0.1,0.8-0.4,1.5,0,2.3c0.1,0.2,0.1,0.4,0.1,0.6c-1.4,2.7-1.2,6-2.8,8.7c-0.4,0.7-0.9,1.4-1.6,1.9c-1.9,1.5-3.4,3.3-4.2,5.6
			c-0.3,0.9-0.9,1.4-1.7,1.7c-2.9,1.2-5,3.4-6.6,6.1c-0.3,0.5-0.5,0.9-1,1.2c-2.9,1.4-5,3.7-6.7,6.4c-0.6,1-1.8,1.4-2.7,2.3
			c-1.9,1.8-3.5,3.9-5.5,5.6c-1.1,1-1.3,2.1-0.5,3.5c0.8,1.4,0.4,2-1.2,2c-0.5,0-0.9-0.1-1.4-0.2c-1.9-0.4-3.5,0-4.5,1.9
			c-0.4,0.8-1.1,1.5-1.8,2c-2.8,2.2-2.9,5.1-2,8.2c0.7,2.5,0.5,2.7-2,2.4c-1.9-0.2-3.8,0-5.6-0.1c-2.6-0.1-5.2,0.9-8-0.3
			c-2.4-1-5.3,0-7.9,0.7c-0.4,0.1-0.9,0.6-1.3,0.4c-1.8-1-2.8,0.1-3.9,1.2c-0.8,0.7-1.9,0.7-3,1c-0.6,0.1-1.3,0.2-1.9,0
			c-2.5-1-2.9-1.4-2.9-4c0-2.2-0.1-4.3-1.3-6.2c-0.5-0.7-0.3-1.7-0.3-2.5c0-2.1,0-4.2,0-6.3c0-1.1,0-2.1,0.6-3
			c0.5-0.8,0.7-1.7,0.2-2.4c-1.1-1.7-0.9-3.7-1.2-5.5c-0.1-0.3-0.1-0.7-0.1-1c1.1-4-0.5-8,0-12c0.1-0.8,0.1-1.7,0.4-2.5
			c0.4-1,0.3-2.1-0.2-3c-0.9-1.6-1.1-3.2,0.3-4.6c0.2-0.3,0.5-0.7,0.2-0.9c-2-1.5-0.7-3.6-0.9-5.4c-0.3-2.3-0.5-4.7,0.5-7
			c0.4-1,0-2.1-0.8-2.8c-0.2-5.9-0.3-11.8-0.5-17.7C268.7,413.1,268.6,411.9,268.6,410.7z"/>
		<path class="st0" d="M269.3,432c1.7,0.7,2,2.2,1.2,3.7c-1.2,2.5-1.4,5,0,7.5c0.2,0.4,0.4,0.7,0,1c-1.1,0.9-1.1,1.4,0.3,2.1
			c1.3,0.7,1.1,1.7-0.1,2.4c-1.6,0.9-1.3,2.2-0.5,3.2c1.1,1.6,1.5,3,0.3,4.6c-0.3,0.5-0.4,1-0.4,1.5c0.4,2.7-0.9,5.7,1.1,8.3
			c0.4,0.5,0.2,1.6-0.4,2.2c-0.7,0.6-0.8,1.4-0.6,2.2c0.3,1.1,1.2,2,0.1,3.2c-0.3,0.3,0.4,0.6,0.6,0.8c1.2,1.3,1.5,3.6,0.5,4.8
			c-0.8,0.9-1,1.8-0.9,2.9c0,0.5,0,1.1,0,1.6c0.3,2.7-0.8,5.6,1.4,8.2c0.9,1.1,0.8,3.1,0.5,4.8c-0.3,2,0.4,3.3,2.4,3.8
			c0.6,1,1.3,0.7,2,0c1.5-0.7,3.4-0.6,4.1-2.8c0.2-0.8,1.2-0.3,1.8,0.2c0.6,0.6,1,0.6,1.8,0c1.4-1.1,3.4-0.5,5.1-0.9
			c1.9-0.4,3.8-0.5,5.5,1c0.1,0.1,0.4,0.2,0.5,0.1c1.6-1.2,3.6-0.1,5.1-0.5c2.3-0.7,4.4-0.2,6.6,0.2c0.4,0.1,0.7,0.4,1-0.1
			c0.2-0.3,0-0.6-0.1-0.9c-0.4-1-0.8-1.9-0.9-3c-0.3-2.7,0.3-5,2.6-6.7c1-0.7,1.8-1.6,2.3-2.9c0.4-1,1.4-1.3,2.4-1.4
			c1-0.1,1.9,0.2,2.9,0.4c0.5,0.1,1.3,0.3,1.6-0.2c0.4-0.6-0.4-0.9-0.6-1.3c-0.9-1.2-0.9-2.4,0.2-3.4c2.9-2.4,5.2-5.4,8.1-7.8
			c1.8-1.5,2.8-4.1,4.9-5.3c3.1-1.8,4.5-5.1,7.1-7.1c0.3-0.2,0.5-0.5,0.8-0.6c3.3-0.9,4.3-3.8,5.9-6.2c0.5-0.7,1.1-1.4,1.8-1.8
			c2.1-1.3,2.7-3.4,3.2-5.6c0.1-0.5,0.2-1,0.6-1.4c0.6-0.6,0.7-1.1-0.1-1.6c-0.5-0.3-0.7-1.2-0.3-1.3c2-0.3,0.8-1.7,1.2-2.5
			c0.9-2.3,0.4-4.3,0.2-6.5c-0.1-0.7-0.1-1.3-0.7-2c-0.8-1-0.4-2.6,0.4-3.6c0.8-0.9,0.8-1.9,0.4-2.7c-1.9-3.1-1.7-6.4-0.9-9.6
			c0.6-2.1,0.8-4.2,0.7-6.4c-0.1-2.4,0.6-4.8-0.6-7.1c-0.4-0.7,0.7-1.4,0.7-2.3c-0.1-2.3,0-4.6,0-6.9c0-0.4,0-0.9-0.2-1.1
			c-2.7-3.3-1.2-7.1-1.2-10.6c0-1.3,1.5-2.8,1-4.4c-0.7-2.2,0.3-4.3,0-6.4c-0.2-1.5-0.6-3-1-4.5c-0.1-0.6-0.3-1.2,0.1-1.7
			c1.6-2,1.1-4,0.2-6.1c-1.3-3.1-1.2-6.3-0.3-9.4c0.8-3,0.6-6,0.5-9.1c-2,2.2-4.7,3.6-6.2,6.2c-0.4,0.7-1.1,0.9-1.6,1.4
			c-2.7,2.7-5.6,5.1-8,7.9c-1.1,1.3-5.3,1.7-7.2,0.9c-2.4-1-3.5-3.4-5.5-4.9c-2.3-1.6-4.1-3.8-6.1-5.7c-2.1-2-3.2-4.9-2-8.1
			c0.4-1,0.2-1.9-0.3-2.8c-1.8-3.6-1.2-6.1,1.5-9.1c3.1-3.3,6.6-6.2,9.4-9.7c1.1-1.4,2.5-2.7,4.1-3.6c1.7-1,3.9-0.9,5.7-0.2
			c1.7,0.7,3.3,0.9,5,0.6c3.1-0.5,5.3,1.2,7.5,3c0.7,0.6,1.2,1.3,2,2.2c2.4-8.5,1-16.8,1.4-25c0.1-1-0.8-1.4-1.1-2.2
			c-0.8-2.6-0.7-5.3,0.2-7.9c0.3-0.8,0.5-1.6,0.5-2.4c0-6.2,0-12.4,0-18.7c0-1.1-0.3-1.9-0.8-2.9c-1.4-2.6-1-5.3-0.1-8
			c0.3-1,0.5-1.9,0.5-2.9c0-5.6,0-11.3,0-16.9c0-1-0.4-1.9-0.9-2.8c-1.3-2.5-1.1-5.3,0-7.9c0.3-0.8,0.5-1.4,0.5-2.2
			c0-5.5,0-11,0-16.5c0-0.6,0.1-1.3-0.4-1.9c-1.9-2.5-1.4-5.2-0.7-7.8c0.6-1.9,1.4-3.8-0.4-5.5c-0.2-0.1,0-0.6-0.2-1.1
			c-0.9,1.7-3.4,1-4.1,3c-0.3,0.9-0.8,1.5-1.4,2.1c-3,3-5.9,6-8.9,8.9c-1.3,1.3-2,2.9-3.7,3.9c-1.3,0.7-2.3,1.4-4,0.2
			c0.8,2.5-0.5,4.1-1.9,5.5c-1.9,1.9-3.8,3.8-5.7,5.7c-2.9,2.9-6,2.7-8.6-0.5c-1.6-2-2.6-4.3-3.7-6.5c-0.6-1.3,0.5-2.9,1.3-3.7
			c1.4-1.4,2.6-3,4-4.4c1.6-1.7,3.6-1.6,5.6-1.5c1.4,0.1,2.1-0.2,1.1-1.7c-1-1.6-0.8-3,0.7-4.1c1.6-1.1,2.5-2.8,3.7-4.2
			c2.3-2.4,5.5-3.8,6.8-7.1c0.3-0.8,1.6-1.3,2.4-1.9c1.5-1,3.2-1.8,3.3-3.9c0-0.6,0.7-0.7,1.1-1.1c2-1.6,3.5-3.8,6.2-4.5
			c0.3-0.1,0.4-0.6,0.6-1c1-1.7,1.5-3.6,3.5-4.7c1.4-0.8,2.8-2.2,1.5-4.3c-0.1-0.2-0.2-0.5-0.1-0.5c2.3-2.6-1-5.4,0.4-8.2
			c0.3-0.6-0.6-2.1,0.6-3c0.2-0.1,0.1-0.9-0.1-1.1c-2.6-3.4-2.2-7.3-2.2-11.2c0-6.1,0-12.2,0-18.3c0-0.7-0.1-1.4,0.4-2.1
			c1.3-1.7,1.1-3.4,0-5.1c-0.7-1-0.9-1.8-0.1-3c0.9-1.3,0.9-2.9-0.2-4.3c-0.8-0.9-1-1.7-0.1-2.8c0.8-0.9,0.6-1.7-0.7-1.5
			c-1.8,0.2-2.2-0.9-2.3-2.2c-0.1-1-0.2-2.1-0.4-3.1c-0.1-0.4-0.2-0.9-0.6-0.9c-2.1,0.1-2.1-1.4-2.5-2.8c-0.1-0.3-0.3-0.8-0.5-0.8
			c-3.3-0.7-2.3-3.5-2.5-5.5c-0.1-0.9-0.1-1.3-1-1.3c-1.2,0.1-1.4-0.6-1.6-1.7c-0.3-1.6-0.2-3.7-2.7-3.9c-0.8-0.1-0.8-0.9-0.8-1.6
			c0-3.4-1.4-6.1-4.3-8c-1.6-1.1-2.8-2.8-4-4.2c-2.2-2.5-4.7-4.5-6.8-6.9c-1.8-2.1-2.2-4.3-1.3-6.7c0.4-1.2,0.5-2.3-0.4-3.2
			c-0.7-0.8-0.7-1.8-0.7-2.8c0-1.3-0.5-2-1.9-1.9c-1.3,0.1-2.6-0.3-3.8,0.6c-0.6,0.4-1.6,0.3-1.6-0.7c0-0.9,0.4-2-0.7-2.3
			c-1.4-0.4-2.8-1.1-4.3-0.5c-1.2,0.5-2.4,1-3.8,0.9c-1.1-0.1-2.2-0.2-3.2-0.7c-1.2-0.5-2.3-2-4-0.6c-0.3,0.3-0.8-0.3-1-0.8
			c2.9-0.6,6-0.3,8.9-0.6c2.6-0.3,5.3-0.3,8-0.6c1.3-0.1,2,0.1,1.8,1.6c-0.2,1.3,0.3,1.7,1.6,1.6c2.4-0.2,4.8-0.1,7.2-0.4
			c1.6-0.5,1.6,1.1,2.3,1.8c3.7,6.7,7.3,13.4,10.9,20.2c1.1,2.1,1.8,4.3,3.3,6.2c4.5,8.3,9.1,16.6,13.7,24.9
			c0.9,1.6,1.2,3.4,1.4,5.2c0.5,6.3,0.5,12.5,1,18.8c0.3,3.5,0.3,7.1,0.4,10.6c0.1,6.1,0.4,12.1,0.5,18.2c0,0.9,0.2,1.9-0.5,2.6
			c-0.1,6.5,0,13.1,0.4,19.6c0.8,1,0.6,2.1,0,3.1c0.1,6.5-0.2,12.9,0.3,19.4c0.5,0.3,0.6,0.9,0.6,1.4c0.1,0.5,0.1,0.9,0.1,1.4
			c-0.3,16.7,0.4,33.5,0.5,50.2c0.1,11.9,0,23.8,0.4,35.7c0.4,10.3,0.1,20.7,0.3,31c0.1,3.7,0.6,7.3,0.4,11c0,1,0.1,2-0.6,2.8
			c0,0.9,0,1.8,0,2.8c0.8,1.8,0.9,3.7,0,5.5c0,6.8-0.2,13.7,0.3,20.5c0.2,20.2,0.4,40.4,0.6,60.6c0.2,14.1,0.4,28.3,0.5,42.4
			c0,0.6,0.1,1.2,0.1,1.8c0.6,0.9,0.6,1.8,0,2.8c0,4.2,0,8.5,0,12.7c0.1,9.1,0.2,18.2,0.3,27.3c0,0.7,0.4,1.6-0.7,2
			c-0.4,0.1-0.4,0.5-0.1,0.8c1.9,1.8,0.6,4.1,0.9,6.2c0.1,0.6-0.6,0.5-1,0.5c-4.1,0.2-8.2,0.5-12.3,0.3c-0.5-1.2,0.5-1.4,1.2-1.8
			c2-0.9,4.1-0.6,6.2-0.6c1.7,0.1,2.9-1,4.5-1.2c0.5,0,0.7-0.9,0.5-1.3c-0.3-0.7-0.8-0.2-1.1,0c-1.9,1-3.9,0.4-5.8,0.2
			c-1.3-0.1-2.8,0-3.7-0.3c-1.7-0.6-2.7-0.2-3.9,0.6c-0.5,0.3-1.3-0.1-1.9-0.1c-2,0-3.9-0.2-5.9,0.1c-1.3,0.1-2.8,0.3-3.7-1.1
			c-0.6-1.8-1.3-0.9-2-0.1c-1,0.8-2.1,1-3.3,0.8c-1.4-0.2-2.6,0-3.7,0.8c-1.5,1.1-3.1,1.3-4.7,0.2c-0.9-0.6-1.6-0.4-2.1,0.5
			c-0.7,1.3-1.8,1.5-3.1,1.4c-1.4-0.1-2.8-0.3-4.2,0.3c-0.5,0.2-1.2,0.1-1.7,0c-2.6-0.7-5.2-1.2-7.8,0.2c-0.2,0.1-0.4,0.2-0.6,0.1
			c-1.9-1.2-4.1,0.2-6.1-0.5c-1.1-0.4-2.2,0.7-3.4,0.5c-3-0.3-6.1,0.3-9.2-0.1c-0.4-0.1-0.9,0-1.4,0.1c-0.4,0.1-0.7,0.4-0.7,0.8
			c0,0.6,0.4,0.8,0.9,0.9c0.5,0.1,1-0.1,1.5-0.3c2.2-0.9,4.4-0.9,6.7-0.1c0.6,0.2,1.1,0.3,1.7,0.2c0.9-0.2,1.8-0.1,2.6,0.4
			c0.8,0.5,1.8,0.4,2.7,0.5c0.8,0,1.7-0.2,2.4,0.6c-4.7,0.6-9.5,0.2-14.3,0.5c-1.6,0.1-3.3,0-4.9,0.2c-1.2,0.1-1.7-0.4-1.5-1.5
			c0.4-1.7-1-3.8,0.8-5.3c0.1-0.1,0.1-0.3,0-0.4c-2-2-0.9-4.6-1-6.8c-0.5-20.1-0.8-40.3-1.1-60.4C269.2,433.4,269.2,432.7,269.3,432
			z"/>
		<path class="st0" d="M326.9,500.2c0.8,1.6,2.4,1.3,3.5,1.1c2.2-0.3,4.4-0.2,6.5,0c1.3,0.2,2.2,0.1,2.6-1.2c0.2-0.5,0.6-0.8,1-0.8
			c0.6,0.1,0,0.6,0.2,0.9c0.5,1.1,1.2,1.1,2,0.4c0.4-0.3,0.5-0.8,1.2-0.4c2.6,1.3,5.4,1.7,8.1,0.2c0.3-0.1,0.6-0.2,0.9-0.3
			c0.5,3,0.3,2.5-1.9,3.4c-2.6,1-5,0.5-7.5,0.8c-1.2,0.1-2.9,0-3.3,1.8c-5.1,0.6-10.3,0.4-15.4,0.7c-11,0.5-22.1,0.7-33.1,1.1
			c-0.3,0-0.5-0.1-0.8-0.1c-2.1-0.3-4.3,0.6-6.2-1.1c-0.4-0.3-0.9,0-1.3,0.1c-0.5,0.1-1.1,0.4-1.7,0.1c-2.4-1.3-4.9-1.1-7.2,0.1
			c-1,0.5-1.8,0.1-2.6-0.4c-0.7-0.5-0.2-1.2,0-1.8c0.2-0.8,0.9-0.7,1.4-0.7c3.6,0,7.3,0.2,10.9,0c1.6-0.1,3-0.5,4.7-0.2
			c1.2,0.2,2.6-0.7,3.9,0.4c0.3,0.2,0.6,0.1,0.9-0.1c2.5-1.8,5.1-1,7.7-0.2c0.6,0.2,1.4,0.3,1.9,0.1c1-0.5,1.9-0.5,3-0.4
			c1.7,0.2,3.5,0.4,4.4-1.9c0.3-0.8,1.2-1,1.9-0.2c1.6,1.6,3.3,1.2,4.7,0c1-0.9,2.1-1.1,3.2-0.9c1.4,0.4,2.7,0,3.9-0.5
			C325.4,499.7,326.2,499.7,326.9,500.2z"/>
		<path class="st19" d="M353.3,456.3c0-0.9,0-1.8,0-2.8C354.9,454.5,354.7,455.4,353.3,456.3z"/>
		<path class="st0" d="M201.8,32.1c-0.3,0-0.7,0-1,0c-1.6,0.2-2.1-0.3-2.1-2c0.1-5.6,0-11.2,0-16.8c4.7-0.1,9.3,0.6,14,0.8
			c10.3,0.4,20.7,0.7,31.1,0.8c0.2,0.2,0.3,0.4,0.3,0.7c0.5,1.1,1.1,1,1.7,0c0.1-0.2,0.2-0.3,0.4-0.4c1.1-0.1,2.2-0.4,3.3,0.2
			c0.2,0.2,0.4,0.5,0.6,0.7c1.2,0.3,1.8,0.9,1.7,2.3c-0.1,3.8-0.1,7.7,0,11.5c0,1.2-0.3,1.9-1.5,2c-0.7,0.8,0.9,0.6,0.6,1.3
			c-2,1.1-3.7,0.8-5.2-0.7c-0.3-0.3-0.6-0.6-1.2-0.5c-0.1,0.8,1.6,0.2,1.1,1.3c-0.7,0.6-1.6,0.5-2.4,0.5c-2,0-4,0-6,0
			c-1.1,0-2.1,0-2.6-1.2c-0.4-0.9-1.1-0.8-1.7-0.1c-1.2,1.3-2.5,1.3-3.7,0c-0.6-0.6-1.2-0.8-1.8-0.1c-1,1.3-2.2,1.1-3.5,0.7
			c-0.7-0.4-1-2-2.2-0.7c-0.3,0.6-0.8,0.9-1.4,0.9c-2.5,0.1-5.1,0.4-7.5-0.7c-0.7-1-1.4-1.8-2.3-0.1c-1.4,0.7-2.6,0.9-3.4-0.9
			c-0.1-0.1-0.2-0.3-0.4-0.4c-0.6-0.2-1.2-0.4-1.5,0.2C204.3,33.1,203.1,32.7,201.8,32.1z"/>
		<path class="st0" d="M302.3,32c-3.7,0.2-7.4,0.5-11.1,0.7c-0.8,0.7-1.7,0.6-2.6,0.1c-2.3-0.1-4.5-0.1-6.8,0.3
			c-1.5,0.7-3,0.6-4.6,0.1c-7.1,0-14.2,0-21.3,0.3c-0.3,0.4-0.7,0.4-1,0c-0.8-0.2-1.2-0.5-1.2-1.5c0-5.3,0-10.7,0-16
			c0-1.2,0.5-1.4,1.5-1.4c2.1,0,4.1-0.1,6.2-0.1c-0.1,0-0.3,0-0.4,0c0.2-0.3,0.4-0.5,0.7-0.2c0.3,0.2-0.2,0.1-0.2,0.3
			c3.9,0,7.8,0.1,11.7,0c10.8-0.3,21.6-0.6,32.3-1.5c1.6-0.1,2.1,0.3,2.1,1.9c-0.1,4.8-0.1,9.6,0,14.3c0,1.5-0.3,2.3-2,2.2
			c-0.9-0.1-1.8,0.2-2.7,0.4C302.7,32.3,302.5,32.3,302.3,32z"/>
		<path class="st0" d="M341.9,44.2c0.5,3.2,1,6.3,1.5,9.5c0.8,0.8,0.8,1.9,0.9,2.9c0.9,6.7,1.6,13.4,2.3,20.1c0.3,3,0.5,6,0.7,9
			c0,0.5,0.1,1.2-0.5,1.3c-0.6,0.2-0.9-0.4-1.2-0.8c-1.1-1.6-2-3.4-2.9-5.1c-3-5.8-6.5-11.4-9.3-17.3c-4.8-8.8-9.5-17.7-14.3-26.5
			c-0.5-1.1-1.1-2.1-1.2-3.3c-0.3-0.6-0.6-1.1-1-1.8c1.3-0.9,2.8-0.4,4.1-1c1.6-1,3.4-0.7,5.2-0.8c3.5-0.4,7-1.2,10.5-2
			c1.4-0.3,2,0,2.4,1.5C340.1,34.8,341.3,39.5,341.9,44.2z"/>
		<path class="st1" d="M261.6,14.6c0,0-0.2,0-0.2,0c-3.5-0.6-6.9-0.9-10.5-0.4c-4.3,0.6-8.7,0.1-13.1,0.2c-0.6,0-1.1-0.3-1.6-0.7
			c-0.9-0.6-2-0.8-3-0.4c-3.8,1.4-7.8,0.9-11.6,0.5c-2.7-0.3-5.3,0.1-8-0.2c-1.7-0.2-2.8-1-3.1-2.8c4.8,0.1,9.5,0.3,14.3,0.4
			c23.4,0.6,46.7,0.6,70.1-0.5c0.4,0,0.8,0,1.2,0c-0.1,1.9-1.5,2.6-3,2.7c-2,0.1-4,0.5-6-0.4c-1-0.5-1.5,1-2.6,0.9
			c-2.1-0.2-4.2-0.3-6.3,0c-2.5,0.3-4.7-1-7.1-0.8c-0.6,0-1.3-0.2-1.7,0.3c-0.9,1.2-2.1,0.9-3.2,0.9
			C264.7,14.4,263.1,14.2,261.6,14.6z"/>
		<path class="st20" d="M192.1,11.7c1.1-0.8,2.3-0.1,3.5-0.3c0.1,0.6,0.3,1.3,0.4,1.9c1.8,0.9,1.3,2.2,0.8,3.6
			c-0.8,0.6-0.7,1.3,0,1.9c0.3,1.4,1.4,2.9-0.8,3.8c-0.5,0.2-0.5,1.3,0.3,1.8c1.4,1,1.4,2.4,0,3.5c-0.7,0.6-0.7,1.4,0,2
			c1.3,1.1,1.3,2.5,0,3.4c-0.7,0.4-0.4,1.2-0.7,1.7c-0.3,0.4-0.7,0.4-1.1,0.1c-2.1-0.3-3.7-2.5-3.2-4.5c0.1-0.2,0.2-0.6,0.3-0.6
			c2.1-0.2,0.5-1.7,0.4-1.9c-1.1-1.4-1-2.6,0-3.9c0.4-0.5,0.5-1.2,0-1.8c-1-1.1-0.9-2.3-0.1-3.4c0.5-0.8,0.5-1.4-0.1-2.2
			c-0.6-0.9-1.1-2.2,0.4-3.1C193.1,12.9,192.1,12.3,192.1,11.7z"/>
		<path class="st1" d="M251.9,33.6c0.9-0.4,0.5-1.2,0.5-1.9c0-4.3,0-8.6,0-12.9c0-0.6-0.2-1.3,0.3-1.8c0.7,0.5,0.4,1.1,0.5,1.7
			c0,4.6,0,9.1,0,13.7c0,1-0.1,1.8-1.2,2.1c-0.7,0.4-1.4,0.2-2.1,0.2c-7.5,0-14.9-0.1-22.4,0c-5.8,0.1-11.6-0.6-17.4-0.4
			c-1.2,0-2.3-0.4-3.5-0.4c-0.9-0.1-0.5-0.6-0.2-1.1c2.7,0.1,5.4-0.7,8.1,0.2c0.7,0.2,1.4,0.2,2.1,0.1c3.9-0.2,7.9-0.4,11.8-0.2
			c5.2,0.3,10.4,0.6,15.6,0.6C246.7,33.5,249.3,33.3,251.9,33.6z"/>
		<path class="st21" d="M251.9,33.6c-11-0.1-22-0.2-33.1-0.3c-4.1-0.1-8.2-0.2-12.3-0.4c-1.6,0.5-3.1,0.5-4.6-0.5
			c-0.1-0.1-0.1-0.2-0.1-0.3c0.7,0,1.4,0,2.1,0c0.3,0,0.7,0.1,0.8-0.3c0.3-2.3,1.5-1.3,2.6-0.8c-0.2,0.2-0.5,0.2-0.6,0.4
			c0.3,0,0.5-0.2,0.6-0.4c0.7,1.5,1.7,2.2,3.3,1c0.7-0.5,1.5-0.5,2.2,0c2.6,1.4,5.3,0.7,8,0.9c0.8,0,0.1-1,0.8-1.1
			c0.7,0.3,1.6,0.2,2.2,0.7c1.2,0.5,2.4,1.2,3.3-0.6c0.4-0.9,2.1-0.7,2.7,0.3c0.7,1.1,2.2,1.2,2.6,0.1c0.4-1,1-0.9,1.7-0.9
			c0.8,0,1.3,0.3,1.2,1.1c0,0.5,0.2,0.8,0.7,0.8c3.3-0.1,6.6,0.4,9.9-0.3c-0.5-0.7-1.5-0.5-2-1.2c1.1-0.4,2.1-1,2.5,0.8
			c0.1,0.8,0.8,0.8,1.4,0.7c1.1-0.1,2.2,0.3,3.2-0.3c-0.2-0.9-1.2-0.6-1.6-1.2c2.4-0.2,2.5-1.8,2.4-3.7c-0.2-3-0.1-6,0-9
			c0-1.3,0-2.4-1.8-2.2c-0.2,0-0.4-0.3-0.5-0.5c0.3-0.2,0.6-0.3,0.9-0.3c-0.3-0.1-0.7-0.1-0.9-0.3c-1.1-0.8-2.2-0.8-3.3,0
			c-0.6,0.4-1.3,0.4-1.9,0.2c-0.2-0.1-0.3-0.2-0.4-0.4c0-0.2,0.1-0.5,0.1-0.7c2.4,0,4.8-0.1,7.2-0.1c0.5,0,1.1,0,1.1,0.7
			C252,21.5,252.6,27.5,251.9,33.6z"/>
		<path class="st1" d="M252.6,78.5c0-14.2,0-28.4,0-42.6c0.1,0,0.3,0,0.4,0c0,14.2,0,28.4,0,42.6C252.9,78.5,252.8,78.5,252.6,78.5z
			"/>
		<path class="st22" d="M201.9,32.4c1.5,0.2,3.1,0.3,4.6,0.5c-0.1,0.4-0.3,0.8,0.4,0.8c1.4,0.1,2.8,0.3,4.3,0.4
			c13.6,0.6,27.2,0.4,40.9,0.4c0,0.2,0,0.3,0,0.5c-13.7,0-27.3,0.1-41-0.5c-3.7-0.2-7.4-0.5-11.1-0.7
			C200,32.2,201.1,32.6,201.9,32.4z"/>
		<path class="st1" d="M199.1,10.1c3.4,0,6.8,0.3,10.2,0.7c-0.3,2.8-0.7,3-3.6,1.8c-0.7-0.3-1.2-0.1-1.9,0.1
			C201.2,13.3,199.3,12.2,199.1,10.1z"/>
		<path class="st1" d="M198.3,13.2c0,3.9,0,7.7,0,11.6c-0.2,0-0.5,0-0.7,0c0-4.2,0-8.5,0-12.7C197.8,12.4,198.1,12.8,198.3,13.2z"/>
		<path class="st1" d="M277.2,33.3c1.5,0,3.1-0.1,4.6-0.1c1.5,0,3,0,4.6,0c-0.1,1.1-0.7,0.8-1.1,0.8c-2.2,0-4.4,0-6.6,0
			C278.1,34,277.3,34.2,277.2,33.3z"/>
		<path class="st1" d="M315.7,28.5c0-2.6,0-5.2,0-7.8c0.2,0.1,0.6,0.2,0.6,0.4c0.2,2.4,0.2,4.7,0,7.1
			C316.3,28.3,315.9,28.4,315.7,28.5z"/>
		<path class="st23" d="M326.3,30.5c-1.7,0.5-3.4,0.6-5.2,0.8c0.4-0.6,1.3-0.8,1.5-1.5c0.3-0.4,0.9-0.1,1.2-0.4c0.6,0,1.3,0,1.9,0
			C325.4,29.9,325,30.5,326.3,30.5z"/>
		<path class="st24" d="M318,34.1c0.7,1,1.2,2,1.6,3.1c-0.4,0.3-0.8,0.6-1.2,0.8c-0.8-0.5-0.5-2.1-2-2
			C316.7,35.1,318.1,35.2,318,34.1z"/>
		<path class="st1" d="M268,34.1c1.6-0.6,3.3-0.4,4.9-0.1C271.3,34.6,269.7,34.4,268,34.1z"/>
		<path class="st1" d="M288.6,32.9c0.9,0,1.7-0.1,2.6-0.1c0.7,0.2,1.5-0.2,2.2,0.3C292,34,289.5,33.8,288.6,32.9z"/>
		<path class="st1" d="M265.5,34c-1.5,0.5-3,0.5-4.6,0.1C262.5,33.4,264,33.6,265.5,34z"/>
		<path class="st25" d="M309.7,35.2c0-0.6,0-1.3,0-1.9c0.6-0.5,0.9-0.2,0.9,0.4c0.1,0.5,0,1,0.6,1.2c0,0.1,0,0.2,0,0.4
			C310.8,35.6,310.2,35.7,309.7,35.2z"/>
		<path class="st1" d="M309.7,35.2c0.5,0,1.1,0,1.6,0c0.1,1.5-1,0.6-1.6,0.7c-0.4,0.1-1.3,0.3-0.8-0.8
			C309.2,35.2,309.5,35.2,309.7,35.2z"/>
		<path class="st1" d="M314,33.2c0.3,0.5,0.5,1.1,0.8,1.6c-0.1,0.3-0.1,0.7-0.5,0.7c-0.5,0-0.6-0.4-0.7-0.8
			C313.9,34.3,313.6,33.6,314,33.2z"/>
		<path class="st1" d="M259.6,33.9c-0.7,0.7-1.4,0.5-2.4,0.3C258.1,33.3,258.9,33.8,259.6,33.9z"/>
		<path class="st1" d="M315.7,34c0-0.9,0-1.8,0-2.7C316.7,32.2,316.9,33.1,315.7,34z"/>
		<path class="st1" d="M302.3,32c0.2,0,0.4,0,0.7,0c0.5,0.2,1.1-0.2,1.6,0.6C303.6,33,302.8,33,302.3,32z"/>
		<path class="st26" d="M323.9,29.3c-0.3,0.4-0.8,0.2-1.2,0.4c-0.5,0-1,0-1.5,0c0-0.3,0-0.5,0-0.8c0.4-0.3,0.8-0.4,1.2,0.1
			C322.9,29.1,323.4,29.2,323.9,29.3z"/>
		<path class="st1" d="M254.8,33.6c0.3-0.2,0.7-0.2,1,0c0.2,0.1,0.6,0.1,0.6,0.3c0.2,0.4-0.2,0.5-0.5,0.5
			C255.4,34.5,254.8,34.4,254.8,33.6z"/>
		<path class="st2" d="M264.3,252.8c0.2,1.3,0.5,2.6,0,4c-0.7,0.6-1.4,1.1-2.4,1.9c0-1.7,0-3.1,0-4.5c0-0.8-0.2-1.6,0.6-2.1
			C263.4,251.5,263.6,252.8,264.3,252.8z"/>
		<path class="st2" d="M261.4,250.6c-0.3-2.8,0.5-5.4,2-7.8c0.7,0.5,0.5,1.2,0.4,1.7c-0.5,1.5-0.4,2.8,0,4.3
			C264.2,250.9,263.7,251.2,261.4,250.6C261.4,250.5,261.4,250.6,261.4,250.6z"/>
		<path class="st27" d="M264.1,257.6c0,1.3,0,2.4,0,3.5C261.9,259.8,261.8,259.6,264.1,257.6z"/>
		<path class="st3" d="M239.3,380.6c0.6,0.4,1.2,0.6,1.1,1.3c0,0.1-0.4,0.3-0.5,0.2C239.3,381.9,239.1,381.5,239.3,380.6z"/>
		<path class="st3" d="M351.7,320c-0.2-11-0.3-22-0.5-33c-0.4-32.8-0.8-65.5-1.3-98.3c0-0.7,0.1-1.4,0.1-2.1c0-1.2,0.1-2.5,0.1-3.7
			c0-2.6-0.3-5.2,1.4-7.6c0.5,0,1,0.3,1,1.1c0,0.3,0,0.5,0,0.8c0.1,16.2,0.3,32.4,0.5,48.6c0.1,9.6,0,19.2,0.3,28.8
			c0.4,11.2,0.1,22.4,0.4,33.6c0.3,10.2,0.3,20.4,0.3,30.7c0,0.9,0.3,1.9-0.8,2.4C352.7,320.8,352.2,320.4,351.7,320z"/>
		<path class="st2" d="M333.7,63.5c3.9,7.1,7.8,14.3,11.8,21.4c0.4,0.7,0.7,1.3,1.3,1.9c-0.6-11.1-1.8-22.1-3.3-33.1
			c0.1-1,0.5-1.7,1.3-2.2c0.3-0.2,0.5-0.9,1-0.5c0.2,0.2,0.1,0.7,0.2,1.1c0.5,4.2,1,8.4,1.5,12.5c0.5,4.4,1,8.9,1.5,13.3
			c0.4,3.6,0.7,7.2,0.9,10.9c0.3,7.9,1,15.7,1.3,23.6c0.3,8.2,0.5,16.4,0.8,24.6c0.2,5.9,0.2,11.7,0.4,17.6c0,1.8-0.3,3.2-2.4,4.1
			c0-1.1,0-2,0-3c0-3.1,0-6.3,0-9.4c0-0.6,0.2-1.3-0.4-1.9c-0.3-9.7-0.5-19.5-0.9-29.2c-0.3-7.6-0.8-15.3-1.1-22.9
			c0-0.8-0.4-1.4-0.7-2c-4.5-8.2-8.9-16.4-13.4-24.6c-0.3-0.6-0.6-1.2-0.8-1.8c-0.2-0.5,0.1-0.8,0.4-0.9
			C333.3,62.9,333.5,63.2,333.7,63.5z"/>
		<path class="st2" d="M349.8,167.2c-0.1-1-0.2-2.1,0-3.1c0.7-0.6,1.3-1.2,2-1.8C352.5,164.7,352.3,165.1,349.8,167.2z"/>
		<path class="st3" d="M237.9,400.5c-0.1-5.7,0-11.4,0.4-17.1c0,4.5,0,9,0,13.5c0,0.8-0.1,1.5,0.4,2.3
			C239.4,400.1,238.7,400.4,237.9,400.5z"/>
		<path class="st26" d="M326.2,28.9c0.1-0.3,0.3-0.5,0.4-0.8c0.7-0.6,1.4-0.6,2.3-0.4c0.4,0.7,1.2,0.2,1.7,0.5
			C329.2,28.7,327.7,29,326.2,28.9z"/>
		<path class="st28" d="M351.7,328.2c0-1.8,0-3.7,0-5.5c0.4,0.3,0.8,0.7,1.2,1c2.3,2.3,2.2,3.6-0.6,5.8
			C352.1,329.1,351.9,328.7,351.7,328.2z"/>
		<path class="st29" d="M175.6,60.7c-0.5,0.6-1.1,1.2-1.6,1.8c-0.5,0.5-0.6,0.1-0.7-0.3c2.1-3.8,4.1-7.6,6.2-11.5
			c1,0,1.2,0.5,0.9,1.3C178.8,55,177.4,58,175.6,60.7z"/>
		<path class="st30" d="M183.8,42.6c0.9-0.5,1.3-0.3,1.2,0.8c-1.1,2.1-2,4.4-3.5,6.3c-0.9,0-1.1-0.4-0.8-1.2
			C181.7,46.6,182.7,44.6,183.8,42.6z"/>
		<path class="st31" d="M180.6,48.5c0.1,0.5,0.2,1,0.8,1.2c-0.1,0.9-0.6,1.7-1.1,2.4c0-0.6-0.3-1.1-0.9-1.3
			C179.8,50.1,180.2,49.3,180.6,48.5z"/>
		<path class="st32" d="M180.2,57.3c-0.4,0.5-0.3,1.3-1.1,1.4c-0.6,0.1-0.7-0.4-0.7-0.9c0-0.7,0.5-1.2,1.2-1.3
			C179.8,56.5,180.2,56.8,180.2,57.3z"/>
		<path class="st33" d="M177.6,62.2c-0.3,0.6-0.4,1.4-1.3,1.5c-0.3,0-0.6-0.3-0.5-0.6c0.2-0.6,0.4-1.3,1-1.5
			C177.2,61.4,177.5,61.7,177.6,62.2z"/>
		<path class="st34" d="M180.7,53.2c0.4-0.6,0.5-1.4,1.4-1.4c0.4,0,0.7,0.3,0.5,0.6c-0.3,0.6-0.1,1.5-1.2,1.5
			C181.1,53.8,180.7,53.7,180.7,53.2z"/>
		<path class="st35" d="M169.7,76.9c-0.3,0.5-0.3,1.5-1.3,1.5c-0.4,0-0.7-0.4-0.5-0.8c0.2-0.6,0.4-1.3,1.1-1.4
			C169.4,76.1,169.7,76.4,169.7,76.9z"/>
		<path class="st36" d="M171.2,73.5c-0.4,0-0.8-0.2-0.7-0.6c0.1-0.7,0.3-1.4,1.1-1.6c0.3-0.1,0.7,0.2,0.6,0.5
			C172.1,72.5,171.9,73.2,171.2,73.5z"/>
		<path class="st37" d="M188.2,42.6c-0.3,0.6-0.4,1.4-1.2,1.5c-0.3,0.1-0.7-0.3-0.5-0.6c0.2-0.6,0.3-1.5,1.2-1.6
			C187.9,41.8,188.1,42.1,188.2,42.6z"/>
		<path class="st38" d="M190.7,37.7c-0.3,0.6-0.4,1.4-1.3,1.4c-0.5,0-0.7-0.4-0.6-0.7c0.2-0.5,0.2-1.3,1.1-1.3
			C190.4,37.1,190.8,37.1,190.7,37.7z"/>
		<path class="st39" d="M164.4,86.7c-0.4,0.5-0.3,1.4-1.2,1.5c-0.3,0-0.7-0.3-0.6-0.6c0.2-0.6,0.3-1.4,1.2-1.5
			C164.1,86,164.4,86.2,164.4,86.7z"/>
		<path class="st40" d="M169.8,498.7c0.5,0,1,0,0.9,0.7c-0.1,0.8-0.8,0.5-1.2,0.5c-0.5,0-1,0-0.9-0.7
			C168.7,498.4,169.4,498.8,169.8,498.7z"/>
		<path class="st41" d="M208.7,501.2c-0.4-0.1-1.1,0.2-1.2-0.6c-0.1-0.6,0.4-0.7,0.9-0.7c0.5,0,1.3-0.1,1.3,0.7
			C209.7,501.3,209.1,501.1,208.7,501.2z"/>
		<path class="st42" d="M230.9,501.9c-0.4-0.1-1.1,0.3-1.2-0.5c-0.1-0.8,0.6-0.7,1.1-0.7c0.5,0,1.1-0.1,1.1,0.7
			C232,502.1,231.4,501.9,230.9,501.9z"/>
		<path class="st43" d="M174.2,66.6c0.3,0.1,0.8,0,0.7,0.5c-0.1,0.7-0.3,1.4-1.2,1.5c-0.3,0-0.6-0.3-0.5-0.6
			C173.3,67.4,173.4,66.6,174.2,66.6z"/>
		<path class="st44" d="M215.3,500.8c-0.1,0.7-0.6,0.6-1.1,0.6c-0.5,0-1.2,0.1-1.1-0.7c0.1-0.7,0.7-0.4,1.1-0.4
			C214.6,500.3,215.2,500.1,215.3,500.8z"/>
		<path class="st45" d="M180.8,499.1c0.4,0.1,1-0.1,1.1,0.5c0,0.8-0.6,0.7-1.1,0.7c-0.5,0-1,0-1-0.6
			C179.6,498.8,180.4,499.2,180.8,499.1z"/>
		<path class="st46" d="M184.9,46.8c0.5,0.2,0.7,0.5,0.5,0.9c-0.2,0.5-0.3,1.2-1.1,1.2c-0.5,0-0.6-0.5-0.4-0.9
			C184.1,47.5,184.2,46.9,184.9,46.8z"/>
		<path class="st47" d="M161.6,91.7c-0.3,0.4-0.3,1.2-1.1,1.3c-0.3,0-0.7-0.2-0.6-0.6c0.2-0.6,0.3-1.5,1.2-1.5
			C161.5,90.9,161.8,91.2,161.6,91.7z"/>
		<path class="st48" d="M176.2,499.4c0,0.6-0.4,0.7-0.8,0.6c-0.4,0-1.1,0.3-1.2-0.5c-0.1-0.5,0.3-0.6,0.7-0.6
			C175.4,498.9,176,498.8,176.2,499.4z"/>
		<path class="st49" d="M203,499.9c0.4,0.1,1-0.2,1,0.5c0,0.6-0.5,0.6-1,0.6c-0.5,0-1,0-1-0.6C202,499.7,202.6,499.9,203,499.9z"/>
		<path class="st50" d="M219.8,501.5c-0.4-0.1-1.1,0.3-1.2-0.5c0-0.8,0.6-0.6,1.1-0.6c0.5,0,1.1-0.1,1.1,0.7
			C220.8,501.7,220.2,501.5,219.8,501.5z"/>
		<path class="st51" d="M225.3,500.6c0.4,0.1,1-0.2,1.1,0.5c0.1,0.6-0.5,0.7-0.9,0.7c-0.5,0-1.2,0.1-1.2-0.6
			C224.2,500.4,224.8,500.7,225.3,500.6z"/>
		<path class="st52" d="M165.9,83.2c-0.4,0-0.7-0.2-0.6-0.6c0.2-0.6,0.3-1.3,1.1-1.5c0.3-0.1,0.7,0.2,0.6,0.6
			C166.8,82.3,166.6,83,165.9,83.2z"/>
		<path class="st53" d="M158.6,499.6c-0.5-0.1-1.1,0.1-1.1-0.6c0-0.8,0.7-0.6,1.1-0.6c0.4,0,1-0.1,1,0.6
			C159.6,499.8,158.9,499.3,158.6,499.6z"/>
		<path class="st54" d="M191.9,499.5c0.4,0.1,1-0.1,1,0.6c0,0.6-0.5,0.6-1,0.6c-0.5,0-1.1,0-1.1-0.7
			C190.9,499.3,191.5,499.6,191.9,499.5z"/>
		<path class="st54" d="M187.3,500.1c-0.4,0.5-1,0.3-1.6,0.3c-0.4,0-0.6-0.3-0.4-0.7c0.4-0.7,1-0.4,1.5-0.3
			C187.2,499.4,187.4,499.6,187.3,500.1z"/>
		<path class="st55" d="M197.3,500.7c-0.4-0.1-1,0.1-0.9-0.7c0.1-0.6,0.7-0.4,1.1-0.4c0.5,0,1,0.1,0.9,0.7
			C198.3,501,197.7,500.6,197.3,500.7z"/>
		<path class="st49" d="M165.1,499c-0.1,0.7-0.5,0.7-0.9,0.6c-0.4,0-1,0.1-1.1-0.4c-0.1-0.7,0.5-0.6,0.9-0.6
			C164.5,498.6,164.9,498.6,165.1,499z"/>
		<path class="st56" d="M197.1,7.6c-0.4,0-0.8,0-0.9-0.5c0-0.6,0.5-0.7,0.9-0.7c0.4,0,1-0.1,1,0.6C198.1,7.6,197.5,7.6,197.1,7.6z"
			/>
		<path class="st57" d="M234.8,5.4c0,0.5-0.3,0.7-0.8,0.7c-0.4,0-1,0.1-1.1-0.5c-0.1-0.5,0.3-0.7,0.8-0.7
			C234.1,4.9,234.6,4.8,234.8,5.4z"/>
		<path class="st58" d="M271.5,5.6c-0.2,0.7-0.8,0.5-1.3,0.5c-0.4,0-0.8-0.2-0.7-0.7c0.2-0.7,0.8-0.5,1.3-0.5
			C271.2,4.9,271.6,5.1,271.5,5.6z"/>
		<path class="st59" d="M220,5.3c0.5,0,1,0,1,0.6c0,0.6-0.5,0.6-1,0.6c-0.4,0-0.8,0-0.9-0.5C219.1,5.5,219.5,5.3,220,5.3z"/>
		<path class="st60" d="M294.4,6.2c0,0.5-0.3,0.6-0.7,0.7c-0.4,0-0.9,0.1-1.1-0.4c-0.2-0.5,0.2-0.7,0.6-0.7
			C293.6,5.7,294.2,5.6,294.4,6.2z"/>
		<path class="st61" d="M303.6,6.8c-0.1,0.6-0.6,0.5-1.1,0.6c-0.4,0-0.9,0-0.9-0.5c-0.1-0.6,0.4-0.7,0.9-0.7
			C303,6.2,303.5,6.2,303.6,6.8z"/>
		<path class="st62" d="M211,6.9c-0.5,0-1.1,0.1-1.1-0.5c0-0.6,0.4-0.7,0.9-0.7c0.4,0,1-0.1,1,0.5C211.9,6.9,211.3,6.9,211,6.9z"/>
		<path class="st63" d="M274.9,5.1c0.5,0,1,0,1.1,0.5c0.1,0.6-0.4,0.5-0.8,0.5c-0.4,0-0.9,0.1-1-0.4C274.1,5.2,274.7,5.2,274.9,5.1z
			"/>
		<path class="st64" d="M230.1,5.8c-0.3,0.5-0.8,0.3-1.2,0.3c-0.3,0-0.7-0.1-0.6-0.5c0.2-0.6,0.7-0.5,1.1-0.4
			C229.8,5.2,230.1,5.3,230.1,5.8z"/>
		<path class="st65" d="M285.2,6c-0.2,0.6-0.7,0.6-1.1,0.5c-0.4,0-0.8-0.2-0.7-0.7c0.1-0.6,0.6-0.5,1.1-0.5
			C284.9,5.4,285.2,5.6,285.2,6z"/>
		<path class="st66" d="M308.1,6.8c0,0.6-0.3,0.8-0.7,0.8c-0.5,0-0.9,0-1.1-0.6c-0.1-0.5,0.3-0.6,0.7-0.6
			C307.5,6.4,307.9,6.4,308.1,6.8z"/>
		<path class="st67" d="M317.2,7.7c-0.2,0.5-0.8,0.3-1.2,0.3c-0.3,0-0.7-0.1-0.6-0.6c0.2-0.6,0.7-0.4,1.1-0.4
			C316.9,7.2,317.3,7.3,317.2,7.7z"/>
		<path class="st68" d="M243.9,5.3c-0.1,0.6-0.5,0.5-0.9,0.5c-0.4,0-0.9,0.1-0.9-0.4c0-0.6,0.5-0.5,0.8-0.5
			C243.3,4.9,243.8,4.7,243.9,5.3z"/>
		<path class="st69" d="M248.6,5.2c-0.3,0.7-0.8,0.6-1.2,0.6c-0.3,0-0.7-0.1-0.6-0.5c0.1-0.6,0.7-0.5,1.1-0.4
			C248.1,4.8,248.3,5.1,248.6,5.2z"/>
		<path class="st40" d="M261.2,4.8c0.4,0.1,0.9-0.1,1,0.4c0,0.5-0.4,0.5-0.8,0.5c-0.4,0-0.8,0-0.8-0.5C260.5,4.8,261,4.9,261.2,4.8z
			"/>
		<path class="st70" d="M188.9,8c-0.2,0-0.4,0.1-0.6,0.1c-0.4,0-1.1,0.2-1.1-0.3c0-0.8,0.7-0.5,1.1-0.5c0.2,0,0.4,0,0.6,0.1
			C188.9,7.6,188.9,7.8,188.9,8z"/>
		<path class="st71" d="M266.8,5.4c-0.2,0.5-0.6,0.5-0.9,0.5c-0.4,0-0.9-0.1-0.7-0.6c0.1-0.4,0.6-0.4,1-0.3
			C266.5,4.9,266.8,5,266.8,5.4z"/>
		<path class="st72" d="M310.7,7.3c0.7-0.5,1.3-0.6,1.9-0.2c0.1,0,0,0.4-0.1,0.5C311.9,7.9,311.4,7.8,310.7,7.3z"/>
		<path class="st73" d="M193.4,7.2c0,0.5-0.4,0.6-0.7,0.6c-0.4,0-0.9,0.1-0.9-0.4c-0.1-0.4,0.3-0.5,0.7-0.5
			C192.8,6.8,193.2,6.8,193.4,7.2z"/>
		<path class="st74" d="M280.5,5.7c0,0.4-0.3,0.6-0.6,0.6c-0.4,0-1,0.1-1.1-0.5c-0.1-0.3,0.3-0.4,0.5-0.4
			C279.8,5.3,280.3,5.1,280.5,5.7z"/>
		<path class="st75" d="M214.6,6.1c0.1-0.5,0.5-0.5,0.9-0.5c0.4,0,0.8-0.1,0.8,0.5c0,0.5-0.5,0.5-0.8,0.5
			C215.1,6.6,214.7,6.6,214.6,6.1z"/>
		<path class="st76" d="M289.8,6.1c-0.2,0.6-0.7,0.4-1.1,0.4c-0.3,0-0.7-0.1-0.6-0.5c0.1-0.6,0.7-0.4,1.1-0.4
			C289.4,5.7,289.8,5.7,289.8,6.1z"/>
		<path class="st77" d="M206.3,7c-0.4,0-0.8,0.1-0.9-0.5c0-0.5,0.5-0.5,0.8-0.5c0.3,0,0.8-0.1,0.9,0.4C207.2,7,206.7,6.9,206.3,7z"
			/>
		<path class="st78" d="M179.9,11.9c-0.1,0.6-0.6,0.6-1.1,0.5c-0.5-0.1-1.2-0.1-1.1-0.8c0-0.7,0.6-0.5,1-0.5
			C179.2,11.2,179.8,11.1,179.9,11.9z"/>
		<path class="st79" d="M185.3,12.8c-0.2,0.7-0.8,0.5-1.3,0.4c-0.6,0-1.1-0.2-0.9-0.9c0.2-0.7,0.9-0.4,1.3-0.3
			C184.9,12,185.3,12.1,185.3,12.8z"/>
		<path class="st80" d="M173.2,27.8c-0.5,0-1.1,0-1.2-0.7c0-0.6,0.4-0.7,0.9-0.6c0.5,0.1,1.3,0,1.3,0.8
			C174.3,27.9,173.7,27.8,173.2,27.8z"/>
		<path class="st81" d="M185.2,29.1c-0.1,0.6-0.6,0.6-1.1,0.5c-0.5-0.1-1.2-0.1-1-0.8c0.1-0.6,0.7-0.4,1.1-0.3
			C184.7,28.5,185.2,28.4,185.2,29.1z"/>
		<path class="st82" d="M179.7,28.2c-0.1,0.6-0.4,0.8-0.8,0.6c-0.5-0.2-1.3,0.1-1.3-0.8c0-0.5,0.5-0.4,0.9-0.4
			C179,27.7,179.6,27.5,179.7,28.2z"/>
		<path class="st83" d="M328.9,27.7c-0.7,0.6-1.5,0.3-2.3,0.4c-0.9-0.9,0.2-0.9,0.6-1C327.8,27,328.7,26.2,328.9,27.7z"/>
		<path class="st84" d="M322.3,29c-0.4,0-0.8-0.1-1.2-0.1c-0.3-1.3,0.8-1,1.4-1.2c0.4-0.1,0.8,0.1,0.8,0.6
			C323.5,29.1,322.8,28.9,322.3,29z"/>
		<path class="st85" d="M334.4,10.6c0,0.8-0.7,0.6-1.1,0.8c-0.5,0.1-1,0.2-1-0.5c0-0.7,0.7-0.7,1.1-0.8
			C333.8,9.9,334.2,10,334.4,10.6z"/>
		<path class="st86" d="M323.4,12.4c0,0.6-0.5,0.7-0.9,0.7c-0.5,0.1-1.1,0.2-1.2-0.5c0-0.6,0.6-0.6,1-0.6
			C322.7,11.9,323.2,11.8,323.4,12.4z"/>
		<path class="st87" d="M333.2,26c0.5-0.1,0.9-0.1,1,0.4c0,0.9-0.8,0.7-1.3,0.8c-0.4,0.2-0.8-0.1-0.8-0.6
			C332.1,25.9,332.8,26.2,333.2,26z"/>
		<path class="st25" d="M309.7,29.4c0-0.5,0-1.1,0-1.6c1.1-0.4,0.9,0.4,0.9,1C310.7,29.4,310.5,30,309.7,29.4z"/>
		<path class="st88" d="M309.7,23.9c0-0.5,0-1.1,0.1-1.6c1.3-0.4,0.9,0.7,0.9,1.2C310.7,24.2,310.3,24.4,309.7,23.9z"/>
		<path class="st89" d="M194.4,34.8c0.4,0,0.7,0,1.1-0.1c1.5-1.5,1.2,1.1,2.2,1C196.6,35.5,194.9,37.3,194.4,34.8z"/>
		<path class="st1" d="M197.9,28c0.5,1.1,0.5,2.3,0.2,4C197.3,30.4,197.6,29.1,197.9,28z"/>
		<path class="st90" d="M196.7,18.7c-1.1,0.4-0.9-0.5-1-1c-0.1-0.7,0.2-1.1,1-0.9C196.7,17.4,196.7,18,196.7,18.7z"/>
		<path class="st91" d="M266,94.1c-0.3,0.5-0.3,1.3-1.1,1.4c-0.4,0-0.7-0.4-0.6-0.8c0.2-0.5,0.3-1.3,1.2-1.3
			C265.8,93.5,266.1,93.7,266,94.1z"/>
		<path class="st92" d="M258.2,103.2c-0.5,0-0.9-0.3-0.8-0.6c0.2-0.7,0.7-1,1.4-1.2c0.4-0.1,0.7,0.2,0.6,0.6
			C259.3,102.7,258.6,102.8,258.2,103.2z"/>
		<path class="st93" d="M276.8,500.7c0.5,1.4-0.6,1.2-1.3,1.2c-1,0-1-0.5-0.6-1.2C275.5,500.7,276.1,500.7,276.8,500.7z"/>
		<path class="st94" d="M267.2,37.1c0.7,0.2,0.5,0.8,0.5,1.3c0,0.4-0.1,0.9-0.6,0.8c-0.7-0.1-0.5-0.8-0.5-1.2
			C266.6,37.4,266.7,37.1,267.2,37.1z"/>
		<path class="st95" d="M263.1,98.5c-0.3,0.5-0.6,1-1.2,1.1c-0.4,0.1-0.7-0.2-0.6-0.6c0.2-0.6,0.5-1.1,1.2-1.2
			C262.8,97.7,263.1,98,263.1,98.5z"/>
		<path class="st96" d="M267.8,43.2c0,0.4,0,1-0.6,1c-0.6,0-0.6-0.6-0.6-1c0-0.4-0.1-1,0.6-1C267.9,42.2,267.8,42.8,267.8,43.2z"/>
		<path class="st97" d="M267.2,85.5c-0.6-0.2-0.5-0.7-0.5-1.1c0-0.4,0-1,0.7-0.9c0.6,0.1,0.4,0.7,0.4,1.1
			C267.8,85.1,267.7,85.5,267.2,85.5z"/>
		<path class="st98" d="M267.7,64.9c-0.6,0.1-0.7-0.2-0.7-0.6c0-0.5-0.3-1.1,0.4-1.3c0.4-0.1,0.6,0.2,0.6,0.6
			C268,64,268.1,64.6,267.7,64.9z"/>
		<path class="st99" d="M267.2,52.5c0.8,0,0.8,0.5,0.8,0.9c0,0.5,0.1,1.1-0.6,1.2c-0.5,0-0.6-0.4-0.6-0.8
			C266.8,53.3,266.7,52.7,267.2,52.5z"/>
		<path class="st97" d="M268,58.7c0,0.4,0,1-0.6,1c-0.6-0.1-0.5-0.6-0.5-1.1c0-0.4-0.1-1,0.6-1C268.1,57.7,268,58.3,268,58.7z"/>
		<path class="st100" d="M267.4,70c-0.6-0.2-0.4-0.7-0.4-1.1c0-0.4,0.1-0.8,0.6-0.8c0.6,0.1,0.5,0.7,0.5,1.1
			C268,69.6,268,70,267.4,70z"/>
		<path class="st101" d="M267.6,73.3c0.6,0.2,0.4,0.7,0.4,1.1c0,0.4-0.1,0.9-0.6,0.7c-0.7-0.2-0.4-0.8-0.4-1.3
			C266.9,73.5,267.1,73.2,267.6,73.3z"/>
		<path class="st102" d="M267.5,89.4c-0.1,0.5,0,1.1-0.7,1.2c-0.5,0.1-0.6-0.4-0.5-0.8c0.1-0.5,0-1.1,0.7-1.1
			C267.5,88.7,267.4,89.1,267.5,89.4z"/>
		<path class="st103" d="M267.9,48.3c-0.1,0.5,0.1,1.1-0.6,1c-0.6-0.1-0.4-0.7-0.5-1.1c0-0.4-0.1-0.8,0.5-0.8
			C268,47.4,267.8,48,267.9,48.3z"/>
		<path class="st104" d="M267.9,79.4c-0.1,0.4,0,1-0.6,0.9c-0.6-0.1-0.4-0.7-0.4-1.1c0-0.4,0-0.8,0.5-0.8
			C268.1,78.4,267.8,79,267.9,79.4z"/>
		<path class="st0" d="M325.6,488.2c3.6,2,3.4,1.9,6.1-0.9c1.7-1.7,3.7-3.1,5.2-5c2-2.6,4.6-4.3,7.1-6.4c0.1-0.1,0.3-0.2,0.3-0.2
			c-0.3-2.5,2-2.8,3.3-4c0.3-0.3,0.5-0.7,0.6-1.2c0.1-1.1,0.4-2.3,1.8-2.2c1.6,0.1,2.9,0.7,2.9,2.7c0,1.4,0,2.9,0,4.3
			c0,1,0.6,2.7-1.6,2c-0.1,0-0.5,0.3-0.5,0.5c-0.2,0.4,0.1,0.7,0.4,0.8c1.4,0.4,0.9,1.4,0.8,2.4c-0.5,3.1-0.6,6.2,1,9.2
			c1.1,2,0.3,4.5,0.3,6.8c0,0.8-0.7,0.4-1,0.3c-1.9-0.6-3.8,0.2-5.7-0.3c-0.2,0-0.4-0.1-0.6,0c-3.1,1.8-6.3-0.1-9.5,0.2
			c-0.9,0.1-1.7-0.1-2.6,0.4c-0.9,0.5-1.8,0.8-2.7,0c-0.3-0.3-0.8-0.5-1.1-0.2c-2.3,2.1-4.4-0.2-6.6-0.2c-0.9,0-0.6-0.6-0.2-1
			c0.5-0.5,1-1,1.5-1.5C326.4,492.8,327.3,490.9,325.6,488.2z"/>
		<path class="st0" d="M351.3,325.8c-0.1,2.9-2.2,4.3-4.7,3.2c-1.1-0.5-2.1-0.1-3,0.8c-0.3,0.3-0.7,0.6-1,0.4
			c-0.4-0.2-0.2-0.7-0.2-1c-0.1-1.8-0.7-3.5-1.3-5.3c-0.5-1.6-0.5-3.3-3-2.6c-0.3,0.1-0.8-0.4-1.1-0.7c-0.3-0.2-0.6-0.6-0.8-0.5
			c-2.1,1-4.4-0.2-6.5,0.7c-2.4,1-4.2,2.6-4.9,5c-1.9,6.3,0.7,11.3,8,12.2c1.6,0.2,1.7,0.4,1,1.7c-0.9,1.6-0.9,3.5-0.8,5.3
			c0,0.8-0.1,1.5-1.1,1.6c-0.8,0.1-1.6,0.7-2.5-0.2c-2.9-2.6-5.5-5.5-8.2-8.2c-0.9-0.9-1.3-1.7-0.7-2.9c0.9-2.1,0.3-4.1-0.7-6
			c-0.6-1.2-0.5-2.1,0.4-3c2.4-2.3,4.5-4.9,7.2-6.9c0.9-0.7,1.6-1.4,2.2-2.4c0.9-1.6,2.3-2.2,4.2-1.6c2.1,0.7,4.2,1.1,6.4,0.3
			c1.2-0.5,2.2,0.2,3.2,1.3c2.3,2.5,4.4,5.4,7.4,7.2C351.5,324.8,351.2,325.4,351.3,325.8z"/>
		<path class="st0" d="M333.2,334.9c-3.1,0.2-5.8-2.9-5.8-5.7c0-3.4,2.5-6,5.8-6.1c3.3-0.1,5.7,3.2,5.9,5.9
			C339.3,331.9,336.1,334.9,333.2,334.9z"/>
		<path class="st0" d="M336.6,346.3c-1-2.4-0.6-4.3,0.8-5.9c2.5-2.7,5.4-4.9,7.7-7.7c0.4-0.5,1-0.9,1.7-0.9c1.1,0,2.7-0.5,3.3,0.5
			c0.4,0.7-1,1.5-1.7,2.1C344.6,338.4,340.7,342.2,336.6,346.3z"/>
		<path class="st105" d="M333.7,63.5c-0.6-0.3-1-0.1-1.2,0.5c-1.2-0.7-1.6-2-2.1-3.1c-3.6-7.9-8.2-15.2-12-22.9
			c0-0.9,0.1-1.6,1.2-0.8C324.4,45.9,329.1,54.7,333.7,63.5z"/>
		<path class="st0" d="M316.7,203.6c-0.1,0.8-0.6,0.9-1.3,0.9c-0.8,0-1.2-0.5-1.2-1.2c0-0.6,0.5-1.1,1.1-1.1
			C316.3,202.2,316.4,203,316.7,203.6z"/>
		<path class="st106" d="M337.4,76.1c0.7,0.2,0.8,0.9,1,1.5c0.1,0.5-0.2,0.8-0.6,0.7c-0.8-0.2-1-1-1.2-1.7
			C336.5,76.4,336.9,76.2,337.4,76.1z"/>
		<path class="st107" d="M322.6,48.3c0,0.5-0.2,0.8-0.6,0.7c-0.9-0.1-1-0.9-1.2-1.6c-0.1-0.4,0.2-0.7,0.6-0.6
			C322.3,46.8,322.3,47.7,322.6,48.3z"/>
		<path class="st107" d="M333.2,67.9c0,0.5-0.2,0.7-0.6,0.7c-0.9-0.1-1-0.9-1.2-1.6c-0.1-0.4,0.3-0.7,0.6-0.6
			C332.8,66.5,332.9,67.3,333.2,67.9z"/>
		<path class="st108" d="M334.8,71.3c0.7,0.3,0.9,1,1,1.7c0.1,0.3-0.3,0.6-0.6,0.5c-0.8-0.2-1-1-1.1-1.6
			C334,71.5,334.4,71.3,334.8,71.3z"/>
		<path class="st109" d="M329.5,61.5c0.5,0.4,1,0.8,1,1.5c0,0.4-0.4,0.8-0.8,0.6c-0.6-0.3-0.8-1-0.9-1.6
			C328.8,61.7,329.1,61.5,329.5,61.5z"/>
		<path class="st110" d="M318.8,41.9c0.7,0.1,0.9,0.9,1.1,1.4c0.2,0.5-0.2,0.9-0.5,0.9c-0.8,0-0.8-0.9-1.1-1.4
			C318.1,42.3,318.3,42,318.8,41.9z"/>
		<path class="st111" d="M340.4,83.2c-0.7-0.3-1-0.9-1.1-1.6c0-0.4,0.4-0.5,0.7-0.5c0.8,0.2,1,0.9,1.1,1.6
			C341.2,83.1,340.8,83.2,340.4,83.2z"/>
		<path class="st112" d="M343.8,87.5c-0.1,0.4-0.3,0.7-0.6,0.6c-0.7-0.2-0.9-0.9-1.1-1.5c-0.1-0.5,0.4-0.8,0.7-0.7
			C343.4,86.2,343.5,86.9,343.8,87.5z"/>
		<path class="st113" d="M316.7,39.2c-0.7-0.3-1-0.9-1.1-1.6c-0.1-0.4,0.3-0.6,0.6-0.5c0.8,0.2,1,1,1.2,1.6
			C317.5,39,317.1,39.2,316.7,39.2z"/>
		<path class="st114" d="M348.2,499.6c-0.5-0.1-1.2,0.2-1.2-0.7c0-0.7,0.6-0.6,1-0.6c0.4,0,1.1-0.3,1.2,0.5
			C349.3,499.7,348.6,499.4,348.2,499.6z"/>
		<path class="st0" d="M321.2,195.6c1.1,1.1,2.1,2.1,3.2,3.2C322.9,198.1,322,196.8,321.2,195.6z"/>
		<path class="st115" d="M336.8,498.7c0.5,0.1,1.1-0.2,1.1,0.5c0,0.8-0.6,0.7-1.1,0.7c-0.4,0-1,0.2-1-0.5
			C335.8,498.5,336.5,498.8,336.8,498.7z"/>
		<path class="st103" d="M326.9,500.2c-0.7,0-1.5,0.1-2.2,0.1c-0.2-0.8,0-1.2,0.9-1.2C326.4,499.1,327.1,499.1,326.9,500.2z"/>
		<path class="st116" d="M315.7,499.9c-0.1,0.8-0.6,0.7-1.1,0.8c-0.5,0-1.1,0.2-1.2-0.6c-0.1-0.8,0.7-0.6,1.1-0.7
			C315,499.4,315.6,499.2,315.7,499.9z"/>
		<path class="st117" d="M297.9,501.2c-0.4-0.1-1,0.2-1.1-0.5c0-0.7,0.6-0.7,1.1-0.7c0.5,0,1.2-0.1,1.1,0.6
			C299.1,501.4,298.3,501,297.9,501.2z"/>
		<path class="st45" d="M286.9,501.5c-0.4-0.1-1.2,0.3-1.1-0.6c0.1-0.7,0.7-0.6,1.2-0.6c0.4,0,1-0.1,1,0.6
			C288,501.8,287.3,501.4,286.9,501.5z"/>
		<path class="st118" d="M325.2,53.2c0,0.4-0.3,0.7-0.6,0.6c-0.8-0.2-0.9-0.9-1.1-1.5c-0.1-0.4,0.2-0.8,0.7-0.6
			C325,51.9,325,52.7,325.2,53.2z"/>
		<path class="st44" d="M309.2,500.8c-0.5-0.1-1.1,0.2-1.2-0.5c0-0.6,0.5-0.6,1-0.6c0.5,0,1.2-0.2,1.1,0.6
			C310.1,501,309.4,500.5,309.2,500.8z"/>
		<path class="st119" d="M346.4,92.3c0.2,0.5-0.1,0.7-0.4,0.7c-0.9,0-0.9-0.8-1.2-1.3c-0.2-0.5,0.1-0.8,0.5-0.7
			C346.1,91,346.1,91.8,346.4,92.3z"/>
		<path class="st120" d="M320.2,500.4c-0.4-0.1-1.1,0.2-1.1-0.5c0-0.7,0.7-0.6,1.2-0.7c0.5-0.1,1,0,1,0.6
			C321.2,500.6,320.6,500.3,320.2,500.4z"/>
		<path class="st121" d="M303.5,499.9c0.4,0.1,1.1-0.2,1,0.5c0,0.7-0.7,0.6-1.2,0.6c-0.5,0-1,0-0.9-0.7
			C302.5,499.6,303.2,500,303.5,499.9z"/>
		<path class="st122" d="M327.9,58c0,0.5-0.3,0.8-0.6,0.7c-0.7-0.2-0.9-0.8-1.1-1.5c-0.1-0.4,0.3-0.6,0.6-0.6
			C327.5,56.8,327.5,57.6,327.9,58z"/>
		<path class="st123" d="M293.5,500.9c-0.3,0.7-0.9,0.5-1.5,0.5c-0.4,0-0.8-0.3-0.6-0.7c0.3-0.6,0.9-0.3,1.4-0.4
			C293.1,500.2,293.5,500.2,293.5,500.9z"/>
		<path class="st124" d="M331.3,500c-0.4-0.1-1,0.2-1-0.5c0-0.6,0.6-0.6,1-0.6c0.4,0,1-0.1,1,0.6C332.4,500.1,331.7,499.9,331.3,500
			z"/>
		<path class="st125" d="M281.3,500.6c0.4,0.1,1.1-0.1,1,0.5c-0.1,0.7-0.8,0.5-1.2,0.6c-0.4,0.1-0.8,0-0.9-0.5
			C280.2,500.4,280.9,500.7,281.3,500.6z"/>
		<path class="st0" d="M317.1,492.3c-0.1,0.4-0.2,0.8-0.7,0.8c-0.4,0-0.7-0.3-0.7-0.7c-0.1-0.5,0.2-0.7,0.7-0.7
			C316.8,491.7,317.1,491.8,317.1,492.3z"/>
		<path class="st126" d="M342.6,499.6c-0.4-0.1-1,0.2-1-0.5c0-0.7,0.6-0.5,1-0.5c0.4,0,1-0.1,1.1,0.5
			C343.6,499.8,343,499.5,342.6,499.6z"/>
		<path class="st127" d="M218.3,31.7c0,0.7-0.5,0.7-0.9,0.7c-0.5,0-1.3,0.2-1.3-0.7c0-0.5,0.4-0.6,0.8-0.6
			C217.4,31.2,218,31,218.3,31.7z"/>
		<path class="st128" d="M243.8,31.6c0.7,0.4,2.4-0.9,2,1.2c-0.6,0-1.2,0.1-1.7,0C243.2,32.6,243.2,32.1,243.8,31.6z"/>
		<path class="st129" d="M217.3,16c-0.5-0.1-1.2,0.2-1.2-0.6c0-0.6,0.5-0.6,1-0.6c0.5,0,1.2-0.1,1.3,0.6
			C218.5,16.2,217.8,16,217.3,16z"/>
		<path class="st130" d="M200.8,13.9c0.5,0.1,1.1,0,1,0.8c-0.1,0.6-0.7,0.5-1.1,0.5c-0.5,0-1.2,0-1.1-0.7
			C199.6,13.6,200.3,13.9,200.8,13.9z"/>
		<path class="st131" d="M207.3,14.9c-0.1,0.6-0.6,0.6-1,0.6c-0.5,0-1.2,0-1.1-0.7c0.1-0.6,0.7-0.4,1.1-0.4
			C206.7,14.3,207.2,14.3,207.3,14.9z"/>
		<path class="st132" d="M228.3,15.2c0.5,0,1.2-0.1,1.1,0.7c-0.1,0.7-0.8,0.5-1.2,0.5c-0.4,0-1,0.1-1-0.5
			C227.2,15,227.9,15.2,228.3,15.2z"/>
		<path class="st133" d="M233.8,16.4c-0.4,0-1.1,0.1-1-0.6c0-0.7,0.7-0.6,1.2-0.6c0.5,0,1,0,1,0.6C235,16.6,234.3,16.4,233.8,16.4z"
			/>
		<path class="st134" d="M249.3,31.6c2.2,0,2.2,0,1.6,1.2C249.1,32.7,249.1,32.7,249.3,31.6z"/>
		<path class="st135" d="M240.6,15.9c-0.1,0.6-0.6,0.6-1.1,0.5c-0.4,0-1.1,0.1-1.1-0.5c-0.1-0.8,0.7-0.6,1.1-0.7
			C240,15.3,240.4,15.3,240.6,15.9z"/>
		<path class="st136" d="M212.8,32c-0.7,0.2-1.5,0.1-2.2,0c-0.1-0.7,0.2-1,0.9-0.9C212.1,31.1,212.8,31,212.8,32z"/>
		<path class="st137" d="M200.6,30.3c0.5,0.1,1.2-0.1,1.1,0.6c0,0.6-0.6,0.6-1.1,0.5c-0.5-0.1-1.2,0-1.1-0.8
			C199.6,30,200.3,30.5,200.6,30.3z"/>
		<path class="st138" d="M239.4,31.6c0.6,0,1.1,0,1,0.7c-0.1,0.7-0.7,0.6-1.2,0.6c-0.5,0-1-0.1-0.9-0.7
			C238.3,31.3,239.1,31.7,239.4,31.6z"/>
		<path class="st139" d="M223.8,32.4c-0.8,0-1.8,0.6-2.2-0.7C222.5,31.4,223.4,30.8,223.8,32.4z"/>
		<path class="st140" d="M222.7,15.1c0.4,0.1,1.2-0.2,1.2,0.6c0,0.6-0.6,0.5-1,0.5c-0.4,0-1,0.1-1.1-0.5
			C221.6,14.9,222.3,15.2,222.7,15.1z"/>
		<path class="st141" d="M211.8,14.7c0.4,0.1,1-0.1,1,0.5c0,0.6-0.5,0.6-1,0.6c-0.5-0.1-1.2,0.1-1.1-0.6
			C210.7,14.5,211.4,14.8,211.8,14.7z"/>
		<path class="st142" d="M249.4,15.7c0.7-0.3,1.4-0.3,2.2,0c-0.6,1.1-1.4,0.6-2.1,0.6C249.4,16,249.4,15.9,249.4,15.7z"/>
		<path class="st21" d="M246.1,15.9c0,1.3-1.1,0.9-1.7,0.8c-0.6,0-1.1-0.4-0.7-1.2c0.1,0,0.1,0.1,0.2,0.2
			C244.6,16.1,245.4,15.9,246.1,15.9z"/>
		<path class="st143" d="M246.1,15.9c-0.8,0.6-1.6,1-2.2-0.2c0.7-0.3,1.5-0.3,2.2,0C246.1,15.8,246.1,15.8,246.1,15.9z"/>
		<path class="st144" d="M255.1,23.9c0-2.4,1.5-4.3,3.8-4.9c2.3-0.7,4.8,0.2,5.9,2.4c0.8,1.6,1.7,2.2,3.4,2c0.4-0.1,1.2-0.3,1.3,0.5
			c0.1,0.9-0.7,0.8-1.3,0.7c-1.7-0.2-2.6,0.3-3.4,2c-0.9,2.1-3.6,3-5.9,2.4C256.4,28.3,255,26.4,255.1,23.9z"/>
		<path class="st145" d="M305.7,14.9c-0.5,0.1-1,0.1-1-0.6c0-0.7,0.6-0.7,1.1-0.7c0.5,0,1.2-0.1,1.1,0.7
			C306.9,15,306.2,14.8,305.7,14.9z"/>
		<path class="st146" d="M305.6,31c-0.5,0-1.1,0-1-0.6c0.1-0.8,0.9-0.6,1.4-0.7c0.4,0,0.8,0,0.9,0.5C306.9,31.1,306.1,30.8,305.6,31
			z"/>
		<path class="st147" d="M295.9,15.1c-0.2,0.7-0.8,0.5-1.3,0.5c-0.4,0-1,0-0.9-0.7c0.1-0.7,0.8-0.6,1.3-0.6
			C295.4,14.4,295.9,14.5,295.9,15.1z"/>
		<path class="st148" d="M289.3,14.7c0.4,0,1-0.1,1,0.5c0,0.7-0.5,0.7-1.1,0.7c-0.5,0-1.1,0.1-1.1-0.7
			C288.2,14.5,288.9,14.7,289.3,14.7z"/>
		<path class="st149" d="M279.2,31.9c-0.2,0.8-0.9,0.5-1.4,0.5c-0.4,0-0.8-0.1-0.8-0.6c0.1-0.9,0.8-0.7,1.3-0.7
			C278.7,31.2,279.2,31.3,279.2,31.9z"/>
		<path class="st150" d="M301.4,30.6c0,0.7-0.5,0.8-0.9,0.8c-0.5,0-1.1,0.3-1.3-0.4c-0.2-0.8,0.5-0.8,1-0.8
			C300.6,30.1,301.2,30,301.4,30.6z"/>
		<path class="st151" d="M255.8,31.6c0.5,0.1,1.1-0.1,1.1,0.6c0,0.6-0.5,0.6-1,0.6c-0.5,0-1,0-1-0.6
			C254.9,31.4,255.6,31.7,255.8,31.6z"/>
		<path class="st152" d="M272.6,15.2c0.5,0,1.1-0.1,1.1,0.7c0,0.6-0.6,0.5-1.1,0.5c-0.5,0-1.2,0.1-1.1-0.6
			C271.6,15.1,272.2,15.2,272.6,15.2z"/>
		<path class="st67" d="M262.6,15.8c0,0.6-0.4,0.6-0.8,0.6c-0.5,0-1.1,0.3-1.2-0.5c-0.1-0.5,0.4-0.6,0.8-0.6
			C261.8,15.4,262.4,15.2,262.6,15.8z"/>
		<path class="st153" d="M261.5,32.7c-0.4,0-1,0.1-1-0.5c-0.1-0.7,0.5-0.6,0.9-0.6c0.4,0,1-0.2,1,0.5
			C262.5,32.7,262,32.7,261.5,32.7z"/>
		<path class="st154" d="M294.6,30.6c0.6,0,1.1,0,1.1,0.6c0,0.6-0.6,0.5-1,0.6c-0.4,0-1,0.2-1.1-0.5
			C293.6,30.5,294.3,30.7,294.6,30.6z"/>
		<path class="st155" d="M290.2,31.5c-0.2,0.7-0.7,0.6-1.2,0.6c-0.5,0-1,0-0.9-0.6c0.1-0.7,0.7-0.6,1.2-0.6
			C289.7,30.8,290.2,30.8,290.2,31.5z"/>
		<path class="st136" d="M301.4,14.5c-0.1,0.8-0.6,0.7-1,0.7c-0.4,0-1,0.2-1.1-0.5c-0.1-0.7,0.6-0.5,1-0.6
			C300.7,14,301.2,14.1,301.4,14.5z"/>
		<path class="st156" d="M284.8,15.5c-0.1,0.6-0.7,0.5-1.1,0.5c-0.4,0-1.1,0.1-1-0.5c0-0.6,0.6-0.5,1.1-0.5
			C284.2,14.9,284.7,14.9,284.8,15.5z"/>
		<path class="st157" d="M278.2,15.1c0.4,0.1,1-0.1,1,0.6c-0.1,0.6-0.6,0.6-1.1,0.5c-0.5,0-1,0-1-0.6
			C277.2,14.9,277.8,15.2,278.2,15.1z"/>
		<path class="st158" d="M272.5,32.5c-0.4,0-1,0.1-1-0.6c0-0.6,0.6-0.6,1-0.6c0.5,0,1,0,1,0.6C273.5,32.6,272.9,32.5,272.5,32.5z"/>
		<path class="st159" d="M268.2,15.9c-0.1,0.6-0.7,0.5-1.1,0.5c-0.4,0-1,0.1-1-0.5c0-0.6,0.6-0.6,1-0.5
			C267.5,15.3,268,15.3,268.2,15.9z"/>
		<path class="st121" d="M268,32.1c-0.2,0.6-0.7,0.6-1.1,0.6c-0.5,0-1,0-0.9-0.7c0.1-0.6,0.7-0.4,1.1-0.4
			C267.5,31.5,268,31.5,268,32.1z"/>
		<path class="st160" d="M284.6,31.6c0,0.6-0.4,0.7-0.8,0.7c-0.5,0-1.1,0.2-1.3-0.5c-0.1-0.5,0.3-0.6,0.7-0.6
			C283.8,31.2,284.3,30.9,284.6,31.6z"/>
		<path class="st161" d="M257.1,15.8c-0.2,0.7-0.7,0.6-1.1,0.6c-0.4,0-1,0-0.9-0.6c0.1-0.5,0.7-0.3,1.2-0.4
			C256.6,15.4,256.9,15.5,257.1,15.8z"/>
		<path class="st162" d="M233.7,31.6c0.4,0.1,1-0.2,1,0.5c0,0.5-0.5,0.5-0.9,0.5c-0.5,0-1,0.1-1-0.6
			C232.8,31.5,233.4,31.7,233.7,31.6z"/>
		<path class="st163" d="M207.3,30.9c-0.5,1.7-1.3,0.6-2.4,0.3C205.8,30.6,206.6,30.9,207.3,30.9C207.3,30.9,207.3,30.9,207.3,30.9z
			"/>
		<path class="st164" d="M228.1,31.6c0.5,0.1,1.1-0.1,1.1,0.5c0,0.5-0.5,0.5-0.9,0.5c-0.4,0-1,0.1-1-0.6
			C227.3,31.5,227.8,31.7,228.1,31.6z"/>
		<path class="st20" d="M260.3,27.9c-2.2,0-4-1.7-4-3.9c0-2.1,1.7-3.8,3.9-3.9c2.1-0.1,4,1.6,4,3.7C264.3,26,262.6,27.8,260.3,27.9z
			"/>
	</g>
</g>
<g>
	<path class="st165" d="M331.8,93.3l-1.8-0.5l-0.9-0.2l-0.4-0.1c-0.4,0.1-0.7,0.2-1,0.2h0.2l0.9,0.2l0.9,0.2l5.6,1.3l1,0.2l-0.9-0.3
		l-0.9-0.3l-0.9-0.3L331.8,93.3z"/>
	<path class="st165" d="M334.4,94.9l-1-0.3l-1.1-0.3l-1-0.3l-1-0.3l-1.1-0.3l-1.1-0.2L327,93l-1.1-0.2l-0.6-0.1c0,0.3,0,0.5,0,0.8
		l1.6,0.3l2.2,0.5l2.2,0.5l2.2,0.6l2.3,0.6l2.5,0.6l-1-0.5l-1-0.5l-1-0.4L334.4,94.9z"/>
	<path class="st165" d="M300,96.3l2.1-0.6c0-0.5,0-1,0.2-1.6l0,0c0-0.1,0-0.2,0.1-0.3c0.3-0.8,0.7-1.6,1.3-2.3l-0.8,0.1l-1.5,0.3
		l-1.4,0.3l-1.3,0.4l-1.2,0.4l-1.2,0.5L295,94l-1.3,0.5l-1.5,0.6l-1.6,0.7l0.9-0.5l0.9-0.5l0.9-0.5l0.9-0.4l1-0.4l1-0.4l1-0.4l1-0.3
		l1.1-0.3l1.1-0.3l1.1-0.3l1.1-0.2l1.2-0.2l0.7-0.1c0.3-0.3,0.6-0.6,1-0.8L305,90l-1.3,0.2l-1.3,0.3l-1.3,0.2l-1.3,0.3l-1.3,0.3
		l-1.2,0.4l-1.2,0.4l-1.1,0.4l-1.1,0.5l-1,0.5l-1,0.5l-1,0.6l-0.8,0.6l-0.8,0.6l0.1,0.2l0.2,0.1l0.1,0.2l-0.2,0.5l0.2,0.3l-0.3,0.5
		l-0.1,0.7v0.6l0.2,0.3h0.5l5.2-1.7L300,96.3z"/>
	<path class="st165" d="M333.1,91l-1.3-0.2l-0.8-0.1c0,0,0,0,0,0.1c0,0,0,0.1-0.1,0.1l3.2,0.2L333.1,91z"/>
	<path class="st165" d="M325.4,92.5l0.7,0.1l0,0c-0.3-0.2-0.6-0.4-0.8-0.6l0,0l0,0c0,0.1,0,0.1,0.1,0.2
		C325.3,92.3,325.3,92.4,325.4,92.5z"/>
	<path class="st165" d="M322.6,98L322.6,98l0.6,0.1l0.9,0.1l0.9,0.1l0.9,0.1l0.9,0.1l0.9,0.2l0.9,0.2l0.9,0.2l0.9,0.2l5.6,1.3l1,0.2
		l-0.9-0.3l-0.9-0.3l-0.9-0.3l-1.8-0.5l-1.8-0.5l-0.9-0.2l-0.9-0.2l-0.9-0.2l-0.9-0.2l-0.9-0.2l-1-0.2l-0.9-0.2l-1-0.1h-0.2
		C323,97.7,322.8,97.9,322.6,98z"/>
	<path class="st165" d="M324.6,95.5c0,0,0,0.1-0.1,0.1c-0.1,0.1-0.1,0.3-0.2,0.5c0,0,0,0.1-0.1,0.1c-0.3,0.4-0.6,0.8-0.9,1.2h0.5
		l1.5,0.1l2.7,0.2l-0.4-0.1l-0.7-0.1l-1.6-0.3l-0.4-0.1h0.9c0.1,0,0.1,0,0.2,0l5.2,0.7l-1.7-0.4l-0.7-0.2L328,97l-0.7-0.1l-0.8-0.1
		l-0.9-0.1l-1-0.1l2,0.1l1.6,0.1l1.3,0.1l5.4,0.4l-1.1-0.2l-1.3-0.2l-2.6-0.3l-1.3-0.2l-1.3-0.2L326,96l-1.1-0.2h1.1h2.2
		c0,0-2-0.2-2.4-0.3L324.6,95.5L324.6,95.5z"/>
	<path class="st165" d="M299.1,102.7L299.1,102.7L299.1,102.7c0-0.1,0-0.3,0.1-0.4c0.1-0.2,0.2-0.4,0.3-0.5l0,0
		c0.5-0.9,1.1-1.6,2-2.2c0.5-0.3,1.2-0.6,1.9-0.9c-0.2-0.2-0.4-0.5-0.6-0.7l0,0c0,0-0.1-0.1-0.1-0.2l-0.6,0.1l-1.4,0.3l-1.3,0.4
		l-1.2,0.4l-1.2,0.5l-1.3,0.5l-1.3,0.5l-1.5,0.6l-1.6,0.7l0.9-0.5l0.9-0.5l0.9-0.5l0.9-0.4l1-0.4l1-0.4l1-0.4l1-0.3l1.1-0.3l1.1-0.3
		l1.1-0.3l0.3-0.1c0-0.1,0-0.1-0.1-0.2v-0.1c-0.1-0.1-0.1-0.3-0.1-0.4l-0.4,0.1l-1.3,0.3l-1.3,0.3l-1.2,0.4l-1.2,0.4l-1.1,0.4
		l-1.1,0.5l-1,0.5l-1,0.5l-1,0.6l-0.8,0.6l-0.8,0.6l0.1,0.2l0.2,0.1l0.1,0.2l-0.2,0.5l0.2,0.3l-0.3,0.5l-0.1,0.7v0.6l0.2,0.3h0.5
		l5.2-1.7L299.1,102.7z"/>
	<path class="st165" d="M337.2,101.7l-1-0.4l-1-0.4l-1-0.3l-1.1-0.3l-1-0.3l-1-0.3l-1.1-0.3l-1.1-0.2l-1.1-0.2l-1.1-0.2l-1.1-0.2
		l-1.1-0.2l-1.2-0.2l-0.8-0.1c-0.4,0.3-0.9,0.6-1.4,0.9l2.1,0.1l2.3,0.3l2.2,0.4l2.2,0.5l2.2,0.5l2.2,0.6l2.3,0.6l2.5,0.6l-1-0.5
		L337.2,101.7z"/>
	<path class="st165" d="M296,109.7L296,109.7c0-0.2,0-0.4,0.1-0.6c0.4-1.1,1.2-1.9,2.7-2.7c0.4-0.2,0.9-0.4,1.4-0.6
		c-0.2-0.2-0.5-0.5-0.6-0.7c0-0.1-0.1-0.2-0.1-0.2l-0.3,0.1l-1.2,0.5l-1.3,0.5l-1.3,0.5l-1.5,0.6l-1.6,0.7l0.9-0.5l0.9-0.5l0.9-0.5
		l0.9-0.4l1-0.4l1-0.4l1-0.4l0.4-0.1c0-0.1-0.1-0.2-0.1-0.3c0-0.1,0-0.3-0.1-0.5H299l-1.2,0.4l-1.1,0.4l-1.1,0.5l-1,0.5l-1,0.5
		l-1,0.6l-0.8,0.6l-0.8,0.6l0.1,0.2l0.2,0.1l0.1,0.2l-0.2,0.5l0.2,0.3l-0.3,0.5l-0.1,0.7v0.6l0.2,0.3h0.5l4.4-1.4
		C295.9,109.8,295.9,109.8,296,109.7z"/>
	<path class="st165" d="M316.8,102.2c1.8,0.2,3.2,0.6,4.1,1.2c0.5,0.3,0.9,0.7,1.2,1.2c0.1,0.1,0.1,0.2,0.2,0.4l1.7,0.1l2.3,0.3
		l2.2,0.4l2.2,0.5l2.2,0.5l2.2,0.6l2.3,0.6l2.5,0.6l-1-0.5l-1-0.5l-1-0.4l-1-0.4l-1-0.3l-1.1-0.3l-1-0.3l-1-0.3l-1.1-0.3l-1.1-0.2
		l-1.1-0.2l-1.1-0.2l-1.1-0.2l-1.1-0.2l-1.2-0.2l-1-0.1l1,0.1l0.9,0.1l0.9,0.1l0.9,0.1l0.9,0.1l0.9,0.2l0.9,0.2l0.9,0.2l0.9,0.2
		l5.6,1.3l1,0.2l-0.9-0.3l-0.9-0.3l-0.9-0.3l-1.8-0.5l-1.8-0.5l-0.9-0.2l-0.9-0.2l-0.9-0.2l-0.9-0.2L327,104l-1-0.2l-0.9-0.2l-1-0.1
		l-1-0.2h0.7h0.7l1.5,0.1l2.7,0.2l-0.4-0.1l-0.7-0.1l-1.6-0.3l-0.4-0.1h0.9c0.1,0,0.1,0,0.2,0l5.2,0.7l-1.7-0.4l-0.7-0.2l-0.7-0.1
		l-0.7-0.1l-0.8-0.1l-0.9-0.1l-1-0.1l2,0.1l1.6,0.1l1.3,0.1l5.4,0.4l-1.1-0.2l-1.3-0.2l-2.6-0.3l-1.3-0.2l-1.3-0.2l-1.3-0.2
		l-1.1-0.2h1.1h2.2c0,0-2-0.2-2.4-0.3l-1.9-0.1l-1.7-0.1h-1.8l-1.8-0.1h-1.9l-1.9,0.1l-1.9,0.1l-2,0.1l-2,0.2h-0.5l-1.3,0.1
		l-1.3,0.2l-0.9,0.1c0.1,0,0.2,0,0.3,0c0.3,0,0.6,0,1,0l4.8-0.1h0.1h0.7l0.8-0.1h0.8h0.8l0.8-0.1h0.8h0.9h0.9h0.9h0.9h0.9h0.9h0.9
		l-3.8,0.2L316.8,102.2z"/>
	<path class="st165" d="M316.1,108.7c0.1-0.1,0.1-0.1,0.1-0.2l0,0l0,0c0,0-0.1-0.1-0.2-0.1l-2.4,0.2l-2.5,0.2l-2.2,0.3l-1.9,0.3
		l-1.7,0.3l-1.5,0.3l-1,0.3c0,0,0.1,0,0.1,0.1c0.7,0.3,2,0.7,4.6,0.7c2.8,0,5-0.3,6.6-1C315.2,109.4,315.8,109,316.1,108.7z"/>
	<path class="st165" d="M304.9,109l1.2-0.2l1.2-0.2l1.3-0.2l1.3-0.2l0.6-0.1l0.6-0.1l0.7-0.1h0.7h0.7l0.8-0.1h0.3
		c-0.5-0.1-1.2-0.1-1.9-0.1c-0.4,0-0.9,0-1.4,0c-3.8,0-5.7,0.5-6.7,0.8c-0.8,0.3-1.3,0.6-1.5,0.9l0.8-0.2L304.9,109z"/>
	<path class="st165" d="M321.1,108.2c0-0.1,0.1-0.2,0.1-0.3c0-0.1,0-0.1,0.1-0.2c0,0,0,0,0-0.1c0.1-0.2,0.1-0.3,0.1-0.5
		c0-0.1,0-0.2,0-0.2c0.1-0.6-0.1-1.2-0.4-1.6c-0.1-0.1-0.2-0.3-0.3-0.4l0,0l0,0l0,0c-0.1-0.1-0.3-0.3-0.5-0.4
		c-0.2-0.2-0.5-0.3-0.8-0.4c-1.3-0.5-3.2-0.7-5.9-0.7l-6.5,0.1c-0.3,0-0.6,0-0.9,0H306c-0.1,0-0.2,0-0.3,0l0,0
		c-0.3,0-0.6-0.1-0.8-0.1c-0.2,0-0.4-0.1-0.5-0.1s-0.2-0.1-0.3-0.1l0,0l0,0l0,0l0,0l0,0c-0.1,0-0.1-0.1-0.2-0.1
		c-0.1-0.1-0.2-0.3-0.2-0.4v-0.1c0-0.1,0-0.2,0-0.3l0,0v-0.1c0-0.1,0.1-0.2,0.2-0.3c0-0.1,0.1-0.1,0.1-0.2c0,0,0-0.1,0.1-0.1
		c0-0.1,0.1-0.1,0.1-0.2c0.2-0.3,0.6-0.5,1-0.7c0.2-0.1,0.4-0.1,0.7-0.2c0.8-0.2,2-0.3,3.5-0.3h0.2h0.8h1.9c1.6,0,3.3-0.3,5.2-0.9
		l0,0c0,0,0,0,0.1,0s0.3-0.1,0.4-0.1c0.8-0.3,1.5-0.6,2.2-0.9s1.3-0.7,1.7-1.1c0.3-0.3,0.6-0.6,0.9-0.9c0.2-0.2,0.3-0.4,0.5-0.6l0,0
		l0,0c0.1-0.1,0.2-0.3,0.2-0.4c0,0,0,0,0-0.1l0,0c0.1-0.2,0.2-0.3,0.3-0.5c0-0.1,0.1-0.1,0.1-0.2c0.1-0.3,0.2-0.6,0.2-0.9
		s0-0.6,0-0.9l0,0v-0.1l0,0l0,0c0-0.2-0.1-0.4-0.2-0.6c0,0,0-0.1-0.1-0.1c0-0.1-0.1-0.1-0.1-0.2s-0.1-0.1-0.1-0.2l0,0
		c0-0.1-0.1-0.1-0.1-0.2c-0.1-0.1-0.2-0.3-0.3-0.5h0.1c0,0,0.1,0,0.1-0.1c0.1,0,0.1-0.1,0.2-0.1c0.3-0.2,0.6-0.3,0.9-0.4h0.1l0,0
		c0.3-0.1,0.6-0.2,0.8-0.2c0.2,0,0.3,0.1,0.4,0.2l0,0c0,0.1,0.1,0.1,0.1,0.2c0,0,0,0.1,0,0.2l0,0l0,0l0,0v0.1c0,0.1,0,0.1,0,0.2
		s0,0.1,0.1,0.2l0,0l0,0c0,0,0,0,0,0.1c0.1,0.1,0.1,0.2,0.3,0.3c0.1,0.1,0.2,0.1,0.3,0.2c0.2,0.1,0.5,0.2,0.9,0.2
		c0.2,0,0.5,0,0.7-0.1c0.1,0,0.3-0.1,0.4-0.2l0,0c0.1,0,0.2-0.1,0.3-0.1c0,0,0.1,0,0.1-0.1c0.1,0,0.1-0.1,0.2-0.1s0.1-0.1,0.2-0.2
		c0.1,0,0.1-0.1,0.2-0.1l0.1-0.1c0.1-0.1,0.2-0.3,0.3-0.4c0-0.1,0.1-0.1,0.1-0.2l0,0l0,0l0,0l0,0v-0.1l0,0l0,0c0-0.1,0-0.2,0-0.2
		c0-0.1,0.1-0.3,0-0.4c0-0.1-0.1-0.1-0.1-0.2l-0.1-0.1l-0.1-0.1c0,0,0-0.1-0.1-0.1c0,0,0-0.1-0.1-0.1l0,0l0,0l0,0l0,0l0,0
		c-0.1-0.1-0.3-0.2-0.5-0.3c-0.4-0.2-0.8-0.3-1.4-0.3c-0.4,0-0.8,0.1-1.3,0.2c0,0,0,0-0.1,0s-0.2,0-0.2,0.1c-0.1,0-0.1,0-0.2,0
		c-0.6,0.2-1.2,0.4-1.9,0.7c-0.4,0.2-0.8,0.4-1.2,0.6c-0.2,0.1-0.4,0.2-0.6,0.3h-0.1c-0.2-0.1-0.5-0.2-0.7-0.3
		c-0.5-0.2-1.1-0.4-1.6-0.6c0,0,0,0-0.1,0s-0.3-0.1-0.4-0.1s-0.3,0-0.4-0.1h-0.1c-0.6-0.1-1.2-0.2-1.8-0.2c-0.4,0-0.7,0-1.1,0
		c-1.7,0-3.2,0.2-4.7,0.6c-0.3,0.1-0.5,0.1-0.7,0.2c-0.6,0.2-1.1,0.4-1.7,0.6l0,0c-0.2,0.1-0.5,0.2-0.7,0.3c0,0-0.1,0-0.1,0.1
		c-0.3,0.2-0.6,0.3-0.9,0.5l0,0c-0.4,0.2-0.7,0.5-1.1,0.7l0,0c-0.8,0.6-1.4,1.3-1.9,2c-0.2,0.3-0.4,0.7-0.5,1c0,0.1,0,0.1-0.1,0.2
		v0.1c0,0.1,0,0.1,0,0.2s-0.1,0.3-0.1,0.4s0,0.2,0,0.3c0,0.2,0,0.3,0,0.5s0.1,0.3,0.1,0.5l0,0l0,0c0,0.1,0,0.1,0.1,0.2v0.1
		c0,0.1,0.1,0.2,0.1,0.3l0,0c0,0,0,0,0,0.1l0.1,0.1c0.1,0.1,0.1,0.2,0.2,0.3l0,0c0.5,0.6,1.3,1.1,2.3,1.6c-1.7,0.4-3,0.8-3.9,1.3
		c-0.1,0.1-0.2,0.1-0.3,0.2c-0.3,0.2-0.6,0.4-0.8,0.6c-0.3,0.3-0.5,0.6-0.7,1v0.1c-0.1,0.1-0.2,0.2-0.2,0.4c0,0,0,0,0,0.1v0.1v0.1
		c0,0.1,0,0.1,0,0.2c0,0.2,0,0.4,0,0.6c0,0.1,0,0.1,0,0.2s0.1,0.3,0.2,0.4c0,0,0,0.1,0.1,0.1c0.1,0.1,0.1,0.2,0.2,0.2
		c0.1,0.1,0.1,0.1,0.2,0.2c0.7,0.6,1.8,1,3.5,1.3c-0.4,0.1-0.8,0.1-1.2,0.2c-0.7,0.1-1.3,0.2-1.9,0.4c-0.8,0.2-1.5,0.5-2.1,0.8
		c-0.3,0.2-0.6,0.3-0.8,0.5c-0.5,0.4-0.9,0.8-1.1,1.2c0,0.1-0.1,0.1-0.1,0.2v0.1v0.1c0,0.1,0,0.2,0,0.2c0,0.2,0,0.4,0,0.6
		s0.1,0.4,0.2,0.6c0,0,0,0,0,0.1c0,0,0,0.1,0.1,0.1l0,0l0,0l0,0c0.1,0.1,0.2,0.3,0.4,0.4c0.1,0.1,0.2,0.2,0.3,0.2
		c0.1,0.1,0.2,0.1,0.2,0.2c0,0,0,0,0.1,0.1c0.1,0,0.2,0.1,0.3,0.1c0,0,0.1,0,0.1,0.1l0,0c1.3,0.7,3.2,1.1,5.7,1.2c0.6,0,1.2,0,1.8,0
		c2.8,0,5.2-0.3,7.3-0.8c1.4-0.3,2.6-0.8,3.7-1.4c0.3-0.1,0.5-0.3,0.7-0.4c0.4-0.2,0.7-0.5,1.1-0.7c0.3-0.3,0.6-0.5,0.8-0.8l0.1-0.1
		c0,0,0,0,0.1-0.1l0.1-0.1c0,0,0,0,0.1-0.1c0.1-0.2,0.3-0.3,0.4-0.5C320.9,108.5,321,108.4,321.1,108.2z M316.4,97.7
		c-1.3,0.8-2.7,1.3-4.3,1.3c-1.6,0-2.7-0.4-3.5-1.3c-0.2-0.2-0.3-0.5-0.4-0.8c0-0.1-0.1-0.2-0.1-0.3c0-0.1,0-0.2-0.1-0.3
		c0-0.1,0-0.2,0-0.4c0-0.1,0-0.2,0-0.3c0-0.1,0-0.3,0-0.5c0-0.3,0.1-0.7,0.2-1.1v-0.1c0.1-0.2,0.2-0.5,0.3-0.7
		c0.5-1.1,1.3-2,2.4-2.7c0.1,0,0.1-0.1,0.2-0.1c0.4-0.2,0.8-0.4,1.2-0.6c0.9-0.4,1.9-0.5,2.9-0.5c0.9,0,1.6,0.1,2.2,0.4
		c0.2,0.1,0.3,0.1,0.5,0.2c0.3,0.2,0.6,0.4,0.8,0.7c0.4,0.4,0.6,0.9,0.6,1.4c0,0.3,0,0.5,0,0.8c0,0.4-0.1,0.8-0.3,1.2
		c-0.1,0.2-0.2,0.4-0.3,0.6c-0.1,0.2-0.1,0.3-0.2,0.5c0,0.1-0.1,0.1-0.1,0.2c-0.1,0.1-0.1,0.2-0.2,0.3l0,0c-0.1,0.1-0.1,0.2-0.2,0.3
		C317.7,96.7,317.1,97.3,316.4,97.7z M310.6,112.3c-0.3,0-0.5,0-0.8,0.1c-0.1,0-0.1,0-0.2,0c-0.3,0-0.7,0-1,0.1c-0.2,0-0.4,0-0.5,0
		c-0.2,0-0.4,0-0.6,0c-0.1,0-0.3,0-0.4,0s-0.3,0-0.4,0c-0.4,0-0.8,0-1.2-0.1c-0.2,0-0.5-0.1-0.7-0.1s-0.5-0.1-0.7-0.1
		c-0.1,0-0.2,0-0.3-0.1c-0.3-0.1-0.6-0.1-0.8-0.2c-0.1,0-0.3-0.1-0.4-0.1s-0.1-0.1-0.2-0.1c0,0-0.1,0-0.1-0.1c0,0,0,0-0.1,0h-0.1
		c0,0,0,0-0.1,0s-0.1-0.1-0.2-0.1c-0.1-0.1-0.2-0.1-0.3-0.2l-0.1-0.1c-0.1-0.1-0.2-0.2-0.2-0.3c0,0,0-0.1-0.1-0.1c0,0,0-0.1-0.1-0.1
		l0,0c0-0.1-0.1-0.2-0.1-0.2v-0.1c0-0.1,0-0.1,0-0.2l0,0c0-0.1,0-0.3,0.1-0.4v-0.1c0-0.1,0-0.1,0.1-0.2c0,0,0-0.1,0.1-0.1
		c0.1-0.2,0.2-0.3,0.3-0.4c0.2-0.2,0.4-0.5,0.7-0.7c0.3-0.3,0.8-0.5,1.3-0.7c0.1-0.1,0.3-0.1,0.4-0.2c0.2-0.1,0.5-0.2,0.7-0.2
		c0.1,0,0.2,0,0.3-0.1c0.5-0.1,1-0.2,1.6-0.3c0.4-0.1,0.9-0.1,1.4-0.2c0.5,0,1-0.1,1.6-0.1c0.5,0,1.1,0,1.7,0c0.3,0,0.5,0,0.7,0
		s0.5,0,0.7,0c0.3,0,0.6,0,0.9,0c0.1,0,0.3,0,0.4,0c0.4,0,0.7,0.1,1,0.1c0.2,0,0.4,0.1,0.6,0.1c0.7,0.2,1.2,0.4,1.6,0.7
		c0.1,0.1,0.1,0.1,0.2,0.2s0.1,0.1,0.1,0.2c0.1,0.1,0.1,0.2,0.1,0.2c0.1,0.1,0.1,0.3,0.1,0.4c0,0.2,0,0.3,0,0.5v0.1v0.1v0.1
		c0,0.1-0.1,0.2-0.1,0.2v0.1c0,0.1-0.1,0.2-0.2,0.2s-0.1,0.2-0.2,0.2c-0.3,0.3-0.6,0.5-1,0.8c-0.1,0.1-0.2,0.1-0.3,0.2
		c-0.1,0.1-0.2,0.1-0.4,0.2c-0.1,0.1-0.3,0.1-0.4,0.2c-0.1,0-0.1,0.1-0.2,0.1s-0.1,0.1-0.2,0.1c-0.2,0.1-0.4,0.1-0.6,0.2h-0.1
		C313,111.9,311.8,112.1,310.6,112.3z"/>
	<path class="st165" d="M339.8,114.1l-1-0.5l-1-0.4l-1-0.4l-1-0.3l-1.1-0.3l-1-0.3l-1-0.3l-1.1-0.3l-1.1-0.2l-1.1-0.2l-1.1-0.2
		l-1.1-0.2l-1.1-0.2l-1.2-0.2l-1.2-0.2l1,0.1l0.9,0.1l0.9,0.1l0.9,0.1l0.9,0.1l0.9,0.2l0.9,0.2l0.9,0.2l0.9,0.2l5.6,1.3l1,0.2
		l-0.9-0.3l-0.9-0.3l-0.9-0.3l-1.8-0.5l-1.8-0.5l-0.9-0.2l-0.9-0.2l-0.9-0.2l-0.9-0.2l-0.9-0.2l-1-0.2l-0.9-0.2l-1-0.1l-1-0.2h0.7
		h0.7l1.5,0.1l2.7,0.2l-0.4-0.1l-0.7-0.1l-1.6-0.3l-0.4-0.1h0.9c0.1,0,0.1,0,0.2,0l5.2,0.7l-1.7-0.4l-0.7-0.2l-0.7-0.1l-0.7-0.1
		l-0.8-0.1l-0.9-0.1l-1-0.1l2,0.1l1.6,0.1l1.3,0.1l5.4,0.4l-1.1-0.2l-1.3-0.2l-2.6-0.3l-1.3-0.2l-1.3-0.2l-1.3-0.2l-1.1-0.2h1.1h2.2
		c0,0-2-0.2-2.4-0.3l-1.9-0.1l-1.7-0.1h-1.1c0,0.2-0.1,0.3-0.1,0.5h0.1h0.9l-1.1,0.1c0,0.1-0.1,0.2-0.1,0.3
		c-0.1,0.4-0.3,0.8-0.6,1.2c-0.2,0.3-0.3,0.5-0.5,0.7l0,0c0,0,0,0-0.1,0.1s-0.1,0.2-0.2,0.3c-0.2,0.2-0.3,0.3-0.5,0.5h1.8l2.4,0.1
		l2.3,0.3l2.2,0.4l2.2,0.5l2.2,0.5l2.2,0.6l2.3,0.6l2.5,0.6L339.8,114.1z"/>
	<path class="st165" d="M298.3,113.4c-0.1,0-0.3-0.1-0.4-0.2c-0.2-0.1-0.3-0.2-0.3-0.3c0,0,0,0-0.1-0.1c-0.3-0.2-0.6-0.5-0.8-0.8
		l-0.6,0.2l-1.5,0.6l-1.6,0.7l0.9-0.5l0.9-0.5l0.9-0.5l0.7-0.3c-0.2-0.2-0.3-0.5-0.3-0.8l-0.8,0.4l-1,0.5l-1,0.6l-0.8,0.6l-0.8,0.6
		l0.1,0.2l0.2,0.1l0.1,0.2l-0.2,0.5l0.2,0.3l-0.3,0.5l-0.1,0.7v0.6l0.2,0.3h0.5l5.2-1.7l3.8-1.1
		C300.2,114.3,299.2,113.9,298.3,113.4C298.3,113.5,298.3,113.5,298.3,113.4z"/>
	<path class="st165" d="M317.4,92.2c-0.1-0.3-0.3-0.6-0.7-0.9c-0.5-0.3-1.1-0.5-1.9-0.5c-0.3,0-0.6,0-0.9,0.1
		c-0.8,0.1-1.5,0.4-2.2,0.9c-0.5,0.3-0.9,0.8-1.3,1.2c-0.2,0.3-0.4,0.5-0.5,0.9c-0.1,0.1-0.1,0.3-0.2,0.4c-0.1,0.3-0.1,0.5-0.2,0.8
		c0,0.2,0,0.3,0,0.5c0,0.1,0,0.2,0,0.2c0,0.1,0.1,0.2,0.1,0.4c0,0.1,0.1,0.2,0.1,0.3c0.1,0.1,0.1,0.2,0.2,0.3l0,0
		c0.6,0.6,1.4,0.9,2.5,0.9c0.5,0,0.9-0.1,1.4-0.2c0.9-0.2,1.7-0.7,2.5-1.3c0.1-0.1,0.2-0.2,0.4-0.3c0,0,0,0,0.1-0.1l0.1-0.1
		l-0.5-0.2c-0.1,0.1-0.3,0.2-0.4,0.3c-0.1,0-0.1,0.1-0.2,0.1c-0.1,0.1-0.3,0.2-0.4,0.3c-0.5,0.3-1,0.6-1.6,0.7
		c-0.3,0.1-0.5,0.1-0.8,0.1c-0.7,0-1.2-0.2-1.5-0.5c-0.1-0.1-0.1-0.1-0.2-0.2v-0.1c0-0.1-0.1-0.1-0.1-0.2s-0.1-0.2-0.1-0.4
		c0-0.1,0-0.2,0-0.2c0-0.1,0-0.3,0.1-0.5c0-0.2,0-0.4,0.1-0.7h2.5h3.5c0.2-0.5,0.2-1,0.2-1.3c0-0.1,0-0.2,0-0.3
		C317.6,92.5,317.5,92.4,317.4,92.2z M316.1,93.1c-0.1,0.3-0.2,0.5-0.4,0.6c-0.2,0.1-0.3,0.2-0.6,0.2h-1.3h-2.3
		c0-0.1,0.1-0.1,0.1-0.2c0.1-0.3,0.3-0.6,0.4-0.8c0.2-0.4,0.5-0.7,0.8-0.9c0.3-0.2,0.7-0.4,1-0.5s0.5-0.1,0.8-0.1
		c0.6,0,1,0.2,1.3,0.5c0.1,0.2,0.2,0.3,0.2,0.5C316.2,92.6,316.2,92.8,316.1,93.1L316.1,93.1z"/>
</g>
</svg>
