<?xml version="1.0" encoding="utf-8"?>
<!-- Generator: Adobe Illustrator 24.0.0, SVG Export Plug-In . SVG Version: 6.00 Build 0)  -->
<svg version="1.1" id="Capa_1" xmlns="http://www.w3.org/2000/svg" xmlns:xlink="http://www.w3.org/1999/xlink" x="0px" y="0px"
	 viewBox="0 0 512 512" style="enable-background:new 0 0 512 512;" xml:space="preserve">
<style type="text/css">
	.st0{fill:#FFFFFF;}
	.st1{fill:#1C1C1A;}
</style>
<g>
	<path d="M0,112.9c1.1-0.4,2.3-0.7,3.3-1.2c29.5-13.2,59.6-25,90.7-34.1c24.3-7.1,48.8-13.6,73.1-20.4c7.6-2.1,15.1-4.4,22.7-6.5
		c1.7-0.5,2.7-1.4,3.7-2.9c4.3-6.7,8.6-13.4,13-20.1c0.6-0.9,1.2-1.8,1.9-2.8c4.2,0.5,8.4,0.9,12.5,1.4c13.2,1.5,26.4,2,39.7,1.9
		c13.6-0.2,27.1-1.2,40.6-3.1c1.8-0.2,2.9,0.2,4,1.7c4.5,6.4,9.3,12.7,13.8,19.2c1.2,1.8,2.7,2.8,4.7,3.6
		c20.8,7.7,42.2,13.7,63.7,19.4c18.3,4.8,36.7,9.5,54.7,15.6c20.8,7.1,40.8,15.8,60.1,26c3.2,1.7,6.4,3.4,9.8,5.2
		c-0.2,0.9-0.4,1.8-0.6,2.6c-3.7,14.4-7.2,28.8-11.1,43.2c-3.4,12.7-8.2,24.7-15.6,35.7c-4.8,7.1-10.5,13.3-17.2,19
		c-1.1-0.8-2.2-1.5-3.2-2.3c-10.4-7.9-22.2-12.2-35-14.2c-10.2-1.6-20.5-3-30.7-4.5c-0.4-0.1-0.8,0-1.6,0c0,92.4,0,184.7,0,277.1
		c-4.7,0.8-9,1.7-13.3,2.4c-14,2.1-27.9,4.5-41.9,6.2c-14.4,1.8-28.9,3-43.4,4.2c-18.2,1.6-36.4,2-54.6,1.9
		c-16.6-0.1-33.2-1-49.7-2.4c-19.9-1.8-39.6-4.7-59.2-8.6c-5.1-1-10.1-2.2-15.2-3.3c-0.7-0.2-1.4-0.5-2.4-0.8
		c0-92.4,0-184.8,0-277.2c-25.6,0.4-49.3,6.4-71.2,19c-6.4-5.2-11.7-10.8-16.3-17.1c-8.6-11.9-14.6-25.2-18.7-39.2
		c-3.6-12.5-6.5-25.2-9.8-37.9c-0.2-1-0.9-1.8-1.3-2.7C0,115.5,0,114.2,0,112.9z M128.9,96.6c0.3,1.7,0.6,3.1,0.9,4.5
		c2.8,14.7,5.1,29.5,4.9,44.6c-0.2,14.6-2.8,28.7-9.5,41.9c-1.1,2.1-1.6,4.1-1.6,6.5c0,86.5,0,173,0,259.5c0,1.2,0,2.4,0,3.7
		c1,0.2,1.8,0.5,2.6,0.6c18.9,2.2,37.9,4.6,56.9,6.6c18.7,2,37.4,3.1,56.2,3.9c27.8,1.1,55.7,0.7,83.4-1.5
		c20.2-1.6,40.3-4.1,60.3-7.9c2.5-0.5,5-1,7.8-1.5c0-1.3,0-2.3,0-3.4c0-87.1,0-174.1,0-261.2c0-2-0.4-3.8-1.3-5.6
		c-6-11.6-8.8-24-9.5-37c-0.8-14.7,0.9-29.3,3.5-43.8c0.6-3.3,1.2-6.5,1.8-10c-24-8.2-47.8-16.3-71.9-24.5
		c-4.7,17.9-13.6,32.7-28.8,43.5c-7.1-7.8-14.1-15.5-21.1-23.1c-0.1-0.1-0.2-0.1-0.3-0.1c-0.1,0-0.2,0.1-0.6,0.2c0,23.9,0,47.9,0,72
		c-5.1,0-9.8,0-14.5,0c-0.2-0.3-0.2-0.4-0.2-0.5c0-22.8-0.1-45.5-0.1-68.3c0-0.2,0-0.4-0.1-0.6c0-0.1-0.1-0.2-0.2-0.2
		c-0.1-0.1-0.2-0.1-0.5-0.2c-6.7,7.4-13.5,14.9-20.3,22.5c-15.4-11-24.2-26-28.9-44C174.7,81,152,88.8,128.9,96.6z M57.9,200.8
		c1.5-0.6,2.6-1,3.6-1.5c11.9-4.9,24.3-8.2,37.1-9.5c6.8-0.7,13.5-1.3,20.3-1.9c2-0.2,3.2-0.8,3.9-2.7c1.3-3.4,2.9-6.7,4-10.2
		c5.3-16.3,5.7-33.1,3.4-49.9c-1.7-12.5-4.2-24.8-6.4-37.2c-0.7-3.8-1.5-7.6-2.3-11.6c-35.6,9.4-70,21.3-103.5,36
		C22.4,146,38.3,174.1,57.9,200.8z M392.7,77c-0.2,0.8-0.4,1.2-0.5,1.6c-2.3,12.1-4.9,24.1-6.9,36.2c-2.4,14.1-3.3,28.3-1.5,42.5
		c1.2,9.7,3.8,19,8.1,27.8c0.8,1.7,1.9,2.7,3.8,3c9.5,1.4,18.9,3,28.4,4.4c10,1.4,19.7,3.4,29,7.5c0.3,0.1,0.6,0.1,1,0.1
		c6.8-9.1,13.1-18.4,18.9-28.2c9.6-16.1,16.6-33.1,20-51.6c0.4-2.3,0.7-4.6,1-6.8C461.7,96.6,427.9,85.5,392.7,77z M390.6,460.9
		c-1.5,0.2-2.7,0.4-4,0.6c-8.4,1.4-16.8,3-25.2,4.2c-14.9,2.2-29.9,3.7-45,4.7c-22.5,1.5-45,2.2-67.6,1.3
		c-17.1-0.7-34.2-1.7-51.4-2.8c-10.3-0.7-20.6-1.7-30.9-2.9c-13.1-1.5-26.1-3.2-39.1-4.9c-1.1-0.1-2.3-0.2-3.6-0.3
		c0,2.2,0,4.1,0,6.1c0.8,0.2,1.5,0.5,2.2,0.7c16.2,3.7,32.5,6.5,49,8.6c19.3,2.4,38.6,4.1,58,4.3c15.5,0.2,31.1,0.1,46.6-0.6
		c15.3-0.7,30.6-1.7,45.8-3.4c18.3-2.1,36.5-5,54.8-7.6c3.5-0.5,6.9-1.2,10.3-1.9C390.6,464.8,390.6,463,390.6,460.9z M302.9,35
		c-8.1,21.4-18.8,40.7-37.8,54.4c6.8,7.5,13.3,14.7,19.8,21.9c0.6-0.4,1-0.6,1.3-0.9c0.8-0.6,1.5-1.2,2.2-1.9
		c8.3-7.4,14.7-16.2,18.3-26.7c3.2-9.3,5.7-18.8,8.6-28.1c0.4-1.4-0.1-2.3-0.9-3.2c-3.4-4.6-6.7-9.3-10.1-13.9
		C304,36.1,303.6,35.7,302.9,35z M246.1,90.9c-9.4-6.7-16.8-14.9-23-24.2c-6.1-9.3-10.6-19.4-14.7-29.8c-0.5,0.4-0.7,0.6-0.9,0.8
		c-3.6,5.5-7.1,11-10.7,16.5c-0.7,1-0.7,1.9-0.3,3c1.9,6.5,3.6,13.1,5.6,19.6c3.9,12.7,10.2,23.9,20.3,32.9c1.2,1.1,2.6,2.1,4,3.2
		C233,105.5,239.4,98.4,246.1,90.9z M221,56.8c6.3,11.3,13.7,21,23.4,28.8c2.3,1.9,4.6,3,7.6,2.7c2.1-0.2,4.3-0.1,6.5,0
		c1.8,0.1,3.3-0.4,4.8-1.5c10.5-7.4,18.5-17,25-27.9c0.3-0.5,0.4-1.1,0.7-1.9C266.2,51.7,243.8,50.2,221,56.8z M300.6,31.7
		c-2.2,0.2-3.8,0.3-5.4,0.5c-6,0.6-12,1.2-18,1.6c-18.7,1.3-37.3,0.8-55.9-1.1c-2.9-0.3-5.8-0.7-8.7-0.9c-1.6-0.1-2.2,0.6-1.7,2.1
		c0.6,1.9,1.2,3.7,2,5.5c2.1,4.8,4.2,9.6,6.4,14.6c12-3.5,23.8-4.9,35.8-4.7c12.1,0.2,24,2.2,35.7,4.9
		C294.8,47,297.8,39.8,300.6,31.7z M318.4,54.3c-1.4,5.2-2.7,9.9-4.1,14.8c24.1,8.2,47.8,16.3,71.7,24.4c1.2-6,2.3-11.6,3.4-17.4
		C365.5,69.8,341.8,63.3,318.4,54.3z M128.3,93.5c23-7.9,45.8-15.6,68.6-23.4c-1.5-4.8-2.2-9.4-4.1-13.5
		c-22.8,6.3-45.4,12.6-68.1,18.9C125.9,81.6,127.1,87.4,128.3,93.5z M497.5,115.3c-0.3,0.5-0.5,0.7-0.5,0.9c-0.1,0.5-0.3,1-0.4,1.6
		c-2.4,16.1-7.8,31.3-15.3,45.7c-6.4,12.4-14.1,23.9-22.3,35.2c-0.7,1-1.4,2-2.1,3.1c3.6,2.2,6.9,4.2,10.4,6.4c2.7-3,5.5-5.8,8-8.9
		c8.1-9.9,13.5-21.3,17-33.5c4.3-15.1,8-30.4,11.9-45.6c0.1-0.3,0-0.6,0-1.2C502.2,117.8,499.9,116.6,497.5,115.3z M7.4,116.9
		c0.4,1.9,0.7,3.6,1.1,5.2c3.3,14.7,6.7,29.4,12.1,43.5c4.4,11.5,10,22.4,18,31.9c2.6,3,5.1,6.1,8.5,8.4c2.6-1.3,5.2-2.6,7.9-3.9
		c-9.7-13.5-18.6-27.1-25.7-41.8S17.4,130,15,113.6C12.2,114.8,9.9,115.9,7.4,116.9z M259.4,161.5c0-23.5,0-46.6,0-69.8
		c-2.9,0-5.5,0-8.1,0c-0.7,4.8-0.5,67.6,0.2,69.8C254.1,161.5,256.6,161.5,259.4,161.5z"/>
	<path class="st0" d="M128.9,96.6c23-7.8,45.7-15.6,68.8-23.5c4.7,18,13.5,33,28.9,44c6.8-7.6,13.6-15,20.3-22.5
		c0.3,0.1,0.4,0.2,0.5,0.2c0.1,0.1,0.1,0.1,0.2,0.2c0,0.2,0.1,0.4,0.1,0.6c0,22.8,0.1,45.5,0.1,68.3c0,0.1,0.1,0.2,0.2,0.5
		c4.7,0,9.4,0,14.5,0c0-24.1,0-48.1,0-72c0.4-0.1,0.5-0.2,0.6-0.2s0.2,0,0.3,0.1c7,7.6,14,15.3,21.1,23.1
		c15.1-10.7,24-25.5,28.8-43.5c24.1,8.2,47.9,16.3,71.9,24.5c-0.6,3.5-1.2,6.7-1.8,10c-2.6,14.5-4.3,29-3.5,43.8
		c0.7,12.9,3.5,25.4,9.5,37c0.9,1.8,1.3,3.6,1.3,5.6c0,87.1,0,174.1,0,261.2c0,1.1,0,2.1,0,3.4c-2.8,0.6-5.3,1.1-7.8,1.5
		c-19.9,3.7-40,6.3-60.3,7.9c-27.8,2.2-55.6,2.6-83.4,1.5c-18.8-0.7-37.5-1.8-56.2-3.9c-19-2.1-37.9-4.4-56.9-6.6
		c-0.8-0.1-1.6-0.4-2.6-0.6c0-1.3,0-2.5,0-3.7c0-86.5,0-173,0-259.5c0-2.3,0.5-4.4,1.6-6.5c6.6-13.2,9.2-27.3,9.5-41.9
		c0.3-15.1-2.1-29.9-4.9-44.6C129.5,99.7,129.3,98.4,128.9,96.6z"/>
	<path class="st0" d="M57.9,200.8C38.3,174.1,22.4,146,18,112.3c33.5-14.6,67.9-26.6,103.5-36c0.8,4.1,1.7,7.8,2.3,11.6
		c2.2,12.4,4.8,24.8,6.4,37.2c2.2,16.8,1.9,33.6-3.4,49.9c-1.1,3.5-2.7,6.8-4,10.2c-0.7,1.9-2,2.5-3.9,2.7
		c-6.8,0.5-13.5,1.2-20.3,1.9c-12.9,1.2-25.2,4.6-37.1,9.5C60.5,199.8,59.4,200.2,57.9,200.8z"/>
	<path class="st0" d="M392.7,77c35.2,8.5,69,19.6,101.3,36.5c-0.3,2.2-0.6,4.5-1,6.8c-3.4,18.5-10.4,35.5-20,51.6
		c-5.8,9.7-12.2,19.1-18.9,28.2c-0.4,0-0.7,0-1-0.1c-9.3-4.1-19-6.1-29-7.5c-9.5-1.4-18.9-3-28.4-4.4c-1.9-0.3-3-1.2-3.8-3
		c-4.3-8.8-6.9-18.1-8.1-27.8c-1.7-14.3-0.8-28.4,1.5-42.5c2-12.1,4.6-24.1,6.9-36.2C392.3,78.2,392.5,77.8,392.7,77z"/>
	<path class="st0" d="M390.6,460.9c0,2.1,0,3.9,0,6.1c-3.4,0.6-6.9,1.4-10.3,1.9c-18.2,2.6-36.5,5.5-54.8,7.6
		c-15.2,1.7-30.5,2.8-45.8,3.4c-15.5,0.7-31.1,0.8-46.6,0.6c-19.4-0.2-38.8-1.8-58-4.3c-16.5-2.1-32.8-4.9-49-8.6
		c-0.7-0.2-1.4-0.4-2.2-0.7c0-2,0-3.9,0-6.1c1.3,0.1,2.4,0.1,3.6,0.3c13,1.6,26.1,3.4,39.1,4.9c10.3,1.2,20.6,2.2,30.9,2.9
		c17.1,1.1,34.2,2.1,51.4,2.8c22.5,0.9,45.1,0.2,67.6-1.3c15.1-1,30.1-2.6,45-4.7c8.4-1.2,16.8-2.8,25.2-4.2
		C387.9,461.3,389.1,461.1,390.6,460.9z"/>
	<path class="st0" d="M302.9,35c0.7,0.8,1.1,1.2,1.5,1.7c3.4,4.6,6.7,9.2,10.1,13.9c0.7,1,1.3,1.8,0.9,3.2
		c-2.9,9.4-5.4,18.9-8.6,28.1c-3.6,10.5-10,19.3-18.3,26.7c-0.7,0.6-1.5,1.3-2.2,1.9c-0.3,0.3-0.7,0.5-1.3,0.9
		c-6.5-7.2-13-14.4-19.8-21.9C284.1,75.7,294.8,56.4,302.9,35z"/>
	<path class="st0" d="M246.1,90.9c-6.8,7.5-13.2,14.6-19.8,22c-1.4-1.1-2.7-2.1-4-3.2c-10-8.9-16.4-20.1-20.3-32.9
		c-2-6.5-3.7-13.1-5.6-19.6c-0.3-1.1-0.3-2,0.3-3c3.6-5.5,7.2-11,10.7-16.5c0.2-0.2,0.4-0.4,0.9-0.8c4.1,10.5,8.6,20.6,14.7,29.8
		C229.3,76,236.8,84.2,246.1,90.9z"/>
	<path class="st0" d="M221,56.8c22.9-6.6,45.2-5.1,67.9,0.2c-0.3,0.8-0.4,1.4-0.7,1.9c-6.5,11-14.6,20.5-25,27.9
		c-1.5,1.1-3,1.6-4.8,1.5c-2.1-0.1-4.3-0.2-6.5,0c-3,0.3-5.3-0.9-7.6-2.7C234.7,77.8,227.2,68.2,221,56.8z"/>
	<path class="st0" d="M300.6,31.7c-2.8,8-5.8,15.2-9.8,22.4c-11.8-2.7-23.6-4.6-35.7-4.9c-12-0.2-23.8,1.2-35.8,4.7
		c-2.2-5-4.3-9.8-6.4-14.6c-0.8-1.8-1.4-3.6-2-5.5c-0.5-1.6,0.1-2.3,1.7-2.1c2.9,0.2,5.8,0.6,8.7,0.9c18.6,1.9,37.2,2.4,55.9,1.1
		c6-0.4,12-1.1,18-1.6C296.8,32.1,298.4,31.9,300.6,31.7z"/>
	<path class="st0" d="M318.4,54.3c23.4,9,47.1,15.5,71.1,21.7c-1.1,5.8-2.2,11.4-3.4,17.4c-23.9-8.1-47.6-16.2-71.7-24.4
		C315.7,64.2,317,59.5,318.4,54.3z"/>
	<path class="st0" d="M128.3,93.5c-1.2-6.1-2.4-11.9-3.6-18c22.7-6.3,45.3-12.6,68.1-18.9c1.8,4.2,2.6,8.7,4.1,13.5
		C174.1,77.9,151.3,85.6,128.3,93.5z"/>
	<path class="st0" d="M497.5,115.3c2.4,1.3,4.7,2.5,6.9,3.6c0,0.6,0.1,0.9,0,1.2c-3.9,15.2-7.6,30.5-11.9,45.6
		c-3.5,12.2-8.9,23.6-17,33.5c-2.5,3.1-5.3,5.9-8,8.9c-3.6-2.2-6.8-4.2-10.4-6.4c0.7-1,1.3-2.1,2.1-3.1
		c8.1-11.3,15.9-22.8,22.3-35.2c7.5-14.4,12.8-29.6,15.3-45.7c0.1-0.5,0.2-1.1,0.4-1.6C497,116,497.2,115.8,497.5,115.3z"/>
	<path class="st0" d="M7.4,116.9c2.5-1.1,4.8-2.1,7.5-3.3c2.4,16.4,7.2,31.9,14.3,46.6c7,14.7,15.9,28.3,25.7,41.8
		c-2.7,1.3-5.2,2.6-7.9,3.9c-3.3-2.3-5.9-5.4-8.5-8.4c-8-9.5-13.6-20.4-18-31.9c-5.4-14.1-8.8-28.8-12.1-43.5
		C8.1,120.5,7.8,118.8,7.4,116.9z"/>
	<path class="st0" d="M259.4,161.5c-2.7,0-5.3,0-7.8,0c-0.7-2.2-0.9-65.1-0.2-69.8c2.6,0,5.2,0,8.1,0
		C259.4,114.9,259.4,138,259.4,161.5z"/>
	<g id="LOGO_GAMA_3_">
		<g>
			<path class="st1" d="M355.9,129.5l-2.7-0.7l-1.4-0.3l-0.6-0.1c-0.5,0.2-1,0.3-1.6,0.3h0.2l1.4,0.2l1.4,0.3l8.4,1.9l1.5,0.4
				l-1.3-0.4l-1.4-0.4l-1.4-0.4L355.9,129.5z"/>
			<path class="st1" d="M359.7,131.9l-1.5-0.5l-1.6-0.4l-1.5-0.4l-1.5-0.4l-1.6-0.4l-1.6-0.4l-1.6-0.3l-1.6-0.3l-0.9-0.2
				c0,0.4,0,0.8,0,1.2l2.5,0.4l3.2,0.7l3.3,0.8l3.3,0.8l3.5,1l3.8,0.9l-1.5-0.7l-1.5-0.7l-1.5-0.6L359.7,131.9z"/>
			<path class="st1" d="M308.3,133.9l3.2-0.8c0-0.7,0.1-1.5,0.3-2.3c0,0,0,0,0-0.1s0.1-0.3,0.1-0.5c0.4-1.2,1.1-2.4,2-3.4l-1.2,0.2
				l-2.3,0.4l-2.1,0.5l-1.9,0.6l-1.9,0.5l-1.8,0.7l-1.9,0.7l-2,0.8l-2.2,0.9l-2.4,1l1.4-0.8l1.3-0.8l1.4-0.7l1.4-0.6l1.4-0.6
				l1.4-0.6l1.5-0.6l1.5-0.5l1.6-0.4l1.6-0.4l1.7-0.4l1.7-0.4l1.8-0.3l1-0.2c0.5-0.4,1-0.8,1.5-1.2l-0.6,0.1l-2,0.3l-2,0.4l-2,0.3
				l-1.9,0.4l-1.9,0.4l-1.8,0.6l-1.8,0.6l-1.7,0.6L299,129l-1.5,0.8l-1.5,0.8l-1.5,0.9l-1.3,0.9l-1.2,1l0.2,0.4l0.3,0.2l0.2,0.3
				l-0.3,0.8l0.4,0.5l-0.5,0.8l-0.2,1.1v0.8l0.3,0.4h0.7l7.8-2.5L308.3,133.9z"/>
			<path class="st1" d="M357.8,126.1l-1.9-0.2l-1.1-0.1c0,0,0,0.1-0.1,0.1c0,0.1-0.1,0.1-0.1,0.2l4.8,0.3L357.8,126.1z"/>
			<path class="st1" d="M346.3,128.2l1,0.1h0.1c-0.5-0.2-0.9-0.5-1.2-0.8c0,0,0,0-0.1-0.1c0,0,0,0,0,0.1s0.1,0.2,0.1,0.3
				C346.2,128,346.3,128.1,346.3,128.2z"/>
			<path class="st1" d="M342.1,136.5l-0.1,0.1l1,0.1l1.4,0.1l1.4,0.2l1.4,0.2l1.4,0.1l1.4,0.2l1.3,0.2l1.4,0.2l1.4,0.3l8.4,1.9
				l1.5,0.4l-1.3-0.4l-1.4-0.4l-1.4-0.4l-2.7-0.7l-2.7-0.7l-1.4-0.3l-1.4-0.3l-1.4-0.3l-1.4-0.2l-1.4-0.3l-1.4-0.3l-1.4-0.2
				l-1.5-0.2h-0.3C342.7,136.1,342.4,136.3,342.1,136.5z"/>
			<path class="st1" d="M345.2,132.8c0,0.1-0.1,0.1-0.1,0.2c-0.1,0.2-0.2,0.4-0.4,0.7c0,0.1-0.1,0.1-0.1,0.2
				c-0.4,0.6-0.9,1.2-1.4,1.7h0.7l2.2,0.1l4.1,0.3l-0.6-0.1l-1-0.2l-2.4-0.4l-0.6-0.1l1.3-0.1c0.1,0,0.2,0,0.3,0l7.7,1l-2.5-0.6
				l-1-0.2l-1-0.2l-1.1-0.2l-1.1-0.2l-1.3-0.2l-1.5-0.2l3,0.1l2.4,0.1l2,0.1l8.1,0.6L359,135l-1.9-0.2l-3.9-0.5l-2-0.2l-2-0.3
				l-1.9-0.3l-1.7-0.2l1.7,0.1h3.2c0,0-3-0.4-3.6-0.4L345.2,132.8L345.2,132.8z"/>
			<path class="st1" d="M307,143.6L307,143.6L307,143.6c0-0.2,0.1-0.4,0.1-0.6c0.1-0.4,0.3-0.6,0.4-0.8c0,0,0,0,0-0.1
				c0.7-1.3,1.7-2.4,3-3.2c0.8-0.5,1.7-1,2.9-1.4c-0.3-0.3-0.6-0.7-0.8-1l0,0c0-0.1-0.1-0.1-0.2-0.2l-0.8,0.1l-2.1,0.5l-1.9,0.6
				l-1.9,0.5l-1.8,0.7l-1.9,0.7l-2,0.8l-2.2,0.9l-2.4,1l1.4-0.8l1.3-0.8l1.4-0.7l1.4-0.6l1.4-0.6l1.4-0.6l1.5-0.6l1.5-0.5l1.6-0.4
				l1.6-0.4l1.7-0.4l0.4-0.1c0-0.1-0.1-0.2-0.1-0.3v-0.1c-0.1-0.2-0.1-0.4-0.2-0.6l-0.6,0.1l-1.9,0.4l-1.9,0.4l-1.8,0.6l-1.8,0.6
				l-1.7,0.6l-1.7,0.7l-1.5,0.8l-1.5,0.8l-1.5,0.9l-1.3,0.9l-1.2,1l0.2,0.4l0.3,0.2l0.2,0.3l-0.3,0.8l0.4,0.5l-0.5,0.8l-0.2,1.1v0.8
				l0.3,0.4h0.7l7.8-2.5L307,143.6z"/>
			<path class="st1" d="M364,142l-1.5-0.6l-1.5-0.6l-1.5-0.5l-1.6-0.4l-1.5-0.4l-1.5-0.4l-1.6-0.4l-1.6-0.4L350,138l-1.6-0.3
				l-1.7-0.3l-1.7-0.3l-1.8-0.3l-1.3-0.2c-0.6,0.5-1.3,0.9-2.1,1.4l3.2,0.2l3.5,0.4l3.3,0.6l3.2,0.7l3.3,0.8l3.3,0.8l3.5,1l3.8,0.9
				l-1.5-0.7L364,142z"/>
			<path class="st1" d="M302.3,154.1C302.3,154.1,302.3,154,302.3,154.1c0-0.2,0-0.5,0.2-0.9c0.5-1.6,1.9-2.9,4-4.1
				c0.6-0.3,1.3-0.6,2-0.9c-0.4-0.3-0.7-0.7-0.9-1.1c-0.1-0.1-0.1-0.2-0.2-0.4l-0.4,0.1l-1.8,0.7l-1.9,0.7l-2,0.8l-2.2,0.9l-2.4,1
				l1.4-0.8l1.3-0.8l1.4-0.7l1.4-0.6l1.4-0.6l1.4-0.6l1.5-0.6l0.6-0.2c0-0.1-0.1-0.3-0.1-0.4c0-0.2-0.1-0.5-0.1-0.7l-0.2,0.1
				l-1.8,0.6l-1.7,0.6l-1.7,0.7l-1.5,0.8l-1.5,0.8l-1.5,0.9l-1.3,0.9l-1.2,1l0.2,0.4l0.3,0.2l0.2,0.3l-0.3,0.8l0.4,0.5l-0.5,0.8
				l-0.2,1.1v0.8l0.3,0.4h0.7l6.6-2.1C302.3,154.2,302.3,154.2,302.3,154.1z"/>
			<path class="st1" d="M333.5,142.9c2.7,0.3,4.8,0.9,6.1,1.8c0.7,0.5,1.3,1.1,1.8,1.8c0.1,0.2,0.2,0.3,0.3,0.5l2.6,0.1l3.5,0.4
				l3.3,0.6l3.2,0.7l3.3,0.8l3.3,0.8l3.5,1l3.8,0.9l-1.5-0.7l-1.5-0.7l-1.5-0.6l-1.5-0.6l-1.5-0.5l-1.6-0.4l-1.5-0.4L356,148
				l-1.6-0.4l-1.6-0.4l-1.6-0.3l-1.6-0.3l-1.7-0.3l-1.7-0.3l-1.8-0.3l-1.8-0.2l1.5,0.1l1.4,0.1l1.4,0.2l1.4,0.2l1.4,0.1l1.4,0.2
				l1.3,0.2l1.4,0.2l1.4,0.3l8.4,1.9l1.5,0.4l-1.3-0.4l-1.4-0.4l-1.4-0.4l-2.7-0.7l-2.7-0.7l-1.4-0.3l-1.4-0.3l-1.4-0.3l-1.4-0.2
				l-1.4-0.3l-1.4-0.3l-1.4-0.2l-1.5-0.2l-1.5-0.2l1.1-0.1h1l2.2,0.1l4.1,0.3l-0.6-0.1l-1-0.2l-2.4-0.4l-0.6-0.1l1.3-0.1
				c0.1,0,0.2,0,0.3,0l7.7,1l-2.5-0.6l-1-0.2l-1-0.2l-1.1-0.2l-1.1-0.2l-1.3-0.2l-1.5-0.2l3,0.1l2.4,0.1l2,0.1l8.1,0.6l-1.7-0.2
				l-1.9-0.2l-3.9-0.5l-2-0.2l-2-0.3l-1.9-0.3l-1.7-0.2l1.7,0.1h3.2c0,0-3-0.4-3.6-0.4l-2.8-0.2l-2.5-0.1l-2.6-0.1l-2.7-0.1h-2.8
				l-2.9,0.1l-2.9,0.1l-3,0.2l-3,0.2l-0.7,0.1l-2,0.2l-2,0.3l-1.4,0.2c0.1,0,0.3,0,0.5,0c0.4,0,0.9,0,1.5,0l7.2-0.1h0.1l1.1-0.1
				l1.2-0.1l1.2-0.1l1.2-0.1l1.2-0.1h1.3h1.3h1.3l1.4-0.1h1.3h1.4h1.4l1.4,0.1l-5.6,0.3L333.5,142.9z"/>
			<path class="st1" d="M332.4,152.6c0.1-0.1,0.1-0.2,0.2-0.3c0,0,0,0,0-0.1c0,0,0,0,0-0.1c-0.1,0-0.2-0.1-0.3-0.2l-3.5,0.3
				l-3.8,0.4l-3.3,0.4l-2.9,0.4l-2.6,0.4l-2.3,0.4l-1.6,0.4c0.1,0,0.1,0.1,0.2,0.1c1,0.5,3,1.1,6.9,1.1c4.2,0,7.5-0.5,9.9-1.4
				C331.1,153.6,332,153,332.4,152.6z"/>
			<path class="st1" d="M315.7,153l1.8-0.3l1.8-0.3l1.9-0.3l2-0.2l0.9-0.1l0.9-0.1l1.1-0.1l1.1-0.1l1.1-0.1l1.2-0.1h0.5
				c-0.8-0.1-1.8-0.2-2.9-0.2c-0.6,0-1.3,0-2,0c-5.6,0-8.5,0.7-10,1.3c-1.2,0.5-1.9,0.9-2.3,1.3l1.2-0.3L315.7,153z"/>
			<path class="st1" d="M339.9,151.8c0.1-0.1,0.1-0.3,0.2-0.4c0-0.1,0.1-0.2,0.1-0.3V151c0.1-0.2,0.1-0.5,0.2-0.7
				c0-0.1,0-0.2,0.1-0.4c0.1-0.9-0.1-1.7-0.6-2.5c-0.1-0.2-0.3-0.4-0.5-0.6l0,0l0,0l0,0c-0.2-0.2-0.4-0.4-0.7-0.6
				c-0.4-0.2-0.8-0.4-1.3-0.6c-1.9-0.7-4.8-1.1-8.8-1.1l-9.8,0.1c-0.5,0-1,0-1.4,0c-0.1,0-0.1,0-0.2,0s-0.3,0-0.4,0l0,0
				c-0.5,0-0.9-0.1-1.2-0.1c-0.3-0.1-0.6-0.1-0.8-0.2c-0.1,0-0.3-0.1-0.4-0.2l0,0c0,0,0,0-0.1,0l0,0l0,0l0,0
				c-0.1-0.1-0.2-0.1-0.2-0.2c-0.2-0.2-0.3-0.4-0.4-0.6c0-0.1,0-0.1,0-0.2c0-0.1,0-0.3,0-0.4l0,0c0-0.1,0-0.1,0-0.2
				c0.1-0.2,0.1-0.3,0.2-0.4c0.1-0.1,0.1-0.2,0.2-0.2l0.1-0.1c0.1-0.1,0.1-0.2,0.2-0.2c0.4-0.4,0.8-0.8,1.5-1c0.3-0.1,0.6-0.2,1-0.3
				c1.2-0.3,3-0.4,5.3-0.4h0.3h1.2h2.8c2.3,0,5-0.5,7.8-1.4c0,0,0,0,0.1,0h0.1c0.2-0.1,0.4-0.1,0.6-0.2c1.2-0.4,2.3-0.9,3.2-1.4
				c1-0.5,1.9-1.1,2.6-1.6c0.5-0.4,1-0.9,1.4-1.3c0.3-0.3,0.5-0.6,0.7-0.9c0,0,0,0,0-0.1c0,0,0,0,0-0.1c0.1-0.2,0.2-0.4,0.3-0.7
				v-0.1c0,0,0,0,0-0.1c0.1-0.2,0.3-0.5,0.4-0.7c0.1-0.1,0.1-0.2,0.1-0.3c0.2-0.4,0.3-0.9,0.3-1.3c0.1-0.4,0-0.9,0-1.3l0,0v-0.1
				c0,0,0,0,0-0.1l0,0c-0.1-0.3-0.2-0.5-0.3-0.8c0-0.1-0.1-0.1-0.1-0.2s-0.1-0.2-0.1-0.3c-0.1-0.1-0.1-0.2-0.2-0.3l0,0
				c-0.1-0.1-0.1-0.2-0.1-0.3c-0.1-0.2-0.2-0.4-0.4-0.7c0,0,0.1,0,0.1-0.1c0.1,0,0.1-0.1,0.2-0.1c0.1-0.1,0.2-0.1,0.3-0.1
				c0.5-0.3,1-0.5,1.4-0.7h0.1l0,0c0.4-0.2,0.9-0.2,1.2-0.2c0.3,0,0.5,0.1,0.6,0.2l0,0c0.1,0.1,0.1,0.2,0.1,0.3c0,0.1,0,0.2,0,0.2
				s0,0,0,0.1l0,0c0,0,0,0,0,0.1s0,0.1,0,0.2s0,0.2,0.1,0.3c0,0.1,0,0.2,0.1,0.2l0,0l0,0v0.1c0.1,0.2,0.2,0.3,0.4,0.5
				c0.1,0.1,0.3,0.2,0.4,0.3c0.4,0.2,0.8,0.3,1.3,0.3c0.4,0,0.7-0.1,1-0.2c0.2-0.1,0.4-0.1,0.6-0.2l0,0c0.1-0.1,0.3-0.1,0.4-0.2
				c0.1,0,0.1-0.1,0.2-0.1c0.1-0.1,0.2-0.1,0.3-0.2c0.1-0.1,0.2-0.2,0.3-0.2c0.1-0.1,0.2-0.1,0.2-0.2l0.1-0.1
				c0.2-0.2,0.3-0.4,0.4-0.6c0.1-0.1,0.1-0.2,0.2-0.3l0,0l0,0l0,0l0,0v-0.1l0,0c0,0,0,0,0-0.1s0-0.2,0-0.4c0-0.2,0.1-0.4,0-0.6
				c0-0.1-0.1-0.2-0.2-0.3c0,0-0.1-0.1-0.1-0.2s-0.1-0.1-0.1-0.2l-0.1-0.1c0,0-0.1-0.1-0.1-0.2c0,0,0,0,0-0.1l0,0l0,0l0,0l0,0
				c-0.2-0.2-0.4-0.3-0.7-0.4c-0.6-0.3-1.3-0.4-2.1-0.4c-0.6,0-1.3,0.1-2,0.2h-0.1c-0.1,0-0.2,0.1-0.4,0.1c-0.1,0-0.2,0-0.2,0.1
				c-0.9,0.2-1.8,0.6-2.8,1c-0.6,0.3-1.2,0.5-1.8,0.9c-0.3,0.2-0.6,0.3-0.9,0.5c0,0-0.1,0-0.1-0.1c-0.3-0.2-0.7-0.4-1-0.5
				c-0.8-0.4-1.6-0.6-2.5-0.9h-0.1c-0.2-0.1-0.4-0.1-0.6-0.2c-0.2,0-0.4-0.1-0.6-0.1h-0.1c-0.9-0.2-1.8-0.3-2.7-0.4
				c-0.5,0-1.1-0.1-1.7-0.1c-2.5,0-4.9,0.3-7,0.8c-0.4,0.1-0.7,0.2-1.1,0.3c-0.9,0.3-1.7,0.6-2.5,0.9l0,0c-0.3,0.1-0.7,0.3-1,0.4
				c-0.1,0-0.1,0.1-0.2,0.1c-0.4,0.2-0.9,0.5-1.3,0.7l0,0c-0.6,0.3-1.1,0.7-1.6,1.1l0,0c-1.2,0.9-2.2,1.9-2.8,3.1
				c-0.3,0.5-0.5,1-0.7,1.5c0,0.1-0.1,0.2-0.1,0.3v0.1c0,0.1,0,0.2-0.1,0.2c0,0.2-0.1,0.4-0.1,0.6c0,0.1,0,0.3,0,0.4
				c0,0.3,0,0.5,0,0.8c0,0.2,0.1,0.5,0.1,0.7c0,0,0,0,0,0.1l0,0c0,0.1,0.1,0.2,0.1,0.3c0,0,0,0.1,0.1,0.1c0.1,0.2,0.1,0.3,0.2,0.5
				l0,0c0,0,0,0.1,0.1,0.1c0.1,0.1,0.1,0.1,0.2,0.2c0.1,0.2,0.2,0.3,0.3,0.5l0,0c0.8,0.9,1.9,1.7,3.4,2.4c-2.5,0.6-4.5,1.2-5.8,2
				c-0.2,0.1-0.3,0.2-0.5,0.3c-0.5,0.3-0.9,0.6-1.2,1c-0.5,0.5-0.8,0.9-1.1,1.5c0,0,0,0.1-0.1,0.1c-0.1,0.2-0.3,0.4-0.3,0.6v0.1v0.1
				v0.1c0,0.1,0,0.2-0.1,0.3c0,0.3,0,0.6,0,0.9c0,0.1,0,0.2,0.1,0.2c0.1,0.2,0.2,0.4,0.3,0.6l0.1,0.1c0.1,0.1,0.2,0.2,0.3,0.4
				c0.1,0.1,0.2,0.2,0.2,0.2c1,0.9,2.8,1.5,5.2,2c-0.6,0.1-1.2,0.2-1.8,0.3c-1,0.2-2,0.4-2.8,0.6c-1.2,0.3-2.3,0.7-3.1,1.2
				c-0.4,0.2-0.8,0.5-1.2,0.7c-0.8,0.6-1.4,1.2-1.7,1.8c-0.1,0.1-0.1,0.2-0.1,0.3s0,0.1-0.1,0.2c0,0.1,0,0.1,0,0.2
				c0,0.1,0,0.2,0,0.3c0,0.3,0,0.6,0,0.9c0.1,0.3,0.2,0.6,0.3,0.9c0,0,0,0.1,0.1,0.1l0.1,0.1l0,0l0,0c0,0,0,0,0,0.1
				c0.2,0.2,0.3,0.4,0.6,0.6c0.1,0.1,0.3,0.2,0.4,0.3s0.2,0.2,0.4,0.3l0.1,0.1c0.1,0.1,0.2,0.1,0.4,0.2c0.1,0,0.1,0.1,0.2,0.1l0,0
				c1.9,1,4.7,1.6,8.5,1.8c0.8,0,1.7,0.1,2.7,0.1c4.2,0,7.8-0.4,11-1.2c2-0.5,3.9-1.2,5.5-2c0.4-0.2,0.7-0.4,1.1-0.6
				c0.6-0.3,1.1-0.7,1.6-1.1c0.5-0.4,0.9-0.8,1.3-1.2c0.1-0.1,0.1-0.1,0.2-0.2l0.1-0.1l0.1-0.1l0.1-0.1c0.2-0.3,0.4-0.5,0.6-0.8
				C339.6,152.2,339.7,152,339.9,151.8z M332.9,136.2c-1.9,1.3-4.1,1.9-6.5,1.9s-4.1-0.6-5.2-1.9c-0.3-0.3-0.5-0.7-0.6-1.1
				c0-0.1-0.1-0.3-0.1-0.4c0-0.1-0.1-0.3-0.1-0.4c0-0.2-0.1-0.4-0.1-0.6c0-0.1,0-0.3,0-0.4c0-0.2,0-0.4,0.1-0.7
				c0.1-0.5,0.2-1,0.4-1.6c0-0.1,0-0.1,0.1-0.2c0.1-0.4,0.3-0.7,0.5-1c0.8-1.7,2-3.1,3.6-4.1c0.1-0.1,0.2-0.1,0.2-0.1
				c0.6-0.3,1.2-0.6,1.8-0.9c1.4-0.5,2.8-0.8,4.4-0.8c1.3,0,2.4,0.2,3.3,0.6c0.2,0.1,0.5,0.2,0.7,0.3c0.5,0.3,0.9,0.6,1.2,1
				c0.5,0.6,0.8,1.3,0.9,2.1c0.1,0.4,0.1,0.8,0,1.3s-0.2,1.1-0.4,1.7c-0.1,0.3-0.3,0.7-0.4,1c-0.1,0.2-0.2,0.5-0.3,0.7
				c0,0.1-0.1,0.2-0.1,0.3c-0.1,0.2-0.2,0.3-0.3,0.5c0,0,0,0,0,0.1c-0.1,0.1-0.2,0.3-0.3,0.4C334.8,134.6,333.9,135.5,332.9,136.2z
				 M324.2,157.9c-0.4,0-0.8,0.1-1.2,0.1c-0.1,0-0.2,0-0.3,0c-0.5,0-1,0.1-1.6,0.1c-0.3,0-0.5,0-0.8,0s-0.6,0-0.8,0
				c-0.2,0-0.4,0-0.7,0c-0.2,0-0.4,0-0.6,0c-0.6,0-1.2-0.1-1.8-0.1c-0.4,0-0.7-0.1-1.1-0.1c-0.3,0-0.7-0.1-1-0.2
				c-0.2,0-0.3-0.1-0.5-0.1c-0.5-0.1-0.9-0.2-1.3-0.4c-0.2-0.1-0.4-0.1-0.6-0.2c-0.1,0-0.2-0.1-0.3-0.1c-0.1,0-0.1-0.1-0.2-0.1h-0.1
				c-0.1,0-0.1,0-0.2-0.1H311c-0.1,0-0.2-0.1-0.2-0.1c-0.1-0.1-0.3-0.2-0.4-0.3s-0.1-0.1-0.2-0.2c-0.1-0.1-0.2-0.2-0.3-0.4l-0.1-0.1
				c0-0.1-0.1-0.1-0.1-0.2l0,0c0-0.1-0.1-0.2-0.1-0.4c0,0,0-0.1,0-0.2c0-0.1,0-0.2,0-0.3l0,0c0-0.2,0-0.4,0.1-0.7
				c0-0.1,0-0.1,0.1-0.2c0-0.1,0.1-0.2,0.1-0.3l0.1-0.1c0.1-0.2,0.3-0.5,0.5-0.7c0.3-0.3,0.7-0.7,1.1-1c0.5-0.4,1.1-0.7,1.9-1.1
				c0.2-0.1,0.4-0.2,0.6-0.3c0.3-0.1,0.7-0.3,1.1-0.4c0.1,0,0.3-0.1,0.4-0.1c0.7-0.2,1.5-0.4,2.4-0.5c0.6-0.1,1.3-0.2,2.1-0.2
				c0.8-0.1,1.6-0.1,2.4-0.2c0.8,0,1.6,0,2.5,0c0.4,0,0.7,0,1.1,0s0.7,0,1,0c0.5,0,0.9,0,1.4,0.1c0.2,0,0.4,0,0.6,0
				c0.6,0,1.1,0.1,1.6,0.2c0.3,0.1,0.7,0.1,1,0.2c1.1,0.3,1.9,0.6,2.4,1c0.1,0.1,0.2,0.2,0.3,0.2c0.1,0.1,0.1,0.2,0.2,0.2
				c0.1,0.1,0.2,0.2,0.2,0.3c0.1,0.2,0.1,0.4,0.2,0.6c0,0.2,0,0.5,0,0.7v0.1c0,0.1,0,0.1,0,0.2s0,0.1,0,0.2c0,0.1-0.1,0.2-0.2,0.4
				c0,0,0,0.1-0.1,0.1c-0.1,0.1-0.1,0.2-0.2,0.4c-0.1,0.1-0.2,0.2-0.3,0.4c-0.4,0.4-0.9,0.8-1.5,1.2c-0.2,0.1-0.3,0.2-0.5,0.3
				s-0.4,0.2-0.6,0.3s-0.4,0.2-0.6,0.3c-0.1,0-0.2,0.1-0.3,0.1c-0.1,0-0.2,0.1-0.3,0.1c-0.3,0.1-0.6,0.2-0.9,0.3
				c-0.1,0-0.1,0-0.2,0.1C327.7,157.3,326.1,157.7,324.2,157.9z"/>
			<path class="st1" d="M367.8,160.6l-1.5-0.7l-1.5-0.6l-1.5-0.6l-1.5-0.5l-1.6-0.4l-1.5-0.4l-1.5-0.4l-1.6-0.4l-1.6-0.4l-1.6-0.3
				l-1.6-0.3l-1.7-0.3l-1.7-0.3l-1.8-0.3l-1.8-0.2l1.5,0.1l1.4,0.1l1.4,0.2l1.4,0.2l1.4,0.1l1.4,0.2l1.3,0.2l1.4,0.2l1.4,0.3
				l8.4,1.9l1.5,0.4L365,158l-1.4-0.4l-1.4-0.4l-2.7-0.7l-2.7-0.7l-1.4-0.3l-1.4-0.3l-1.4-0.3l-1.4-0.2l-1.4-0.3l-1.4-0.3l-1.4-0.2
				l-1.5-0.2l-1.5-0.2l1.1-0.1h1l2.2,0.1l4.1,0.3l-0.6-0.1l-1-0.2l-2.4-0.4l-0.6-0.1l1.3-0.1c0.1,0,0.2,0,0.3,0l7.7,1l-2.5-0.6
				l-1-0.2l-1-0.2l-1.1-0.2l-1.1-0.2l-1.3-0.2l-1.5-0.2l3,0.1l2.4,0.1l2,0.1l8.1,0.6l-1.7-0.2l-1.9-0.2l-3.9-0.5l-2-0.2l-2-0.3
				l-1.9-0.3l-1.7-0.2l1.7,0.1h3.2c0,0-3-0.4-3.6-0.4l-2.8-0.2l-2.5-0.1h-1.7c0,0.2-0.1,0.5-0.1,0.7h0.2l1.4,0.1l-1.6,0.1
				c0,0.1-0.1,0.3-0.1,0.4c-0.2,0.6-0.5,1.1-0.9,1.8c-0.2,0.4-0.5,0.7-0.8,1l-0.1,0.1l-0.1,0.1c-0.1,0.1-0.2,0.3-0.4,0.4
				c-0.2,0.3-0.5,0.5-0.8,0.8h2.8l3.6,0.2l3.5,0.4l3.3,0.6l3.2,0.7l3.3,0.8l3.3,0.8l3.5,1l3.8,0.9L367.8,160.6z"/>
			<path class="st1" d="M305.8,159.6c-0.2-0.1-0.4-0.2-0.6-0.3s-0.4-0.3-0.5-0.4l-0.1-0.1c-0.5-0.4-0.8-0.7-1.2-1.1l-0.9,0.4
				l-2.2,0.9l-2.4,1l1.4-0.8l1.3-0.8l1.4-0.7l1.1-0.5c-0.2-0.4-0.4-0.8-0.5-1.1l-1.2,0.6l-1.5,0.8l-1.5,0.9l-1.3,0.9l-1.2,1l0.2,0.4
				l0.3,0.2l0.2,0.3l-0.3,0.8l0.4,0.5l-0.5,0.8l-0.2,1.1v0.8l0.3,0.4h0.7l7.8-2.5l5.6-1.7c-1.8-0.4-3.3-0.9-4.5-1.5
				C305.8,159.7,305.8,159.7,305.8,159.6z"/>
			<path class="st1" d="M334.4,127.9c-0.2-0.5-0.5-1-1-1.3c-0.7-0.5-1.7-0.7-2.9-0.7c-0.5,0-0.9,0-1.4,0.1c-1.1,0.2-2.2,0.6-3.3,1.3
				c-0.8,0.5-1.4,1.1-1.9,1.8c-0.3,0.4-0.6,0.8-0.8,1.3c-0.1,0.2-0.2,0.4-0.3,0.7c-0.1,0.4-0.2,0.8-0.3,1.2c0,0.2,0,0.5,0,0.7
				c0,0.1,0,0.2,0.1,0.3c0,0.2,0.1,0.4,0.2,0.5s0.1,0.3,0.2,0.4c0.1,0.1,0.2,0.3,0.3,0.4l0,0c0.8,0.9,2.1,1.4,3.7,1.4
				c0.7,0,1.4-0.1,2-0.2c1.3-0.3,2.6-1,3.8-2c0.2-0.2,0.4-0.3,0.5-0.5l0.1-0.1c0.1,0,0.1-0.1,0.2-0.2l-0.8-0.3
				c-0.2,0.2-0.4,0.3-0.6,0.4c-0.1,0.1-0.2,0.1-0.3,0.2c-0.2,0.2-0.4,0.3-0.7,0.5c-0.8,0.5-1.5,0.9-2.3,1.1
				c-0.4,0.1-0.8,0.1-1.2,0.1c-1,0-1.8-0.2-2.3-0.7c-0.1-0.1-0.2-0.2-0.3-0.3v-0.1c-0.1-0.1-0.1-0.2-0.2-0.3
				c-0.1-0.2-0.1-0.3-0.1-0.5c0-0.1,0-0.2,0-0.4s0-0.4,0.1-0.7s0.1-0.6,0.2-1.1h3.7h5.2c0.3-0.8,0.4-1.4,0.4-2c0-0.1,0-0.3,0-0.4
				C334.7,128.4,334.5,128.1,334.4,127.9z M332.5,129.2c-0.1,0.4-0.3,0.7-0.6,0.9c-0.2,0.2-0.5,0.2-0.8,0.2h-1.9h-3.5
				c0-0.1,0.1-0.2,0.1-0.3c0.2-0.5,0.4-0.9,0.7-1.2c0.3-0.5,0.7-1,1.2-1.3c0.5-0.4,1-0.6,1.5-0.8c0.4-0.1,0.8-0.2,1.2-0.2
				c0.8,0,1.5,0.3,1.9,0.8c0.2,0.2,0.3,0.5,0.3,0.7C332.6,128.4,332.6,128.8,332.5,129.2L332.5,129.2z"/>
		</g>
	</g>
</g>
</svg>
