<?xml version="1.0" encoding="utf-8"?>
<!-- Generator: Adobe Illustrator 24.0.0, SVG Export Plug-In . SVG Version: 6.00 Build 0)  -->
<svg version="1.1" id="Capa_1" xmlns="http://www.w3.org/2000/svg" xmlns:xlink="http://www.w3.org/1999/xlink" x="0px" y="0px"
	 viewBox="0 0 512 512" style="enable-background:new 0 0 512 512;" xml:space="preserve">
<style type="text/css">
	.st0{fill:#FFFFFF;}
	.st1{fill:#1C1C1A;}
</style>
<g>
	<path d="M512,119.8c-1.1,3.9-2.2,7.8-3.2,11.7c-3,11.7-5.8,23.5-9.1,35.1c-3.8,13.2-9.6,25.4-18.2,36.3c-3.8,4.8-8.2,9.1-13,13.2
		c-1-0.7-2-1.3-3-2c-10.3-8-22.2-12.4-35-14.4c-10.4-1.7-20.9-3.1-31.4-4.6c-0.3,0-0.6,0-1.2,0.1c0,92.4,0,184.7,0,277.4
		c-2,0.4-3.9,0.9-5.7,1.2c-16.5,2.6-33,5.4-49.6,7.5c-14.5,1.9-29,3-43.5,4.3c-19.2,1.6-38.4,2.1-57.7,1.9
		c-15.5-0.2-30.9-1-46.3-2.4c-19.2-1.7-38.2-4.4-57.1-8.1c-6.4-1.2-12.7-2.7-19-4.1c-0.4-0.1-0.8-0.3-1.4-0.7
		c0-92.5,0-185.1,0-277.7c-25.6,0.3-49.4,6.4-71.4,19c-4.6-3.6-8.5-7.4-12.1-11.6c-8.7-10.3-14.8-22-19.5-34.5
		c-5.8-15.2-9.4-31-12.9-46.8c-0.6-2.5-1.1-5-1.6-7.7c6.3-2.8,12.5-5.5,18.6-8.1C56.7,88.3,96.2,76,136.3,65.4
		c17.8-4.7,35.5-9.9,53.3-14.9c1.9-0.5,3.2-1.5,4.2-3.1c4.8-7.6,9.7-15.1,14.7-22.9c31.8,4.5,63.6,4.6,95.6,0
		c2.7,3.7,5.3,7.3,7.9,10.8c2.5,3.5,5.1,7,7.6,10.5c1.2,1.7,2.6,2.7,4.5,3.4c18.5,6.8,37.5,12.4,56.6,17.5
		c18.4,5,36.9,9.9,55.2,15.4c25.8,7.8,50.3,18.9,73.9,31.9c0.8,0.4,1.5,0.9,2.2,1.3C512,116.8,512,118.3,512,119.8z M391.4,457.9
		c0-1.8,0-3.2,0-4.6c0-86.5,0-172.9,0-259.4c0-0.9,0.1-1.7,0-2.6c-0.1-1-0.3-2.2-0.8-3.1c-8.9-17.2-11.1-35.7-9.9-54.8
		c0.9-14.4,3.6-28.5,6.5-42.6c1-4.9,2-9.9,3-15c-1.1-0.3-1.9-0.7-2.7-0.9c-22.5-5.9-44.8-12.1-66.5-20.3c-1.7-0.6-2.7-0.2-4.1,0.7
		c-3.2,2.2-6.5,4.4-10,6c-10.5,4.9-21.8,6.7-33.2,7.9c-9.6,1-19.2,1.1-28.8,0.6c-10.4-0.5-20.7-1.8-30.7-4.6c-6.6-1.8-13-4-18-9
		c-1-1-1.9-0.5-3-0.2c-21.9,6.1-43.9,12.2-65.8,18.4c-0.8,0.2-1.6,0.6-2.4,0.9c0.1,0.6,0.1,1,0.2,1.5c2.4,12.4,4.9,24.8,7.1,37.2
		c2.5,14.5,3.5,29.2,1.8,43.9c-1.2,10.4-3.9,20.3-8.7,29.7c-1,2-1.5,4-1.5,6.2c0,86.8,0,173.6,0,260.3c0,1.2,0,2.3,0,3.5
		c0.9,0.3,1.5,0.5,2.1,0.6c15.8,2,31.5,4.2,47.3,5.8c18.2,1.8,36.4,3.1,54.6,4.2c30.2,1.8,60.5,1.6,90.7-0.6
		c20.2-1.5,40.2-3.9,60.1-7.3C382.8,459.6,387,458.7,391.4,457.9z M57.9,200.7c1.4-0.6,2.6-1,3.8-1.5c9.2-3.7,18.6-6.9,28.5-8.2
		c9.5-1.3,19.1-2.2,28.6-3.1c2.2-0.2,3.4-1,4.4-3c4.6-9.8,7.1-20.1,8.1-30.8c1.1-12.1,0.3-24.2-1.6-36.1
		c-1.9-11.6-4.3-23.1-6.4-34.7c-0.4-2.3-1-4.6-1.5-7.2c-35.9,9.5-70.5,21.5-104.2,36.2c0.2,1.8,0.3,3.2,0.6,4.6
		c2.5,13.9,6.8,27.2,12.9,39.9c7.2,15.2,16.3,29.2,26.1,42.8C57.3,199.9,57.6,200.3,57.9,200.7z M454.6,200.2c0.7-0.9,1.4-1.8,2-2.6
		c3.5-5,7.1-10,10.5-15.2c10.2-15.4,18.7-31.6,23.7-49.4c1.8-6.4,3.3-12.9,4-19.7c-32.1-16.9-66.2-28-101.4-36.5
		c-0.3,0.8-0.5,1.2-0.6,1.8c-2.2,11.1-4.5,22.2-6.4,33.4c-2.5,14.5-3.8,29.1-2.2,43.8c1.2,10.3,3.7,20.1,8.3,29.4
		c0.8,1.6,1.7,2.5,3.6,2.8c4.9,0.8,9.8,1.8,14.7,2.5c7.7,1.2,15.4,2.1,23.1,3.4C441,195.1,447.9,197.3,454.6,200.2z M316.2,51.8
		c-4.8-6.6-9.4-13-14-19.4c-0.8-1.1-1.7-1.1-2.8-0.9c-5.9,0.6-11.8,1.3-17.7,1.7c-12.7,0.9-25.5,1.5-38.2,0.6
		c-9.7-0.6-19.4-1.4-29.1-2.3c-2-0.2-3.1,0.4-4.1,2.1c-3.2,5.1-6.5,10.2-9.8,15.3c-0.9,1.4-1.8,2.9-2.9,4.7c2,1.4,3.6,3,5.6,4
		c3,1.5,6.1,2.9,9.2,3.9c10.7,3.4,21.7,4.7,32.8,5.3c11.9,0.7,23.8,0.2,35.6-1.5c7.7-1.1,15.3-2.8,22.6-5.7
		C307.8,57.8,312.3,55.5,316.2,51.8z M391.2,461.3c-1.4,0.2-2.6,0.4-3.9,0.6c-14.8,2.2-29.6,4.9-44.5,6.6c-12.5,1.5-25.2,2.3-37.8,3
		c-18.3,1.1-36.7,1.5-55.1,0.7c-17.5-0.8-35-1.7-52.4-2.9c-10.2-0.7-20.5-1.7-30.6-2.9c-13.1-1.5-26.1-3.2-39.2-4.9
		c-1.1-0.1-2.3-0.2-3.6-0.3c-0.1,1.2-0.2,2.2-0.2,3.1c0,1,0.1,1.9,0.1,3c0.8,0.2,1.5,0.5,2.3,0.7c16.2,3.7,32.6,6.5,49.1,8.6
		c19.4,2.5,38.9,4.1,58.5,4.3c15.4,0.2,30.9,0.1,46.3-0.6c15.3-0.7,30.6-1.7,45.9-3.4c18.3-2.1,36.6-5,54.9-7.6
		c3.5-0.5,6.9-1.2,10.5-1.9c0-1.8,0-3.2,0-4.6C391.4,462.4,391.3,462,391.2,461.3z M498,115c-0.2,1-0.3,1.5-0.4,2
		c-2.7,17-8.3,33-16.4,48.2c-6.1,11.4-13.3,22.2-20.9,32.7c-0.9,1.2-1.7,2.4-2.6,3.7c3.6,2.2,6.9,4.3,10.1,6.3
		c0.4-0.2,0.7-0.4,0.9-0.6c0.8-0.7,1.6-1.5,2.3-2.2c6.4-6.7,11.6-14.2,15.6-22.5c4.7-9.7,7.8-19.8,10.4-30.2
		c2.8-11.1,5.5-22.2,8.3-33.5c-1.5-0.8-3-1.6-4.5-2.4C500.1,116,499.2,115.6,498,115z M7.5,116.6c0,0.7-0.1,1.1,0,1.5
		c3.6,15.9,7.1,31.8,12.9,47.1c4.5,11.8,10.1,22.9,18.3,32.6c2.5,2.9,5,5.9,8.2,8.2c2.7-1.3,5.3-2.6,8-4
		c-19.6-26.8-35.6-54.9-40.6-88.4C11.8,114.8,9.6,115.7,7.5,116.6z"/>
	<path class="st0" d="M391.4,457.9c-4.4,0.8-8.5,1.7-12.7,2.4c-19.9,3.4-40,5.8-60.1,7.3c-30.2,2.2-60.5,2.4-90.7,0.6
		c-18.2-1.1-36.4-2.4-54.6-4.2c-15.8-1.5-31.5-3.8-47.3-5.8c-0.6-0.1-1.2-0.3-2.1-0.6c0-1.2,0-2.4,0-3.5c0-86.8,0-173.6,0-260.3
		c0-2.2,0.5-4.2,1.5-6.2c4.7-9.3,7.4-19.3,8.7-29.7c1.7-14.7,0.7-29.4-1.8-43.9c-2.1-12.4-4.7-24.8-7.1-37.2
		c-0.1-0.4-0.1-0.8-0.2-1.5c0.8-0.3,1.6-0.7,2.4-0.9c21.9-6.1,43.9-12.2,65.8-18.4c1.1-0.3,2-0.7,3,0.2c5,5,11.5,7.2,18,9
		c10,2.8,20.3,4.1,30.7,4.6c9.6,0.5,19.2,0.4,28.8-0.6c11.4-1.2,22.7-3,33.2-7.9c3.5-1.6,6.8-3.8,10-6c1.4-0.9,2.4-1.4,4.1-0.7
		c21.7,8.2,44.1,14.5,66.5,20.3c0.8,0.2,1.6,0.5,2.7,0.9c-1,5.1-2,10-3,15c-2.9,14.1-5.6,28.2-6.5,42.6c-1.2,19.1,1,37.5,9.9,54.8
		c0.5,0.9,0.6,2,0.8,3.1c0.1,0.8,0,1.7,0,2.6c0,86.5,0,172.9,0,259.4C391.4,454.7,391.4,456.1,391.4,457.9z"/>
	<path class="st0" d="M57.9,200.7c-0.3-0.4-0.5-0.8-0.8-1.1C47.3,186,38.1,172,31,156.8c-6-12.8-10.4-26-12.9-39.9
		c-0.2-1.4-0.4-2.8-0.6-4.6C51.2,97.5,85.8,85.5,121.7,76c0.5,2.6,1.1,4.9,1.5,7.2c2.2,11.6,4.5,23.1,6.4,34.7c2,12,2.7,24,1.6,36.1
		c-1,10.7-3.4,21.1-8.1,30.8c-0.9,2-2.1,2.8-4.4,3c-9.6,0.9-19.1,1.8-28.6,3.1c-9.9,1.3-19.3,4.5-28.5,8.2
		C60.5,199.7,59.3,200.1,57.9,200.7z"/>
	<path class="st0" d="M454.6,200.2c-6.7-3-13.6-5.1-20.8-6.3c-7.7-1.3-15.4-2.2-23.1-3.4c-4.9-0.8-9.8-1.8-14.7-2.5
		c-1.8-0.3-2.8-1.3-3.6-2.8c-4.6-9.3-7.2-19.2-8.3-29.4c-1.7-14.7-0.3-29.3,2.2-43.8c1.9-11.2,4.2-22.3,6.4-33.4
		c0.1-0.5,0.3-1,0.6-1.8c35.2,8.5,69.2,19.6,101.4,36.5c-0.6,6.8-2.2,13.3-4,19.7c-5,17.9-13.5,34.1-23.7,49.4
		c-3.4,5.1-7,10.1-10.5,15.2C456,198.5,455.4,199.3,454.6,200.2z"/>
	<path class="st0" d="M316.2,51.8c-3.9,3.7-8.4,5.9-13,7.8c-7.3,2.9-14.8,4.6-22.6,5.7c-11.8,1.7-23.7,2.1-35.6,1.5
		c-11.1-0.6-22.2-2-32.8-5.3c-3.2-1-6.3-2.4-9.2-3.9c-2-1-3.6-2.6-5.6-4c1.1-1.8,2-3.2,2.9-4.7c3.3-5.1,6.6-10.1,9.8-15.3
		c1-1.7,2.1-2.3,4.1-2.1c9.7,0.9,19.4,1.7,29.1,2.3c12.7,0.8,25.5,0.3,38.2-0.6c5.9-0.4,11.8-1.1,17.7-1.7c1.1-0.1,2-0.2,2.8,0.9
		C306.8,38.8,311.4,45.2,316.2,51.8z"/>
	<path class="st0" d="M391.2,461.3c0.1,0.7,0.2,1.1,0.2,1.5c0,1.4,0,2.8,0,4.6c-3.5,0.6-7,1.4-10.5,1.9c-18.3,2.6-36.5,5.5-54.9,7.6
		c-15.2,1.7-30.6,2.8-45.9,3.4c-15.4,0.7-30.9,0.8-46.3,0.6c-19.6-0.2-39-1.8-58.5-4.3c-16.5-2.1-32.9-4.9-49.1-8.6
		c-0.7-0.2-1.4-0.4-2.3-0.7c-0.1-1.1-0.1-2-0.1-3c0-1,0.1-1.9,0.2-3.1c1.3,0.1,2.5,0.1,3.6,0.3c13.1,1.6,26.1,3.4,39.2,4.9
		c10.2,1.2,20.4,2.2,30.6,2.9c17.5,1.1,34.9,2.1,52.4,2.9c18.4,0.8,36.7,0.4,55.1-0.7c12.6-0.7,25.2-1.5,37.8-3
		c14.9-1.8,29.7-4.4,44.5-6.6C388.6,461.7,389.8,461.5,391.2,461.3z"/>
	<path class="st0" d="M498,115c1.2,0.6,2.1,1,2.9,1.4c1.5,0.8,3,1.6,4.5,2.4c-2.8,11.3-5.5,22.4-8.3,33.5
		c-2.6,10.4-5.8,20.6-10.4,30.2c-4,8.3-9.2,15.9-15.6,22.5c-0.7,0.8-1.6,1.5-2.3,2.2c-0.2,0.2-0.5,0.3-0.9,0.6
		c-3.3-2-6.5-4.1-10.1-6.3c0.9-1.3,1.7-2.5,2.6-3.7c7.6-10.5,14.7-21.3,20.9-32.7c8.1-15.2,13.7-31.2,16.4-48.2
		C497.7,116.5,497.8,116,498,115z"/>
	<path class="st0" d="M7.5,116.6c2.1-0.9,4.2-1.8,6.9-3c4.9,33.5,21,61.5,40.6,88.4c-2.7,1.4-5.3,2.6-8,4c-3.2-2.3-5.8-5.2-8.2-8.2
		c-8.2-9.7-13.9-20.8-18.3-32.6c-5.8-15.3-9.3-31.2-12.9-47.1C7.5,117.7,7.5,117.3,7.5,116.6z"/>
	<g id="LOGO_GAMA_5_">
		<g>
			<path class="st1" d="M437.1,114.9l0.8-3.2c-0.7-0.3-1.3-0.8-1.9-1.4c0,0,0,0-0.1,0c-0.1-0.1-0.2-0.2-0.4-0.3
				c-0.9-1-1.6-2.1-2.1-3.4l-0.4,1.2l-0.7,2.2l-0.5,2.1l-0.4,1.9l-0.4,1.9l-0.2,1.9l-0.3,2l-0.2,2.1l-0.2,2.4l-0.3,2.6l-0.1-1.6
				l-0.1-1.5l0-1.5l0.1-1.5l0.1-1.6l0.2-1.5l0.2-1.6l0.3-1.6l0.4-1.6l0.4-1.6l0.5-1.6l0.5-1.7l0.5-1.7l0.4-1
				c-0.2-0.6-0.3-1.2-0.4-1.9l-0.2,0.6l-0.7,1.9l-0.6,1.9l-0.6,1.9l-0.5,1.9l-0.5,1.9l-0.4,1.9l-0.3,1.8l-0.3,1.8l-0.2,1.8l0,1.7
				l0,1.7l0.1,1.7l0.2,1.5l0.3,1.5l0.4,0l0.3-0.2l0.3,0l0.5,0.6l0.6-0.1l0.5,0.8l0.8,0.7l0.7,0.4l0.5,0l0.3-0.7l1.5-8.1L437.1,114.9
				z"/>
			<path class="st1" d="M445,120.7C445,120.7,445,120.7,445,120.7L445,120.7c-0.2-0.1-0.3-0.2-0.5-0.4c-0.3-0.3-0.4-0.6-0.5-0.7
				c0,0,0,0,0-0.1c-0.9-1.2-1.3-2.6-1.4-4.2c-0.1-0.9,0-2,0.2-3.2c-0.4,0.1-0.9,0.2-1.3,0.2l0,0c-0.1,0-0.2,0-0.3,0l-0.3,0.8
				l-0.5,2.1l-0.4,1.9l-0.4,1.9l-0.2,1.9l-0.3,2l-0.2,2.1l-0.2,2.4l-0.3,2.6l-0.1-1.6l-0.1-1.5l0-1.5l0.1-1.5l0.1-1.6l0.2-1.5
				l0.2-1.6l0.3-1.6l0.4-1.6l0.4-1.6l0.5-1.6l0.1-0.4c-0.1,0-0.2,0-0.3,0l-0.1,0c-0.2,0-0.4-0.1-0.7-0.1l-0.2,0.6l-0.5,1.9l-0.5,1.9
				l-0.4,1.9l-0.3,1.8l-0.3,1.8l-0.2,1.8l0,1.7l0,1.7l0.1,1.7l0.2,1.5l0.3,1.5l0.4,0l0.3-0.2l0.3,0l0.5,0.6l0.6-0.1l0.5,0.8l0.8,0.7
				l0.7,0.4l0.5,0l0.3-0.7l1.5-8.1L445,120.7z"/>
			<path class="st1" d="M452,129.8C452,129.8,452,129.8,452,129.8c-0.2-0.1-0.4-0.3-0.7-0.6c-1.1-1.2-1.7-3-1.7-5.5
				c0-0.7,0.1-1.4,0.2-2.2c-0.5,0.2-0.9,0.3-1.4,0.3c-0.1,0-0.3,0-0.4,0l-0.1,0.4l-0.2,1.9l-0.3,2l-0.2,2.1l-0.2,2.4l-0.3,2.6
				l-0.1-1.6l-0.1-1.5l0-1.5l0.1-1.5l0.1-1.6l0.2-1.5l0.2-1.6l0.1-0.7c-0.1,0-0.3-0.1-0.4-0.1c-0.2-0.1-0.4-0.2-0.6-0.3l0,0.2
				l-0.3,1.8l-0.3,1.8l-0.2,1.8l-0.1,1.7l0,1.7l0.1,1.7l0.2,1.5l0.3,1.5l0.4,0l0.3-0.2l0.3,0l0.5,0.6l0.6-0.1l0.5,0.8l0.8,0.7
				l0.7,0.4l0.5,0l0.3-0.7l1.2-6.8C452.1,129.9,452.1,129.9,452,129.8z"/>
			<path class="st1" d="M456.2,95.2L456.2,95.2l-1.3,2.7l-1.3,2.6l-1.2,2.7l-1.2,2.7l-0.3,0.7l-0.8,1.8l-0.7,1.9l-0.5,1.3
				c0.1-0.1,0.2-0.3,0.2-0.4c0.2-0.4,0.5-0.8,0.7-1.3l3.3-6.4l0-0.1l0.5-1l0.5-1.1l0.5-1.1l0.5-1.1l0.5-1.1l0.6-1.1l0.6-1.1l0.2-0.4
				C456.8,95.4,456.5,95.3,456.2,95.2z"/>
			<path class="st1" d="M465,102.6c0-0.1-0.1-0.2-0.2-0.3c0,0,0,0,0-0.1c0,0,0,0-0.1,0c-0.1,0-0.2,0.1-0.3,0.2l-1.5,3.3l-1.5,3.5
				l-1.2,3.1l-1,2.7l-0.8,2.5l-0.7,2.2l-0.4,1.6c0.1,0,0.1-0.1,0.2-0.1c0.9-0.6,2.3-2.1,4.2-5.6c2-3.7,3.2-6.9,3.5-9.4
				C465.4,104.2,465.2,103.1,465,102.6z"/>
			<path class="st1" d="M457.5,117.5l0.5-1.7l0.6-1.7l0.7-1.8l0.7-1.8l0.3-0.9l0.3-0.9l0.4-1l0.5-1l0.5-1l0.5-1.1l0.2-0.4
				c-0.5,0.6-1,1.5-1.6,2.5c-0.3,0.6-0.7,1.2-1,1.8c-2.7,4.9-3.5,7.8-3.6,9.4c-0.1,1.3-0.1,2.1,0,2.7l0.3-1.2L457.5,117.5z"/>
			<path class="st1" d="M469.4,99.5c-0.1-0.4-0.2-0.7-0.3-1.1c-3.1-0.7-6.2-1.4-9-2.1c-0.1,0-0.1,0-0.2,0c-1.2,1.4-2.5,3.4-3.9,5.9
				l-4.5,8.7c-0.2,0.4-0.5,0.8-0.7,1.2c0,0.1-0.1,0.1-0.1,0.2c-0.1,0.1-0.1,0.2-0.2,0.3l0,0c-0.2,0.4-0.5,0.7-0.7,1
				c-0.2,0.2-0.4,0.4-0.5,0.6c-0.1,0.1-0.2,0.2-0.3,0.3v0c0,0,0,0-0.1,0c0,0,0,0,0,0l0,0l0,0c-0.1,0.1-0.2,0.1-0.3,0.1
				c-0.3,0.1-0.5,0.1-0.7,0c-0.1,0-0.1,0-0.2-0.1c-0.1-0.1-0.2-0.1-0.4-0.2c0,0,0,0,0,0c0,0-0.1-0.1-0.1-0.1
				c-0.1-0.1-0.2-0.3-0.2-0.4c0-0.1-0.1-0.2-0.1-0.3c0,0,0-0.1-0.1-0.2c0-0.1-0.1-0.2-0.1-0.3c-0.2-0.5-0.3-1.1-0.2-1.8
				c0-0.3,0.1-0.7,0.2-1c0.4-1.2,1.1-2.8,2.2-4.8l0.1-0.2l0.6-1.1l1.3-2.5c1.1-2,1.9-4.5,2.5-7.5c-0.9-0.3-1.8-0.6-2.7-1
				c0.1,0.4,0.1,0.7,0.1,1.1c0.2,2.3-0.3,4.5-1.4,6.6c-1.1,2.1-2.5,3.3-4.2,3.6c-0.4,0.1-0.9,0.1-1.3,0c-0.1,0-0.3-0.1-0.4-0.1
				c-0.1,0-0.3-0.1-0.4-0.1c-0.2-0.1-0.4-0.1-0.5-0.2c-0.1-0.1-0.2-0.1-0.4-0.2c-0.2-0.1-0.4-0.2-0.6-0.4c-0.4-0.3-0.8-0.7-1.3-1.1
				c0,0-0.1-0.1-0.1-0.1c-0.3-0.3-0.5-0.6-0.7-0.9c-1.1-1.5-1.8-3.2-1.9-5.1c0-0.1,0-0.2,0-0.3c0-0.7,0-1.3,0.1-2
				c0.2-1.5,0.6-2.9,1.4-4.2c0,0,0-0.1,0.1-0.1c-0.6-0.2-1.2-0.4-1.6-0.7c-1,2-1.8,4-2.3,5.9c-0.1,0.4-0.2,0.8-0.3,1.1
				c-0.2,0.9-0.3,1.7-0.4,2.6c0,0,0,0,0,0c0,0.4-0.1,0.7-0.1,1.1c0,0.1,0,0.1,0,0.2c0,0.5,0,1,0,1.5v0c0,0.7,0.1,1.3,0.2,1.9l0,0
				c0.2,1.5,0.7,2.8,1.4,3.9c0.3,0.5,0.6,0.9,1,1.3c0.1,0.1,0.2,0.1,0.2,0.2c0,0,0.1,0.1,0.1,0.1c0.1,0.1,0.1,0.1,0.2,0.2
				c0.2,0.1,0.3,0.3,0.5,0.4c0.1,0.1,0.2,0.2,0.4,0.2c0.2,0.1,0.4,0.3,0.7,0.3c0.2,0.1,0.5,0.2,0.7,0.2c0,0,0,0,0.1,0c0,0,0,0,0,0
				c0.1,0,0.2,0,0.3,0c0.1,0,0.1,0,0.2,0c0.2,0,0.3,0,0.5,0c0,0,0,0,0,0c0,0,0.1,0,0.1,0c0.1,0,0.2,0,0.3,0c0.2,0,0.4,0,0.6-0.1v0
				c1.2-0.2,2.4-0.8,3.7-1.9c-0.7,2.5-1.1,4.5-1,6.1c0,0.2,0,0.4,0,0.5c0,0.6,0.1,1.1,0.3,1.5c0.2,0.6,0.4,1.2,0.8,1.6
				c0,0,0,0.1,0.1,0.1c0.1,0.2,0.2,0.4,0.3,0.6c0,0,0,0,0.1,0.1c0,0,0.1,0.1,0.1,0.1c0,0,0.1,0.1,0.1,0.1c0.1,0.1,0.2,0.1,0.3,0.2
				c0.3,0.2,0.5,0.3,0.8,0.4c0.1,0,0.2,0,0.2,0.1c0.2,0,0.5,0.1,0.7,0c0.1,0,0.1,0,0.2,0c0.2,0,0.3-0.1,0.5-0.1
				c0.1,0,0.2-0.1,0.3-0.1c1.2-0.5,2.7-1.7,4.2-3.7c-0.2,0.6-0.4,1.1-0.6,1.7c-0.3,1-0.6,1.9-0.8,2.7c-0.3,1.3-0.4,2.4-0.4,3.3
				c0,0.5,0,1,0.1,1.4c0.1,1,0.4,1.8,0.8,2.4c0.1,0.1,0.1,0.2,0.2,0.3c0,0,0.1,0.1,0.1,0.1c0,0.1,0.1,0.1,0.1,0.1
				c0.1,0.1,0.2,0.1,0.3,0.2c0.2,0.2,0.5,0.3,0.8,0.4c0.3,0.1,0.6,0.1,0.9,0.1c0,0,0.1,0,0.1,0c0.1,0,0.1,0,0.2,0l0,0h0
				c0,0,0,0,0.1,0c0.3,0,0.5-0.1,0.8-0.2c0.2-0.1,0.3-0.1,0.5-0.2c0.1-0.1,0.3-0.1,0.4-0.2c0,0,0.1,0,0.1-0.1
				c0.1-0.1,0.2-0.2,0.4-0.3c0.1,0,0.1-0.1,0.2-0.1c0,0,0,0,0,0c1.8-1.2,3.7-3.4,5.7-6.7c0.4-0.7,0.9-1.5,1.3-2.3
				c2-3.7,3.4-7.1,4.2-10.2c0.5-2.1,0.8-4,0.8-5.9c0-0.4,0-0.8,0-1.2C469.6,100.7,469.5,100.1,469.4,99.5z M467.5,105
				c0,0.2,0,0.4,0,0.7c0,0.1,0,0.2,0,0.3c0,0.1,0,0.2,0,0.4c0,0.3-0.1,0.6-0.1,0.9c0,0.1,0,0.1,0,0.2c-0.3,1.5-0.8,3.1-1.5,4.9
				c-0.2,0.4-0.3,0.7-0.5,1.1c0,0.1-0.1,0.2-0.1,0.2c-0.2,0.5-0.4,0.9-0.7,1.4c-0.1,0.2-0.2,0.5-0.4,0.7c-0.1,0.2-0.3,0.5-0.4,0.7
				c-0.1,0.2-0.2,0.4-0.3,0.6c-0.1,0.2-0.2,0.4-0.3,0.6c-0.3,0.5-0.6,1-0.9,1.5c-0.2,0.3-0.4,0.6-0.6,0.9c-0.2,0.3-0.4,0.5-0.6,0.8
				c-0.1,0.1-0.2,0.2-0.3,0.4c-0.3,0.3-0.6,0.7-0.9,0.9c-0.2,0.1-0.3,0.3-0.5,0.4c-0.1,0.1-0.2,0.1-0.3,0.2c-0.1,0-0.1,0.1-0.2,0.1
				c0,0,0,0-0.1,0.1c0,0-0.1,0.1-0.1,0.1c0,0,0,0-0.1,0.1c-0.1,0-0.2,0.1-0.2,0.1c-0.2,0.1-0.3,0.2-0.4,0.2c-0.1,0-0.1,0.1-0.2,0.1
				c-0.2,0.1-0.3,0.1-0.5,0.1c-0.1,0-0.1,0-0.2,0c-0.1,0-0.2,0-0.2,0c-0.1,0-0.3,0-0.4-0.1c0,0-0.1,0-0.1,0c-0.1,0-0.2-0.1-0.3-0.1
				c0,0,0,0,0,0c-0.2-0.1-0.4-0.2-0.5-0.4c0,0-0.1-0.1-0.1-0.1c-0.1-0.1-0.1-0.2-0.2-0.2c0,0-0.1-0.1-0.1-0.1
				c-0.1-0.2-0.3-0.5-0.4-0.7c-0.2-0.4-0.3-0.9-0.4-1.4c-0.1-0.6-0.1-1.4,0-2.2c0-0.2,0-0.4,0.1-0.7c0-0.4,0.1-0.7,0.2-1.1
				c0-0.1,0.1-0.3,0.1-0.4c0.2-0.7,0.4-1.5,0.7-2.3c0.2-0.6,0.5-1.3,0.8-1.9c0.3-0.7,0.6-1.4,1-2.2c0.4-0.7,0.7-1.5,1.2-2.2
				c0.2-0.3,0.4-0.7,0.5-1c0.2-0.3,0.3-0.6,0.5-0.9c0.2-0.4,0.5-0.8,0.7-1.2c0.1-0.2,0.2-0.4,0.3-0.5c0.3-0.5,0.6-0.9,0.9-1.3
				c0.2-0.3,0.4-0.5,0.6-0.8c0.7-0.8,1.4-1.4,2-1.6c0.1,0,0.2-0.1,0.3-0.1c0.1,0,0.2-0.1,0.3-0.1c0.1,0,0.3,0,0.4,0
				c0.2,0,0.4,0.1,0.6,0.1c0.2,0.1,0.4,0.2,0.6,0.3c0,0,0.1,0,0.1,0.1c0.1,0,0.1,0.1,0.2,0.1c0.1,0,0.1,0.1,0.1,0.1
				c0.1,0.1,0.2,0.2,0.2,0.3c0,0,0,0.1,0.1,0.1c0.1,0.1,0.1,0.2,0.2,0.4c0.1,0.1,0.1,0.3,0.2,0.4c0.2,0.5,0.3,1.2,0.3,1.9
				c0,0.2,0,0.4,0,0.6C467.6,104.6,467.6,104.8,467.5,105z"/>
			<path class="st1" d="M458.6,129.4c-0.1,0.1-0.3,0.3-0.6,0.4c-0.2,0.1-0.4,0.2-0.6,0.3c0,0-0.1,0-0.1,0c-0.5,0.2-1,0.4-1.5,0.5
				l-0.1,1l-0.2,2.4l-0.3,2.6L455,135l-0.1-1.5l0-1.5l0.1-1.2c-0.4,0-0.9,0-1.3-0.1l0,1.3l0,1.7l0.1,1.7l0.2,1.5l0.3,1.5l0.4,0
				l0.3-0.2l0.3,0l0.5,0.6l0.6-0.1l0.5,0.8l0.8,0.7l0.7,0.4l0.5,0l0.3-0.7l1.5-8.1l1.2-5.8C461,127.5,459.8,128.6,458.6,129.4
				C458.6,129.3,458.6,129.4,458.6,129.4z"/>
			<path class="st1" d="M448.6,92.5c-0.1,0-0.3-0.1-0.4-0.1l-0.3,0.3c0.1,0.3,0.1,0.5,0.1,0.7c0,0.1,0,0.2,0,0.3
				c0,0.3,0.1,0.5,0.1,0.8c0.1,0.9,0.1,1.8-0.2,2.6c-0.1,0.4-0.3,0.7-0.4,1.1c-0.5,0.9-1.1,1.4-1.7,1.7c-0.1,0-0.2,0.1-0.4,0.1
				c0,0-0.1,0-0.1,0c-0.1,0-0.2,0-0.4,0c-0.2,0-0.3-0.1-0.5-0.2c-0.1,0-0.2-0.1-0.3-0.2c-0.2-0.1-0.4-0.2-0.6-0.4
				c-0.3-0.2-0.5-0.4-0.8-0.7l1.8-3.3l1.8-3.4c-0.7-0.2-1.5-0.5-2.3-0.7c0.1,0.1,0.3,0.2,0.4,0.3l0,0c0.3,0.3,0.5,0.6,0.5,0.9
				c0,0.3,0,0.6-0.2,0.9l-0.9,1.7l-1.7,3.1c-0.1-0.1-0.2-0.2-0.2-0.3c-0.3-0.4-0.6-0.8-0.8-1.2c-0.3-0.6-0.5-1.1-0.6-1.7
				c-0.1-0.6-0.1-1.2,0-1.7c0.1-0.4,0.2-0.8,0.4-1.1c0.4-0.7,0.9-1.2,1.6-1.3c0.1,0,0.1,0,0.1,0c-0.5-0.1-0.9-0.2-1.4-0.3
				c-0.3,0.3-0.6,0.7-0.8,1.2c-0.2,0.4-0.4,0.8-0.6,1.3c-0.4,1.1-0.5,2.3-0.4,3.5c0.1,0.9,0.3,1.8,0.7,2.6c0.2,0.5,0.5,0.9,0.8,1.3
				c0.1,0.2,0.3,0.4,0.5,0.6c0.3,0.3,0.6,0.6,0.9,0.8c0.2,0.1,0.4,0.2,0.6,0.3c0.1,0,0.2,0.1,0.3,0.1c0.2,0.1,0.4,0.1,0.6,0.1
				c0.1,0,0.3,0,0.5,0c0.2,0,0.3,0,0.5,0c0,0,0,0,0,0c1.2-0.3,2.2-1.2,3-2.6c0.3-0.6,0.6-1.2,0.8-1.9c0.4-1.3,0.4-2.7,0-4.2
				C448.7,93,448.7,92.8,448.6,92.5z"/>
		</g>
	</g>
</g>
</svg>
