<?xml version="1.0" encoding="utf-8"?>
<!-- Generator: Adobe Illustrator 24.0.0, SVG Export Plug-In . SVG Version: 6.00 Build 0)  -->
<svg version="1.1" id="Capa_1" xmlns="http://www.w3.org/2000/svg" xmlns:xlink="http://www.w3.org/1999/xlink" x="0px" y="0px"
	 viewBox="0 0 512 512" style="enable-background:new 0 0 512 512;" xml:space="preserve">
<style type="text/css">
	.st0{fill:#FFFFFF;}
	.st1{fill:#1C1C1A;}
</style>
<g>
	<path d="M0.4,395c0.7-16.5,1.5-28.4,1.7-40.3c0.1-6.2-0.3-12.4-1-18.6c-2.9-25.5,0-50.7,4.9-75.7c9.9-50.9,27.5-98.7,58.2-141.1
		c37.7-52.2,88-84.3,152.1-94c1.8-0.3,4.2-0.9,5-2.2c3.8-5.9,9.6-8.5,15.8-10.3C250.8,9,264.7,9,278,14c4.5,1.7,8.2,5.7,12.3,8.5
		c1.7,1.1,3.5,2.5,5.4,2.8c78,12.1,133.3,55.9,170.9,123.6c28.1,50.7,42.9,105.3,45.3,163.2c0.4,10.2-2,20.5-2.2,30.8
		c-0.2,8.9,0.8,17.9,1.1,26.9c1.2,32.3,1.3,64.6-7.9,95.9c-2.7,9.3-7.5,18.5-13.1,26.5c-7.6,10.8-19.6,12.9-30.4,5.1
		c-10.7-7.7-20.5-16.8-30.4-25.7c-16.5-14.8-33.6-28.5-53.3-39c-26.8-14.3-55.7-20.9-85.6-24.2c-39.5-4.3-78.4-1.5-116.6,9.4
		c-35.6,10.1-65.3,30.2-91.9,55.3c-7.8,7.4-15.8,14.6-24.2,21.3c-14.9,11.8-28.9,9.1-39-7C9.5,473,5.7,457,3.9,440.7
		C2,424,1.3,407.2,0.4,395z M10.2,392.5c0.9,12.9,1.4,28.3,3.1,43.7c1.6,15.2,4.5,30.2,12.3,43.6c8.1,13.9,16.2,15.2,28.2,4.7
		c6.6-5.8,13.2-11.6,19.6-17.6c28.3-26.8,59.8-48.3,97.9-58.9c43.7-12.2,88.1-14.5,132.9-7.9c32.2,4.7,62.6,14.5,90.4,31.9
		c22.4,14,40.9,32.5,60.7,49.7c3.4,2.9,6.9,5.7,10.8,8c5.4,3.2,10.7,2.3,14.9-2.3c2.7-3,5.7-6.3,6.9-10.1c4-12.4,8.5-24.8,10.5-37.6
		c4.7-29.9,3.5-60,1.3-90.1c-0.2-2.1-2-4.6-3.7-6c-21.2-16.5-44.5-29.8-69.4-39.8c-96.2-38.5-194.4-42.5-294.1-16.1
		C90.6,298.9,52,316.8,17.3,342.7c-3.1,2.3-4.7,4.7-4.9,8.6C11.9,364.2,11,377.1,10.2,392.5z M258.8,261.1
		c36.4,0.7,72,4.4,107.1,12.7c35.2,8.4,68.8,20.9,101.3,38.7c0-3.1,0.1-5,0-6.9c-1.6-22.4-2.3-44.9-5-67.1
		c-5.4-43.5-17.6-85.2-39.2-123.7c-7.4-13.2-14.9-26.6-27.2-36.3c-28-22.1-59.7-36.2-94.7-42.2c-13.8-2.4-27.8-3.2-42.2-4.8
		C258.8,108.9,258.8,184.8,258.8,261.1z M43.6,311c0.7,0.4,1.4,0.8,2.1,1.1c64.7-35.4,134.5-49.9,207.4-51.1c0-76.5,0-152.4,0-228.4
		c-1.6-0.1-2.8-0.2-3.9-0.2c-37.1,1.1-72.5,8.8-104.8,27.6c-12.6,7.3-25.6,15.2-35.3,25.7c-17.1,18.5-27.7,41.5-36.9,64.8
		C61,178.8,53.6,208.1,50,238.2C47.2,262.4,45.7,286.7,43.6,311z M86.7,107.6C31.1,167.5,3.5,280.9,11.7,334
		c8.2-5.4,16.2-10.9,24.4-16c2.9-1.8,3.8-3.7,4-6.9c1.4-23.9,2.2-48,4.9-71.8c3.6-32.5,11.9-64,24.5-94.1
		C74.7,132.7,80.7,120.5,86.7,107.6z M500.3,333.8c0.7-0.3,1.4-0.6,2.1-0.8c0.1-83.1-23-158.6-75.8-224.1c-0.2,1.6,0.4,2.9,1.1,4.2
		c14.8,27,25.1,55.7,32.2,85.6c8.6,36.7,12,73.9,12.5,111.4c0,2.2,0.7,5.4,2.2,6.5C482.9,322.7,491.7,328.2,500.3,333.8z"/>
	<path class="st0" d="M10.2,392.5c0.8-15.4,1.7-28.3,2.2-41.2c0.2-3.9,1.8-6.3,4.9-8.6c34.7-26,73.4-43.8,115.1-54.9
		c99.7-26.4,197.9-22.5,294.1,16.1c24.9,10,48.2,23.2,69.4,39.8c1.8,1.4,3.6,3.9,3.7,6c2.2,30.1,3.4,60.2-1.3,90.1
		c-2,12.8-6.5,25.2-10.5,37.6c-1.2,3.7-4.2,7-6.9,10.1c-4.2,4.6-9.5,5.5-14.9,2.3c-3.8-2.3-7.4-5.1-10.8-8
		c-19.7-17.2-38.3-35.8-60.7-49.7c-27.8-17.4-58.2-27.2-90.4-31.9c-44.8-6.6-89.2-4.3-132.9,7.9c-38,10.6-69.6,32.1-97.9,58.9
		c-6.4,6-13,11.8-19.6,17.6c-12,10.5-20.1,9.2-28.2-4.7c-7.9-13.5-10.7-28.5-12.3-43.6C11.6,420.9,11.1,405.4,10.2,392.5z"/>
	<path class="st0" d="M258.8,261.1c0-76.3,0-152.1,0-229.5c14.4,1.6,28.4,2.5,42.2,4.8c35.1,6,66.7,20.1,94.7,42.2
		c12.3,9.7,19.8,23.1,27.2,36.3c21.6,38.5,33.7,80.1,39.2,123.7c2.8,22.2,3.5,44.7,5,67.1c0.1,1.9,0,3.8,0,6.9
		c-32.5-17.8-66.1-30.4-101.3-38.7C330.8,265.5,295.2,261.8,258.8,261.1z M344.6,72.9c-1.4,0.8-4.6,1.5-5.3,3.2
		c-0.9,2-0.4,5.5,0.8,7.4c4.7,7.3,12,11,20.5,11.9c2.2,0.2,5.6-1.3,6.8-3.2c1-1.5,0.5-5.1-0.7-6.9C361.8,77.9,354.4,74.2,344.6,72.9
		z"/>
	<path class="st0" d="M43.6,311c2.1-24.3,3.6-48.6,6.5-72.8c3.5-30.1,11-59.4,22.1-87.6c9.2-23.3,19.9-46.3,36.9-64.8
		c9.7-10.5,22.8-18.4,35.3-25.7c32.3-18.8,67.7-26.5,104.8-27.6c1.2,0,2.3,0.1,3.9,0.2c0,76,0,151.9,0,228.4
		c-73,1.2-142.8,15.7-207.4,51.1C45,311.8,44.3,311.4,43.6,311z M173.9,79.6c-0.2-5-2.8-6.3-6.3-6.3c-9.5,0.1-16.8,4.5-22.1,12.1
		c-1.2,1.8-1.8,5.4-0.7,6.9c1.2,1.8,4.6,3.3,6.8,3.1c8.3-0.8,15.2-4.7,20.2-11.4C173,82.5,173.4,80.6,173.9,79.6z"/>
	<path class="st0" d="M86.7,107.6c-5.9,12.9-11.9,25.1-17.2,37.6c-12.7,30.2-20.9,61.7-24.5,94.1c-2.7,23.8-3.5,47.8-4.9,71.8
		c-0.2,3.3-1.1,5.2-4,6.9c-8.2,5.1-16.2,10.6-24.4,16C3.5,280.9,31.1,167.5,86.7,107.6z"/>
	<path class="st0" d="M500.3,333.8c-8.6-5.7-17.3-11.2-25.7-17.2c-1.5-1.1-2.2-4.3-2.2-6.5c-0.5-37.6-3.8-74.8-12.5-111.4
		c-7.1-29.9-17.4-58.6-32.2-85.6c-0.7-1.3-1.3-2.6-1.1-4.2c52.7,65.6,75.8,141,75.8,224.1C501.7,333.3,501,333.6,500.3,333.8z"/>
	<path d="M344.6,72.9c9.8,1.3,17.1,5,22.1,12.4c1.2,1.8,1.8,5.4,0.7,6.9c-1.2,1.8-4.6,3.4-6.8,3.2c-8.5-0.8-15.8-4.6-20.5-11.9
		c-1.3-1.9-1.7-5.4-0.8-7.4C340,74.4,343.2,73.7,344.6,72.9z"/>
	<path d="M173.9,79.6c-0.4,1-0.9,3-2,4.5c-5.1,6.7-12,10.6-20.2,11.4c-2.3,0.2-5.6-1.3-6.8-3.1c-1-1.5-0.5-5.2,0.7-6.9
		c5.2-7.7,12.6-12,22.1-12.1C171.1,73.2,173.7,74.6,173.9,79.6z"/>
	<g id="LOGO_GAMA_6_">
		<g>
			<path class="st1" d="M315.3,138l-5.8-1.5l-3-0.6l-1.3-0.3c-1.2,0.4-2.3,0.6-3.4,0.7l0.5,0.1l3,0.5l3,0.6l18.4,4.2l3.3,0.8l-2.9-1
				l-3-1l-3-0.9L315.3,138z"/>
			<path class="st1" d="M323.6,143.2l-3.2-1.1l-3.5-1l-3.4-1l-3.3-0.9l-3.5-0.9l-3.5-0.8l-3.5-0.7l-3.6-0.6l-2-0.3
				c0.1,0.9,0,1.7-0.1,2.6l5.4,0.9l7.1,1.6l7.2,1.7l7.2,1.8l7.6,2.1l8.2,2l-3.4-1.5l-3.2-1.5l-3.4-1.3L323.6,143.2z"/>
			<path class="st1" d="M211,147.7l7-1.9c-0.1-1.6,0.2-3.3,0.6-5.1c0,0,0-0.1,0-0.1c0.1-0.2,0.1-0.6,0.3-1c0.9-2.7,2.4-5.2,4.4-7.5
				l-2.7,0.5l-5,0.9l-4.5,1.1l-4.1,1.3l-4.1,1.2l-3.9,1.5l-4.2,1.6l-4.3,1.7l-4.8,2l-5.3,2.1l3-1.8l2.8-1.7l3-1.6l3-1.3l3.2-1.4
				l3.1-1.3l3.2-1.3l3.4-1.1l3.5-1l3.5-1l3.6-0.8l3.8-0.8l3.9-0.8l2.3-0.3c1-0.9,2.1-1.8,3.3-2.7l-1.3,0.2l-4.4,0.6l-4.3,0.9
				l-4.3,0.8l-4.1,1l-4.1,1l-4,1.3l-3.9,1.3l-3.7,1.3l-3.6,1.5l-3.3,1.7l-3.2,1.8l-3.2,2l-2.7,1.9l-2.6,2.1l0.4,0.8l0.7,0.4l0.4,0.6
				l-0.6,1.7l0.8,1.1l-1.1,1.8l-0.5,2.4v1.8l0.6,1l1.6-0.1l17.2-5.6L211,147.7z"/>
			<path class="st1" d="M319.4,130.4l-4.1-0.5l-2.5-0.3c0,0.1-0.1,0.1-0.1,0.2c-0.1,0.1-0.1,0.3-0.2,0.4l10.6,0.7L319.4,130.4z"/>
			<path class="st1" d="M294.2,135.2l2.2,0.2l0.2,0c-1.1-0.5-2-1.2-2.6-1.9c0-0.1-0.1-0.1-0.1-0.2c0,0,0,0.1,0,0.1
				c0.1,0.2,0.1,0.4,0.2,0.7C294.1,134.6,294.2,134.9,294.2,135.2z"/>
			<path class="st1" d="M285.2,153.4c-0.1,0.1-0.2,0.1-0.3,0.2l2.1,0.2l3.1,0.2l3,0.4l3,0.4l3,0.3l3,0.5l2.9,0.5l3,0.5l3,0.6
				l18.4,4.2l3.3,0.8l-2.9-1l-3-1l-3-0.9l-5.8-1.6l-5.8-1.5l-3-0.6l-3-0.6l-3-0.6l-3-0.5l-3.1-0.6l-3.1-0.6l-3.1-0.5l-3.3-0.4
				l-0.7-0.1C286.4,152.3,285.8,152.9,285.2,153.4z"/>
			<path class="st1" d="M291.8,145.1c-0.1,0.2-0.2,0.3-0.2,0.5c-0.2,0.4-0.5,1-0.8,1.5c-0.1,0.1-0.1,0.2-0.2,0.4
				c-0.9,1.4-1.9,2.6-3.1,3.8h1.5l4.8,0.2l9,0.7l-1.4-0.3l-2.2-0.4l-5.4-0.9l-1.2-0.3l2.8-0.2c0.2,0,0.4,0,0.6,0l16.9,2.2l-5.5-1.4
				l-2.3-0.5l-2.2-0.4l-2.4-0.4l-2.5-0.4l-2.9-0.4l-3.2-0.4l6.5,0.3l5.3,0.3l4.3,0.2l17.7,1.2L322,150l-4.1-0.5l-8.6-1.1l-4.4-0.5
				l-4.3-0.6l-4.1-0.6l-3.7-0.5l3.6,0.1l7.1,0c0,0-6.6-0.8-7.8-0.9L291.8,145.1C291.8,145.1,291.8,145.1,291.8,145.1z"/>
			<path class="st1" d="M208.2,168.9c0,0,0-0.1,0-0.1l0-0.1c0-0.3,0.1-0.7,0.3-1.2c0.3-0.8,0.7-1.4,0.9-1.8c0,0,0.1-0.1,0.1-0.1
				c1.5-2.9,3.6-5.2,6.6-7.1c1.7-1.1,3.8-2.1,6.3-3c-0.7-0.7-1.3-1.5-1.8-2.3l-0.1-0.1c-0.1-0.1-0.2-0.3-0.4-0.5l-1.8,0.3l-4.5,1.1
				l-4.1,1.3l-4.1,1.2l-3.9,1.5l-4.2,1.6l-4.3,1.7l-4.8,2l-5.3,2.1l3-1.8l2.8-1.7l3-1.6l3-1.3l3.2-1.4l3.1-1.3l3.2-1.3l3.4-1.1
				l3.5-1l3.5-1l3.6-0.8l0.9-0.2c-0.1-0.2-0.2-0.4-0.2-0.6l-0.1-0.2c-0.2-0.5-0.3-0.9-0.4-1.4l-1.3,0.2l-4.1,1l-4.1,1l-4,1.3
				l-3.9,1.3l-3.7,1.3l-3.6,1.5l-3.3,1.7l-3.2,1.8l-3.2,2l-2.7,1.9l-2.6,2.1l0.4,0.8l0.7,0.4l0.4,0.6l-0.6,1.7l0.8,1.1l-1.1,1.8
				l-0.5,2.4v1.8l0.6,1l1.6-0.1l17.2-5.6L208.2,168.9z"/>
			<path class="st1" d="M332.9,165.4l-3.4-1.3l-3.3-1.3l-3.2-1.1l-3.5-1l-3.4-1l-3.3-0.9l-3.5-0.9l-3.5-0.8l-3.5-0.7l-3.6-0.6
				l-3.7-0.7l-3.6-0.6l-3.9-0.6l-2.8-0.4c-1.3,1-2.8,2-4.5,3l7,0.4l7.6,0.9l7.2,1.2l7.1,1.6l7.2,1.7l7.2,1.8l7.6,2.1l8.2,2l-3.4-1.5
				L332.9,165.4z"/>
			<path class="st1" d="M197.9,191.8c0,0,0-0.1,0-0.1c0-0.4,0.1-1,0.3-1.8c1.2-3.5,4.1-6.4,8.8-8.9c1.3-0.7,2.8-1.4,4.5-1.9
				c-0.8-0.7-1.5-1.5-2.1-2.4c-0.2-0.3-0.3-0.5-0.5-0.8l-1,0.3l-3.9,1.5l-4.2,1.6l-4.3,1.7l-4.8,2l-5.3,2.1l3-1.8l2.8-1.7l3-1.6
				l3-1.3l3.2-1.4l3.1-1.3l3.2-1.3l1.4-0.5c-0.1-0.3-0.2-0.6-0.2-0.9c-0.1-0.5-0.2-1-0.2-1.5l-0.4,0.1l-3.9,1.3l-3.7,1.3l-3.6,1.5
				l-3.3,1.7l-3.2,1.8l-3.2,2l-2.7,1.9l-2.6,2.1l0.4,0.8l0.7,0.4l0.4,0.6L182,189l0.8,1.1l-1.1,1.8l-0.5,2.4v1.8l0.6,1l1.6-0.1
				l14.4-4.7C197.9,192.1,197.9,191.9,197.9,191.8z"/>
			<path class="st1" d="M266.2,167.2c6,0.7,10.4,2,13.4,4c1.6,1,2.9,2.3,4,3.9c0.2,0.4,0.5,0.7,0.7,1.2l5.7,0.3l7.6,0.9l7.2,1.2
				l7.1,1.6l7.2,1.7l7.2,1.8l7.6,2.1l8.2,2l-3.4-1.5l-3.2-1.5l-3.4-1.3l-3.3-1.3l-3.2-1.1l-3.5-1l-3.4-1l-3.3-0.9l-3.5-0.9l-3.5-0.8
				L305,176l-3.6-0.6l-3.7-0.7l-3.6-0.6l-3.9-0.6l-3.9-0.5l3.3,0.3l3.1,0.2l3,0.4l3,0.4l3,0.3l3,0.5l2.9,0.5l3,0.5l3,0.6l18.4,4.2
				l3.3,0.8l-2.9-1l-3-1l-3-0.9l-5.8-1.6l-5.8-1.5l-3-0.6l-3-0.6l-3-0.6l-3-0.5l-3.1-0.6l-3.1-0.6l-3.1-0.5l-3.3-0.4l-3.2-0.5
				l2.3-0.1h2.3l4.8,0.2l9,0.7l-1.4-0.3l-2.2-0.4l-5.4-0.9l-1.2-0.3l2.8-0.2c0.2,0,0.4,0,0.6,0l16.9,2.2l-5.5-1.4l-2.3-0.5l-2.2-0.4
				l-2.4-0.4l-2.5-0.4l-2.9-0.4l-3.2-0.4l6.5,0.3l5.3,0.3l4.3,0.2l17.7,1.2l-3.6-0.5l-4.1-0.5l-8.6-1.1l-4.4-0.5l-4.3-0.6l-4.1-0.6
				l-3.7-0.5l3.6,0.1l7.1,0c0,0-6.6-0.8-7.8-0.9l-6.2-0.5l-5.5-0.2l-5.7-0.1l-6-0.2h-6.2l-6.3,0.2l-6.4,0.2l-6.5,0.4l-6.5,0.5
				l-1.6,0.1l-4.4,0.4l-4.4,0.6l-3.1,0.4c0.3,0,0.6,0,1,0.1c1,0.1,2.1,0.1,3.2,0.1l15.8-0.2l0.2,0l2.4-0.1l2.6-0.2l2.6-0.1l2.6-0.1
				l2.6-0.2l2.8-0.1h2.8h2.8l3-0.1h2.8h3h3.1l3,0.1l-12.3,0.7L266.2,167.2z"/>
			<path class="st1" d="M263.8,188.5c0.2-0.2,0.3-0.4,0.4-0.6c0,0,0-0.1,0.1-0.1c0,0,0-0.1,0-0.1c-0.1-0.1-0.4-0.2-0.7-0.4l-7.8,0.6
				l-8.3,0.8l-7.2,0.9l-6.3,0.9l-5.6,1l-5,0.9l-3.4,0.8c0.1,0.1,0.3,0.1,0.4,0.2c2.1,1.1,6.5,2.3,15.1,2.3c9.2,0,16.5-1,21.7-3.1
				C261.1,190.8,262.9,189.4,263.8,188.5z"/>
			<path class="st1" d="M227.2,189.5l3.9-0.8l4-0.6l4.2-0.6l4.3-0.5l2-0.2l2.1-0.3l2.4-0.2l2.4-0.1l2.4-0.1l2.6-0.2l1-0.1
				c-1.7-0.2-3.8-0.4-6.3-0.5c-1.4,0-2.9-0.1-4.5-0.1c-12.3,0-18.7,1.5-21.9,2.7c-2.6,1-4.1,2-5.1,2.8l2.7-0.6L227.2,189.5z"/>
			<path class="st1" d="M280.1,186.8c0.1-0.3,0.3-0.6,0.4-0.9c0.1-0.2,0.2-0.4,0.2-0.6c0-0.1,0-0.1,0.1-0.2c0.2-0.5,0.3-1,0.4-1.5
				c0.1-0.3,0.1-0.5,0.1-0.8c0.2-2-0.2-3.8-1.3-5.4c-0.3-0.5-0.7-0.9-1.1-1.4c0,0,0-0.1-0.1-0.1c0,0,0,0,0,0c0,0,0,0,0,0
				c-0.5-0.5-1-0.9-1.6-1.3c-0.8-0.5-1.7-1-2.8-1.4c-4.2-1.6-10.6-2.4-19.2-2.4l-21.4,0.3c-1.1,0-2.1,0-3.1-0.1c-0.1,0-0.3,0-0.4,0
				c-0.3,0-0.6,0-0.9-0.1l0,0c-1-0.1-1.9-0.2-2.7-0.3c-0.6-0.1-1.2-0.2-1.7-0.4c-0.3-0.1-0.6-0.2-0.8-0.3l0,0c0,0-0.1,0-0.2-0.1
				c0,0,0-0.1-0.1-0.1c0,0,0,0,0,0c0,0,0,0,0,0c-0.2-0.1-0.4-0.3-0.5-0.4c-0.4-0.4-0.7-0.9-0.8-1.4c0-0.2-0.1-0.3-0.1-0.5
				c0-0.3-0.1-0.6-0.1-0.9c0,0,0-0.1,0-0.1c0-0.1,0-0.2,0.1-0.4c0.1-0.3,0.3-0.6,0.5-0.9c0.1-0.2,0.3-0.3,0.4-0.5
				c0.1-0.1,0.1-0.2,0.2-0.3c0.1-0.2,0.3-0.3,0.4-0.5c0.8-0.9,1.8-1.7,3.2-2.2c0.6-0.2,1.4-0.5,2.2-0.6c2.7-0.5,6.5-0.8,11.5-0.8
				h0.6h2.7h6.2c5.1,0,10.8-1,17.2-3.1c0.1,0,0.1,0,0.1-0.1c0.1,0,0.1-0.1,0.2-0.1c0.5-0.2,0.9-0.3,1.4-0.5c2.6-0.9,5-1.9,7.1-3
				c2.2-1.1,4.2-2.3,5.7-3.6c1.1-0.9,2.1-1.9,3-2.9c0.6-0.7,1.1-1.4,1.6-2.1c0,0,0-0.1,0.1-0.1c0,0,0.1-0.1,0.1-0.1
				c0.3-0.5,0.5-1,0.8-1.4c0-0.1,0.1-0.1,0.1-0.2c0-0.1,0.1-0.1,0.1-0.2c0.3-0.5,0.6-1,0.9-1.6c0.1-0.2,0.2-0.5,0.3-0.7
				c0.3-1,0.6-1.9,0.7-2.8c0.1-1,0.1-1.9-0.1-2.8c0,0,0-0.1,0-0.1c0-0.1-0.1-0.2-0.1-0.3c0,0,0-0.1,0-0.1c0,0,0,0,0,0
				c-0.1-0.6-0.3-1.2-0.6-1.8c-0.1-0.2-0.1-0.3-0.2-0.5c-0.1-0.2-0.2-0.4-0.3-0.6c-0.1-0.2-0.2-0.5-0.4-0.7c0,0,0-0.1-0.1-0.1
				c-0.1-0.2-0.2-0.4-0.3-0.6c-0.3-0.5-0.5-1-0.9-1.5c0.1-0.1,0.2-0.1,0.3-0.1c0.1-0.1,0.3-0.1,0.4-0.2c0.2-0.1,0.4-0.2,0.6-0.3
				c1.1-0.6,2.1-1.1,3.1-1.5c0.1,0,0.2-0.1,0.2-0.1c0,0,0.1,0,0.1,0c1-0.3,1.9-0.5,2.7-0.5c0.6,0,1,0.2,1.3,0.5c0,0,0.1,0.1,0.1,0.1
				c0.1,0.2,0.2,0.4,0.3,0.7c0,0.2,0.1,0.3,0.1,0.5c0,0,0,0.1,0,0.1c0,0,0,0.1,0,0.1c0,0,0,0.1,0,0.1c0,0.1,0,0.3,0.1,0.4
				c0,0.2,0.1,0.4,0.1,0.6c0,0.2,0.1,0.4,0.2,0.5c0,0,0,0,0,0c0,0,0,0,0,0c0,0.1,0.1,0.1,0.1,0.2c0.2,0.4,0.5,0.7,0.8,1
				c0.3,0.2,0.6,0.4,0.9,0.6c0.8,0.4,1.8,0.6,2.9,0.6c0.8,0,1.5-0.1,2.3-0.3c0.5-0.1,0.9-0.3,1.4-0.5c0,0,0.1,0,0.1,0
				c0.3-0.1,0.5-0.2,0.8-0.3c0.1-0.1,0.3-0.1,0.4-0.2c0.2-0.1,0.4-0.2,0.6-0.4c0.2-0.2,0.4-0.3,0.6-0.5c0.2-0.2,0.3-0.3,0.5-0.5
				c0.1-0.1,0.2-0.2,0.3-0.3c0.3-0.4,0.6-0.8,0.8-1.3c0.1-0.2,0.3-0.4,0.4-0.7c0,0,0,0,0,0c0,0,0-0.1,0-0.1c0,0,0,0,0,0c0,0,0,0,0,0
				c0-0.1,0.1-0.2,0.1-0.3c0,0,0,0,0,0c0,0,0-0.1,0-0.1c0-0.3,0-0.5,0-0.8c0-0.5,0.2-0.9,0.1-1.4c-0.1-0.2-0.2-0.4-0.4-0.6
				c-0.1-0.1-0.2-0.2-0.2-0.3c-0.1-0.2-0.2-0.3-0.3-0.5c-0.1-0.1-0.1-0.2-0.2-0.3c-0.1-0.1-0.1-0.2-0.2-0.3c0,0-0.1-0.1-0.1-0.1
				c0,0-0.1,0-0.1-0.1c0,0,0,0-0.1,0c0,0,0,0-0.1,0c0,0-0.1,0-0.1,0c-0.5-0.4-1-0.7-1.5-0.9c-1.2-0.6-2.8-0.9-4.6-0.9
				c-1.3,0-2.8,0.2-4.3,0.5c-0.1,0-0.2,0-0.2,0.1c-0.3,0.1-0.5,0.1-0.8,0.2c-0.2,0-0.4,0.1-0.5,0.1c-1.9,0.5-4,1.2-6.2,2.2
				c-1.3,0.6-2.6,1.2-3.9,1.9c-0.7,0.4-1.3,0.7-2,1.1c-0.1-0.1-0.2-0.1-0.3-0.1c-0.7-0.4-1.5-0.8-2.3-1.1c-1.7-0.8-3.5-1.4-5.4-1.9
				c-0.1,0-0.2,0-0.2-0.1c-0.5-0.1-0.9-0.3-1.4-0.4c-0.4-0.1-0.9-0.2-1.4-0.2c-0.1,0-0.2,0-0.3,0c-1.9-0.4-3.9-0.6-6-0.8
				c-1.2-0.1-2.4-0.1-3.7-0.1c-5.5,0-10.6,0.7-15.4,1.8c-0.8,0.2-1.6,0.4-2.4,0.7c-1.9,0.6-3.7,1.2-5.4,2c0,0,0,0-0.1,0
				c-0.7,0.3-1.5,0.6-2.2,0.9c-0.1,0.1-0.3,0.1-0.4,0.2c-1,0.5-1.9,1-2.8,1.5l0,0c-1.3,0.7-2.4,1.5-3.5,2.3l0,0
				c-2.7,2-4.7,4.3-6.2,6.7c-0.6,1.1-1.2,2.2-1.5,3.3c-0.1,0.2-0.1,0.4-0.2,0.7c0,0.1,0,0.2-0.1,0.3c-0.1,0.2-0.1,0.4-0.1,0.5
				c-0.1,0.5-0.2,0.9-0.3,1.3c0,0.3-0.1,0.6-0.1,1c0,0.6,0,1.1,0,1.6c0.1,0.5,0.2,1.1,0.3,1.6c0,0,0,0.1,0,0.1c0,0,0,0.1,0,0.1
				c0.1,0.2,0.1,0.4,0.2,0.6c0,0.1,0.1,0.2,0.1,0.3c0.1,0.4,0.3,0.7,0.5,1c0,0,0,0.1,0,0.1c0,0.1,0.1,0.1,0.1,0.2
				c0.1,0.2,0.2,0.3,0.3,0.5c0.2,0.3,0.5,0.7,0.8,1l0,0c1.7,2,4.1,3.8,7.4,5.3c-5.5,1.2-9.8,2.7-12.8,4.3c-0.4,0.2-0.7,0.4-1,0.6
				c-1,0.7-1.9,1.4-2.6,2.1c-1,1-1.8,2.1-2.4,3.2c0,0.1-0.1,0.2-0.1,0.3c-0.2,0.4-0.6,0.8-0.7,1.3c0,0.1,0,0.1-0.1,0.2
				c0,0.1,0,0.2-0.1,0.3c0,0.1,0,0.2-0.1,0.3c-0.1,0.2-0.1,0.5-0.1,0.7c-0.1,0.7-0.1,1.4,0,2c0,0.2,0.1,0.4,0.1,0.5
				c0.1,0.5,0.3,0.9,0.6,1.4c0.1,0.1,0.1,0.2,0.2,0.3c0.2,0.3,0.4,0.5,0.7,0.8c0.2,0.2,0.3,0.4,0.5,0.5c2.2,1.9,6.1,3.3,11.4,4.3
				c-1.4,0.2-2.6,0.4-3.9,0.6c-2.2,0.4-4.3,0.8-6.1,1.3c-2.7,0.7-5,1.6-6.8,2.6c-1,0.5-1.8,1-2.6,1.6c-1.8,1.2-3,2.6-3.7,3.9
				c-0.1,0.2-0.2,0.5-0.3,0.7c0,0.1-0.1,0.2-0.1,0.3c0,0.1-0.1,0.3-0.1,0.4c0,0.2,0,0.5-0.1,0.7c-0.1,0.6-0.1,1.3,0,1.9
				c0.1,0.6,0.4,1.3,0.7,1.9c0,0.1,0.1,0.1,0.1,0.2c0.1,0.1,0.1,0.2,0.2,0.3c0,0,0,0,0,0c0,0,0,0,0,0c0,0,0.1,0.1,0.1,0.1
				c0.3,0.5,0.7,0.9,1.2,1.3c0.3,0.3,0.6,0.5,0.9,0.8c0.3,0.2,0.5,0.4,0.8,0.7c0.1,0.1,0.2,0.1,0.2,0.2c0.2,0.2,0.5,0.3,0.8,0.4
				c0.2,0.1,0.3,0.1,0.5,0.2c0,0,0,0,0,0c4.1,2.3,10.3,3.6,18.7,4c1.8,0.1,3.8,0.1,5.8,0.1c9.1,0,17.1-0.9,24-2.6
				c4.5-1.1,8.5-2.6,12.1-4.5c0.8-0.4,1.6-0.9,2.4-1.3c1.3-0.8,2.4-1.6,3.5-2.4c1-0.8,1.9-1.7,2.7-2.6c0.1-0.1,0.2-0.3,0.4-0.4
				c0.1-0.1,0.1-0.1,0.2-0.2c0.1-0.1,0.2-0.2,0.3-0.3c0.1-0.1,0.1-0.1,0.2-0.2c0.5-0.6,0.9-1.1,1.3-1.7
				C279.6,187.8,279.9,187.3,280.1,186.8z M264.9,152.5c-4.2,2.7-8.9,4.1-14.1,4.1c-5.2,0-9-1.4-11.3-4.2c-0.6-0.7-1.1-1.6-1.4-2.5
				c-0.1-0.3-0.2-0.6-0.3-1c-0.1-0.3-0.1-0.6-0.2-0.9c-0.1-0.4-0.1-0.8-0.1-1.2c0-0.3,0-0.6,0-0.9c0-0.5,0.1-1,0.1-1.5
				c0.2-1.1,0.4-2.3,0.8-3.6c0-0.1,0.1-0.3,0.1-0.4c0.3-0.8,0.6-1.5,1-2.3c1.7-3.7,4.3-6.7,7.9-8.9c0.2-0.1,0.3-0.2,0.5-0.3
				c1.3-0.8,2.6-1.4,3.9-1.9c3-1.2,6.2-1.8,9.6-1.8c2.8,0,5.2,0.4,7.2,1.3c0.5,0.2,1,0.5,1.5,0.7c1,0.6,1.9,1.3,2.6,2.2
				c1.2,1.3,1.8,2.9,2.1,4.7c0.1,0.9,0.1,1.8,0,2.8c-0.1,1.2-0.4,2.5-0.9,3.8c-0.3,0.8-0.6,1.4-0.9,2.1c-0.2,0.5-0.5,1-0.7,1.5
				c-0.1,0.2-0.2,0.4-0.3,0.6c-0.2,0.4-0.5,0.7-0.7,1.1c0,0-0.1,0.1-0.1,0.1c-0.2,0.3-0.4,0.6-0.6,0.9
				C269,149.2,267.1,151.1,264.9,152.5z M245.8,200.1c-0.9,0.1-1.7,0.2-2.6,0.2c-0.2,0-0.4,0-0.6,0c-1.1,0.1-2.3,0.1-3.4,0.2
				c-0.6,0-1.2,0-1.8,0c-0.6,0-1.2,0-1.8,0c-0.5,0-1,0-1.4,0c-0.5,0-0.9,0-1.4,0c-1.4,0-2.7-0.1-3.9-0.2c-0.8-0.1-1.6-0.2-2.4-0.3
				c-0.8-0.1-1.5-0.2-2.2-0.4c-0.3-0.1-0.7-0.1-1-0.2c-1-0.2-1.9-0.5-2.8-0.8c-0.4-0.2-0.9-0.3-1.3-0.5c-0.2-0.1-0.5-0.2-0.7-0.3
				c-0.1-0.1-0.3-0.1-0.4-0.2c-0.1,0-0.1-0.1-0.2-0.1c-0.1-0.1-0.3-0.1-0.4-0.1c-0.1,0-0.1-0.1-0.2-0.1c-0.2-0.1-0.3-0.2-0.5-0.3
				c-0.3-0.2-0.6-0.4-0.9-0.6c-0.1-0.1-0.3-0.2-0.4-0.3c-0.3-0.3-0.5-0.5-0.7-0.8c-0.1-0.1-0.1-0.2-0.2-0.3
				c-0.1-0.1-0.1-0.3-0.2-0.5l0,0c-0.1-0.3-0.2-0.5-0.2-0.8c0-0.1,0-0.2-0.1-0.3c0-0.2-0.1-0.4-0.1-0.7c0,0,0,0,0,0
				c0-0.5,0-0.9,0.2-1.4c0-0.1,0.1-0.3,0.1-0.4c0.1-0.2,0.2-0.4,0.3-0.6c0.1-0.1,0.1-0.2,0.2-0.3c0.3-0.5,0.6-1,1-1.5
				c0.6-0.8,1.4-1.5,2.4-2.2c1.1-0.8,2.5-1.6,4.1-2.3c0.4-0.2,0.9-0.4,1.3-0.6c0.7-0.3,1.5-0.6,2.4-0.8c0.3-0.1,0.6-0.2,0.9-0.2
				c1.6-0.4,3.3-0.8,5.2-1.1c1.4-0.2,2.9-0.4,4.5-0.5c1.7-0.1,3.4-0.3,5.3-0.3c1.8-0.1,3.6-0.1,5.5-0.1c0.8,0,1.6,0,2.4,0
				c0.8,0,1.5,0,2.2,0.1c1.1,0,2.1,0.1,3,0.1c0.5,0,0.9,0.1,1.4,0.1c1.3,0.1,2.4,0.2,3.4,0.4c0.8,0.1,1.5,0.3,2.1,0.4
				c2.3,0.6,4.1,1.3,5.3,2.2c0.2,0.2,0.4,0.3,0.6,0.5c0.2,0.2,0.3,0.3,0.5,0.5c0.2,0.3,0.3,0.5,0.5,0.8c0.2,0.4,0.3,0.8,0.4,1.3
				c0.1,0.5,0.1,1,0,1.5c0,0.1,0,0.2,0,0.3c0,0.1,0,0.3,0,0.4c0,0.1,0,0.3-0.1,0.4c-0.1,0.3-0.3,0.5-0.4,0.8
				c-0.1,0.1-0.1,0.2-0.2,0.3c-0.2,0.3-0.3,0.5-0.5,0.8c-0.2,0.3-0.4,0.5-0.6,0.8c-0.9,0.9-2,1.8-3.4,2.7c-0.3,0.2-0.7,0.4-1.1,0.6
				c-0.4,0.2-0.8,0.4-1.2,0.6c-0.4,0.2-0.9,0.4-1.3,0.6c-0.2,0.1-0.5,0.2-0.7,0.3c-0.2,0.1-0.5,0.2-0.7,0.3
				c-0.6,0.2-1.2,0.5-1.9,0.7c-0.1,0-0.3,0.1-0.4,0.1C253.6,198.9,249.9,199.6,245.8,200.1z"/>
			<path class="st1" d="M341.3,206l-3.2-1.5l-3.4-1.3l-3.3-1.3l-3.2-1.1l-3.5-1l-3.4-1l-3.3-0.9l-3.5-0.9l-3.5-0.8l-3.5-0.7L304,195
				l-3.7-0.7l-3.6-0.6l-3.9-0.6l-3.9-0.5l3.3,0.3l3.1,0.2l3,0.4l3,0.4l3,0.3l3,0.5l2.9,0.5l3,0.5l3,0.6l18.4,4.2l3.3,0.8l-2.9-1
				l-3-1l-3-0.9l-5.8-1.6l-5.8-1.5l-3-0.6l-3-0.6l-3-0.6l-3-0.5l-3.1-0.6l-3.1-0.6l-3.1-0.5l-3.3-0.4l-3.2-0.5l2.3-0.1h2.3l4.8,0.2
				l9,0.7l-1.4-0.3l-2.2-0.4l-5.4-0.9l-1.2-0.3l2.8-0.2c0.2,0,0.4,0,0.6,0l16.9,2.2l-5.5-1.4l-2.3-0.5l-2.2-0.4l-2.4-0.4l-2.5-0.4
				l-2.9-0.4l-3.2-0.4l6.5,0.3l5.3,0.3l4.3,0.2l17.7,1.2l-3.6-0.5l-4.1-0.5l-8.6-1.1l-4.4-0.5l-4.3-0.6l-4.1-0.6l-3.7-0.5l3.6,0.1
				l7.1,0c0,0-6.6-0.8-7.8-0.9l-6.2-0.5l-5.5-0.2l-3.7-0.1c-0.1,0.5-0.2,1-0.3,1.6h0.4l3,0.1l-3.4,0.2c-0.1,0.3-0.2,0.6-0.3,0.9
				c-0.4,1.3-1,2.5-1.9,3.9c-0.5,0.9-1.1,1.6-1.7,2.3l-0.1,0.2c-0.1,0.1-0.1,0.2-0.2,0.2c-0.2,0.3-0.5,0.6-0.8,0.9
				c-0.5,0.6-1.1,1.1-1.7,1.7h6l7.9,0.4l7.6,0.9l7.2,1.2l7.1,1.6l7.2,1.7l7.2,1.8l7.6,2.1l8.2,2L341.3,206z"/>
			<path class="st1" d="M205.5,203.9c-0.4-0.2-0.9-0.4-1.4-0.7c-0.5-0.3-0.9-0.6-1.1-0.9c-0.1-0.1-0.1-0.1-0.2-0.2
				c-1-0.8-1.8-1.6-2.6-2.5l-2,0.8l-4.8,2l-5.3,2.1l3-1.8l2.8-1.7l3-1.6l2.4-1.1c-0.5-0.8-0.9-1.6-1.1-2.5l-2.6,1.3l-3.2,1.8l-3.2,2
				l-2.7,1.9l-2.6,2.1l0.4,0.8l0.7,0.4l0.4,0.6l-0.6,1.7l0.8,1.1l-1.1,1.8l-0.5,2.4v1.8l0.6,1l1.6-0.1l17.2-5.6l12.4-3.6
				c-3.9-0.8-7.1-1.9-9.8-3.3C205.7,204,205.6,204,205.5,203.9z"/>
			<path class="st1" d="M268.3,134.4c-0.5-1.1-1.1-2.1-2.2-2.8c-1.6-1-3.7-1.6-6.3-1.6c-1,0-2,0.1-3,0.3c-2.5,0.4-4.9,1.4-7.2,2.9
				c-1.7,1.1-3.1,2.5-4.2,4c-0.6,0.9-1.2,1.8-1.7,2.8c-0.2,0.5-0.4,1-0.6,1.5c-0.3,0.9-0.5,1.8-0.5,2.6c0,0.5,0,1,0,1.5
				c0,0.3,0.1,0.5,0.1,0.7c0.1,0.4,0.2,0.8,0.4,1.2c0.1,0.3,0.3,0.6,0.5,0.9c0.2,0.3,0.4,0.6,0.6,0.9c0,0,0,0,0.1,0.1
				c1.8,2,4.5,3.1,8.2,3.1c1.5,0,3-0.2,4.4-0.5c2.9-0.7,5.6-2.2,8.2-4.3c0.4-0.3,0.8-0.7,1.2-1c0.1-0.1,0.1-0.1,0.2-0.2
				c0.2-0.1,0.3-0.2,0.5-0.3l-1.7-0.6c-0.4,0.4-0.8,0.7-1.3,1c-0.2,0.1-0.4,0.3-0.6,0.4c-0.5,0.4-1,0.7-1.4,1.1
				c-1.7,1.1-3.4,2-5.1,2.3c-0.8,0.2-1.7,0.2-2.5,0.2c-2.2,0-3.9-0.5-5-1.6c-0.2-0.2-0.4-0.4-0.6-0.6c0-0.1,0-0.2-0.1-0.3
				c-0.1-0.2-0.2-0.5-0.3-0.7c-0.1-0.4-0.2-0.8-0.2-1.2c0-0.2,0-0.5,0-0.8c0-0.5,0.1-1,0.2-1.5c0.1-0.8,0.1-1.4,0.4-2.3h8.2h11.4
				c0.6-1.7,0.8-3.2,0.8-4.4c0-0.3,0-0.6-0.1-0.8C268.8,135.5,268.5,134.9,268.3,134.4z M264,137.3c-0.3,0.9-0.7,1.5-1.2,1.9
				c-0.5,0.4-1.1,0.5-1.8,0.5h-4.2h-7.6c0.1-0.2,0.2-0.5,0.3-0.7c0.4-1,0.9-1.9,1.4-2.7c0.8-1.2,1.6-2.1,2.6-2.9
				c1.1-0.8,2.2-1.3,3.3-1.7c0.9-0.3,1.7-0.4,2.6-0.4c1.8,0,3.2,0.6,4.1,1.7c0.4,0.5,0.6,1.1,0.7,1.6
				C264.4,135.5,264.4,136.3,264,137.3C264,137.3,264,137.3,264,137.3z"/>
		</g>
	</g>
</g>
</svg>
