<?xml version="1.0" encoding="utf-8"?>
<!-- Generator: Adobe Illustrator 24.0.0, SVG Export Plug-In . SVG Version: 6.00 Build 0)  -->
<svg version="1.1" id="Capa_1" xmlns="http://www.w3.org/2000/svg" xmlns:xlink="http://www.w3.org/1999/xlink" x="0px" y="0px"
	 viewBox="0 0 512 512" style="enable-background:new 0 0 512 512;" xml:space="preserve">
<style type="text/css">
	.st0{fill:#FFFFFF;}
	.st1{fill:#1C1C1A;}
</style>
<g>
	<path d="M0,337.8c1-28.8,4.4-54.6,11.1-80.1C22.9,212.6,42,171.2,71.7,135c38.8-47.1,88-75.8,149-83.4c1.5-0.2,3.6-0.4,4.3-1.3
		c5.8-7.4,14.1-9.4,22.6-10.5c10.5-1.5,20.9-0.5,30.8,3.7c0.3,0.1,0.7,0.2,0.9,0.4c8,9.3,19.5,8.5,30,10.6c54.1,11,97.7,39,132,81.6
		c37.7,46.7,58.8,100.7,67.5,159.8c3,20.2,4.4,40.6,2.2,61c-1.2,10.9-5.7,19.3-17.6,21.8c-1.5,0.3-3,3-3.4,4.9
		c-4.5,21.1-11,41.4-22.9,59.6c-15.3,23.3-36.6,32.2-64.1,29c-22.5-2.6-43.5-9.4-64.2-17.8c-56.1-22.6-112.1-21.8-167.9,1.1
		c-19.9,8.1-40.2,14.3-61.8,16.7c-27.1,3-48.2-5.6-63.4-28.5c-11.7-17.6-18.3-37.1-22.6-57.5c-0.9-4.5-2.1-7.4-7.5-8.8
		C4.9,374.8,2.1,365.6,1,356.1C0.2,349.2,0.2,342.1,0,337.8z M254,59.1c-1.9-0.2-3.1-0.4-4.3-0.4C212.3,58.8,177,67,144.3,85.3
		c-13,7.3-26.5,14.4-35.9,26.6c-25.3,32.7-40.6,70-50.8,109.7c-7.9,31-12.3,62.6-13.4,94.6C43.6,334,44,351.8,44,369.6
		c0,2.5-0.2,5.3,3.7,5.8c19.8,2.7,39.7,5.8,59.5,8.4c8.7,1.1,10.4-1.3,10.9-10.2c0.7-13.7,0.6-27.7,3.3-41
		c12.1-60,66.1-105.4,127.1-107.9c4.4-0.2,5.5-1.7,5.5-5.9c-0.1-50.1-0.1-100.1-0.1-150.2C254,65.5,254,62.6,254,59.1z M258.6,224
		c1.9,0.2,3.2,0.3,4.6,0.4c58.1,4.8,98.5,34.3,121.4,87.7c8.3,19.4,10.2,40.1,9.2,61c-0.4,8.4,2.2,11,10.6,10.6
		c1.2-0.1,2.4-0.1,3.6-0.3c18.3-2.7,36.5-5.5,54.8-8c4-0.5,5-2.1,5.1-6c1.6-40-0.2-79.9-7.5-119.3c-7.4-40.4-19.7-79.1-40.8-114.6
		c-7-11.8-13.8-24-24.9-32.6c-27.6-21.3-58.5-35.1-92.9-40.7c-14.2-2.3-28.6-3-43.3-4.5C258.6,114,258.6,168.7,258.6,224z
		 M481.3,381.5c-2.1,0.2-3.3,0.2-4.4,0.4c-24.1,3.6-48.2,7.4-72.4,10.8c-6.5,0.9-12.4-0.4-16.5-6.6c-0.9-1.4-3.8-2.2-5.7-2.1
		c-25.1,1.1-50.1,2.9-75.2,3.5c-59.5,1.3-119,0.8-178.3-3.5c-1.5-0.1-3.6,1-4.6,2.2c-4.1,5.6-9.7,7.4-16.1,6.6
		c-18.1-2.4-36.2-5-54.3-7.7c-7.5-1.1-14.9-2.4-22.9-3.8c4.4,21.2,10.5,40.8,22.3,58c9.6,13.9,22,24.1,39.9,24.4
		c9.2,0.1,18.7,0,27.5-2.3c17.6-4.6,35.2-9.8,52.2-16.4c37.8-14.7,76.6-18.7,116.6-13.4c21.8,2.9,42.2,10.4,62.5,18.4
		c20.2,8,41,13.4,62.9,13.7c13.5,0.2,25-3.9,34.5-13.4C468.3,431.6,475.3,407.2,481.3,381.5z M138.2,310.5
		c78.5,4.8,156.8,4.8,235.3,0c-8.1-37.4-63.7-75.6-112.2-77.5C200.2,230.7,154.2,270.3,138.2,310.5z M282,323.3c0-0.3,0-0.5,0-0.8
		c-24.6,0-49.2-0.1-73.8,0c-15.2,0.1-27.3,12.2-27.6,27.2c-0.3,15.4,11.2,28.2,26.5,28.8c58.1,2.1,116.2,0.3,174.2-3.2
		c2.5-0.1,3.8-0.7,3.9-3.6c0.4-16.3-1-32.4-5.9-48.1c-1.1-3.6-2.8-4.4-6.3-4.2C342.7,320.9,312.3,322.1,282,323.3z M39.9,373.9
		c-3.1-87.6,7-171.8,53.3-248.8c-1.1,0.6-1.4,0.8-1.7,1c-33.4,35.1-55.2,76.7-69,122.8c-6.9,23.1-11.6,46.7-12.7,70.9
		c-0.6,12.5-0.1,25.1,0.5,37.6c0.2,4.9,2,10,7.4,11.6C24.7,370.9,31.9,372.2,39.9,373.9z M472.3,373.6c5.1-0.9,9.7-1.7,14.3-2.6
		c12.1-2.3,15.1-5.8,15.9-18.1c1.2-19.8,0-39.4-3-58.9c-8.4-54-27.8-103.4-61-147.1c-5.5-7.3-11.8-14-17.7-21
		C465.3,202.5,475.3,286.2,472.3,373.6z M184.4,321.8c-15.7-0.8-30.4-1.3-45.2-2.4c-4-0.3-5.4,0.9-6.5,4.5c-4.7,15.3-5.9,31-5.8,47
		c0,3.6,1.5,4.3,4.7,4.5c10.1,0.5,20.2,1.4,30.2,1.8c6.8,0.3,13.6,0.1,20.5,0.1C167.7,360.1,167.8,339.2,184.4,321.8z"/>
	<path class="st0" d="M254,59.1c0,3.5,0,6.4,0,9.3c0,50.1,0,100.1,0.1,150.2c0,4.2-1,5.7-5.5,5.9c-61,2.4-114.9,47.9-127.1,107.9
		c-2.7,13.4-2.6,27.3-3.3,41c-0.5,8.9-2.2,11.3-10.9,10.2c-19.9-2.6-39.7-5.6-59.5-8.4c-3.9-0.5-3.7-3.3-3.7-5.8
		c0-17.8-0.4-35.6,0.2-53.4c1.1-32,5.5-63.6,13.4-94.6c10.1-39.6,25.5-77,50.8-109.7c9.4-12.2,22.8-19.3,35.9-26.6
		c32.7-18.2,68-26.4,105.3-26.5C250.8,58.8,252,58.9,254,59.1z M149.8,122.5c9.7-1.5,17.1-5,22-12.5c1.1-1.7,1.7-5.2,0.7-6.6
		c-1.1-1.8-4.3-3.3-6.4-3.1c-8.5,0.8-15.7,4.7-20.6,11.9c-1.2,1.8-1.6,5.2-0.8,7.1C145.4,120.9,148.4,121.7,149.8,122.5z"/>
	<path class="st0" d="M258.6,224c0-55.2,0-110,0-166.2c14.7,1.5,29.2,2.2,43.3,4.5c34.4,5.6,65.3,19.4,92.9,40.7
		c11.2,8.6,17.9,20.8,24.9,32.6c21.1,35.5,33.4,74.2,40.8,114.6c7.2,39.5,9,79.3,7.5,119.3c-0.2,3.9-1.2,5.4-5.1,6
		c-18.3,2.5-36.6,5.3-54.8,8c-1.2,0.2-2.4,0.2-3.6,0.3c-8.4,0.5-11-2.1-10.6-10.6c1.1-21-0.9-41.6-9.2-61
		c-22.8-53.4-63.3-82.9-121.4-87.7C261.8,224.3,260.5,224.1,258.6,224z M362.3,122.4c1.3-0.8,4.4-1.6,5.2-3.5
		c0.8-1.9,0.2-5.2-1.1-7.1c-4.8-7-11.8-10.8-20.1-11.6c-2.2-0.2-5.4,1.1-6.6,2.8c-1,1.4-0.6,4.9,0.6,6.7
		C345,117.3,352.3,120.9,362.3,122.4z"/>
	<path class="st0" d="M481.3,381.5c-6,25.7-13,50.1-31.9,68.9c-9.5,9.5-21.1,13.6-34.5,13.4c-22-0.4-42.7-5.8-62.9-13.7
		c-20.3-8-40.7-15.5-62.5-18.4c-40-5.3-78.8-1.4-116.6,13.4c-17,6.6-34.6,11.8-52.2,16.4c-8.8,2.3-18.3,2.4-27.5,2.3
		c-17.9-0.2-30.2-10.4-39.9-24.4c-11.9-17.2-18-36.8-22.3-58c8,1.3,15.4,2.7,22.9,3.8c18.1,2.6,36.2,5.3,54.3,7.7
		c6.4,0.9,12-1,16.1-6.6c0.9-1.2,3.1-2.3,4.6-2.2c59.4,4.3,118.9,4.8,178.3,3.5c25.1-0.6,50.1-2.4,75.2-3.5c1.9-0.1,4.8,0.7,5.7,2.1
		c4.1,6.1,9.9,7.5,16.5,6.6c24.1-3.5,48.2-7.2,72.4-10.8C478,381.7,479.2,381.7,481.3,381.5z"/>
	<path class="st0" d="M138.2,310.5c16-40.2,61.9-79.8,123.1-77.4c48.5,1.8,104.1,40.1,112.2,77.5
		C295.1,315.3,216.8,315.3,138.2,310.5z"/>
	<path class="st0" d="M282,323.3c30.3-1.3,60.7-2.4,91-3.8c3.5-0.2,5.2,0.5,6.3,4.2c4.8,15.7,6.3,31.7,5.9,48.1
		c-0.1,2.9-1.4,3.4-3.9,3.6c-58,3.5-116.1,5.4-174.2,3.2c-15.3-0.6-26.8-13.3-26.5-28.8c0.3-15,12.4-27.1,27.6-27.2
		c24.6-0.1,49.2,0,73.8,0C282,322.8,282,323.1,282,323.3z M221,362.7c6.1,0.1,11-4.6,11.1-10.7c0-5.8-4.6-10.6-10.5-10.7
		c-6.1-0.1-11.1,4.7-11.1,10.7C210.5,357.8,215.1,362.6,221,362.7z M255.7,362.7c5.8,0,10.6-4.7,10.7-10.5
		c0.1-5.9-4.9-10.9-10.9-10.9c-5.9,0-10.6,4.7-10.6,10.6C244.8,357.9,249.6,362.7,255.7,362.7z M301.5,351.9
		c0-5.9-4.7-10.6-10.6-10.6s-10.6,4.6-10.6,10.6c-0.1,6.3,4.6,10.9,10.8,10.8C297,362.6,301.5,357.9,301.5,351.9z"/>
	<path class="st0" d="M39.9,373.9c-7.9-1.7-15.2-3-22.2-5c-5.5-1.6-7.2-6.7-7.4-11.6c-0.5-12.5-1-25.1-0.5-37.6
		c1.1-24.1,5.8-47.8,12.7-70.9c13.8-46,35.6-87.7,69-122.8c0.2-0.2,0.6-0.4,1.7-1C46.8,202.1,36.7,286.3,39.9,373.9z"/>
	<path class="st0" d="M472.3,373.6c3-87.4-7.1-171.1-51.6-247.8c5.9,7,12.1,13.7,17.7,21c33.2,43.7,52.6,93.1,61,147.1
		c3,19.5,4.2,39.2,3,58.9c-0.8,12.3-3.8,15.8-15.9,18.1C482.1,371.9,477.4,372.7,472.3,373.6z"/>
	<path class="st0" d="M184.4,321.8c-16.6,17.4-16.7,38.3-2.1,55.4c-6.9,0-13.7,0.2-20.5-0.1c-10.1-0.4-20.2-1.3-30.2-1.8
		c-3.2-0.1-4.7-0.9-4.7-4.5c-0.1-15.9,1.1-31.6,5.8-47c1.1-3.6,2.6-4.8,6.5-4.5C153.9,320.5,168.7,321,184.4,321.8z"/>
	<path d="M149.8,122.5c-1.4-0.8-4.4-1.5-5.1-3.2c-0.8-2-0.4-5.3,0.8-7.1c4.8-7.2,12-11.1,20.6-11.9c2.1-0.2,5.3,1.3,6.4,3.1
		c1,1.5,0.4,4.9-0.7,6.6C166.9,117.4,159.5,121,149.8,122.5z"/>
	<path d="M362.3,122.4c-10-1.5-17.3-5.2-22.1-12.7c-1.1-1.7-1.6-5.3-0.6-6.7c1.2-1.7,4.4-3,6.6-2.8c8.3,0.9,15.4,4.6,20.1,11.6
		c1.3,1.9,1.9,5.2,1.1,7.1C366.7,120.8,363.6,121.6,362.3,122.4z"/>
	<path d="M221,362.7c-5.8-0.1-10.5-4.9-10.5-10.7c0-6,5-10.9,11.1-10.7c5.9,0.1,10.6,4.9,10.5,10.7C232,358,227,362.8,221,362.7z"/>
	<path d="M255.7,362.7c-6.1,0-10.9-4.8-10.8-10.9c0.1-5.9,4.8-10.5,10.6-10.6c6,0,11.1,5,10.9,10.9
		C266.3,357.9,261.5,362.7,255.7,362.7z"/>
	<path d="M301.5,351.9c0,6.1-4.5,10.7-10.4,10.8c-6.3,0.1-10.9-4.6-10.8-10.8c0.1-6,4.7-10.6,10.6-10.6
		C296.8,341.3,301.5,346,301.5,351.9z"/>
	<g>
		<path class="st1" d="M303.2,161.2l-4.7-1.1l-2.4-0.6l-1.1-0.2c-0.9,0.4-1.9,0.6-2.8,0.6h0.4l2.4,0.4l2.4,0.6l15,3.4l2.6,0.6
			l-2.4-0.8l-2.4-0.8l-2.4-0.8L303.2,161.2z"/>
		<path class="st1" d="M310,165.3l-2.6-0.9l-2.8-0.8l-2.8-0.8l-2.6-0.8l-2.8-0.8l-2.8-0.6l-2.8-0.6l-2.8-0.6l-1.5-0.2
			c0,0.8,0,1.5,0,2.1l4.3,0.8l5.8,1.3l5.8,1.5l5.8,1.5l6.2,1.7l6.8,1.7l-2.8-1.3l-2.6-1.1l-2.8-1.1L310,165.3z"/>
		<path class="st1" d="M218.5,169.1l5.6-1.5c0-1.3,0.2-2.6,0.6-4.1c0,0,0,0,0-0.2c0-0.2,0.2-0.6,0.2-0.8c0.8-2.3,1.9-4.1,3.6-6
			l-2.3,0.4l-3.9,0.8l-3.8,0.9l-3.4,1.1l-3.4,0.9l-3.2,1.3l-3.4,1.3l-3.6,1.3l-3.9,1.7l-4.1,1.3l2.4-1.5l2.3-1.5l2.4-1.3l2.4-1.1
			l2.6-1.1l2.6-1.1l2.6-1.1l2.8-0.9l2.8-0.8l2.8-0.8l3-0.8l3-0.6l3.2-0.6l1.9-0.2c0.8-0.8,1.7-1.5,2.6-2.3l-1.1,0.2l-3.6,0.6
			l-3.4,0.8l-3.6,0.6l-3.4,0.8l-3.4,0.8l-3.2,1.1l-3.2,1.1l-3,1.1l-3,1.3l-2.6,1.3L197,163l-2.6,1.7l-2.3,1.5l-2.1,1.7l0.4,0.6
			l0.6,0.4l0.4,0.6l-0.6,1.3l0.6,0.9l-0.9,1.5l-0.4,1.9v1.5l0.6,0.8h1.3l13.9-4.5L218.5,169.1z"/>
		<path class="st1" d="M306.4,155l-3.4-0.4l-2.1-0.2v0.2c0,0.2-0.2,0.2-0.2,0.4l8.6,0.6L306.4,155z"/>
		<path class="st1" d="M286,158.9l1.9,0.2h0.2c-0.9-0.4-1.5-0.9-2.1-1.5c0,0,0,0-0.2-0.2c0,0,0,0,0,0.2s0.2,0.4,0.2,0.6
			S286,158.5,286,158.9z"/>
		<path class="st1" d="M278.6,173.6l-0.2,0.2l1.7,0.2l2.4,0.2l2.4,0.4l2.4,0.4l2.4,0.2l2.4,0.4l2.4,0.4l2.4,0.4l2.4,0.6l15,3.4
			l2.6,0.6l-2.4-0.8l-2.4-0.8l-2.4-0.8l-4.7-1.3l-4.7-1.1l-2.4-0.6l-2.4-0.6l-2.4-0.4l-2.4-0.4l-2.4-0.4l-2.6-0.4l-2.4-0.4l-2.6-0.4
			h-0.6C279.8,172.8,279.2,173.2,278.6,173.6z"/>
		<path class="st1" d="M284.1,166.8c0,0.2-0.2,0.2-0.2,0.4c-0.2,0.4-0.4,0.8-0.6,1.3c0,0.2-0.2,0.2-0.2,0.4c-0.8,1.1-1.5,2.1-2.4,3
			h1.1l3.9,0.2l7.3,0.6l-1.1-0.2l-1.9-0.4l-4.3-0.8l-0.9-0.2l2.3-0.2c0.2,0,0.4,0,0.6,0l13.7,1.7l-4.5-1.1l-1.9-0.4l-1.9-0.4
			l-1.9-0.4l-2.1-0.4l-2.3-0.4l-2.6-0.4l5.3,0.2l4.3,0.2l3.6,0.2l14.3,0.9l-3-0.4l-3.4-0.4l-7-0.9l-3.6-0.4l-3.4-0.6l-3.4-0.6
			l-3-0.4l3,0.2h5.8c0,0-5.3-0.8-6.4-0.8L284.1,166.8L284.1,166.8z"/>
		<path class="st1" d="M216,186.2C216.2,186.2,216.2,186.2,216,186.2L216,186.2c0-0.4,0.2-0.8,0.2-1.1c0.2-0.6,0.6-1.1,0.8-1.5
			c0,0,0,0,0-0.2c1.1-2.4,3-4.3,5.3-5.8c1.3-0.9,3-1.7,5.1-2.4c-0.6-0.6-1.1-1.1-1.5-1.9l0,0c0-0.2-0.2-0.2-0.4-0.4l-1.5,0.2
			l-3.8,0.9l-3.4,1.1l-3.4,0.9l-3.2,1.3l-3.4,1.3l-3.6,1.3l-3.9,1.7l-4.3,1.7l2.4-1.5l2.3-1.5l2.4-1.3l2.4-1.1l2.6-1.1l2.6-1.1
			l2.6-1.1l2.8-0.9l2.8-0.8l2.8-0.8l3-0.8l0.8-0.2c0-0.2-0.2-0.4-0.2-0.4v-0.2c-0.2-0.4-0.2-0.8-0.4-1.1l-1.1,0.2l-3.4,0.8l-3.4,0.8
			l-3.2,1.1l-3.2,1.1l-3,1.1l-3,1.3l-2.6,1.3l-2.6,1.5l-2.6,1.7l-2.3,1.5l-2.1,1.7l0.4,0.6l0.6,0.4l0.4,0.6l-0.6,1.3l0.6,0.9
			l-0.9,1.5l-0.4,1.9v1.5l0.6,0.8h1.3l13.9-4.5L216,186.2z"/>
		<path class="st1" d="M317.5,183.3l-2.8-1.1l-2.6-1.1l-2.6-0.9l-2.8-0.8l-2.8-0.8l-2.6-0.8l-2.8-0.8l-2.8-0.6l-2.8-0.6l-2.8-0.6
			l-3-0.6l-3-0.6l-3.2-0.6l-2.3-0.4c-1.1,0.9-2.3,1.7-3.8,2.4l5.6,0.4l6.2,0.8l5.8,0.9l5.8,1.3l5.8,1.5l5.8,1.5l6.2,1.7l6.8,1.7
			l-2.8-1.3L317.5,183.3z"/>
		<path class="st1" d="M207.8,204.8L207.8,204.8c0-0.4,0-0.9,0.4-1.5c0.9-2.8,3.4-5.3,7.1-7.3c1.1-0.6,2.3-1.1,3.6-1.5
			c-0.6-0.6-1.1-1.3-1.7-1.9c-0.2-0.2-0.2-0.4-0.4-0.6l-0.8,0.2l-3.2,1.3l-3.4,1.3l-3.6,1.3l-3.9,1.7l-4.3,1.7l2.4-1.5l2.3-1.5
			l2.4-1.3l2.4-1.1l2.6-1.1l2.6-1.1l2.6-1.1l1.1-0.4c0-0.2-0.2-0.6-0.2-0.8c0-0.4-0.2-0.8-0.2-1.3l-0.4,0.2l-3.2,1.1l-3,1.1l-3,1.3
			l-2.6,1.3l-2.6,1.5l-2.6,1.7l-2.3,1.5l-2.1,1.7l0.4,0.6l0.6,0.4l0.4,0.6l-0.6,1.3l0.6,0.9l-0.9,1.5l-0.4,1.9v1.5l0.6,0.8h1.3
			l11.7-3.8C207.8,205.2,207.8,205,207.8,204.8z"/>
		<path class="st1" d="M263.2,184.8c4.9,0.6,8.5,1.7,10.9,3.2c1.3,0.8,2.3,1.9,3.2,3.2c0.2,0.4,0.4,0.6,0.6,0.9l4.5,0.2l6.2,0.8
			l5.8,0.9l5.8,1.3l5.8,1.5l5.8,1.5l6.2,1.7l6.8,1.7l-2.8-1.3l-2.6-1.1l-2.8-1.1l-2.6-1.1l-2.6-0.9l-2.8-0.8l-2.8-0.8l-2.6-0.8
			l-2.8-0.8l-2.8-0.6l-2.8-0.6l-2.8-0.6l-3-0.6l-3-0.6l-3.2-0.6l-3.2-0.4l2.6,0.2l2.4,0.2l2.4,0.4l2.4,0.4l2.4,0.2l2.4,0.4l2.4,0.4
			l2.4,0.4l2.4,0.6l15,3.4l2.6,0.6l-2.4-0.8l-2.4-0.8l-2.4-0.8l-4.7-1.3l-4.7-1.1l-2.4-0.6l-2.4-0.6l-2.4-0.4l-2.4-0.4l-2.4-0.4
			l-2.6-0.4l-2.4-0.4l-2.6-0.4l-2.6-0.4l1.9-0.2h1.9l3.9,0.2l7.3,0.6l-1.1-0.2l-1.9-0.4l-4.3-0.8l-0.9-0.2l2.3-0.2
			c0.2,0,0.4,0,0.6,0l13.7,1.7l-4.5-1.1l-1.9-0.4l-1.9-0.4l-1.9-0.4l-2.1-0.4l-2.3-0.4l-2.6-0.4l5.3,0.2l4.3,0.2l3.6,0.2l14.3,0.9
			l-3-0.4l-3.4-0.4l-7-0.9l-3.6-0.4l-3.4-0.6l-3.4-0.6l-3-0.4l3,0.2h5.8c0,0-5.3-0.8-6.4-0.8l-5.1-0.4l-4.5-0.2l-4.7-0.2l-4.9-0.2
			h-5.1l-5.1,0.2l-5.3,0.2l-5.3,0.4l-5.3,0.4l-1.3,0.2l-3.6,0.4l-3.6,0.6l-2.4,0.4c0.2,0,0.6,0,0.8,0c0.8,0,1.7,0,2.6,0l12.8-0.2
			h0.2l1.9-0.2l2.1-0.2l2.1-0.2l2.1-0.2l2.1-0.2h2.3h2.3h2.3l2.4-0.2h2.3h2.4h2.4l2.4,0.2l-10,0.6L263.2,184.8z"/>
		<path class="st1" d="M261.3,202.1c0.2-0.2,0.2-0.4,0.4-0.6c0,0,0,0,0-0.2c0,0,0,0,0-0.2c-0.2,0-0.4-0.2-0.6-0.4l-6.4,0.4l-6.8,0.6
			l-5.8,0.8l-5.1,0.8l-4.5,0.8l-3.9,0.8l-2.8,0.8c0.2,0,0.2,0.2,0.4,0.2c1.7,0.9,5.3,1.9,12.2,1.9c7.5,0,13.3-0.9,17.7-2.4
			C259.1,204,260.6,202.9,261.3,202.1z"/>
		<path class="st1" d="M231.6,202.9l3.2-0.6l3.2-0.6l3.4-0.4l3.6-0.4l1.7-0.2l1.7-0.2l1.9-0.2l1.9-0.2l1.9-0.2l2.1-0.2h0.8
			c-1.3-0.2-3.2-0.4-5.1-0.4c-1.1,0-2.4,0-3.6,0c-10,0-15.2,1.1-17.9,2.3c-2.1,0.8-3.4,1.7-4.1,2.3l2.3-0.6L231.6,202.9z"/>
		<path class="st1" d="M274.7,200.8c0.2-0.2,0.2-0.6,0.4-0.8c0-0.2,0.2-0.4,0.2-0.6v-0.2c0.2-0.4,0.2-0.8,0.4-1.1
			c0-0.2,0-0.4,0.2-0.6c0.2-1.7-0.2-3.2-1.1-4.3c-0.2-0.4-0.6-0.8-0.9-1.1l0,0l0,0l0,0c-0.4-0.4-0.8-0.8-1.3-1.1
			c-0.6-0.4-1.3-0.8-2.3-1.1c-3.4-1.3-8.6-1.9-15.6-1.9l-17.5,0.2c-0.9,0-1.7,0-2.4,0c-0.2,0-0.2,0-0.4,0c-0.2,0-0.6,0-0.8,0l0,0
			c-0.8,0-1.5-0.2-2.3-0.2c-0.6,0-0.9-0.2-1.3-0.4c-0.2,0-0.6-0.2-0.8-0.2l0,0c0,0,0,0-0.2,0l0,0l0,0l0,0c-0.2-0.2-0.4-0.2-0.4-0.4
			c-0.4-0.4-0.6-0.8-0.6-1.1c0-0.2,0-0.2,0-0.4c0-0.2,0-0.4,0-0.8l0,0c0,0,0-0.2,0-0.4c0-0.2,0.2-0.6,0.4-0.8
			c0.2-0.2,0.2-0.2,0.4-0.4l0.2-0.2c0.2-0.2,0.2-0.2,0.4-0.4c0.6-0.8,1.5-1.3,2.6-1.9c0.6-0.2,1.1-0.4,1.9-0.6
			c2.3-0.4,5.3-0.8,9.4-0.8h0.4h2.1h5.1c4.1,0,8.8-0.8,13.9-2.4c0,0,0,0,0.2,0h0.2c0.4-0.2,0.8-0.2,1.1-0.4c2.1-0.8,4.1-1.5,5.8-2.4
			c1.9-0.9,3.4-1.9,4.7-3c0.9-0.8,1.7-1.5,2.4-2.4c0.4-0.6,0.9-1.1,1.3-1.7c0,0,0,0,0-0.2c0,0,0,0,0-0.2c0.2-0.4,0.4-0.8,0.6-1.1
			v-0.2c0,0,0,0,0-0.2c0.2-0.4,0.6-0.8,0.8-1.3c0-0.2,0.2-0.4,0.2-0.6c0.2-0.8,0.4-1.5,0.6-2.3c0-0.8,0-1.5,0-2.3l0,0v-0.2
			c0,0,0,0,0-0.2l0,0c-0.2-0.4-0.2-0.9-0.6-1.5c0-0.2-0.2-0.2-0.2-0.4c0-0.2-0.2-0.4-0.2-0.6c-0.2-0.2-0.2-0.4-0.4-0.6l0,0
			c0-0.2-0.2-0.4-0.2-0.6c-0.2-0.4-0.4-0.8-0.8-1.1c0,0,0.2,0,0.2-0.2c0.2,0,0.2,0,0.4-0.2c0.2-0.2,0.4-0.2,0.4-0.2
			c0.9-0.6,1.7-0.9,2.4-1.1h0.2l0,0c0.8-0.2,1.5-0.4,2.3-0.4c0.4,0,0.8,0.2,1.1,0.4l0,0c0.2,0.2,0.2,0.4,0.2,0.6c0,0.2,0,0.2,0,0.4
			l0,0l0,0c0,0,0,0,0,0.2c0,0.2,0,0.2,0,0.4c0,0.2,0,0.4,0,0.4c0,0.2,0,0.4,0.2,0.4l0,0l0,0v0.2c0.2,0.4,0.4,0.6,0.8,0.8
			c0.2,0.2,0.4,0.4,0.8,0.4c0.6,0.4,1.5,0.4,2.4,0.4c0.6,0,1.3-0.2,1.9-0.4c0.4-0.2,0.8-0.2,1.1-0.4l0,0c0.2-0.2,0.4-0.2,0.8-0.2
			c0.2,0,0.2-0.2,0.4-0.2c0.2-0.2,0.4-0.2,0.4-0.4c0.2-0.2,0.4-0.2,0.6-0.4c0.2-0.2,0.2-0.2,0.4-0.4l0.2-0.2
			c0.2-0.4,0.6-0.8,0.8-1.1c0-0.2,0.2-0.4,0.4-0.6l0,0l0,0l0,0l0,0v-0.2l0,0c0,0,0,0,0-0.2s0-0.4,0-0.6c0-0.4,0.2-0.8,0-1.1
			c0-0.2-0.2-0.4-0.4-0.6l-0.2-0.2c0-0.2-0.2-0.2-0.2-0.4l-0.2-0.2c0,0-0.2-0.2-0.2-0.4l0,0l0,0l0,0l0,0l0,0
			c-0.4-0.4-0.8-0.6-1.3-0.8c-0.9-0.4-2.3-0.8-3.8-0.8c-1.1,0-2.3,0.2-3.6,0.4h-0.2c-0.2,0-0.4,0.2-0.6,0.2c-0.2,0-0.4,0-0.4,0.2
			c-1.5,0.4-3.2,0.9-5.1,1.9c-0.9,0.4-2.1,0.9-3.2,1.5c-0.6,0.4-1.1,0.6-1.7,0.9c0,0-0.2,0-0.2-0.2c-0.6-0.4-1.1-0.6-1.9-0.9
			c-1.3-0.6-2.8-1.1-4.3-1.5h-0.2c-0.4-0.2-0.8-0.2-1.1-0.4c-0.4,0-0.8-0.2-1.1-0.2h-0.2c-1.5-0.4-3.2-0.6-4.9-0.6
			c-0.9,0-1.9-0.2-3-0.2c-4.5,0-8.6,0.6-12.6,1.5c-0.8,0.2-1.3,0.4-2.1,0.6c-1.5,0.4-3,0.9-4.3,1.7l0,0c-0.6,0.2-1.1,0.6-1.9,0.8
			c-0.2,0-0.2,0-0.4,0.2c-0.8,0.4-1.5,0.8-2.3,1.3l0,0c-0.9,0.6-1.9,1.3-2.8,1.9l0,0c-2.3,1.7-3.8,3.4-5.1,5.5
			c-0.6,0.9-0.9,1.7-1.3,2.6c0,0.2-0.2,0.4-0.2,0.6v0.2c0,0.2,0,0.4-0.2,0.4c0,0.4-0.2,0.8-0.2,1.1c0,0.2,0,0.6,0,0.8
			c0,0.4,0,0.9,0,1.3c0,0.4,0.2,0.9,0.2,1.3c0,0,0,0,0,0.2l0,0c0,0.2,0.2,0.4,0.2,0.6c0,0,0,0.2,0.2,0.2c0.2,0.4,0.2,0.6,0.4,0.9
			l0,0c0,0,0,0.2,0.2,0.2c0,0.2,0.2,0.2,0.2,0.4c0.2,0.2,0.4,0.6,0.6,0.8l0,0c1.3,1.7,3.4,3,6,4.3c-4.5,0.9-7.9,2.3-10.3,3.6
			c-0.4,0.2-0.6,0.4-0.8,0.6c-0.8,0.6-1.5,1.1-2.1,1.7c-0.8,0.8-1.5,1.7-1.9,2.6c0,0,0,0.2-0.2,0.2c-0.2,0.4-0.6,0.8-0.6,0.9v0.2
			v0.2v0.2c0,0.2,0,0.4-0.2,0.6c0,0.6,0,1.1,0,1.7c0,0.2,0,0.4,0.2,0.4c0.2,0.4,0.2,0.8,0.6,1.1l0.2,0.2c0.2,0.2,0.4,0.4,0.6,0.6
			c0.2,0.2,0.4,0.4,0.4,0.4c1.9,1.5,4.9,2.6,9.2,3.6c-1.1,0.2-2.1,0.4-3.2,0.6c-1.9,0.4-3.4,0.8-4.9,1.1c-2.3,0.6-4.1,1.3-5.5,2.1
			c-0.8,0.4-1.5,0.8-2.1,1.3c-1.5,0.9-2.4,2.1-3,3.2c-0.2,0.2-0.2,0.4-0.2,0.6c0,0,0,0.2-0.2,0.2c0,0.2,0,0.2,0,0.4
			c0,0.2,0,0.4,0,0.6c0,0.6,0,0.9,0,1.5c0.2,0.6,0.4,0.9,0.6,1.5c0,0,0,0.2,0.2,0.2l0.2,0.2l0,0l0,0c0,0,0,0,0,0.2
			c0.2,0.4,0.6,0.8,0.9,1.1c0.2,0.2,0.4,0.4,0.8,0.6c0.2,0.2,0.4,0.4,0.6,0.6l0.2,0.2c0.2,0.2,0.4,0.2,0.8,0.4
			c0.2,0,0.2,0.2,0.4,0.2l0,0c3.4,1.9,8.5,3,15.2,3.2c1.5,0,3,0.2,4.7,0.2c7.3,0,13.9-0.8,19.5-2.1c3.6-0.9,7-2.1,9.8-3.6
			c0.8-0.4,1.3-0.8,1.9-1.1c0.9-0.6,1.9-1.3,2.8-1.9c0.8-0.8,1.5-1.3,2.3-2.1c0.2-0.2,0.2-0.2,0.4-0.4c0,0,0-0.2,0.2-0.2l0.2-0.2
			l0.2-0.2c0.4-0.4,0.8-0.9,1.1-1.5C274.1,201.6,274.3,201.2,274.7,200.8z M262.1,173c-3.4,2.3-7.3,3.4-11.5,3.4
			c-4.1,0-7.3-1.1-9.2-3.4c-0.6-0.6-0.9-1.3-1.1-2.1c0-0.2-0.2-0.6-0.2-0.8c0-0.2-0.2-0.4-0.2-0.8c0-0.4-0.2-0.6-0.2-0.9
			c0-0.2,0-0.6,0-0.8c0-0.4,0-0.8,0.2-1.1c0.2-0.9,0.4-1.9,0.8-2.8c0-0.2,0-0.2,0.2-0.4c0.2-0.6,0.6-1.3,0.8-1.9
			c1.5-3,3.6-5.5,6.4-7.1c0.2,0,0.4-0.2,0.4-0.2c0.9-0.6,2.1-1.1,3.2-1.5c2.4-0.9,5.1-1.5,7.7-1.5c2.3,0,4.1,0.4,5.8,0.9
			c0.4,0.2,0.8,0.4,1.1,0.6c0.8,0.6,1.5,1.1,2.1,1.7c0.9,1.1,1.5,2.3,1.7,3.8c0,0.8,0,1.5,0,2.3c-0.2,0.9-0.4,2.1-0.8,3.2
			c-0.2,0.6-0.6,1.1-0.8,1.7c-0.2,0.4-0.4,0.8-0.6,1.3c0,0.2-0.2,0.4-0.2,0.4c-0.2,0.4-0.4,0.6-0.6,0.9c0,0,0,0,0,0.2
			c-0.2,0.2-0.4,0.6-0.6,0.8C265.5,170.2,264,171.7,262.1,173z M246.7,211.5c-0.8,0-1.5,0.2-2.1,0.2c-0.2,0-0.4,0-0.6,0
			c-0.9,0-1.9,0.2-2.8,0.2c-0.6,0-0.9,0-1.5,0s-0.9,0-1.5,0c-0.4,0-0.8,0-1.1,0c-0.4,0-0.8,0-1.1,0c-1.1,0-2.3-0.2-3.2-0.2
			c-0.8,0-1.3-0.2-1.9-0.2s-1.1-0.2-1.7-0.4c-0.2,0-0.6-0.2-0.8-0.2c-0.8-0.2-1.5-0.4-2.3-0.6c-0.4-0.2-0.8-0.2-1.1-0.4
			c-0.2,0-0.4-0.2-0.6-0.2c-0.2,0-0.2-0.2-0.4-0.2c0,0,0,0-0.2,0c-0.2,0-0.2,0-0.4-0.2h-0.2c-0.2,0-0.2-0.2-0.4-0.2
			c-0.2-0.2-0.6-0.4-0.8-0.6c-0.2,0-0.2-0.2-0.4-0.2c-0.2-0.2-0.4-0.4-0.6-0.8l-0.2-0.2c0-0.2-0.2-0.2-0.2-0.4l0,0
			c0-0.2-0.2-0.4-0.2-0.6v-0.2c0-0.2,0-0.4,0-0.6l0,0c0-0.4,0-0.8,0.2-1.1c0-0.2,0-0.2,0.2-0.4c0-0.2,0.2-0.4,0.2-0.6l0.2-0.2
			c0.2-0.4,0.6-0.8,0.8-1.1c0.6-0.6,1.1-1.1,1.9-1.7c0.9-0.8,2.1-1.3,3.4-1.9c0.4-0.2,0.8-0.4,1.1-0.4c0.6-0.2,1.3-0.4,1.9-0.6
			c0.2,0,0.4-0.2,0.8-0.2c1.3-0.4,2.6-0.6,4.1-0.9c1.1-0.2,2.4-0.4,3.8-0.4c1.3-0.2,2.8-0.2,4.3-0.2c1.5,0,3,0,4.5,0
			c0.8,0,1.3,0,1.9,0s1.3,0,1.9,0c0.9,0,1.7,0,2.4,0.2c0.4,0,0.8,0,1.1,0c0.9,0,1.9,0.2,2.8,0.4c0.6,0.2,1.1,0.2,1.7,0.4
			c1.9,0.4,3.4,1.1,4.3,1.9c0.2,0.2,0.4,0.2,0.6,0.4c0.2,0.2,0.2,0.2,0.4,0.4c0.2,0.2,0.2,0.4,0.4,0.6c0.2,0.4,0.2,0.8,0.4,1.1
			c0,0.4,0,0.8,0,1.3v0.2c0,0.2,0,0.2,0,0.4c0,0.2,0,0.2,0,0.4c0,0.2-0.2,0.4-0.4,0.6c0,0,0,0.2-0.2,0.2c-0.2,0.2-0.2,0.4-0.4,0.6
			c-0.2,0.2-0.4,0.4-0.6,0.6c-0.8,0.8-1.7,1.5-2.8,2.1c-0.4,0.2-0.6,0.4-0.9,0.6c-0.4,0.2-0.6,0.4-0.9,0.6c-0.4,0.2-0.8,0.4-1.1,0.6
			c-0.2,0-0.4,0.2-0.6,0.2c-0.2,0-0.4,0.2-0.6,0.2c-0.6,0.2-0.9,0.4-1.5,0.6c-0.2,0-0.2,0-0.4,0.2
			C253.1,210.6,250.1,211.2,246.7,211.5z"/>
		<path class="st1" d="M324.3,216.4l-2.6-1.1l-2.8-1.1l-2.6-1.1l-2.6-0.9l-2.8-0.8l-2.8-0.8l-2.6-0.8l-2.8-0.8l-2.8-0.6l-2.8-0.6
			l-2.8-0.6l-3-0.6l-3-0.6l-3.2-0.6l-3.2-0.4l2.6,0.2l2.4,0.2l2.4,0.4l2.4,0.4l2.4,0.2l2.4,0.4l2.4,0.4l2.4,0.4l2.4,0.6l15,3.4
			l2.6,0.6l-2.4-0.8l-2.4-0.8l-2.4-0.8l-4.7-1.3l-4.7-1.1l-2.4-0.6l-2.4-0.6l-2.4-0.4l-2.4-0.4l-2.4-0.4l-2.6-0.4l-2.4-0.4l-2.6-0.4
			l-2.6-0.4l1.9-0.2h1.9l3.9,0.2l7.3,0.6l-1.1-0.2l-1.9-0.4l-4.3-0.8l-0.9-0.2l2.3-0.2c0.2,0,0.4,0,0.6,0l13.7,1.7l-4.5-1.1
			l-1.9-0.4l-1.9-0.4l-1.9-0.4l-2.1-0.4l-2.3-0.4l-2.6-0.4l5.3,0.2l4.3,0.2l3.6,0.2l14.3,0.9l-3-0.4l-3.4-0.4l-7-0.4l-3.6-0.4
			l-3.4-0.6l-3.4-0.6l-3-0.4l3,0.2h5.8c0,0-5.3-0.8-6.4-0.8l-5.1-0.4l-4.5-0.2h-3c0,0.4-0.2,0.8-0.2,1.3h0.4l2.4,0.2l-2.8,0.2
			c0,0.2-0.2,0.4-0.2,0.8c-0.4,0.9-0.8,2.1-1.5,3.2c-0.4,0.8-0.9,1.3-1.3,1.9l-0.2,0.2l-0.2,0.2c-0.2,0.2-0.4,0.6-0.6,0.8
			c-0.4,0.4-0.9,0.9-1.3,1.3h4.9l6.4,0.4l6.2,0.8l5.8,0.9l5.8,1.3l5.8,1.5l5.8,1.5l6.2,1.7l6.8,1.7L324.3,216.4z"/>
		<path class="st1" d="M214,214.7c-0.4-0.2-0.8-0.4-1.1-0.6c-0.4-0.2-0.8-0.6-0.9-0.8l-0.2-0.2c-0.8-0.6-1.5-1.3-2.1-2.1l-1.7,0.6
			l-3.9,1.7l-4.3,1.7l2.4-1.5l2.3-1.5l2.4-1.3l2.1-0.9c-0.4-0.6-0.8-1.3-0.9-2.1l-2.1,1.1l-2.6,1.5l-2.6,1.7l-2.3,1.5l-2.1,1.7
			l0.4,0.6l0.6,0.4l0.4,0.6l-0.6,1.3l0.6,0.9l-0.9,1.5l-0.4,1.9v1.5l0.6,0.8h1.3l13.9-4.5l10-3c-3.2-0.6-5.8-1.5-7.9-2.6
			C214.2,214.7,214,214.7,214,214.7z"/>
		<path class="st1" d="M264.9,158.2c-0.4-0.9-0.9-1.7-1.7-2.3c-1.3-0.9-3-1.3-5.1-1.3c-0.8,0-1.7,0-2.4,0.2
			c-2.1,0.4-3.9,1.1-5.8,2.4c-1.3,0.9-2.4,2.1-3.4,3.2c-0.6,0.8-0.9,1.5-1.3,2.3c-0.2,0.4-0.4,0.8-0.6,1.1c-0.2,0.8-0.4,1.5-0.4,2.1
			c0,0.4,0,0.8,0,1.1c0,0.2,0,0.4,0,0.6c0,0.4,0.2,0.6,0.4,0.9c0.2,0.2,0.2,0.6,0.4,0.8c0.2,0.2,0.4,0.6,0.6,0.8l0,0
			c1.5,1.7,3.8,2.4,6.6,2.4c1.3,0,2.4-0.2,3.6-0.4c2.4-0.6,4.5-1.7,6.8-3.6c0.4-0.2,0.6-0.6,0.9-0.9l0.2-0.2c0.2,0,0.2-0.2,0.4-0.4
			l-1.3-0.6c-0.4,0.4-0.8,0.6-0.9,0.8c-0.2,0.2-0.4,0.2-0.4,0.4c-0.4,0.4-0.8,0.6-1.1,0.9c-1.3,0.9-2.8,1.7-4.1,1.9
			c-0.8,0.2-1.3,0.2-2.1,0.2c-1.7,0-3.2-0.4-4.1-1.3c-0.2-0.2-0.4-0.4-0.6-0.6v-0.2c-0.2-0.2-0.2-0.4-0.2-0.6c0-0.4-0.2-0.6-0.2-0.9
			c0-0.2,0-0.4,0-0.6c0-0.4,0-0.8,0.2-1.1c0.2-0.6,0.2-1.1,0.4-1.9h6.6h9.2c0.4-1.3,0.8-2.6,0.6-3.6c0-0.2,0-0.4,0-0.8
			C265.3,159.1,265.1,158.7,264.9,158.2z M261.5,160.6c-0.2,0.8-0.6,1.3-0.9,1.5c-0.4,0.4-0.9,0.4-1.5,0.4h-3.6h-6.2
			c0-0.2,0.2-0.4,0.2-0.6c0.4-0.8,0.8-1.5,1.1-2.3c0.6-0.9,1.3-1.7,2.1-2.4c0.9-0.6,1.7-1.1,2.6-1.3c0.8-0.2,1.3-0.4,2.1-0.4
			c1.5,0,2.6,0.4,3.4,1.3c0.4,0.4,0.6,0.9,0.6,1.3C261.7,159.1,261.7,159.8,261.5,160.6L261.5,160.6z"/>
	</g>
</g>
</svg>
