<?xml version="1.0" encoding="utf-8"?>
<!-- Generator: Adobe Illustrator 24.0.0, SVG Export Plug-In . SVG Version: 6.00 Build 0)  -->
<svg version="1.1" id="Capa_1" xmlns="http://www.w3.org/2000/svg" xmlns:xlink="http://www.w3.org/1999/xlink" x="0px" y="0px"
	 viewBox="0 0 512 512" style="enable-background:new 0 0 512 512;" xml:space="preserve">
<style type="text/css">
	.st0{fill:#1C1C1A;}
</style>
<g>
	<g>
		<path d="M466,196.3L466,196.3c-32-5.3-55.3-32.7-55.3-65.2c0-3.9,0-1.3,5.5-84.1c0.9-13.5-8.4-25.7-21.5-28.6
			c-7.4-1.6-75.8-16.4-84.9-18.3c-2-0.4-4.1,0-5.7,1.1C293,8.5,282,13.3,271,15.5c-0.3,0-0.6,0.1-0.9,0.2c-9.4,1.8-18.8,1.8-28.3,0
			c-0.3-0.1-0.6-0.1-0.8-0.2c-11-2.3-22-7-33.1-14.3c-1.9-1.3-3.5-1.4-5.8-1c0,0,0,0,0,0c0,0,0,0,0,0c-13.6,2.9-63.7,13.7-84.9,18.3
			c-13.2,2.8-22.4,15.1-21.5,28.6l5.3,79.6c2.3,34.1-21.4,64.1-55.1,69.7c-3.6,0.6-6.3,3.7-6.3,7.4v283.3
			c0,13.7,11.2,24.9,24.9,24.9h325.4h11.6h45.6c13.7,0,24.9-11.2,24.9-24.9V203.7C472.3,200.1,469.6,197,466,196.3z M262.1,378.8
			v-62.3h195.2v62.3H262.1z M457.3,393.8v16.8H262.1v-16.8H457.3z M262.1,301.5v-16.8c9.6,0,129.8,0,195.2,0v16.8H262.1z
			 M247.6,31.7c5.6,0.5,11.3,0.5,16.9,0v14.5h-16.9V31.7z M232.6,28.9v19.2c0,7.2,5.8,13,13,13h20.9c7.2,0,13-5.8,13-13V28.9
			c5.8-1.6,11.7-3.8,17.5-6.5l-14.7,61.7c-1,4,1.5,8.1,5.6,9c4.1,1,8.1-1.6,9-5.6l17-71.2l18.9,4.1l45.6,9.9l2.4,0.5l2.6,0.6
			l8.2,1.8c6,1.3,10.1,6.8,9.7,12.9v0c-5.6,83.7-5.5,80.2-5.5,85.1c0,37.6,25.5,69.8,61.5,78.7v59.8h-64.7v0l-29.2,0v0h-15.6v0
			l-15,0h-70.6v-36.2l27.8-116.7c1-4-1.5-8.1-5.6-9c-4-1-8.1,1.5-9,5.6l-20.5,86.1L214.8,22.3C220.7,25.1,226.6,27.3,232.6,28.9z
			 M54.7,209.9c38-9.4,64-44.5,61.4-84.2l-5.3-79.6c-0.4-6.1,3.8-11.6,9.7-12.9l13.2-2.9l15-3.2v0l15.7-3.4v0l15-3.2l18.8-4.1
			l48.9,217v36.3h-67.8v0h-15v0h-15.7v0h-15h-3.9H54.7V209.9z M54.7,284.7c63.2,0,103.1,0,192.3,0v16.8H119.9
			c-4.1,0-7.5,3.4-7.5,7.5s3.4,7.5,7.5,7.5h127.2v62.3H54.7v-62.3h35.2c4.1,0,7.5-3.4,7.5-7.5s-3.4-7.5-7.5-7.5H54.7V284.7z
			 M247.1,393.8v16.8H54.7v-16.8H247.1z M64.6,497c-5.5,0-9.9-4.5-9.9-9.9v-61.5h192.3v43.3L209.7,497H64.6z M234.6,497l19.9-15.1
			l19.9,15.1H234.6z M457.3,487.1c0,5.5-4.5,9.9-9.9,9.9h-45.6h-11.6h-90.7l-37.3-28.2v-43.3h195.2V487.1z"/>
		<g id="LOGO_GAMA_7_">
			<g>
				<path class="st0" d="M377.4,89.6l-2.9-0.7l-1.5-0.3l-0.6-0.1c-0.6,0.2-1.1,0.3-1.7,0.3l0.3,0l1.5,0.2l1.5,0.3l9.1,2.1l1.6,0.4
					l-1.4-0.5l-1.5-0.5l-1.5-0.5L377.4,89.6z"/>
				<path class="st0" d="M381.6,92.1l-1.6-0.6l-1.7-0.5l-1.7-0.5l-1.6-0.4l-1.7-0.4l-1.7-0.4l-1.7-0.3l-1.8-0.3l-1-0.2
					c0,0.4,0,0.9,0,1.3l2.7,0.5l3.5,0.8l3.6,0.9l3.6,0.9l3.8,1l4.1,1l-1.7-0.8l-1.6-0.7l-1.7-0.6L381.6,92.1z"/>
				<path class="st0" d="M325.9,94.3l3.5-0.9c0-0.8,0.1-1.6,0.3-2.5c0,0,0,0,0-0.1c0-0.1,0.1-0.3,0.1-0.5c0.5-1.3,1.2-2.6,2.2-3.7
					l-1.4,0.2l-2.5,0.4l-2.2,0.6l-2,0.6l-2,0.6l-1.9,0.8l-2.1,0.8l-2.1,0.8l-2.4,1l-2.6,1.1l1.5-0.9l1.4-0.9l1.5-0.8l1.5-0.7
					l1.6-0.7l1.5-0.6l1.6-0.6l1.7-0.6l1.7-0.5l1.7-0.5l1.8-0.4L330,86l1.9-0.4l1.1-0.2c0.5-0.5,1-0.9,1.6-1.3l-0.7,0.1l-2.2,0.3
					l-2.1,0.4l-2.1,0.4l-2,0.5l-2,0.5l-2,0.6l-1.9,0.6l-1.8,0.7l-1.8,0.8l-1.6,0.8l-1.6,0.9l-1.6,1l-1.4,1l-1.3,1l0.2,0.4l0.3,0.2
					l0.2,0.3l-0.3,0.8l0.4,0.6l-0.5,0.9l-0.2,1.2v0.9l0.3,0.5l0.8,0l8.5-2.8L325.9,94.3z"/>
				<path class="st0" d="M379.5,85.8l-2-0.2l-1.2-0.2c0,0,0,0.1-0.1,0.1c0,0.1-0.1,0.1-0.1,0.2l5.2,0.4L379.5,85.8z"/>
				<path class="st0" d="M367,88.2l1.1,0.1l0.1,0c-0.6-0.2-1-0.6-1.3-0.9c0,0,0-0.1-0.1-0.1c0,0,0,0,0,0.1c0,0.1,0.1,0.2,0.1,0.3
					C367,87.9,367,88,367,88.2z"/>
				<path class="st0" d="M362.5,97.2c0,0-0.1,0.1-0.1,0.1l1,0.1l1.5,0.1l1.5,0.2l1.5,0.2l1.5,0.2l1.5,0.2l1.5,0.2l1.5,0.2l1.5,0.3
					l9.1,2.1l1.6,0.4l-1.4-0.5l-1.5-0.5l-1.5-0.5l-2.9-0.8l-2.9-0.7l-1.5-0.3l-1.5-0.3l-1.5-0.3l-1.5-0.2l-1.5-0.3l-1.5-0.3
					l-1.5-0.2l-1.6-0.2l-0.3,0C363.2,96.6,362.9,96.9,362.5,97.2z"/>
				<path class="st0" d="M365.8,93.1c0,0.1-0.1,0.2-0.1,0.2c-0.1,0.2-0.2,0.5-0.4,0.7c0,0.1-0.1,0.1-0.1,0.2c-0.5,0.7-1,1.3-1.5,1.9
					h0.7l2.4,0.1l4.5,0.3l-0.7-0.1l-1.1-0.2l-2.7-0.5l-0.6-0.1l1.4-0.1c0.1,0,0.2,0,0.3,0l8.4,1.1l-2.7-0.7l-1.1-0.2l-1.1-0.2
					l-1.2-0.2l-1.2-0.2l-1.4-0.2l-1.6-0.2l3.2,0.1l2.6,0.1l2.1,0.1l8.7,0.6l-1.8-0.2l-2-0.2l-4.2-0.6l-2.2-0.2l-2.1-0.3l-2-0.3
					l-1.8-0.2l1.8,0.1l3.5,0c0,0-3.2-0.4-3.9-0.4L365.8,93.1C365.8,93.1,365.8,93.1,365.8,93.1z"/>
				<path class="st0" d="M324.5,104.8C324.5,104.8,324.5,104.8,324.5,104.8L324.5,104.8c0-0.2,0.1-0.4,0.2-0.7
					c0.1-0.4,0.3-0.7,0.5-0.9c0,0,0,0,0-0.1c0.7-1.4,1.8-2.6,3.2-3.5c0.8-0.5,1.9-1,3.1-1.5c-0.3-0.4-0.6-0.7-0.9-1.1l0,0
					c0-0.1-0.1-0.2-0.2-0.3l-0.9,0.2l-2.2,0.6l-2,0.6l-2,0.6l-1.9,0.8l-2.1,0.8l-2.1,0.8l-2.4,1l-2.6,1.1l1.5-0.9l1.4-0.9l1.5-0.8
					l1.5-0.7l1.6-0.7l1.5-0.6l1.6-0.6l1.7-0.6l1.7-0.5l1.7-0.5l1.8-0.4l0.5-0.1c0-0.1-0.1-0.2-0.1-0.3l0-0.1
					c-0.1-0.2-0.2-0.5-0.2-0.7l-0.6,0.1l-2,0.5l-2,0.5l-2,0.6l-1.9,0.6l-1.8,0.7l-1.8,0.8l-1.6,0.8l-1.6,0.9l-1.6,1l-1.4,1l-1.3,1
					l0.2,0.4l0.3,0.2l0.2,0.3l-0.3,0.8l0.4,0.6l-0.5,0.9l-0.2,1.2v0.9l0.3,0.5l0.8,0l8.5-2.8L324.5,104.8z"/>
				<path class="st0" d="M386.2,103.1l-1.7-0.6l-1.6-0.6l-1.6-0.6l-1.7-0.5l-1.7-0.5l-1.6-0.4l-1.7-0.4l-1.7-0.4l-1.7-0.3l-1.8-0.3
					l-1.8-0.3l-1.8-0.3l-1.9-0.3l-1.4-0.2c-0.7,0.5-1.4,1-2.2,1.5l3.5,0.2l3.7,0.4l3.6,0.6l3.5,0.8l3.6,0.9l3.6,0.9l3.8,1l4.1,1
					l-1.7-0.8L386.2,103.1z"/>
				<path class="st0" d="M319.4,116.1C319.4,116.1,319.4,116.1,319.4,116.1c0-0.3,0-0.6,0.2-0.9c0.6-1.7,2-3.2,4.3-4.4
					c0.6-0.4,1.4-0.7,2.2-1c-0.4-0.3-0.7-0.7-1-1.2c-0.1-0.1-0.2-0.3-0.2-0.4l-0.5,0.1l-1.9,0.8l-2.1,0.8l-2.1,0.8l-2.4,1l-2.6,1.1
					l1.5-0.9l1.4-0.9l1.5-0.8l1.5-0.7l1.6-0.7l1.5-0.6l1.6-0.6l0.7-0.2c0-0.2-0.1-0.3-0.1-0.5c0-0.2-0.1-0.5-0.1-0.7l-0.2,0.1
					l-1.9,0.6l-1.8,0.7l-1.8,0.8l-1.6,0.8l-1.6,0.9l-1.6,1l-1.4,1l-1.3,1l0.2,0.4l0.3,0.2l0.2,0.3l-0.3,0.8l0.4,0.6l-0.5,0.9
					l-0.2,1.2v0.9l0.3,0.5l0.8,0l7.1-2.3C319.4,116.3,319.4,116.2,319.4,116.1z"/>
				<path class="st0" d="M353.2,104c3,0.3,5.2,1,6.6,2c0.8,0.5,1.4,1.1,2,1.9c0.1,0.2,0.2,0.4,0.3,0.6l2.8,0.2l3.7,0.4l3.6,0.6
					l3.5,0.8l3.6,0.9l3.6,0.9l3.8,1l4.1,1l-1.7-0.8l-1.6-0.7l-1.7-0.6l-1.6-0.6l-1.6-0.6l-1.7-0.5l-1.7-0.5l-1.6-0.4l-1.7-0.4
					l-1.7-0.4l-1.7-0.3l-1.8-0.3l-1.8-0.3l-1.8-0.3l-1.9-0.3l-1.9-0.2l1.6,0.1l1.5,0.1l1.5,0.2l1.5,0.2l1.5,0.2l1.5,0.2l1.5,0.2
					l1.5,0.2l1.5,0.3l9.1,2.1l1.6,0.4l-1.4-0.5l-1.5-0.5l-1.5-0.5L380,109l-2.9-0.7l-1.5-0.3l-1.5-0.3l-1.5-0.3l-1.5-0.2l-1.5-0.3
					l-1.5-0.3l-1.5-0.2l-1.6-0.2l-1.6-0.2l1.1-0.1h1.1l2.4,0.1l4.5,0.3l-0.7-0.1l-1.1-0.2l-2.7-0.5l-0.6-0.1l1.4-0.1
					c0.1,0,0.2,0,0.3,0l8.4,1.1l-2.7-0.7l-1.1-0.2l-1.1-0.2l-1.2-0.2l-1.2-0.2l-1.4-0.2l-1.6-0.2l3.2,0.1l2.6,0.1l2.1,0.1l8.7,0.6
					l-1.8-0.2l-2-0.2l-4.2-0.6l-2.2-0.2l-2.1-0.3l-2-0.3l-1.8-0.2l1.8,0.1l3.5,0c0,0-3.2-0.4-3.9-0.4l-3-0.2l-2.7-0.1l-2.8-0.1
					l-3-0.1h-3.1l-3.1,0.1l-3.1,0.1l-3.2,0.2l-3.2,0.2l-0.8,0.1l-2.2,0.2l-2.2,0.3l-1.5,0.2c0.2,0,0.3,0,0.5,0c0.5,0,1,0,1.6,0
					l7.8-0.1l0.1,0l1.2-0.1l1.3-0.1l1.3-0.1l1.3-0.1l1.3-0.1l1.4,0h1.4h1.4l1.5-0.1h1.4h1.5h1.5l1.5,0.1l-6.1,0.4L353.2,104z"/>
				<path class="st0" d="M352,114.5c0.1-0.1,0.2-0.2,0.2-0.3c0,0,0,0,0-0.1c0,0,0,0,0-0.1c-0.1,0-0.2-0.1-0.4-0.2l-3.8,0.3l-4.1,0.4
					l-3.6,0.4l-3.1,0.5l-2.8,0.5l-2.5,0.4l-1.7,0.4c0.1,0,0.1,0.1,0.2,0.1c1.1,0.5,3.2,1.2,7.5,1.2c4.5,0,8.2-0.5,10.7-1.5
					C350.6,115.7,351.5,115,352,114.5z"/>
				<path class="st0" d="M333.9,115l1.9-0.4l2-0.3l2.1-0.3l2.1-0.2l1-0.1l1-0.1l1.2-0.1l1.2-0.1l1.2-0.1l1.3-0.1l0.5,0
					c-0.9-0.1-1.9-0.2-3.1-0.2c-0.7,0-1.4,0-2.2,0c-6.1,0-9.2,0.7-10.8,1.4c-1.3,0.5-2,1-2.5,1.4l1.3-0.3L333.9,115z"/>
				<path class="st0" d="M360.1,113.7c0.1-0.1,0.1-0.3,0.2-0.4c0-0.1,0.1-0.2,0.1-0.3c0,0,0-0.1,0-0.1c0.1-0.3,0.2-0.5,0.2-0.7
					c0-0.1,0-0.3,0.1-0.4c0.1-1-0.1-1.9-0.6-2.7c-0.2-0.2-0.3-0.5-0.5-0.7c0,0,0,0,0,0c0,0,0,0,0,0c0,0,0,0,0,0
					c-0.2-0.2-0.5-0.4-0.8-0.6c-0.4-0.3-0.8-0.5-1.4-0.7c-2.1-0.8-5.2-1.2-9.5-1.2l-10.6,0.1c-0.5,0-1,0-1.5,0c-0.1,0-0.1,0-0.2,0
					c-0.1,0-0.3,0-0.4,0l0,0c-0.5,0-0.9-0.1-1.3-0.2c-0.3-0.1-0.6-0.1-0.8-0.2c-0.2-0.1-0.3-0.1-0.4-0.2l0,0c0,0-0.1,0-0.1,0
					c0,0,0,0,0,0c0,0,0,0,0,0c0,0,0,0,0,0c-0.1-0.1-0.2-0.1-0.3-0.2c-0.2-0.2-0.3-0.4-0.4-0.7c0-0.1,0-0.2,0-0.2c0-0.1,0-0.3,0-0.4
					c0,0,0,0,0,0c0-0.1,0-0.1,0-0.2c0.1-0.2,0.2-0.3,0.3-0.4c0.1-0.1,0.1-0.2,0.2-0.3c0,0,0.1-0.1,0.1-0.1c0.1-0.1,0.1-0.2,0.2-0.2
					c0.4-0.4,0.9-0.8,1.6-1.1c0.3-0.1,0.7-0.2,1.1-0.3c1.3-0.3,3.2-0.4,5.7-0.4h0.3h1.3h3c2.5,0,5.4-0.5,8.5-1.5c0,0,0,0,0.1,0
					c0,0,0.1,0,0.1,0c0.2-0.1,0.5-0.2,0.7-0.2c1.3-0.5,2.5-0.9,3.5-1.5c1.1-0.6,2.1-1.2,2.8-1.8c0.6-0.5,1.1-0.9,1.5-1.5
					c0.3-0.3,0.5-0.7,0.8-1c0,0,0,0,0-0.1c0,0,0,0,0-0.1c0.1-0.2,0.3-0.5,0.4-0.7c0,0,0-0.1,0.1-0.1c0,0,0-0.1,0-0.1
					c0.1-0.3,0.3-0.5,0.4-0.8c0.1-0.1,0.1-0.2,0.1-0.3c0.2-0.5,0.3-0.9,0.3-1.4c0.1-0.5,0-0.9,0-1.4c0,0,0,0,0,0c0,0,0-0.1,0-0.1
					c0,0,0,0,0-0.1c0,0,0,0,0,0c-0.1-0.3-0.2-0.6-0.3-0.9c0-0.1-0.1-0.2-0.1-0.2c0-0.1-0.1-0.2-0.2-0.3c-0.1-0.1-0.1-0.2-0.2-0.4
					c0,0,0,0,0-0.1c-0.1-0.1-0.1-0.2-0.2-0.3c-0.1-0.2-0.3-0.5-0.4-0.7c0,0,0.1-0.1,0.1-0.1c0.1,0,0.1-0.1,0.2-0.1
					c0.1-0.1,0.2-0.1,0.3-0.1c0.5-0.3,1-0.5,1.5-0.7c0,0,0.1,0,0.1,0c0,0,0,0,0,0c0.5-0.2,0.9-0.3,1.3-0.3c0.3,0,0.5,0.1,0.6,0.3
					c0,0,0,0,0,0.1c0.1,0.1,0.1,0.2,0.1,0.3c0,0.1,0,0.2,0,0.3c0,0,0,0,0,0.1c0,0,0,0,0,0.1c0,0,0,0,0,0.1c0,0.1,0,0.1,0,0.2
					c0,0.1,0,0.2,0.1,0.3c0,0.1,0.1,0.2,0.1,0.3c0,0,0,0,0,0c0,0,0,0,0,0c0,0,0,0.1,0.1,0.1c0.1,0.2,0.2,0.4,0.4,0.5
					c0.1,0.1,0.3,0.2,0.4,0.3c0.4,0.2,0.9,0.3,1.4,0.3c0.4,0,0.8-0.1,1.1-0.2c0.2-0.1,0.5-0.2,0.7-0.3c0,0,0,0,0,0
					c0.1-0.1,0.3-0.1,0.4-0.2c0.1,0,0.1-0.1,0.2-0.1c0.1-0.1,0.2-0.1,0.3-0.2c0.1-0.1,0.2-0.2,0.3-0.2c0.1-0.1,0.2-0.2,0.2-0.2
					c0-0.1,0.1-0.1,0.1-0.2c0.2-0.2,0.3-0.4,0.4-0.6c0.1-0.1,0.1-0.2,0.2-0.3c0,0,0,0,0,0c0,0,0,0,0,0c0,0,0,0,0,0s0,0,0,0
					c0,0,0-0.1,0-0.1c0,0,0,0,0,0c0,0,0,0,0-0.1c0-0.1,0-0.3,0-0.4c0-0.2,0.1-0.5,0-0.7c0-0.1-0.1-0.2-0.2-0.3
					c0-0.1-0.1-0.1-0.1-0.2c0-0.1-0.1-0.2-0.1-0.2c0-0.1-0.1-0.1-0.1-0.2c0-0.1-0.1-0.1-0.1-0.2c0,0,0,0,0-0.1c0,0,0,0,0,0
					c0,0,0,0,0,0c0,0,0,0,0,0c0,0,0,0,0,0c-0.2-0.2-0.5-0.3-0.8-0.5c-0.6-0.3-1.4-0.4-2.3-0.4c-0.7,0-1.4,0.1-2.1,0.2
					c0,0-0.1,0-0.1,0c-0.1,0-0.3,0.1-0.4,0.1c-0.1,0-0.2,0-0.3,0.1c-1,0.3-2,0.6-3.1,1.1c-0.6,0.3-1.3,0.6-1.9,0.9
					c-0.3,0.2-0.7,0.4-1,0.6c0,0-0.1,0-0.1-0.1c-0.4-0.2-0.7-0.4-1.1-0.6c-0.9-0.4-1.7-0.7-2.7-1c0,0-0.1,0-0.1,0
					c-0.2-0.1-0.5-0.2-0.7-0.2c-0.2-0.1-0.5-0.1-0.7-0.1c0,0-0.1,0-0.1,0c-0.9-0.2-1.9-0.3-2.9-0.4c-0.6,0-1.2-0.1-1.8-0.1
					c-2.7,0-5.3,0.3-7.6,0.9c-0.4,0.1-0.8,0.2-1.2,0.3c-0.9,0.3-1.8,0.6-2.7,1c0,0,0,0,0,0c-0.4,0.2-0.7,0.3-1.1,0.5
					c-0.1,0-0.1,0.1-0.2,0.1c-0.5,0.2-0.9,0.5-1.4,0.8l0,0c-0.6,0.4-1.2,0.8-1.7,1.2l0,0c-1.3,1-2.3,2.1-3.1,3.3
					c-0.3,0.5-0.6,1.1-0.8,1.6c0,0.1-0.1,0.2-0.1,0.3c0,0,0,0.1,0,0.1c0,0.1,0,0.2-0.1,0.3c-0.1,0.2-0.1,0.4-0.1,0.7
					c0,0.2,0,0.3,0,0.5c0,0.3,0,0.5,0,0.8c0,0.3,0.1,0.5,0.2,0.8c0,0,0,0,0,0.1c0,0,0,0,0,0.1c0,0.1,0.1,0.2,0.1,0.3
					c0,0.1,0,0.1,0.1,0.2c0.1,0.2,0.1,0.3,0.2,0.5c0,0,0,0,0,0c0,0,0,0.1,0.1,0.1c0.1,0.1,0.1,0.1,0.2,0.2c0.1,0.2,0.2,0.3,0.4,0.5
					l0,0c0.8,1,2,1.9,3.7,2.6c-2.7,0.6-4.9,1.3-6.3,2.1c-0.2,0.1-0.3,0.2-0.5,0.3c-0.5,0.3-0.9,0.7-1.3,1c-0.5,0.5-0.9,1-1.2,1.6
					c0,0,0,0.1-0.1,0.1c-0.1,0.2-0.3,0.4-0.4,0.6c0,0,0,0.1,0,0.1c0,0.1,0,0.1,0,0.2c0,0,0,0.1,0,0.1c0,0.1-0.1,0.2-0.1,0.4
					c0,0.3,0,0.7,0,1c0,0.1,0,0.2,0.1,0.3c0.1,0.2,0.2,0.5,0.3,0.7c0,0,0.1,0.1,0.1,0.1c0.1,0.1,0.2,0.3,0.3,0.4
					c0.1,0.1,0.2,0.2,0.3,0.3c1.1,0.9,3,1.6,5.6,2.1c-0.7,0.1-1.3,0.2-1.9,0.3c-1.1,0.2-2.1,0.4-3,0.6c-1.3,0.4-2.5,0.8-3.4,1.3
					c-0.5,0.3-0.9,0.5-1.3,0.8c-0.9,0.6-1.5,1.3-1.9,1.9c-0.1,0.1-0.1,0.2-0.2,0.3c0,0.1,0,0.1-0.1,0.2c0,0.1,0,0.1,0,0.2
					c0,0.1,0,0.2,0,0.4c0,0.3,0,0.6,0,0.9c0.1,0.3,0.2,0.6,0.4,0.9c0,0,0,0.1,0.1,0.1c0,0.1,0.1,0.1,0.1,0.2c0,0,0,0,0,0
					c0,0,0,0,0,0c0,0,0,0,0,0.1c0.2,0.2,0.4,0.4,0.6,0.7c0.1,0.1,0.3,0.3,0.4,0.4c0.1,0.1,0.3,0.2,0.4,0.3c0,0,0.1,0.1,0.1,0.1
					c0.1,0.1,0.3,0.1,0.4,0.2c0.1,0,0.2,0.1,0.2,0.1c0,0,0,0,0,0c2,1.1,5.1,1.8,9.3,2c0.9,0,1.9,0.1,2.9,0.1c4.5,0,8.5-0.4,11.9-1.3
					c2.2-0.6,4.2-1.3,6-2.2c0.4-0.2,0.8-0.4,1.2-0.7c0.6-0.4,1.2-0.8,1.7-1.2c0.5-0.4,1-0.8,1.4-1.3c0.1-0.1,0.1-0.1,0.2-0.2
					c0,0,0.1-0.1,0.1-0.1c0-0.1,0.1-0.1,0.1-0.2c0,0,0.1-0.1,0.1-0.1c0.2-0.3,0.5-0.6,0.6-0.9C359.8,114.2,359.9,113.9,360.1,113.7z
					 M352.5,96.7c-2.1,1.4-4.4,2-7,2c-2.6,0-4.4-0.7-5.6-2.1c-0.3-0.4-0.5-0.8-0.7-1.2c-0.1-0.2-0.1-0.3-0.1-0.5
					c0-0.1-0.1-0.3-0.1-0.4c0-0.2-0.1-0.4-0.1-0.6c0-0.1,0-0.3,0-0.5c0-0.2,0-0.5,0.1-0.7c0.1-0.6,0.2-1.1,0.4-1.8
					c0-0.1,0-0.1,0.1-0.2c0.1-0.4,0.3-0.8,0.5-1.1c0.9-1.8,2.1-3.3,3.9-4.4c0.1-0.1,0.2-0.1,0.3-0.2c0.6-0.4,1.3-0.7,1.9-1
					c1.5-0.6,3.1-0.9,4.7-0.9c1.4,0,2.6,0.2,3.6,0.6c0.3,0.1,0.5,0.2,0.7,0.4c0.5,0.3,0.9,0.7,1.3,1.1c0.6,0.7,0.9,1.4,1,2.3
					c0.1,0.4,0.1,0.9,0,1.4c-0.1,0.6-0.2,1.2-0.4,1.9c-0.1,0.4-0.3,0.7-0.5,1.1c-0.1,0.3-0.2,0.5-0.4,0.8c0,0.1-0.1,0.2-0.1,0.3
					c-0.1,0.2-0.2,0.4-0.3,0.5c0,0,0,0,0,0.1c-0.1,0.1-0.2,0.3-0.3,0.4C354.6,95.1,353.6,96,352.5,96.7z M343.1,120.2
					c-0.4,0-0.9,0.1-1.3,0.1c-0.1,0-0.2,0-0.3,0c-0.5,0-1.1,0.1-1.7,0.1c-0.3,0-0.6,0-0.9,0c-0.3,0-0.6,0-0.9,0c-0.2,0-0.5,0-0.7,0
					s-0.5,0-0.7,0c-0.7,0-1.3-0.1-1.9-0.1c-0.4,0-0.8-0.1-1.2-0.1c-0.4-0.1-0.7-0.1-1.1-0.2c-0.2,0-0.3-0.1-0.5-0.1
					c-0.5-0.1-0.9-0.2-1.4-0.4c-0.2-0.1-0.4-0.2-0.6-0.2c-0.1,0-0.2-0.1-0.3-0.1c-0.1,0-0.1-0.1-0.2-0.1c0,0-0.1,0-0.1,0
					c-0.1,0-0.1,0-0.2-0.1c0,0-0.1,0-0.1,0c-0.1,0-0.2-0.1-0.2-0.1c-0.2-0.1-0.3-0.2-0.4-0.3c-0.1-0.1-0.1-0.1-0.2-0.2
					c-0.1-0.1-0.2-0.3-0.3-0.4c0,0-0.1-0.1-0.1-0.1c0-0.1-0.1-0.1-0.1-0.2v0c-0.1-0.1-0.1-0.3-0.1-0.4c0-0.1,0-0.1,0-0.2
					c0-0.1,0-0.2,0-0.3c0,0,0,0,0,0c0-0.2,0-0.5,0.1-0.7c0-0.1,0-0.1,0.1-0.2c0-0.1,0.1-0.2,0.1-0.3c0-0.1,0.1-0.1,0.1-0.2
					c0.1-0.2,0.3-0.5,0.5-0.7c0.3-0.4,0.7-0.7,1.2-1.1c0.6-0.4,1.2-0.8,2-1.1c0.2-0.1,0.4-0.2,0.7-0.3c0.4-0.1,0.8-0.3,1.2-0.4
					c0.1,0,0.3-0.1,0.4-0.1c0.8-0.2,1.6-0.4,2.6-0.5c0.7-0.1,1.5-0.2,2.2-0.3c0.8-0.1,1.7-0.1,2.6-0.2c0.9,0,1.8-0.1,2.7-0.1
					c0.4,0,0.8,0,1.2,0c0.4,0,0.8,0,1.1,0c0.5,0,1,0,1.5,0.1c0.2,0,0.5,0,0.7,0.1c0.6,0.1,1.2,0.1,1.7,0.2c0.4,0.1,0.7,0.1,1,0.2
					c1.2,0.3,2,0.6,2.6,1.1c0.1,0.1,0.2,0.2,0.3,0.3c0.1,0.1,0.2,0.2,0.2,0.3c0.1,0.1,0.2,0.3,0.2,0.4c0.1,0.2,0.2,0.4,0.2,0.6
					c0,0.2,0,0.5,0,0.8c0,0,0,0.1,0,0.1c0,0.1,0,0.1,0,0.2c0,0.1,0,0.1,0,0.2c0,0.1-0.1,0.3-0.2,0.4c0,0-0.1,0.1-0.1,0.1
					c-0.1,0.1-0.2,0.3-0.3,0.4c-0.1,0.1-0.2,0.3-0.3,0.4c-0.4,0.5-1,0.9-1.7,1.3c-0.2,0.1-0.4,0.2-0.5,0.3c-0.2,0.1-0.4,0.2-0.6,0.3
					c-0.2,0.1-0.4,0.2-0.7,0.3c-0.1,0.1-0.2,0.1-0.3,0.1s-0.2,0.1-0.4,0.1c-0.3,0.1-0.6,0.2-0.9,0.3c-0.1,0-0.1,0-0.2,0.1
					C346.9,119.7,345.1,120,343.1,120.2z"/>
				<path class="st0" d="M390.3,123.2l-1.6-0.7l-1.7-0.6l-1.6-0.6l-1.6-0.6l-1.7-0.5l-1.7-0.5l-1.6-0.4l-1.7-0.4l-1.7-0.4l-1.7-0.3
					l-1.8-0.3l-1.8-0.3l-1.8-0.3l-1.9-0.3l-1.9-0.2l1.6,0.1l1.5,0.1l1.5,0.2l1.5,0.2l1.5,0.2l1.5,0.2l1.5,0.2l1.5,0.2l1.5,0.3
					l9.1,2.1l1.6,0.4l-1.4-0.5l-1.5-0.5l-1.5-0.5l-2.9-0.8l-2.9-0.7l-1.5-0.3l-1.5-0.3L374,117l-1.5-0.2l-1.5-0.3l-1.5-0.3l-1.5-0.2
					l-1.6-0.2l-1.6-0.2l1.1-0.1h1.1l2.4,0.1l4.5,0.3l-0.7-0.1l-1.1-0.2l-2.7-0.5l-0.6-0.1l1.4-0.1c0.1,0,0.2,0,0.3,0l8.4,1.1
					l-2.7-0.7L375,115l-1.1-0.2l-1.2-0.2l-1.2-0.2l-1.4-0.2l-1.6-0.2l3.2,0.1l2.6,0.1l2.1,0.1l8.7,0.6l-1.8-0.2l-2-0.2l-4.2-0.6
					l-2.2-0.2l-2.1-0.3l-2-0.3l-1.8-0.2l1.8,0.1l3.5,0c0,0-3.2-0.4-3.9-0.4l-3-0.2l-2.7-0.1l-1.8,0c0,0.2-0.1,0.5-0.2,0.8h0.2
					l1.5,0.1l-1.7,0.1c0,0.1-0.1,0.3-0.1,0.4c-0.2,0.6-0.5,1.2-0.9,1.9c-0.3,0.4-0.6,0.8-0.8,1.1l-0.1,0.1c0,0-0.1,0.1-0.1,0.1
					c-0.1,0.1-0.2,0.3-0.4,0.5c-0.3,0.3-0.5,0.6-0.8,0.8h3l3.9,0.2l3.7,0.4l3.6,0.6l3.5,0.8l3.6,0.9l3.6,0.9l3.8,1l4.1,1
					L390.3,123.2z"/>
				<path class="st0" d="M323.2,122.2c-0.2-0.1-0.4-0.2-0.7-0.4c-0.2-0.2-0.4-0.3-0.5-0.4c0,0-0.1-0.1-0.1-0.1
					c-0.5-0.4-0.9-0.8-1.3-1.2l-1,0.4l-2.4,1l-2.6,1.1l1.5-0.9l1.4-0.9l1.5-0.8l1.2-0.5c-0.2-0.4-0.4-0.8-0.6-1.2l-1.3,0.7l-1.6,0.9
					l-1.6,1l-1.4,1l-1.3,1l0.2,0.4l0.3,0.2l0.2,0.3l-0.3,0.8l0.4,0.6l-0.5,0.9l-0.2,1.2v0.9l0.3,0.5l0.8,0l8.5-2.8l6.1-1.8
					c-1.9-0.4-3.5-0.9-4.8-1.6C323.2,122.2,323.2,122.2,323.2,122.2z"/>
				<path class="st0" d="M354.2,87.8c-0.2-0.6-0.6-1-1.1-1.4c-0.8-0.5-1.8-0.8-3.1-0.8c-0.5,0-1,0-1.5,0.1c-1.2,0.2-2.4,0.7-3.5,1.4
					c-0.9,0.6-1.5,1.2-2.1,2c-0.3,0.4-0.6,0.9-0.8,1.4c-0.1,0.2-0.2,0.5-0.3,0.7c-0.2,0.5-0.2,0.9-0.3,1.3c0,0.3,0,0.5,0,0.7
					c0,0.1,0,0.2,0.1,0.4c0,0.2,0.1,0.4,0.2,0.6c0.1,0.1,0.1,0.3,0.2,0.4c0.1,0.2,0.2,0.3,0.3,0.4c0,0,0,0,0,0
					c0.9,1,2.2,1.5,4.1,1.5c0.8,0,1.5-0.1,2.2-0.3c1.4-0.3,2.8-1.1,4.1-2.1c0.2-0.2,0.4-0.3,0.6-0.5c0,0,0.1-0.1,0.1-0.1
					c0.1-0.1,0.2-0.1,0.2-0.2l-0.8-0.3c-0.2,0.2-0.4,0.3-0.6,0.5c-0.1,0.1-0.2,0.1-0.3,0.2c-0.2,0.2-0.5,0.4-0.7,0.5
					c-0.8,0.6-1.7,1-2.5,1.1c-0.4,0.1-0.8,0.1-1.3,0.1c-1.1,0-1.9-0.3-2.5-0.8c-0.1-0.1-0.2-0.2-0.3-0.3c0,0,0-0.1,0-0.1
					c-0.1-0.1-0.1-0.2-0.2-0.4c-0.1-0.2-0.1-0.4-0.1-0.6c0-0.1,0-0.3,0-0.4c0-0.2,0-0.5,0.1-0.7c0.1-0.4,0.1-0.7,0.2-1.2h4h5.7
					c0.3-0.8,0.4-1.6,0.4-2.2c0-0.1,0-0.3,0-0.4C354.4,88.3,354.3,88,354.2,87.8z M352.1,89.2c-0.1,0.4-0.4,0.7-0.6,0.9
					c-0.3,0.2-0.6,0.3-0.9,0.3h-2.1h-3.8c0-0.1,0.1-0.2,0.1-0.3c0.2-0.5,0.4-0.9,0.7-1.3c0.4-0.6,0.8-1.1,1.3-1.4
					c0.5-0.4,1.1-0.7,1.6-0.8c0.4-0.1,0.9-0.2,1.3-0.2c0.9,0,1.6,0.3,2,0.9c0.2,0.2,0.3,0.5,0.4,0.8
					C352.3,88.3,352.3,88.7,352.1,89.2C352.1,89.2,352.1,89.2,352.1,89.2z"/>
			</g>
		</g>
	</g>
</g>
</svg>
