<?xml version="1.0" encoding="utf-8"?>
<!-- Generator: Adobe Illustrator 24.0.0, SVG Export Plug-In . SVG Version: 6.00 Build 0)  -->
<svg version="1.1" id="Capa_1" xmlns="http://www.w3.org/2000/svg" xmlns:xlink="http://www.w3.org/1999/xlink" x="0px" y="0px"
	 viewBox="0 0 512 512" style="enable-background:new 0 0 512 512;" xml:space="preserve">
<style type="text/css">
	.st0{fill:#1D1D1B;}
	.st1{fill:#1C1C1A;}
</style>
<g>
	<path class="st0" d="M466,196.4c-33.7-5.6-57.4-35.6-55.1-69.7l5.3-79.6c0.9-13.5-8.4-25.7-21.5-28.6
		c-21.2-4.6-71.2-15.4-84.9-18.3l0,0l0,0c-2.2-0.3-3.8-0.2-5.8,1c-11,7.4-22,12.2-33,14.4c-0.3,0-0.6,0.1-0.8,0.2
		c-9.4,1.8-18.8,1.8-28.3,0c-0.3-0.1-0.6-0.1-0.9-0.2c-11-2.3-22-7-33.1-14.3c-1.6-1.1-3.7-1.5-5.7-1.1c-9.1,2-77.5,16.7-84.9,18.3
		c-13.2,2.8-22.4,15.1-21.5,28.6c5.5,82.8,5.5,80.1,5.5,84.1c0,32.4-23.2,59.8-55.3,65.2c-3.6,0.6-6.3,3.7-6.3,7.4v283.3
		c0,13.7,11.2,24.9,24.9,24.9h49.8h7.5h325.4c13.7,0,24.9-11.2,24.9-24.9V203.8C472.3,200.2,469.6,197.1,466,196.4z M54.7,284.8
		c65.4,0,185.6,0,195.2,0v16.8H54.7V284.8z M54.7,393.9h195.2v16.8H54.7V393.9z M121.9,497.1h-7.5H64.6c-5.5,0-9.9-4.5-9.9-9.9
		v-61.5h195.2V469l-37.3,28.1H121.9z M237.5,497.1l19.9-15.1l19.9,15.1H237.5z M457.3,487.2c0,5.5-4.5,9.9-9.9,9.9H302.3L265,468.9
		v-43.3h192.3V487.2z M457.3,410.6H264.9v-16.8h192.3L457.3,410.6L457.3,410.6z M457.3,301.6h-35.2c-4.1,0-7.5,3.4-7.5,7.5
		s3.4,7.5,7.5,7.5h35.2v62.3H273.6h-8.7h-15h-3.7H54.7v-62.3h191.5h3.7h15h8.7h118.5c4.1,0,7.5-3.4,7.5-7.5s-3.4-7.5-7.5-7.5H264.9
		v-16.8c89.3,0,129.1,0,192.3,0L457.3,301.6L457.3,301.6z M457.3,269.8h-68.6l0,0h-10.3h-15l0,0h-15.7l0,0h-15l0,0l0,0h-64.2H265
		h-17.9l0,0h-56.2h-11.5h-15l0,0h-15.6l0,0h-15l0,0H54.7V210c36-8.9,61.5-41,61.5-78.7c0-4.9,0-1.4-5.5-85.1l0,0
		c-0.4-6.1,3.8-11.6,9.7-12.9l13.2-2.9l0,0l15-3.2l15.6-3.4l15-3.2l0,0l18.9-4.1v0.1l16.6,5.9c0,0,0.1,0,0.2,0.1
		c1,0.5,5.4,2.7,12,4.8c5.9,1.9,13.5,3.8,22,4.5c0.6,0,1.1,0.1,1.7,0.1c0.5,0,1,0.1,1.5,0.1c1.2,0.1,2.4,0.1,3.6,0.1l0,0l0,0
		c1.3,0,2.5,0,3.7-0.1c0.4,0,0.8,0,1.2-0.1c0.8,0,1.5-0.1,2.2-0.2c8.1-0.7,15.4-2.5,21.1-4.3c7.8-2.5,12.7-5.1,12.7-5.1l0.2-0.1
		l16.6-6l-0.1,0.8l0.2-0.7l18.8,4.1v0.1v-0.1l49.3,10.6l0,0l10,2.2c6,1.3,10.1,6.8,9.7,12.9l-5.3,79.6
		c-2.7,39.7,23.4,74.8,61.4,84.2v59.8H457.3z"/>
	<g id="LOGO_GAMA_4_">
		<g>
			<path class="st1" d="M283.2,332.7l-2.9-0.7l-1.5-0.3l-0.6-0.1c-0.6,0.2-1.1,0.3-1.7,0.3h0.3l1.5,0.2l1.5,0.3l9.1,2.1l1.6,0.4
				l-1.4-0.5l-1.5-0.5l-1.5-0.5L283.2,332.7z"/>
			<path class="st1" d="M287.3,335.2l-1.6-0.6l-1.7-0.5l-1.7-0.5l-1.6-0.4l-1.7-0.4l-1.7-0.4l-1.7-0.3l-1.8-0.3l-1-0.2
				c0,0.4,0,0.9,0,1.3l2.7,0.5l3.5,0.8l3.6,0.9l3.6,0.9l3.8,1l4.1,1l-1.7-0.8l-1.6-0.7l-1.7-0.6L287.3,335.2z"/>
			<path class="st1" d="M231.6,337.4l3.5-0.9c0-0.8,0.1-1.6,0.3-2.5c0,0,0,0,0-0.1s0.1-0.3,0.1-0.5c0.5-1.3,1.2-2.6,2.2-3.7
				l-1.4,0.2l-2.5,0.4l-2.2,0.6l-2,0.6l-2,0.6l-1.9,0.8l-2.1,0.8l-2.1,0.8l-2.4,1l-2.6,1.1l1.5-0.9l1.4-0.9l1.5-0.8l1.5-0.7l1.6-0.7
				l1.5-0.6l1.6-0.6l1.7-0.6l1.7-0.5l1.7-0.5l1.8-0.4l1.9-0.4l1.9-0.4l1.1-0.2c0.5-0.5,1-0.9,1.6-1.3l-0.7,0.1l-2.2,0.3l-2.1,0.4
				l-2.1,0.4l-2,0.5l-2,0.5l-2,0.6l-1.9,0.6l-1.8,0.7l-1.8,0.8l-1.6,0.8l-1.6,0.9l-1.6,1l-1.4,1l-1.3,1l0.2,0.4l0.3,0.2l0.2,0.3
				l-0.3,0.8l0.4,0.6l-0.5,0.9l-0.2,1.2v0.9l0.3,0.5h0.8l8.5-2.8L231.6,337.4z"/>
			<path class="st1" d="M285.2,328.9l-2-0.2l-1.2-0.2c0,0,0,0.1-0.1,0.1c0,0.1-0.1,0.1-0.1,0.2l5.2,0.4L285.2,328.9z"/>
			<path class="st1" d="M272.7,331.3l1.1,0.1h0.1c-0.6-0.2-1-0.6-1.3-0.9c0,0,0-0.1-0.1-0.1c0,0,0,0,0,0.1s0.1,0.2,0.1,0.3
				C272.7,331,272.7,331.1,272.7,331.3z"/>
			<path class="st1" d="M268.3,340.3l-0.1,0.1l1,0.1l1.5,0.1l1.5,0.2l1.5,0.2l1.5,0.2l1.5,0.2l1.5,0.2l1.5,0.2l1.5,0.3l9.1,2.1
				l1.6,0.4l-1.4-0.5l-1.5-0.5l-1.5-0.5l-2.9-0.8l-2.9-0.7l-1.5-0.3l-1.5-0.3l-1.5-0.3l-1.5-0.2l-1.5-0.3l-1.5-0.3l-1.5-0.2
				l-1.6-0.2h-0.3C268.9,339.8,268.6,340,268.3,340.3z"/>
			<path class="st1" d="M271.6,336.2c0,0.1-0.1,0.2-0.1,0.2c-0.1,0.2-0.2,0.5-0.4,0.7c0,0.1-0.1,0.1-0.1,0.2c-0.5,0.7-1,1.3-1.5,1.9
				h0.7l2.4,0.1l4.5,0.3l-0.7-0.1l-1.1-0.2l-2.7-0.5l-0.6-0.1l1.4-0.1c0.1,0,0.2,0,0.3,0l8.4,1.1l-2.7-0.7l-1.1-0.2l-1.1-0.2
				l-1.2-0.2l-1.2-0.2l-1.4-0.2l-1.6-0.2l3.2,0.1l2.6,0.1l2.1,0.1l8.7,0.6l-1.8-0.2l-2-0.2l-4.2-0.6l-2.2-0.2l-2.1-0.3l-2-0.3
				l-1.8-0.2l1.8,0.1h3.5c0,0-3.2-0.4-3.9-0.4L271.6,336.2L271.6,336.2z"/>
			<path class="st1" d="M230.2,347.9L230.2,347.9L230.2,347.9c0-0.2,0.1-0.4,0.2-0.7c0.1-0.4,0.3-0.7,0.5-0.9c0,0,0,0,0-0.1
				c0.7-1.4,1.8-2.6,3.2-3.5c0.8-0.5,1.9-1,3.1-1.5c-0.3-0.4-0.6-0.7-0.9-1.1l0,0c0-0.1-0.1-0.2-0.2-0.3l-0.9,0.2l-2.2,0.6l-2,0.6
				l-2,0.6l-1.9,0.8l-2.1,0.8l-2.1,0.8l-2.4,1l-2.6,1.1l1.5-0.9l1.4-0.9l1.5-0.8l1.5-0.7l1.6-0.7l1.5-0.6l1.6-0.6l1.7-0.6l1.7-0.5
				l1.7-0.5l1.8-0.4l0.5-0.1c0-0.1-0.1-0.2-0.1-0.3v-0.1c-0.1-0.2-0.2-0.5-0.2-0.7L235,338l-2,0.5l-2,0.5l-2,0.6l-1.9,0.6l-1.8,0.7
				l-1.8,0.8l-1.6,0.8l-1.6,0.9l-1.6,1l-1.4,1l-1.3,1l0.2,0.4l0.3,0.2l0.2,0.3l-0.3,0.8l0.4,0.6l-0.5,0.9l-0.2,1.2v0.9l0.3,0.5h0.8
				l8.5-2.8L230.2,347.9z"/>
			<path class="st1" d="M291.9,346.2l-1.7-0.6l-1.6-0.6l-1.6-0.6l-1.7-0.5l-1.7-0.5L282,343l-1.7-0.4l-1.7-0.4l-1.7-0.3l-1.8-0.3
				l-1.8-0.3l-1.8-0.3l-1.9-0.3l-1.4-0.2c-0.7,0.5-1.4,1-2.2,1.5l3.5,0.2l3.7,0.4l3.6,0.6l3.5,0.8l3.6,0.9l3.6,0.9l3.8,1l4.1,1
				l-1.7-0.8L291.9,346.2z"/>
			<path class="st1" d="M225.1,359.3C225.1,359.2,225.1,359.2,225.1,359.3c0-0.3,0-0.6,0.2-0.9c0.6-1.7,2-3.2,4.3-4.4
				c0.6-0.4,1.4-0.7,2.2-1c-0.4-0.3-0.7-0.7-1-1.2c-0.1-0.1-0.2-0.3-0.2-0.4l-0.5,0.1l-1.9,0.8l-2.1,0.8l-2.1,0.8l-2.4,1L219,356
				l1.5-0.9l1.4-0.9l1.5-0.8l1.5-0.7l1.6-0.7l1.5-0.6l1.6-0.6l0.7-0.2c0-0.2-0.1-0.3-0.1-0.5s-0.1-0.5-0.1-0.7l-0.2,0.1l-1.9,0.6
				l-1.8,0.7l-1.8,0.8l-1.6,0.8l-1.6,0.9l-1.6,1l-1.4,1l-1.3,1l0.2,0.4l0.3,0.2l0.2,0.3l-0.3,0.8l0.4,0.6l-0.5,0.9l-0.2,1.2v0.9
				l0.3,0.5h0.8l7.1-2.3C225.1,359.4,225.1,359.3,225.1,359.3z"/>
			<path class="st1" d="M258.9,347.1c3,0.3,5.2,1,6.6,2c0.8,0.5,1.4,1.1,2,1.9c0.1,0.2,0.2,0.4,0.3,0.6l2.8,0.2l3.7,0.4l3.6,0.6
				l3.5,0.8l3.6,0.9l3.6,0.9l3.8,1l4.1,1l-1.7-0.8l-1.6-0.7l-1.7-0.6l-1.6-0.6l-1.6-0.6l-1.7-0.5l-1.7-0.5l-1.6-0.4l-1.7-0.4
				l-1.7-0.4l-1.7-0.3l-1.8-0.3l-1.8-0.3l-1.8-0.3l-1.9-0.3l-1.9-0.2l1.6,0.1l1.5,0.1l1.5,0.2l1.5,0.2l1.5,0.2l1.5,0.2l1.5,0.2
				l1.5,0.2l1.5,0.3l9.1,2.1l1.6,0.4l-1.4-0.5l-1.5-0.5l-1.5-0.5l-2.9-0.8l-2.9-0.7l-1.5-0.3l-1.5-0.3l-1.5-0.3l-1.5-0.2l-1.5-0.3
				l-1.5-0.3l-1.5-0.2l-1.6-0.2l-1.6-0.2l1.1-0.1h1.1l2.4,0.1l4.5,0.3l-0.7-0.1l-1.1-0.2l-2.7-0.5l-0.6-0.1l1.4-0.1
				c0.1,0,0.2,0,0.3,0l8.4,1.1l-2.7-0.7l-1.1-0.2l-1.1-0.2l-1.2-0.2l-1.2-0.2l-1.4-0.2l-1.6-0.2l3.2,0.1l2.6,0.1l2.1,0.1l8.7,0.6
				l-1.8-0.2l-2-0.2l-4.2-0.6l-2.2-0.2l-2.1-0.3l-2-0.3l-1.8-0.2l1.8,0.1h3.5c0,0-3.2-0.4-3.9-0.4l-3-0.2l-2.7-0.1l-2.8-0.1l-3-0.1
				h-3.1l-3.1,0.1l-3.1,0.1l-3.2,0.2l-3.2,0.2l-0.8,0.1l-2.2,0.2l-2.2,0.3l-1.5,0.2c0.2,0,0.3,0,0.5,0c0.5,0,1,0,1.6,0l7.8-0.1h0.1
				l1.2-0.1l1.3-0.1l1.3-0.1l1.3-0.1l1.3-0.1h1.4h1.4h1.4l1.5-0.1h1.4h1.5h1.5l1.5,0.1l-6.1,0.4L258.9,347.1z"/>
			<path class="st1" d="M257.7,357.6c0.1-0.1,0.2-0.2,0.2-0.3c0,0,0,0,0-0.1c0,0,0,0,0-0.1c-0.1,0-0.2-0.1-0.4-0.2l-3.8,0.3
				l-4.1,0.4L246,358l-3.1,0.5l-2.8,0.5l-2.5,0.4l-1.7,0.4c0.1,0,0.1,0.1,0.2,0.1c1.1,0.5,3.2,1.2,7.5,1.2c4.5,0,8.2-0.5,10.7-1.5
				C256.4,358.8,257.3,358.1,257.7,357.6z"/>
			<path class="st1" d="M239.6,358.1l1.9-0.4l2-0.3l2.1-0.3l2.1-0.2l1-0.1l1-0.1l1.2-0.1l1.2-0.1l1.2-0.1l1.3-0.1h0.5
				c-0.9-0.1-1.9-0.2-3.1-0.2c-0.7,0-1.4,0-2.2,0c-6.1,0-9.2,0.7-10.8,1.4c-1.3,0.5-2,1-2.5,1.4l1.3-0.3L239.6,358.1z"/>
			<path class="st1" d="M265.8,356.8c0.1-0.1,0.1-0.3,0.2-0.4c0-0.1,0.1-0.2,0.1-0.3V356c0.1-0.3,0.2-0.5,0.2-0.7
				c0-0.1,0-0.3,0.1-0.4c0.1-1-0.1-1.9-0.6-2.7c-0.2-0.2-0.3-0.5-0.5-0.7l0,0l0,0l0,0c-0.2-0.2-0.5-0.4-0.8-0.6
				c-0.4-0.3-0.8-0.5-1.4-0.7c-2.1-0.8-5.2-1.2-9.5-1.2l-10.6,0.1c-0.5,0-1,0-1.5,0c-0.1,0-0.1,0-0.2,0s-0.3,0-0.4,0l0,0
				c-0.5,0-0.9-0.1-1.3-0.2c-0.3-0.1-0.6-0.1-0.8-0.2c-0.2-0.1-0.3-0.1-0.4-0.2l0,0h-0.1l0,0l0,0l0,0c-0.1-0.1-0.2-0.1-0.3-0.2
				c-0.2-0.2-0.3-0.4-0.4-0.7c0-0.1,0-0.2,0-0.2c0-0.1,0-0.3,0-0.4l0,0c0-0.1,0-0.1,0-0.2c0.1-0.2,0.2-0.3,0.3-0.4s0.1-0.2,0.2-0.3
				l0.1-0.1c0.1-0.1,0.1-0.2,0.2-0.2c0.4-0.4,0.9-0.8,1.6-1.1c0.3-0.1,0.7-0.2,1.1-0.3c1.3-0.3,3.2-0.4,5.7-0.4h0.3h1.3h3
				c2.5,0,5.4-0.5,8.5-1.5c0,0,0,0,0.1,0h0.1c0.2-0.1,0.5-0.2,0.7-0.2c1.3-0.5,2.5-0.9,3.5-1.5c1.1-0.6,2.1-1.2,2.8-1.8
				c0.6-0.5,1.1-0.9,1.5-1.5c0.3-0.3,0.5-0.7,0.8-1c0,0,0,0,0-0.1c0,0,0,0,0-0.1c0.1-0.2,0.3-0.5,0.4-0.7c0,0,0-0.1,0.1-0.1v-0.1
				c0.1-0.3,0.3-0.5,0.4-0.8c0.1-0.1,0.1-0.2,0.1-0.3c0.2-0.5,0.3-0.9,0.3-1.4c0.1-0.5,0-0.9,0-1.4l0,0v-0.1c0,0,0,0,0-0.1l0,0
				c-0.1-0.3-0.2-0.6-0.3-0.9c0-0.1-0.1-0.2-0.1-0.2c0-0.1-0.1-0.2-0.2-0.3c-0.1-0.1-0.1-0.2-0.2-0.4c0,0,0,0,0-0.1
				c-0.1-0.1-0.1-0.2-0.2-0.3c-0.1-0.2-0.3-0.5-0.4-0.7l0.1-0.1c0.1,0,0.1-0.1,0.2-0.1c0.1-0.1,0.2-0.1,0.3-0.1
				c0.5-0.3,1-0.5,1.5-0.7h0.1l0,0c0.5-0.2,0.9-0.3,1.3-0.3c0.3,0,0.5,0.1,0.6,0.3c0,0,0,0,0,0.1c0.1,0.1,0.1,0.2,0.1,0.3
				c0,0.1,0,0.2,0,0.3c0,0,0,0,0,0.1c0,0,0,0,0,0.1c0,0,0,0,0,0.1s0,0.1,0,0.2s0,0.2,0.1,0.3c0,0.1,0.1,0.2,0.1,0.3l0,0l0,0
				c0,0,0,0.1,0.1,0.1c0.1,0.2,0.2,0.4,0.4,0.5c0.1,0.1,0.3,0.2,0.4,0.3c0.4,0.2,0.9,0.3,1.4,0.3c0.4,0,0.8-0.1,1.1-0.2
				c0.2-0.1,0.5-0.2,0.7-0.3l0,0c0.1-0.1,0.3-0.1,0.4-0.2c0.1,0,0.1-0.1,0.2-0.1c0.1-0.1,0.2-0.1,0.3-0.2s0.2-0.2,0.3-0.2
				c0.1-0.1,0.2-0.2,0.2-0.2c0-0.1,0.1-0.1,0.1-0.2c0.2-0.2,0.3-0.4,0.4-0.6c0.1-0.1,0.1-0.2,0.2-0.3l0,0l0,0l0,0l0,0v-0.1l0,0
				c0,0,0,0,0-0.1s0-0.3,0-0.4c0-0.2,0.1-0.5,0-0.7c0-0.1-0.1-0.2-0.2-0.3c0-0.1-0.1-0.1-0.1-0.2s-0.1-0.2-0.1-0.2
				c0-0.1-0.1-0.1-0.1-0.2s-0.1-0.1-0.1-0.2c0,0,0,0,0-0.1l0,0l0,0l0,0l0,0c-0.2-0.2-0.5-0.3-0.8-0.5c-0.6-0.3-1.4-0.4-2.3-0.4
				c-0.7,0-1.4,0.1-2.1,0.2H274c-0.1,0-0.3,0.1-0.4,0.1c-0.1,0-0.2,0-0.3,0.1c-1,0.3-2,0.6-3.1,1.1c-0.6,0.3-1.3,0.6-1.9,0.9
				c-0.3,0.2-0.7,0.4-1,0.6c0,0-0.1,0-0.1-0.1c-0.4-0.2-0.7-0.4-1.1-0.6c-0.9-0.4-1.7-0.7-2.7-1h-0.1c-0.2-0.1-0.5-0.2-0.7-0.2
				c-0.2-0.1-0.5-0.1-0.7-0.1h-0.1c-0.9-0.2-1.9-0.3-2.9-0.4c-0.6,0-1.2-0.1-1.8-0.1c-2.7,0-5.3,0.3-7.6,0.9
				c-0.4,0.1-0.8,0.2-1.2,0.3c-0.9,0.3-1.8,0.6-2.7,1l0,0c-0.4,0.2-0.7,0.3-1.1,0.5c-0.1,0-0.1,0.1-0.2,0.1
				c-0.5,0.2-0.9,0.5-1.4,0.8l0,0c-0.6,0.4-1.2,0.8-1.7,1.2l0,0c-1.3,1-2.3,2.1-3.1,3.3c-0.3,0.5-0.6,1.1-0.8,1.6
				c0,0.1-0.1,0.2-0.1,0.3v0.1c0,0.1,0,0.2-0.1,0.3c-0.1,0.2-0.1,0.4-0.1,0.7c0,0.2,0,0.3,0,0.5c0,0.3,0,0.5,0,0.8s0.1,0.5,0.2,0.8
				c0,0,0,0,0,0.1c0,0,0,0,0,0.1s0.1,0.2,0.1,0.3c0,0.1,0,0.1,0.1,0.2c0.1,0.2,0.1,0.3,0.2,0.5l0,0c0,0,0,0.1,0.1,0.1
				c0.1,0.1,0.1,0.1,0.2,0.2c0.1,0.2,0.2,0.3,0.4,0.5l0,0c0.8,1,2,1.9,3.7,2.6c-2.7,0.6-4.9,1.3-6.3,2.1c-0.2,0.1-0.3,0.2-0.5,0.3
				c-0.5,0.3-0.9,0.7-1.3,1c-0.5,0.5-0.9,1-1.2,1.6c0,0,0,0.1-0.1,0.1c-0.1,0.2-0.3,0.4-0.4,0.6v0.1c0,0.1,0,0.1,0,0.2v0.1
				c0,0.1-0.1,0.2-0.1,0.4c0,0.3,0,0.7,0,1c0,0.1,0,0.2,0.1,0.3c0.1,0.2,0.2,0.5,0.3,0.7l0.1,0.1c0.1,0.1,0.2,0.3,0.3,0.4
				s0.2,0.2,0.3,0.3c1.1,0.9,3,1.6,5.6,2.1c-0.7,0.1-1.3,0.2-1.9,0.3c-1.1,0.2-2.1,0.4-3,0.6c-1.3,0.4-2.5,0.8-3.4,1.3
				c-0.5,0.3-0.9,0.5-1.3,0.8c-0.9,0.6-1.5,1.3-1.9,1.9c-0.1,0.1-0.1,0.2-0.2,0.3c0,0.1,0,0.1-0.1,0.2c0,0.1,0,0.1,0,0.2
				s0,0.2,0,0.4c0,0.3,0,0.6,0,0.9c0.1,0.3,0.2,0.6,0.4,0.9c0,0,0,0.1,0.1,0.1c0,0.1,0.1,0.1,0.1,0.2l0,0l0,0c0,0,0,0,0,0.1
				c0.2,0.2,0.4,0.4,0.6,0.7c0.1,0.1,0.3,0.3,0.4,0.4s0.3,0.2,0.4,0.3l0.1,0.1c0.1,0.1,0.3,0.1,0.4,0.2c0.1,0,0.2,0.1,0.2,0.1l0,0
				c2,1.1,5.1,1.8,9.3,2c0.9,0,1.9,0.1,2.9,0.1c4.5,0,8.5-0.4,11.9-1.3c2.2-0.6,4.2-1.3,6-2.2c0.4-0.2,0.8-0.4,1.2-0.7
				c0.6-0.4,1.2-0.8,1.7-1.2c0.5-0.4,1-0.8,1.4-1.3c0.1-0.1,0.1-0.1,0.2-0.2l0.1-0.1c0-0.1,0.1-0.1,0.1-0.2l0.1-0.1
				c0.2-0.3,0.5-0.6,0.6-0.9C265.5,357.3,265.7,357,265.8,356.8z M258.2,339.9c-2.1,1.4-4.4,2-7,2c-2.6,0-4.4-0.7-5.6-2.1
				c-0.3-0.4-0.5-0.8-0.7-1.2c-0.1-0.2-0.1-0.3-0.1-0.5c0-0.1-0.1-0.3-0.1-0.4c0-0.2-0.1-0.4-0.1-0.6c0-0.1,0-0.3,0-0.5
				s0-0.5,0.1-0.7c0.1-0.6,0.2-1.1,0.4-1.8c0-0.1,0-0.1,0.1-0.2c0.1-0.4,0.3-0.8,0.5-1.1c0.9-1.8,2.1-3.3,3.9-4.4
				c0.1-0.1,0.2-0.1,0.3-0.2c0.6-0.4,1.3-0.7,1.9-1c1.5-0.6,3.1-0.9,4.7-0.9c1.4,0,2.6,0.2,3.6,0.6c0.3,0.1,0.5,0.2,0.7,0.4
				c0.5,0.3,0.9,0.7,1.3,1.1c0.6,0.7,0.9,1.4,1,2.3c0.1,0.4,0.1,0.9,0,1.4c-0.1,0.6-0.2,1.2-0.4,1.9c-0.1,0.4-0.3,0.7-0.5,1.1
				c-0.1,0.3-0.2,0.5-0.4,0.8c0,0.1-0.1,0.2-0.1,0.3c-0.1,0.2-0.2,0.4-0.3,0.5c0,0,0,0,0,0.1c-0.1,0.1-0.2,0.3-0.3,0.4
				C260.3,338.2,259.4,339.1,258.2,339.9z M248.8,363.4c-0.4,0-0.9,0.1-1.3,0.1c-0.1,0-0.2,0-0.3,0c-0.5,0-1.1,0.1-1.7,0.1
				c-0.3,0-0.6,0-0.9,0s-0.6,0-0.9,0c-0.2,0-0.5,0-0.7,0s-0.5,0-0.7,0c-0.7,0-1.3-0.1-1.9-0.1c-0.4,0-0.8-0.1-1.2-0.1
				c-0.4-0.1-0.7-0.1-1.1-0.2c-0.2,0-0.3-0.1-0.5-0.1c-0.5-0.1-0.9-0.2-1.4-0.4c-0.2-0.1-0.4-0.2-0.6-0.2c-0.1,0-0.2-0.1-0.3-0.1
				s-0.1-0.1-0.2-0.1H235c-0.1,0-0.1,0-0.2-0.1h-0.1c-0.1,0-0.2-0.1-0.2-0.1c-0.2-0.1-0.3-0.2-0.4-0.3c-0.1-0.1-0.1-0.1-0.2-0.2
				s-0.2-0.3-0.3-0.4l-0.1-0.1c0-0.1-0.1-0.1-0.1-0.2l0,0c-0.1-0.1-0.1-0.3-0.1-0.4s0-0.1,0-0.2s0-0.2,0-0.3l0,0
				c0-0.2,0-0.5,0.1-0.7c0-0.1,0-0.1,0.1-0.2c0-0.1,0.1-0.2,0.1-0.3c0-0.1,0.1-0.1,0.1-0.2c0.1-0.2,0.3-0.5,0.5-0.7
				c0.3-0.4,0.7-0.7,1.2-1.1c0.6-0.4,1.2-0.8,2-1.1c0.2-0.1,0.4-0.2,0.7-0.3c0.4-0.1,0.8-0.3,1.2-0.4c0.1,0,0.3-0.1,0.4-0.1
				c0.8-0.2,1.6-0.4,2.6-0.5c0.7-0.1,1.5-0.2,2.2-0.3c0.8-0.1,1.7-0.1,2.6-0.2c0.9,0,1.8-0.1,2.7-0.1c0.4,0,0.8,0,1.2,0s0.8,0,1.1,0
				c0.5,0,1,0,1.5,0.1c0.2,0,0.5,0,0.7,0.1c0.6,0.1,1.2,0.1,1.7,0.2c0.4,0.1,0.7,0.1,1,0.2c1.2,0.3,2,0.6,2.6,1.1
				c0.1,0.1,0.2,0.2,0.3,0.3c0.1,0.1,0.2,0.2,0.2,0.3c0.1,0.1,0.2,0.3,0.2,0.4c0.1,0.2,0.2,0.4,0.2,0.6s0,0.5,0,0.8v0.1
				c0,0.1,0,0.1,0,0.2s0,0.1,0,0.2s-0.1,0.3-0.2,0.4l-0.1,0.1c-0.1,0.1-0.2,0.3-0.3,0.4s-0.2,0.3-0.3,0.4c-0.4,0.5-1,0.9-1.7,1.3
				c-0.2,0.1-0.4,0.2-0.5,0.3c-0.2,0.1-0.4,0.2-0.6,0.3c-0.2,0.1-0.4,0.2-0.7,0.3c-0.1,0.1-0.2,0.1-0.3,0.1s-0.2,0.1-0.4,0.1
				c-0.3,0.1-0.6,0.2-0.9,0.3c-0.1,0-0.1,0-0.2,0.1C252.7,362.8,250.9,363.1,248.8,363.4z"/>
			<path class="st1" d="M296,366.3l-1.6-0.7l-1.7-0.6l-1.6-0.6l-1.6-0.6l-1.7-0.5l-1.7-0.5l-1.6-0.4l-1.7-0.4l-1.7-0.4l-1.7-0.3
				l-1.8-0.3l-1.8-0.3l-1.8-0.3l-1.9-0.3l-1.9-0.2l1.6,0.1l1.5,0.1l1.5,0.2l1.5,0.2l1.5,0.2l1.5,0.2l1.5,0.2l1.5,0.2l1.5,0.3
				l9.1,2.1l1.6,0.4l-1.4-0.5l-1.5-0.5l-1.5-0.5l-2.9-0.8l-2.9-0.7l-1.5-0.3l-1.5-0.3l-1.5-0.3l-1.5-0.2l-1.5-0.3l-1.5-0.3l-1.5-0.2
				l-1.6-0.2l-1.6-0.2l1.1-0.1h1.1l2.4,0.1l4.5,0.3L279,359l-1.1-0.2l-2.7-0.5l-0.6-0.1l1.4-0.1c0.1,0,0.2,0,0.3,0l8.4,1.1l-2.7-0.7
				l-1.1-0.2l-1.1-0.2l-1.2-0.2l-1.2-0.2l-1.4-0.2l-1.6-0.2l3.2,0.1l2.6,0.1l2.1,0.1l8.7,0.6l-1.8-0.2l-2-0.2l-4.2-0.6l-2.2-0.2
				l-2.1-0.3l-2-0.3l-1.8-0.2l1.8,0.1h3.5c0,0-3.2-0.4-3.9-0.4l-3-0.2l-2.7-0.1h-1.8c0,0.2-0.1,0.5-0.2,0.8h0.2l1.5,0.1l-1.7,0.1
				c0,0.1-0.1,0.3-0.1,0.4c-0.2,0.6-0.5,1.2-0.9,1.9c-0.3,0.4-0.6,0.8-0.8,1.1l-0.1,0.1l-0.1,0.1c-0.1,0.1-0.2,0.3-0.4,0.5
				c-0.3,0.3-0.5,0.6-0.8,0.8h3l3.9,0.2l3.7,0.4l3.6,0.6l3.5,0.8l3.6,0.9l3.6,0.9l3.8,1l4.1,1L296,366.3z"/>
			<path class="st1" d="M228.9,365.3c-0.2-0.1-0.4-0.2-0.7-0.4c-0.2-0.2-0.4-0.3-0.5-0.4l-0.1-0.1c-0.5-0.4-0.9-0.8-1.3-1.2l-1,0.4
				l-2.4,1l-2.6,1.1l1.5-0.9l1.4-0.9l1.5-0.8l1.2-0.5c-0.2-0.4-0.4-0.8-0.6-1.2l-1.3,0.7l-1.6,0.9l-1.6,1l-1.4,1l-1.3,1l0.2,0.4
				l0.3,0.2l0.2,0.3l-0.3,0.8l0.4,0.6l-0.5,0.9l-0.2,1.2v0.9l0.3,0.5h0.8l8.5-2.8l6.1-1.8c-1.9-0.4-3.5-0.9-4.8-1.6
				C229,365.3,228.9,365.3,228.9,365.3z"/>
			<path class="st1" d="M259.9,330.9c-0.2-0.6-0.6-1-1.1-1.4c-0.8-0.5-1.8-0.8-3.1-0.8c-0.5,0-1,0-1.5,0.1c-1.2,0.2-2.4,0.7-3.5,1.4
				c-0.9,0.6-1.5,1.2-2.1,2c-0.3,0.4-0.6,0.9-0.8,1.4c-0.1,0.2-0.2,0.5-0.3,0.7c-0.2,0.5-0.2,0.9-0.3,1.3c0,0.3,0,0.5,0,0.7
				c0,0.1,0,0.2,0.1,0.4c0,0.2,0.1,0.4,0.2,0.6c0.1,0.1,0.1,0.3,0.2,0.4c0.1,0.2,0.2,0.3,0.3,0.4l0,0c0.9,1,2.2,1.5,4.1,1.5
				c0.8,0,1.5-0.1,2.2-0.3c1.4-0.3,2.8-1.1,4.1-2.1c0.2-0.2,0.4-0.3,0.6-0.5l0.1-0.1c0.1-0.1,0.2-0.1,0.2-0.2l-0.8-0.3
				c-0.2,0.2-0.4,0.3-0.6,0.5c-0.1,0.1-0.2,0.1-0.3,0.2c-0.2,0.2-0.5,0.4-0.7,0.5c-0.8,0.6-1.7,1-2.5,1.1c-0.4,0.1-0.8,0.1-1.3,0.1
				c-1.1,0-1.9-0.3-2.5-0.8c-0.1-0.1-0.2-0.2-0.3-0.3v-0.1c-0.1-0.1-0.1-0.2-0.2-0.4c-0.1-0.2-0.1-0.4-0.1-0.6c0-0.1,0-0.3,0-0.4
				c0-0.2,0-0.5,0.1-0.7c0.1-0.4,0.1-0.7,0.2-1.2h4h5.7c0.3-0.8,0.4-1.6,0.4-2.2c0-0.1,0-0.3,0-0.4
				C260.2,331.4,260,331.2,259.9,330.9z M257.8,332.3c-0.1,0.4-0.4,0.7-0.6,0.9c-0.3,0.2-0.6,0.3-0.9,0.3h-2.1h-3.8
				c0-0.1,0.1-0.2,0.1-0.3c0.2-0.5,0.4-0.9,0.7-1.3c0.4-0.6,0.8-1.1,1.3-1.4c0.5-0.4,1.1-0.7,1.6-0.8c0.4-0.1,0.9-0.2,1.3-0.2
				c0.9,0,1.6,0.3,2,0.9c0.2,0.2,0.3,0.5,0.4,0.8C258,331.4,258,331.9,257.8,332.3L257.8,332.3z"/>
		</g>
	</g>
</g>
</svg>
