<?xml version="1.0" encoding="utf-8"?>
<!-- Generator: Adobe Illustrator 24.0.0, SVG Export Plug-In . SVG Version: 6.00 Build 0)  -->
<svg version="1.1" id="Capa_1" xmlns="http://www.w3.org/2000/svg" xmlns:xlink="http://www.w3.org/1999/xlink" x="0px" y="0px"
	 viewBox="0 0 309.32 309.32" style="enable-background:new 0 0 309.32 309.32;" xml:space="preserve">
<style type="text/css">
	.st0{fill:none;stroke:#1D1D1B;stroke-width:5;stroke-miterlimit:10;}
	.st1{fill:#1D1D1B;}
</style>
<g>
	<g>
		<path class="st0" d="M105.03,116.07v173.96h162.32V95.56C264,23.24,240.4,19.29,240.4,19.29H73.5
			c13.59,0.33,21.71,23.99,26.3,45.61C103.37,81.72,105.03,98.88,105.03,116.07z"/>
		<path class="st0" d="M73.5,19.29c-17.42,0-31.54,43.75-31.54,97.71c0,53.97,14.12,97.71,31.54,97.71
			c17.42,0,31.54-43.75,31.54-97.71C105.03,63.04,90.91,19.29,73.5,19.29z M72.48,159.63c-6,0-10.86-18.89-10.86-42.2
			c0-23.31,4.86-42.2,10.86-42.2s10.86,18.89,10.86,42.2C83.35,140.74,78.48,159.63,72.48,159.63z"/>
		<path class="st0" d="M73.5,214.71h31.54v-76.32c-6.98,68.89-27.79,76.32-27.79,76.32"/>
	</g>
	<g id="LOGO_GAMA_4_">
		<g>
			<path class="st1" d="M236.45,154.24l-3.5-0.42l-2.12-0.28c-0.03,0.05-0.07,0.1-0.1,0.15c-0.06,0.11-0.13,0.22-0.19,0.33
				l8.99,0.63L236.45,154.24z"/>
			<path class="st1" d="M144.26,168.92l5.94-1.58c-0.05-1.38,0.13-2.83,0.55-4.33c0.01-0.04,0.02-0.08,0.03-0.12
				c0.04-0.2,0.11-0.51,0.24-0.87c0.78-2.28,2.02-4.41,3.7-6.38l-2.32,0.39l-4.22,0.73l-3.86,0.95l-3.53,1.09l-3.47,1l-3.3,1.31
				l-3.58,1.37l-3.66,1.45l-4.05,1.7l-4.52,1.81l2.53-1.51l2.42-1.48l2.53-1.37l2.58-1.14l2.69-1.2l2.66-1.12l2.75-1.09l2.86-0.95
				l2.94-0.84l2.97-0.84l3.08-0.7l3.19-0.67l3.33-0.64l1.92-0.28c0.85-0.79,1.78-1.55,2.79-2.28l-1.13,0.16l-3.75,0.53l-3.64,0.73
				l-3.66,0.64l-3.5,0.84l-3.5,0.84l-3.39,1.09l-3.28,1.12l-3.16,1.14l-3.08,1.31l-2.83,1.42l-2.75,1.51l-2.72,1.73l-2.33,1.65
				l-2.25,1.79l0.31,0.67l0.56,0.31l0.33,0.53l-0.5,1.42l0.67,0.95l-0.92,1.51l-0.42,2.01v1.56l0.53,0.84l1.36-0.08l14.6-4.74
				L144.26,168.92z"/>
			<path class="st1" d="M240.03,165.1l-2.75-0.95l-2.94-0.84l-2.86-0.84l-2.83-0.75l-3-0.73l-2.94-0.67l-2.97-0.59l-3.03-0.53
				l-1.67-0.29c0.05,0.73,0.02,1.48-0.07,2.24l4.57,0.79l6.02,1.37l6.11,1.48l6.16,1.56l6.5,1.79l7,1.73l-2.86-1.31l-2.75-1.26
				l-2.86-1.12L240.03,165.1z"/>
			<path class="st1" d="M214.99,158.33l1.89,0.21l0.13,0.02c-0.95-0.43-1.67-0.99-2.21-1.58c-0.04-0.04-0.08-0.09-0.12-0.13
				c0.01,0.04,0.03,0.08,0.04,0.12c0.05,0.15,0.11,0.35,0.15,0.58C214.92,157.8,214.96,158.07,214.99,158.33z"/>
			<path class="st1" d="M232.95,160.74l-4.94-1.26l-2.53-0.53l-1.12-0.23c-0.99,0.34-1.95,0.53-2.9,0.58l0.43,0.07l2.53,0.42
				l2.53,0.53l15.69,3.56l2.8,0.69l-2.47-0.84l-2.53-0.84l-2.53-0.78L232.95,160.74z"/>
			<path class="st1" d="M207.31,173.78c-0.07,0.06-0.15,0.11-0.22,0.17l1.79,0.16l2.61,0.17l2.55,0.36l2.53,0.31l2.53,0.28
				l2.53,0.42l2.5,0.42l2.53,0.42l2.53,0.53l15.69,3.56l2.8,0.69l-2.47-0.84l-2.53-0.84l-2.53-0.78l-4.97-1.37l-4.94-1.26
				l-2.53-0.53l-2.53-0.53l-2.58-0.47l-2.53-0.42l-2.61-0.47l-2.66-0.47l-2.61-0.42l-2.78-0.36l-0.56-0.08
				C208.36,172.88,207.85,173.34,207.31,173.78z"/>
			<path class="st1" d="M247.94,183.99l-2.86-1.12l-2.83-1.09l-2.75-0.95l-2.94-0.84l-2.86-0.84l-2.83-0.75l-3-0.73l-2.94-0.67
				l-2.97-0.59l-3.03-0.53l-3.16-0.56l-3.08-0.53l-3.28-0.53l-2.36-0.3c-1.13,0.89-2.41,1.74-3.85,2.54l5.99,0.32l6.44,0.73
				l6.13,1.06l6.02,1.37l6.11,1.48l6.16,1.56l6.5,1.79l7,1.73l-2.86-1.31L247.94,183.99z"/>
			<path class="st1" d="M141.85,186.96c0.01-0.03,0.01-0.06,0.02-0.09l0.01-0.05c0.03-0.22,0.09-0.59,0.24-1.03
				c0.23-0.68,0.57-1.19,0.78-1.49c0.02-0.03,0.05-0.07,0.07-0.1c1.26-2.48,3.09-4.46,5.58-6.05c1.44-0.93,3.21-1.77,5.32-2.55
				c-0.59-0.61-1.11-1.25-1.56-1.92l-0.04-0.06c-0.08-0.11-0.2-0.26-0.33-0.45l-1.54,0.26l-3.86,0.95l-3.53,1.09l-3.47,1l-3.3,1.31
				l-3.58,1.37l-3.66,1.45l-4.05,1.7l-4.52,1.81l2.53-1.51l2.42-1.48l2.53-1.37l2.58-1.14l2.69-1.2l2.66-1.12l2.75-1.09l2.86-0.95
				l2.94-0.84l2.97-0.84l3.08-0.7l0.78-0.16c-0.07-0.17-0.13-0.33-0.19-0.48l-0.06-0.16c-0.15-0.4-0.27-0.8-0.38-1.2l-1.1,0.19
				l-3.5,0.84l-3.5,0.84l-3.39,1.09l-3.28,1.12l-3.16,1.14l-3.08,1.31l-2.83,1.42l-2.75,1.51l-2.72,1.73l-2.33,1.65l-2.25,1.79
				l0.31,0.67l0.56,0.31l0.33,0.53l-0.5,1.42l0.67,0.95l-0.92,1.51l-0.42,2.01v1.56l0.53,0.84l1.36-0.08l14.6-4.74L141.85,186.96z"
				/>
			<path class="st1" d="M212.97,166.75c-0.07,0.13-0.13,0.26-0.19,0.39c-0.17,0.37-0.39,0.81-0.68,1.28
				c-0.05,0.1-0.12,0.21-0.2,0.33c-0.8,1.18-1.66,2.24-2.6,3.21h1.28l4.06,0.18l7.66,0.57l-1.17-0.22l-1.91-0.34l-4.56-0.8
				l-1.05-0.22l2.37-0.13c0.17,0.01,0.34,0.01,0.51,0.02l14.39,1.85l-4.64-1.2l-1.94-0.42l-1.89-0.31l-2-0.33l-2.11-0.31l-2.44-0.31
				l-2.75-0.36l5.5,0.25l4.47,0.22l3.66,0.2l15.02,1.06l-3.08-0.42l-3.5-0.42l-7.3-0.95l-3.75-0.42l-3.64-0.53l-3.5-0.53l-3.16-0.42
				l3.08,0.11l6-0.04c0,0-5.57-0.7-6.67-0.77l-3.25-0.24C212.98,166.73,212.97,166.74,212.97,166.75z"/>
			<path class="st1" d="M133.09,206.43c0-0.04,0.01-0.07,0.01-0.11c0.03-0.33,0.07-0.88,0.3-1.52c1-2.95,3.45-5.43,7.47-7.58
				c1.11-0.6,2.38-1.15,3.8-1.65c-0.68-0.6-1.27-1.28-1.75-2.02c-0.14-0.21-0.27-0.43-0.38-0.66l-0.81,0.23l-3.3,1.31l-3.58,1.37
				l-3.66,1.45l-4.05,1.7l-4.52,1.81l2.53-1.51l2.42-1.48l2.53-1.37l2.58-1.14l2.69-1.2l2.66-1.12l2.75-1.09l1.21-0.4
				c-0.08-0.26-0.14-0.52-0.2-0.79c-0.08-0.42-0.13-0.85-0.15-1.28l-0.33,0.11l-3.28,1.12l-3.16,1.14l-3.08,1.31l-2.83,1.42
				l-2.75,1.51l-2.72,1.73l-2.33,1.65l-2.25,1.79l0.31,0.67l0.56,0.31l0.33,0.53l-0.5,1.42l0.67,0.95l-0.92,1.51l-0.42,2.01v1.56
				l0.53,0.84l1.36-0.08l12.26-3.98C133.06,206.73,133.07,206.58,133.09,206.43z"/>
			<path class="st1" d="M191.18,185.54c5.08,0.57,8.86,1.68,11.42,3.36c1.33,0.87,2.44,1.96,3.37,3.33c0.2,0.3,0.41,0.63,0.6,0.99
				l4.81,0.26l6.44,0.73l6.13,1.06l6.02,1.37l6.11,1.48l6.16,1.56l6.5,1.79l7,1.73l-2.86-1.31l-2.75-1.26l-2.86-1.12l-2.83-1.09
				l-2.75-0.95l-2.94-0.84l-2.86-0.84l-2.83-0.75l-3-0.73l-2.94-0.67l-2.97-0.59l-3.03-0.53l-3.16-0.56l-3.08-0.53l-3.28-0.53
				l-3.3-0.42l2.78,0.25l2.61,0.17l2.55,0.36l2.53,0.31l2.53,0.28l2.53,0.42l2.5,0.42l2.53,0.42l2.53,0.53l15.69,3.56l2.8,0.69
				l-2.47-0.84l-2.53-0.84l-2.53-0.78l-4.97-1.37l-4.94-1.26l-2.53-0.53l-2.53-0.53l-2.58-0.47l-2.53-0.42l-2.61-0.47l-2.66-0.47
				l-2.61-0.42l-2.78-0.36l-2.75-0.42l1.97-0.11h1.94l4.06,0.18l7.66,0.57l-1.17-0.22l-1.91-0.34l-4.56-0.8l-1.05-0.22l2.37-0.13
				c0.17,0.01,0.34,0.01,0.51,0.02l14.39,1.85l-4.64-1.2l-1.94-0.42l-1.89-0.31l-2-0.33l-2.11-0.31l-2.44-0.31l-2.75-0.36l5.5,0.25
				l4.47,0.22l3.66,0.2l15.02,1.06l-3.08-0.42l-3.5-0.42l-7.3-0.95l-3.75-0.42l-3.64-0.53l-3.5-0.53l-3.16-0.42l3.08,0.11l6-0.04
				c0,0-5.57-0.7-6.67-0.77l-5.24-0.39l-4.64-0.17l-4.89-0.11l-5.08-0.14h-5.3l-5.36,0.14l-5.41,0.17l-5.5,0.36l-5.52,0.42
				l-1.33,0.11l-3.72,0.31l-3.72,0.53l-2.61,0.37c0.27,0.02,0.55,0.04,0.86,0.06c0.83,0.05,1.75,0.07,2.74,0.07l13.43-0.18
				l0.18-0.01l2.03-0.11l2.19-0.2l2.22-0.11l2.19-0.11l2.19-0.14l2.36-0.06h2.39h2.42l2.55-0.11h2.42h2.55h2.64l2.55,0.11
				l-10.49,0.61L191.18,185.54z"/>
			<path class="st1" d="M255.06,218.51l-2.75-1.26l-2.86-1.12l-2.83-1.09l-2.75-0.95l-2.94-0.84l-2.86-0.84l-2.83-0.75l-3-0.73
				l-2.94-0.67l-2.97-0.59l-3.03-0.53l-3.16-0.56l-3.08-0.53l-3.28-0.53l-3.3-0.42l2.78,0.25l2.61,0.17l2.55,0.36l2.53,0.31
				l2.53,0.28l2.53,0.42l2.5,0.42l2.53,0.42l2.53,0.53l15.69,3.56l2.8,0.69l-2.47-0.84l-2.53-0.84l-2.53-0.78l-4.97-1.37l-4.94-1.26
				l-2.53-0.53l-2.53-0.53l-2.58-0.47l-2.53-0.42l-2.61-0.47l-2.66-0.47l-2.61-0.42l-2.78-0.36l-2.75-0.42l1.97-0.11h1.94l4.06,0.18
				l7.66,0.57l-1.17-0.22l-1.91-0.34l-4.56-0.8l-1.05-0.22l2.37-0.13c0.17,0.01,0.34,0.01,0.51,0.02l14.39,1.85l-4.64-1.2
				l-1.94-0.42l-1.89-0.31l-2-0.33l-2.11-0.31l-2.44-0.31l-2.75-0.36l5.5,0.25l4.47,0.22l3.66,0.2l15.02,1.06l-3.08-0.42l-3.5-0.42
				l-7.3-0.95l-3.75-0.42l-3.64-0.53l-3.5-0.53l-3.16-0.42l3.08,0.11l6-0.04c0,0-5.57-0.7-6.67-0.77l-5.24-0.39l-4.64-0.17
				l-3.11-0.07c-0.06,0.43-0.16,0.87-0.28,1.33h0.3l2.55,0.11l-2.93,0.17c-0.07,0.24-0.14,0.48-0.23,0.73
				c-0.36,1.06-0.87,2.12-1.61,3.34c-0.45,0.73-0.96,1.36-1.41,1.92l-0.11,0.13c-0.05,0.07-0.1,0.13-0.16,0.2
				c-0.18,0.22-0.4,0.5-0.66,0.8c-0.45,0.49-0.93,0.96-1.43,1.42h5.14l6.75,0.36l6.44,0.73l6.13,1.06l6.02,1.37l6.11,1.48l6.16,1.56
				l6.5,1.79l7,1.73L255.06,218.51z"/>
			<path class="st1" d="M203.02,202.24c0.13-0.26,0.26-0.53,0.37-0.8c0.07-0.17,0.13-0.34,0.2-0.51c0.02-0.05,0.04-0.1,0.06-0.15
				c0.15-0.44,0.26-0.86,0.35-1.27c0.05-0.24,0.09-0.48,0.11-0.71c0.19-1.67-0.17-3.14-1.03-4.44c-0.02-0.04-0.04-0.07-0.07-0.11
				c-0.27-0.4-0.58-0.78-0.93-1.15c-0.05-0.05-0.09-0.09-0.14-0.14c-0.38-0.38-0.81-0.73-1.31-1.06c-0.65-0.43-1.43-0.81-2.31-1.16
				c-3.57-1.39-9.02-2.08-16.36-2.08l-18.23,0.25c-0.93,0-1.79-0.02-2.57-0.06c-0.13-0.01-0.26-0.01-0.39-0.02
				c-0.25-0.01-0.49-0.03-0.73-0.05l0,0c-0.86-0.06-1.61-0.15-2.27-0.27c-0.58-0.1-1.08-0.22-1.49-0.36
				c-0.24-0.08-0.45-0.17-0.64-0.27l0,0c-0.04-0.02-0.09-0.04-0.13-0.06c-0.03-0.02-0.03-0.05-0.06-0.06c0,0,0,0,0,0c0,0,0,0,0,0
				c-0.18-0.11-0.33-0.23-0.46-0.35c-0.36-0.34-0.56-0.73-0.65-1.17c-0.03-0.13-0.05-0.26-0.06-0.39c-0.02-0.25-0.07-0.49-0.05-0.75
				c0-0.03,0-0.05,0-0.08c0.01-0.1,0.03-0.2,0.07-0.31c0.1-0.29,0.28-0.54,0.47-0.78c0.11-0.15,0.23-0.29,0.33-0.44
				c0.06-0.08,0.12-0.17,0.19-0.25c0.11-0.14,0.23-0.29,0.35-0.43c0.67-0.75,1.54-1.4,2.76-1.89c0.55-0.21,1.21-0.4,1.99-0.55
				c2.26-0.46,5.5-0.69,9.74-0.69h0.49h2.26h5.24c4.36,0,9.22-0.88,14.59-2.63c0.04-0.01,0.08-0.03,0.12-0.04
				c0.06-0.02,0.12-0.04,0.18-0.07c0.39-0.13,0.78-0.26,1.16-0.4c2.45-0.87,4.62-1.79,6.5-2.77c1.7-0.89,3.16-1.83,4.38-2.82
				c0.99-0.8,1.84-1.65,2.58-2.54c0.47-0.56,0.89-1.13,1.29-1.71c0.02-0.04,0.03-0.08,0.06-0.11c0.03-0.04,0.05-0.08,0.07-0.12
				c0.25-0.4,0.44-0.82,0.64-1.23c0.03-0.06,0.06-0.12,0.09-0.18c0.02-0.04,0.05-0.09,0.07-0.13c0.23-0.43,0.5-0.85,0.72-1.29
				c0.11-0.21,0.2-0.41,0.28-0.63c0.28-0.83,0.47-1.62,0.56-2.39c0.1-0.83,0.08-1.62-0.06-2.39c0-0.02-0.01-0.05-0.01-0.07
				c-0.01-0.07-0.04-0.15-0.07-0.22c-0.01-0.04-0.03-0.08-0.04-0.11c0-0.01-0.01-0.02-0.01-0.02c-0.11-0.49-0.29-1.01-0.52-1.56
				c-0.05-0.12-0.1-0.23-0.15-0.35c-0.09-0.19-0.18-0.38-0.28-0.57c-0.1-0.2-0.21-0.41-0.33-0.62c-0.02-0.03-0.04-0.06-0.05-0.09
				c-0.1-0.18-0.19-0.35-0.29-0.53c-0.22-0.4-0.44-0.81-0.74-1.25c0.08-0.05,0.16-0.09,0.24-0.12c0.11-0.05,0.22-0.1,0.34-0.17
				c0.17-0.1,0.32-0.15,0.48-0.24c0.93-0.52,1.8-0.93,2.62-1.24c0.07-0.03,0.14-0.06,0.21-0.08c0.02-0.01,0.04-0.01,0.06-0.02
				c0.83-0.29,1.59-0.45,2.27-0.45c0.49,0,0.85,0.15,1.1,0.43c0.03,0.03,0.05,0.06,0.07,0.1c0.11,0.16,0.19,0.35,0.23,0.57
				c0.03,0.14,0.05,0.28,0.05,0.45c0,0.04,0.01,0.06,0.02,0.09c0.01,0.03,0.01,0.06,0.02,0.09c0.01,0.03,0.02,0.06,0.02,0.1
				c0.01,0.13,0.03,0.25,0.05,0.38c0.02,0.15,0.05,0.3,0.09,0.44c0.04,0.16,0.09,0.32,0.15,0.46c0.01,0.02,0.02,0.04,0.03,0.06
				c0.05,0.1,0.1,0.19,0.16,0.29c0.17,0.29,0.38,0.54,0.63,0.75c0.22,0.19,0.47,0.36,0.75,0.49c0.66,0.31,1.49,0.47,2.49,0.47
				c0.65,0,1.3-0.11,1.93-0.3c0.4-0.12,0.81-0.27,1.21-0.44c0.03-0.01,0.06-0.02,0.09-0.04c0.23-0.1,0.46-0.18,0.68-0.28
				c0.13-0.06,0.25-0.12,0.38-0.19c0.17-0.1,0.33-0.21,0.48-0.32c0.19-0.14,0.36-0.28,0.53-0.43c0.16-0.15,0.31-0.3,0.45-0.45
				c0.07-0.08,0.14-0.16,0.2-0.24c0.28-0.35,0.52-0.71,0.72-1.1c0.1-0.19,0.25-0.35,0.32-0.55c0-0.01,0.01-0.02,0.01-0.02
				c0.01-0.02,0.03-0.04,0.04-0.07c0,0,0,0,0,0c0,0,0,0,0,0c0.03-0.08,0.04-0.16,0.05-0.24c0-0.01,0.01-0.02,0.01-0.03
				c0-0.04,0-0.08,0.01-0.13c0.01-0.22-0.02-0.43,0-0.65c0.03-0.39,0.17-0.8,0.07-1.15c-0.05-0.19-0.18-0.35-0.31-0.51
				c-0.07-0.09-0.15-0.19-0.2-0.28c-0.08-0.13-0.15-0.26-0.23-0.39c-0.06-0.09-0.12-0.18-0.2-0.27c-0.08-0.09-0.11-0.2-0.17-0.3
				c-0.02-0.03-0.05-0.06-0.08-0.09c-0.02-0.02-0.06-0.02-0.08-0.04c-0.02-0.01-0.04-0.02-0.06-0.03c-0.02-0.01-0.04-0.02-0.06-0.03
				c-0.02-0.01-0.05-0.02-0.07-0.04c-0.4-0.32-0.86-0.59-1.37-0.81c-1.04-0.45-2.32-0.7-3.88-0.7c-1.13,0-2.36,0.16-3.64,0.42
				c-0.06,0.01-0.13,0.04-0.19,0.05c-0.22,0.05-0.45,0.11-0.69,0.18c-0.15,0.04-0.3,0.09-0.44,0.12c-1.68,0.44-3.47,1.08-5.37,1.92
				c-1.05,0.46-2.13,0.98-3.25,1.58c-0.57,0.3-1.14,0.61-1.73,0.95c-0.06-0.03-0.12-0.07-0.19-0.1c-0.65-0.36-1.31-0.69-1.99-0.99
				c-1.47-0.66-3.02-1.2-4.62-1.65c-0.06-0.02-0.11-0.03-0.17-0.05c-0.41-0.11-0.78-0.27-1.2-0.37c-0.37-0.09-0.78-0.13-1.17-0.2
				c-0.07-0.01-0.15-0.02-0.22-0.04c-1.63-0.32-3.31-0.55-5.07-0.68c-1.01-0.08-2.05-0.12-3.12-0.12c-4.7,0-9.04,0.56-13.09,1.56
				c-0.7,0.17-1.39,0.37-2.08,0.58c-1.59,0.48-3.13,1.04-4.62,1.68c-0.02,0.01-0.04,0.01-0.05,0.02c-0.61,0.26-1.24,0.49-1.85,0.76
				c-0.12,0.05-0.23,0.1-0.35,0.16c-0.84,0.42-1.63,0.85-2.38,1.3l0,0c-1.07,0.64-2.06,1.3-2.97,1.99l0,0
				c-2.26,1.71-4,3.59-5.22,5.63c-0.56,0.93-1.01,1.89-1.35,2.89c-0.04,0.11-0.07,0.22-0.09,0.33c-0.04,0.15-0.06,0.3-0.11,0.46
				c-0.05,0.16-0.09,0.32-0.13,0.49c-0.09,0.38-0.16,0.75-0.21,1.11c-0.04,0.27-0.07,0.55-0.08,0.82c-0.03,0.48-0.02,0.95,0.03,1.4
				c0.05,0.5,0.16,0.99,0.3,1.47c0,0.01,0.01,0.02,0.01,0.04c0,0.02,0.01,0.03,0.01,0.05c0.05,0.17,0.11,0.33,0.17,0.5
				c0.04,0.09,0.07,0.18,0.1,0.28c0.11,0.3,0.23,0.6,0.39,0.89c0.01,0.03,0.03,0.05,0.04,0.08c0.03,0.06,0.08,0.12,0.12,0.18
				c0.09,0.13,0.19,0.25,0.28,0.38c0.19,0.29,0.41,0.57,0.64,0.85l0,0c1.41,1.7,3.5,3.2,6.33,4.48c-4.69,1.04-8.31,2.26-10.84,3.67
				c-0.31,0.17-0.61,0.35-0.9,0.53c-0.94,0.6-1.71,1.25-2.37,1.93c-0.77,0.8-1.38,1.66-1.85,2.55c-0.04,0.07-0.08,0.14-0.12,0.22
				c-0.18,0.37-0.49,0.69-0.63,1.07c-0.02,0.06-0.04,0.12-0.05,0.18c-0.02,0.09-0.03,0.18-0.05,0.27c-0.01,0.08-0.03,0.16-0.05,0.24
				c-0.05,0.21-0.09,0.41-0.12,0.61c-0.09,0.59-0.08,1.16,0.02,1.69c0.03,0.15,0.07,0.3,0.11,0.45c0.12,0.41,0.29,0.81,0.53,1.18
				c0.05,0.08,0.11,0.16,0.17,0.25c0.16,0.22,0.34,0.44,0.54,0.64c0.15,0.16,0.31,0.31,0.49,0.46c1.9,1.6,5.15,2.82,9.71,3.66
				c-1.06,0.14-2.06,0.29-3.03,0.45c-2.12,0.35-4.03,0.76-5.73,1.23c-2.19,0.6-4.04,1.3-5.51,2.1c-0.81,0.44-1.55,0.88-2.2,1.34
				c-1.55,1.09-2.63,2.25-3.25,3.47c0,0.01-0.01,0.01-0.01,0.02c0,0,0,0.01,0,0.01c-0.08,0.15-0.14,0.31-0.2,0.46
				c-0.04,0.09-0.08,0.19-0.11,0.29c-0.04,0.11-0.06,0.23-0.08,0.34c-0.03,0.22-0.04,0.43-0.07,0.65c-0.08,0.54-0.07,1.07,0.03,1.58
				c0.13,0.69,0.43,1.36,0.89,2.01c0,0,0,0,0,0c0,0,0,0,0,0c0.02,0.03,0.05,0.07,0.08,0.1c0.29,0.39,0.64,0.77,1.04,1.15
				c0.24,0.22,0.48,0.44,0.76,0.65c0.24,0.19,0.44,0.38,0.68,0.56c0.07,0.05,0.14,0.1,0.21,0.15c0,0,0.01,0,0.01,0
				c0.1,0.06,0.21,0.12,0.33,0.18c0.02,0.01,0.03,0.01,0.05,0.02c0.11,0.05,0.23,0.1,0.35,0.15c0.14,0.06,0.28,0.12,0.41,0.19
				c3.51,1.92,8.78,3.07,15.92,3.42c1.57,0.08,3.22,0.12,4.96,0.12c7.58,0,14.28-0.71,20.1-2.13c3.95-0.96,7.51-2.25,10.66-3.87
				c0.72-0.36,1.39-0.74,2.03-1.12c1.1-0.66,2.1-1.35,2.99-2.08c0.85-0.69,1.61-1.4,2.29-2.14c0.11-0.12,0.21-0.25,0.32-0.37
				c0.04-0.05,0.08-0.1,0.12-0.15c0.08-0.1,0.15-0.2,0.23-0.29c0.05-0.07,0.11-0.13,0.16-0.2c0.39-0.48,0.77-0.96,1.08-1.46
				C202.6,203.03,202.82,202.64,203.02,202.24z M190.05,173.05c-3.61,2.33-7.61,3.5-12.02,3.5c-4.42,0-7.62-1.21-9.63-3.59
				c-0.53-0.63-0.9-1.35-1.17-2.13c-0.09-0.27-0.17-0.54-0.24-0.81c-0.06-0.24-0.12-0.48-0.16-0.73c-0.06-0.34-0.11-0.69-0.13-1.05
				c-0.01-0.25-0.01-0.51,0-0.77c0.01-0.41,0.04-0.83,0.1-1.26c0.13-0.95,0.35-1.95,0.69-3.02c0.04-0.12,0.07-0.23,0.11-0.35
				c0.24-0.69,0.55-1.31,0.85-1.95c1.48-3.14,3.66-5.68,6.68-7.56c0.15-0.09,0.3-0.18,0.45-0.27c1.08-0.65,2.19-1.19,3.34-1.64
				c2.55-0.99,5.27-1.5,8.16-1.5c2.38,0,4.41,0.36,6.11,1.07c0.45,0.19,0.88,0.4,1.28,0.64c0.85,0.5,1.6,1.12,2.23,1.84
				c1,1.12,1.57,2.45,1.77,3.97c0.1,0.74,0.1,1.53,0.01,2.36c-0.11,1.01-0.35,2.09-0.75,3.25c-0.22,0.64-0.51,1.21-0.78,1.81
				c-0.2,0.44-0.41,0.88-0.62,1.3c-0.08,0.16-0.16,0.33-0.25,0.49c-0.18,0.32-0.39,0.61-0.59,0.92c-0.02,0.04-0.05,0.07-0.07,0.11
				c-0.17,0.25-0.34,0.51-0.51,0.75C193.57,170.25,191.98,171.81,190.05,173.05z M155.21,199.28c1.11-0.44,2.36-0.82,3.76-1.15
				c0.7-0.16,1.43-0.32,2.2-0.45c0.39-0.07,0.78-0.13,1.18-0.2c1.21-0.19,2.5-0.34,3.87-0.46c0.91-0.08,1.86-0.15,2.84-0.21
				c0.53-0.03,1.07-0.05,1.62-0.08c1.49-0.06,3.06-0.09,4.7-0.09h0c0.71,0,1.39,0.01,2.05,0.02c0.66,0.01,1.29,0.03,1.91,0.05
				c0.45,0.01,0.89,0.03,1.32,0.05c0.43,0.02,0.84,0.04,1.25,0.07c0.4,0.03,0.79,0.05,1.17,0.09c1.13,0.09,2.15,0.22,3.04,0.36
				c0.6,0.1,1.15,0.21,1.64,0.33c0.25,0.06,0.49,0.12,0.73,0.18c0.47,0.13,0.91,0.27,1.31,0.42c0.2,0.07,0.4,0.15,0.59,0.23
				c0.5,0.21,0.95,0.45,1.34,0.7c0.19,0.12,0.36,0.24,0.52,0.37c0.01,0.01,0.02,0.01,0.03,0.02c0.17,0.13,0.32,0.27,0.47,0.42
				c0.14,0.14,0.27,0.29,0.38,0.45c0.09,0.12,0.17,0.24,0.24,0.36c0.06,0.09,0.1,0.19,0.15,0.29h0c0.07,0.15,0.14,0.3,0.19,0.46
				c0.04,0.13,0.07,0.25,0.1,0.38c0.02,0.08,0.03,0.17,0.04,0.25h0c0.02,0.17,0.04,0.34,0.05,0.52c0,0.26-0.01,0.52-0.05,0.79
				c-0.01,0.08-0.01,0.15-0.02,0.23c-0.01,0.22,0,0.45-0.08,0.68c-0.1,0.3-0.33,0.58-0.5,0.88c-0.26,0.46-0.57,0.91-0.99,1.35
				c-0.64,0.68-1.44,1.34-2.43,1.99c-0.42,0.28-0.88,0.55-1.37,0.82c-0.16,0.09-0.33,0.18-0.5,0.27c-0.51,0.27-1.06,0.53-1.65,0.79
				c-0.19,0.09-0.39,0.17-0.6,0.26c-0.2,0.09-0.41,0.17-0.62,0.25c-0.51,0.2-1.05,0.4-1.6,0.58c-0.39,0.13-0.78,0.25-1.18,0.37
				c-0.4,0.12-0.82,0.23-1.24,0.34c-0.73,0.18-1.48,0.35-2.26,0.51c-1.56,0.31-3.23,0.56-5.01,0.74c-0.36,0.04-0.74,0.07-1.11,0.11
				c-0.38,0.03-0.76,0.06-1.14,0.09c-0.17,0.01-0.33,0.03-0.5,0.04c-1.42,0.09-2.89,0.15-4.43,0.17c-0.51,0.01-1.03,0.01-1.56,0.01
				c-0.42,0-0.82,0-1.23-0.01c-1.61-0.03-3.1-0.1-4.49-0.23c-1.04-0.1-2.02-0.22-2.94-0.38c-0.92-0.15-1.78-0.34-2.58-0.55
				c-0.27-0.07-0.53-0.14-0.78-0.22c-0.51-0.15-0.99-0.32-1.44-0.49c-0.45-0.18-0.88-0.37-1.29-0.57c-0.14-0.07-0.32-0.13-0.47-0.19
				c-0.05-0.02-0.1-0.05-0.14-0.07c-0.15-0.08-0.29-0.17-0.43-0.25c-0.27-0.17-0.52-0.35-0.74-0.54c-0.11-0.09-0.22-0.19-0.32-0.29
				c-0.42-0.41-0.7-0.87-0.89-1.35c-0.02-0.05-0.04-0.09-0.05-0.14c-0.06-0.18-0.11-0.36-0.15-0.55c-0.06-0.29-0.1-0.58-0.11-0.88
				c-0.01-0.39,0.03-0.79,0.15-1.22c0.03-0.11,0.06-0.22,0.1-0.33c0.06-0.18,0.14-0.36,0.22-0.53c0.05-0.09,0.1-0.18,0.15-0.27
				c0.14-0.25,0.3-0.51,0.48-0.75c0.12-0.17,0.25-0.33,0.39-0.5c0.54-0.65,1.23-1.27,2.06-1.86
				C151.78,200.85,153.32,200.03,155.21,199.28z"/>
			<path class="st1" d="M139.57,216.78c-0.32-0.14-0.75-0.32-1.19-0.62c-0.42-0.27-0.72-0.54-0.95-0.73
				c-0.06-0.05-0.11-0.1-0.17-0.15c-0.85-0.66-1.57-1.36-2.17-2.09l-1.72,0.68l-4.05,1.7l-4.52,1.81l2.53-1.51l2.42-1.48l2.53-1.37
				l2.07-0.92c-0.43-0.68-0.75-1.4-0.97-2.13l-2.24,1.13l-2.75,1.51l-2.72,1.73l-2.33,1.65l-2.25,1.79l0.31,0.67l0.56,0.31
				l0.33,0.53l-0.5,1.42l0.67,0.95l-0.92,1.51l-0.42,2.01v1.56l0.53,0.84l1.36-0.08l14.6-4.74l10.52-3.07
				c-3.31-0.65-6.08-1.59-8.32-2.81C139.72,216.84,139.65,216.81,139.57,216.78z"/>
			<path class="st1" d="M157.99,204.5l3.33-0.64l3.41-0.5l3.58-0.47l3.66-0.42l1.71-0.2l1.76-0.21l2.05-0.17l2-0.11l2.03-0.11
				l2.19-0.2l0.87-0.04c-1.46-0.19-3.26-0.32-5.39-0.39c-1.19-0.04-2.47-0.06-3.81-0.06c-10.45,0-15.88,1.27-18.59,2.33
				c-2.2,0.88-3.52,1.72-4.31,2.4l2.31-0.52L157.99,204.5z"/>
			<path class="st1" d="M165.06,209.59c7.82,0,14.02-0.89,18.44-2.65c3.32-1.33,4.88-2.53,5.6-3.3c0.15-0.16,0.27-0.32,0.38-0.52
				c0.02-0.04,0.04-0.07,0.06-0.1c0-0.04,0.01-0.08,0.02-0.12c-0.11-0.08-0.3-0.21-0.62-0.36l-6.61,0.48l-7.05,0.67l-6.16,0.73
				l-5.36,0.78l-4.77,0.81l-4.22,0.73l-2.91,0.72c0.11,0.05,0.24,0.1,0.38,0.17C154.05,208.5,157.75,209.59,165.06,209.59z"/>
			<path class="st1" d="M192.93,157.63c-0.41-0.95-0.97-1.78-1.86-2.39c-1.34-0.89-3.13-1.34-5.39-1.34c-0.87,0-1.72,0.07-2.56,0.22
				c-2.12,0.36-4.15,1.18-6.1,2.47c-1.47,0.97-2.63,2.14-3.6,3.44c-0.55,0.74-1.04,1.53-1.44,2.37c-0.19,0.4-0.37,0.81-0.52,1.25
				c-0.27,0.78-0.4,1.51-0.47,2.21c-0.04,0.44-0.03,0.85,0.02,1.26c0.02,0.21,0.05,0.43,0.1,0.63c0.07,0.35,0.19,0.68,0.33,1
				c0.11,0.26,0.24,0.5,0.39,0.74c0.16,0.26,0.3,0.53,0.5,0.77c0.02,0.02,0.03,0.04,0.04,0.06c1.54,1.73,3.86,2.6,6.98,2.6
				c1.3,0,2.56-0.15,3.78-0.44c2.49-0.59,4.81-1.85,6.98-3.67c0.34-0.28,0.68-0.58,1.01-0.89c0.06-0.06,0.13-0.11,0.19-0.15
				c0.13-0.09,0.26-0.18,0.39-0.3l-1.43-0.54c-0.35,0.34-0.71,0.58-1.07,0.83c-0.16,0.11-0.32,0.23-0.48,0.35
				c-0.41,0.32-0.82,0.62-1.23,0.9c-1.42,0.97-2.87,1.67-4.36,1.97c-0.71,0.14-1.43,0.21-2.15,0.21c-1.87,0-3.29-0.46-4.29-1.36
				c-0.18-0.16-0.35-0.34-0.5-0.53c-0.04-0.05-0.03-0.16-0.06-0.22c-0.12-0.19-0.21-0.4-0.28-0.64c-0.09-0.31-0.15-0.65-0.19-1.01
				c-0.02-0.21-0.01-0.44,0-0.68c0.03-0.4,0.08-0.82,0.16-1.26c0.1-0.65,0.12-1.21,0.36-1.98h6.95h9.72
				c0.48-1.45,0.69-2.69,0.66-3.74c-0.01-0.24-0.02-0.48-0.05-0.7C193.37,158.54,193.13,158.1,192.93,157.63z M189.33,160.11
				c-0.26,0.76-0.62,1.29-1.06,1.61c-0.43,0.31-0.96,0.46-1.55,0.46h-3.6h-6.48c0.08-0.21,0.16-0.4,0.24-0.6
				c0.35-0.84,0.76-1.6,1.22-2.28c0.65-0.98,1.38-1.82,2.25-2.46c0.9-0.66,1.83-1.15,2.77-1.44c0.73-0.23,1.47-0.34,2.22-0.34
				c1.54,0,2.7,0.49,3.5,1.47c0.34,0.42,0.51,0.9,0.62,1.39C189.61,158.58,189.61,159.3,189.33,160.11
				C189.33,160.1,189.33,160.1,189.33,160.11z"/>
		</g>
	</g>
</g>
</svg>
