<?xml version="1.0" encoding="utf-8"?>
<!-- Generator: Adobe Illustrator 24.0.0, SVG Export Plug-In . SVG Version: 6.00 Build 0)  -->
<svg version="1.1" id="Capa_1" xmlns="http://www.w3.org/2000/svg" xmlns:xlink="http://www.w3.org/1999/xlink" x="0px" y="0px"
	 viewBox="0 0 309.32 309.32" style="enable-background:new 0 0 309.32 309.32;" xml:space="preserve">
<style type="text/css">
	.st0{fill:none;stroke:#1D1D1B;stroke-width:5;stroke-miterlimit:10;}
	.st1{fill:#1D1D1B;}
</style>
<g>
	<g>
		<path class="st0" d="M105.03,116.07v173.96h162.32V95.56C264,23.24,240.4,19.29,240.4,19.29H73.5
			c13.59,0.33,21.71,23.99,26.3,45.61C103.37,81.72,105.03,98.88,105.03,116.07z"/>
		<path class="st0" d="M73.5,19.29c-17.42,0-31.54,43.75-31.54,97.71c0,53.97,14.12,97.71,31.54,97.71
			c17.42,0,31.54-43.75,31.54-97.71C105.03,63.04,90.91,19.29,73.5,19.29z M72.48,159.63c-6,0-10.86-18.89-10.86-42.2
			c0-23.31,4.86-42.2,10.86-42.2s10.86,18.89,10.86,42.2C83.35,140.74,78.48,159.63,72.48,159.63z"/>
		<path class="st0" d="M73.5,214.71h31.54v-76.32c-6.98,68.89-27.79,76.32-27.79,76.32"/>
	</g>
	<g id="LOGO_GAMA_1_">
		<g>
			<path class="st1" d="M135.95,218.92l3.5,0.42l2.12,0.28c0.03-0.05,0.07-0.1,0.1-0.15c0.06-0.11,0.13-0.22,0.19-0.33l-8.99-0.63
				L135.95,218.92z"/>
			<path class="st1" d="M228.14,204.24l-5.94,1.58c0.05,1.38-0.13,2.83-0.55,4.33c-0.01,0.04-0.02,0.08-0.03,0.12
				c-0.04,0.2-0.11,0.51-0.24,0.87c-0.78,2.28-2.02,4.41-3.7,6.38l2.32-0.39l4.22-0.73l3.86-0.95l3.53-1.09l3.47-1l3.3-1.31
				l3.58-1.37l3.66-1.45l4.05-1.7l4.52-1.81l-2.53,1.51l-2.42,1.48l-2.53,1.37l-2.58,1.14l-2.69,1.2l-2.66,1.12l-2.75,1.09
				l-2.86,0.95l-2.94,0.84l-2.97,0.84l-3.08,0.7l-3.19,0.67l-3.33,0.64l-1.92,0.28c-0.85,0.79-1.78,1.55-2.79,2.28l1.13-0.16
				l3.75-0.53l3.64-0.73l3.66-0.64l3.5-0.84l3.5-0.84l3.39-1.09l3.28-1.12l3.16-1.14l3.08-1.31l2.83-1.42l2.75-1.51l2.72-1.73
				l2.33-1.65l2.25-1.79l-0.31-0.67l-0.56-0.31l-0.33-0.53l0.5-1.42l-0.67-0.95l0.92-1.51l0.42-2.01v-1.56l-0.53-0.84l-1.36,0.08
				l-14.6,4.74L228.14,204.24z"/>
			<path class="st1" d="M132.37,208.07l2.75,0.95l2.94,0.84l2.86,0.84l2.83,0.75l3,0.73l2.94,0.67l2.97,0.59l3.03,0.53l1.67,0.29
				c-0.05-0.73-0.02-1.48,0.07-2.24l-4.57-0.79l-6.02-1.37l-6.11-1.48l-6.16-1.56l-6.5-1.79l-7-1.73l2.86,1.31l2.75,1.26l2.86,1.12
				L132.37,208.07z"/>
			<path class="st1" d="M157.4,214.83l-1.89-0.21l-0.13-0.02c0.95,0.43,1.67,0.99,2.21,1.58c0.04,0.04,0.08,0.09,0.12,0.13
				c-0.01-0.04-0.03-0.08-0.04-0.12c-0.05-0.15-0.11-0.35-0.15-0.58C157.47,215.36,157.43,215.1,157.4,214.83z"/>
			<path class="st1" d="M139.44,212.42l4.94,1.26l2.53,0.53l1.12,0.23c0.99-0.34,1.95-0.53,2.9-0.58l-0.43-0.07l-2.53-0.42
				l-2.53-0.53l-15.69-3.56l-2.8-0.69l2.47,0.84l2.53,0.84l2.53,0.78L139.44,212.42z"/>
			<path class="st1" d="M165.08,199.39c0.07-0.06,0.15-0.11,0.22-0.17l-1.79-0.16l-2.61-0.17l-2.55-0.36l-2.53-0.31l-2.53-0.28
				l-2.53-0.42l-2.5-0.42l-2.53-0.42l-2.53-0.53l-15.69-3.56l-2.8-0.69l2.47,0.84l2.53,0.84l2.53,0.78l4.97,1.37l4.94,1.26
				l2.53,0.53l2.53,0.53l2.58,0.47l2.53,0.42l2.61,0.47l2.66,0.47l2.61,0.42l2.78,0.36l0.56,0.08
				C164.03,200.28,164.55,199.82,165.08,199.39z"/>
			<path class="st1" d="M124.45,189.18l2.86,1.12l2.83,1.09l2.75,0.95l2.94,0.84l2.86,0.84l2.83,0.75l3,0.73l2.94,0.67l2.97,0.59
				l3.03,0.53l3.16,0.56l3.08,0.53l3.28,0.53l2.36,0.3c1.13-0.89,2.41-1.74,3.85-2.54l-5.99-0.32l-6.44-0.73l-6.13-1.06l-6.02-1.37
				l-6.11-1.48l-6.16-1.56l-6.5-1.79l-7-1.73l2.86,1.31L124.45,189.18z"/>
			<path class="st1" d="M230.54,186.21c-0.01,0.03-0.01,0.06-0.02,0.09l-0.01,0.05c-0.03,0.22-0.09,0.59-0.24,1.03
				c-0.23,0.68-0.58,1.19-0.78,1.49c-0.02,0.03-0.05,0.07-0.07,0.1c-1.26,2.48-3.09,4.46-5.58,6.05c-1.44,0.93-3.21,1.77-5.32,2.55
				c0.59,0.61,1.11,1.25,1.56,1.92l0.04,0.06c0.08,0.11,0.2,0.26,0.33,0.45l1.54-0.26l3.86-0.95l3.53-1.09l3.47-1l3.3-1.31
				l3.58-1.37l3.66-1.45l4.05-1.7l4.52-1.81l-2.53,1.51l-2.42,1.48l-2.53,1.37l-2.58,1.14l-2.69,1.2l-2.66,1.12l-2.75,1.09
				l-2.86,0.95l-2.94,0.84l-2.97,0.84l-3.08,0.7l-0.78,0.16c0.07,0.17,0.13,0.33,0.19,0.48l0.06,0.16c0.15,0.4,0.27,0.8,0.38,1.2
				l1.1-0.19l3.5-0.84l3.5-0.84l3.39-1.09l3.28-1.12l3.16-1.14l3.08-1.31l2.83-1.42l2.75-1.51l2.72-1.73l2.33-1.65l2.25-1.79
				l-0.31-0.67l-0.56-0.31l-0.33-0.53l0.5-1.42l-0.67-0.95l0.92-1.51l0.42-2.01v-1.56l-0.53-0.84l-1.36,0.08l-14.6,4.74
				L230.54,186.21z"/>
			<path class="st1" d="M159.43,206.41c0.07-0.13,0.13-0.26,0.19-0.39c0.17-0.37,0.39-0.81,0.68-1.28c0.05-0.1,0.12-0.21,0.2-0.33
				c0.8-1.18,1.66-2.24,2.6-3.21h-1.28l-4.06-0.18l-7.66-0.57l1.17,0.22l1.91,0.34l4.56,0.8l1.05,0.22l-2.37,0.13
				c-0.17-0.01-0.34-0.01-0.51-0.02l-14.39-1.85l4.64,1.2l1.94,0.42l1.89,0.31l2,0.33l2.11,0.31l2.44,0.31l2.75,0.36l-5.5-0.25
				l-4.47-0.22l-3.66-0.2l-15.02-1.06l3.08,0.42l3.5,0.42l7.3,0.95l3.75,0.42l3.64,0.53l3.5,0.53l3.16,0.42l-3.08-0.11l-6,0.04
				c0,0,5.57,0.7,6.67,0.77l3.25,0.24C159.42,206.43,159.42,206.42,159.43,206.41z"/>
			<path class="st1" d="M239.3,166.74c0,0.04-0.01,0.07-0.01,0.11c-0.03,0.33-0.07,0.88-0.3,1.52c-1,2.95-3.45,5.43-7.47,7.58
				c-1.11,0.6-2.38,1.15-3.8,1.65c0.68,0.6,1.27,1.28,1.75,2.02c0.14,0.21,0.27,0.43,0.38,0.66l0.81-0.23l3.3-1.31l3.58-1.37
				l3.66-1.45l4.05-1.7l4.52-1.81l-2.53,1.51l-2.42,1.48l-2.53,1.37l-2.58,1.14l-2.69,1.2l-2.66,1.12l-2.75,1.09l-1.21,0.4
				c0.08,0.26,0.14,0.52,0.2,0.79c0.08,0.42,0.13,0.85,0.15,1.28l0.33-0.11l3.28-1.12l3.16-1.14l3.08-1.31l2.83-1.42l2.75-1.51
				l2.72-1.73l2.33-1.65l2.25-1.79l-0.31-0.67l-0.56-0.31l-0.33-0.53l0.5-1.42l-0.67-0.95l0.92-1.51l0.42-2.01v-1.56l-0.53-0.84
				l-1.36,0.08l-12.26,3.98C239.33,166.43,239.32,166.59,239.3,166.74z"/>
			<path class="st1" d="M181.21,187.62c-5.08-0.57-8.86-1.68-11.42-3.36c-1.33-0.87-2.44-1.96-3.37-3.33
				c-0.2-0.3-0.41-0.63-0.6-0.99l-4.81-0.26l-6.44-0.73l-6.13-1.06l-6.02-1.37l-6.11-1.48l-6.16-1.56l-6.5-1.79l-7-1.73l2.86,1.31
				l2.75,1.26l2.86,1.12l2.83,1.09l2.75,0.95l2.94,0.84l2.86,0.84l2.83,0.75l3,0.73l2.94,0.67l2.97,0.59l3.03,0.53l3.16,0.56
				l3.08,0.53l3.28,0.53l3.3,0.42l-2.78-0.25l-2.61-0.17l-2.55-0.36l-2.53-0.31l-2.53-0.28l-2.53-0.42l-2.5-0.42l-2.53-0.42
				l-2.53-0.53l-15.69-3.56l-2.8-0.69l2.47,0.84l2.53,0.84l2.53,0.78l4.97,1.37l4.94,1.26l2.53,0.53l2.53,0.53l2.58,0.47l2.53,0.42
				l2.61,0.47l2.66,0.47l2.61,0.42l2.78,0.36l2.75,0.42l-1.97,0.11h-1.94l-4.06-0.18l-7.66-0.57l1.17,0.22l1.91,0.34l4.56,0.8
				l1.05,0.22l-2.37,0.13c-0.17-0.01-0.34-0.01-0.51-0.02l-14.39-1.85l4.64,1.2l1.94,0.42l1.89,0.31l2,0.33l2.11,0.31l2.44,0.31
				l2.75,0.36l-5.5-0.25l-4.47-0.22l-3.66-0.2l-15.02-1.06l3.08,0.42l3.5,0.42l7.3,0.95l3.75,0.42l3.64,0.53l3.5,0.53l3.16,0.42
				l-3.08-0.11l-6,0.04c0,0,5.57,0.7,6.67,0.77l5.24,0.39l4.64,0.17l4.89,0.11l5.08,0.14h5.3l5.36-0.14l5.41-0.17l5.5-0.36
				l5.52-0.42l1.33-0.11l3.72-0.31l3.72-0.53l2.61-0.37c-0.27-0.02-0.55-0.04-0.86-0.06c-0.83-0.05-1.75-0.07-2.74-0.07l-13.43,0.18
				l-0.18,0.01l-2.03,0.11l-2.19,0.2l-2.22,0.11l-2.19,0.11l-2.19,0.14l-2.36,0.06h-2.39h-2.42l-2.55,0.11h-2.42h-2.55h-2.64
				l-2.55-0.11l10.49-0.61L181.21,187.62z"/>
			<path class="st1" d="M117.33,154.65l2.75,1.26l2.86,1.12l2.83,1.09l2.75,0.95l2.94,0.84l2.86,0.84l2.83,0.75l3,0.73l2.94,0.67
				l2.97,0.59l3.03,0.53l3.16,0.56l3.08,0.53l3.28,0.53l3.3,0.42l-2.78-0.25l-2.61-0.17l-2.55-0.36l-2.53-0.31l-2.53-0.28
				l-2.53-0.42l-2.5-0.42l-2.53-0.42l-2.53-0.53l-15.69-3.56l-2.8-0.69l2.47,0.84l2.53,0.84l2.53,0.78l4.97,1.37l4.94,1.26
				l2.53,0.53l2.53,0.53l2.58,0.47l2.53,0.42l2.61,0.47l2.66,0.47l2.61,0.42l2.78,0.36l2.75,0.42l-1.97,0.11h-1.94l-4.06-0.18
				l-7.66-0.57l1.17,0.22l1.91,0.34l4.56,0.8l1.05,0.22l-2.37,0.13c-0.17-0.01-0.34-0.01-0.51-0.02l-14.39-1.85l4.64,1.2l1.94,0.42
				l1.89,0.31l2,0.33l2.11,0.31l2.44,0.31l2.75,0.36l-5.5-0.25l-4.47-0.22l-3.66-0.2l-15.02-1.06l3.08,0.42l3.5,0.42l7.3,0.95
				l3.75,0.42l3.64,0.53l3.5,0.53l3.16,0.42l-3.08-0.11l-6,0.04c0,0,5.57,0.7,6.67,0.77l5.24,0.39l4.64,0.17l3.11,0.07
				c0.06-0.43,0.16-0.87,0.28-1.33h-0.3l-2.55-0.11l2.93-0.17c0.07-0.24,0.14-0.48,0.23-0.73c0.36-1.06,0.87-2.12,1.61-3.34
				c0.45-0.73,0.96-1.36,1.41-1.92l0.11-0.13c0.05-0.07,0.1-0.13,0.16-0.2c0.18-0.22,0.4-0.5,0.66-0.8
				c0.45-0.49,0.93-0.96,1.43-1.42h-5.14l-6.75-0.36l-6.44-0.73l-6.13-1.06l-6.02-1.37l-6.11-1.48l-6.16-1.56l-6.5-1.79l-7-1.73
				L117.33,154.65z"/>
			<path class="st1" d="M169.37,170.92c-0.13,0.26-0.26,0.53-0.37,0.8c-0.07,0.17-0.13,0.34-0.2,0.51c-0.02,0.05-0.04,0.1-0.06,0.15
				c-0.15,0.44-0.26,0.86-0.35,1.27c-0.05,0.24-0.09,0.48-0.11,0.71c-0.19,1.67,0.17,3.14,1.03,4.44c0.02,0.04,0.04,0.07,0.07,0.11
				c0.27,0.4,0.58,0.78,0.93,1.15c0.05,0.05,0.09,0.09,0.14,0.14c0.38,0.38,0.81,0.73,1.31,1.06c0.65,0.43,1.43,0.81,2.31,1.16
				c3.57,1.39,9.02,2.08,16.36,2.08l18.23-0.25c0.93,0,1.79,0.02,2.57,0.06c0.13,0.01,0.26,0.01,0.39,0.02
				c0.25,0.01,0.49,0.03,0.73,0.05l0,0c0.86,0.06,1.61,0.15,2.27,0.27c0.58,0.1,1.08,0.22,1.49,0.36c0.24,0.08,0.45,0.17,0.64,0.27
				l0,0c0.04,0.02,0.09,0.04,0.13,0.06c0.03,0.02,0.03,0.05,0.06,0.06c0,0,0,0,0,0c0,0,0,0,0,0c0.18,0.11,0.33,0.23,0.46,0.35
				c0.36,0.34,0.56,0.73,0.65,1.17c0.03,0.13,0.05,0.26,0.06,0.39c0.02,0.25,0.07,0.49,0.05,0.75c0,0.03,0,0.05,0,0.08
				c-0.01,0.1-0.03,0.2-0.07,0.31c-0.1,0.29-0.28,0.54-0.47,0.78c-0.11,0.15-0.23,0.29-0.33,0.44c-0.06,0.08-0.12,0.17-0.19,0.25
				c-0.11,0.14-0.23,0.29-0.35,0.43c-0.67,0.75-1.54,1.4-2.76,1.89c-0.55,0.21-1.21,0.4-1.99,0.55c-2.26,0.46-5.5,0.69-9.74,0.69
				h-0.49h-2.26h-5.24c-4.36,0-9.22,0.88-14.59,2.63c-0.04,0.01-0.08,0.03-0.12,0.04c-0.06,0.02-0.12,0.04-0.18,0.07
				c-0.39,0.13-0.78,0.26-1.16,0.4c-2.45,0.87-4.62,1.79-6.5,2.77c-1.7,0.89-3.16,1.83-4.38,2.82c-0.99,0.8-1.84,1.65-2.58,2.54
				c-0.47,0.56-0.89,1.13-1.29,1.71c-0.02,0.04-0.03,0.08-0.06,0.11c-0.03,0.04-0.05,0.08-0.07,0.12c-0.25,0.4-0.44,0.82-0.64,1.23
				c-0.03,0.06-0.06,0.12-0.09,0.18c-0.02,0.04-0.05,0.09-0.07,0.13c-0.23,0.43-0.5,0.85-0.72,1.29c-0.11,0.21-0.2,0.41-0.28,0.63
				c-0.28,0.83-0.47,1.62-0.56,2.39c-0.1,0.83-0.08,1.62,0.06,2.39c0,0.02,0.01,0.05,0.01,0.07c0.01,0.07,0.04,0.15,0.07,0.22
				c0.01,0.04,0.03,0.08,0.04,0.11c0,0.01,0.01,0.02,0.01,0.02c0.11,0.49,0.29,1.01,0.52,1.56c0.05,0.12,0.1,0.23,0.15,0.35
				c0.09,0.19,0.18,0.38,0.28,0.57c0.1,0.2,0.21,0.41,0.33,0.62c0.02,0.03,0.04,0.06,0.05,0.09c0.1,0.18,0.19,0.35,0.29,0.53
				c0.22,0.4,0.44,0.81,0.74,1.25c-0.08,0.05-0.16,0.09-0.24,0.12c-0.11,0.05-0.22,0.1-0.34,0.17c-0.17,0.1-0.32,0.15-0.48,0.24
				c-0.93,0.52-1.8,0.93-2.62,1.24c-0.07,0.03-0.14,0.06-0.21,0.08c-0.02,0.01-0.04,0.01-0.06,0.02c-0.83,0.29-1.59,0.45-2.27,0.45
				c-0.49,0-0.85-0.15-1.1-0.43c-0.03-0.03-0.05-0.06-0.07-0.1c-0.11-0.16-0.19-0.35-0.23-0.57c-0.03-0.14-0.05-0.28-0.05-0.45
				c0-0.04-0.01-0.06-0.02-0.09c-0.01-0.03-0.01-0.06-0.02-0.09c-0.01-0.03-0.02-0.06-0.02-0.1c-0.01-0.13-0.03-0.25-0.05-0.38
				c-0.02-0.15-0.05-0.3-0.09-0.44c-0.04-0.16-0.09-0.32-0.15-0.46c-0.01-0.02-0.02-0.04-0.03-0.06c-0.05-0.1-0.1-0.19-0.16-0.29
				c-0.17-0.29-0.38-0.54-0.63-0.75c-0.22-0.19-0.47-0.36-0.75-0.49c-0.66-0.31-1.49-0.47-2.49-0.47c-0.65,0-1.3,0.11-1.93,0.3
				c-0.4,0.12-0.81,0.27-1.21,0.44c-0.03,0.01-0.06,0.02-0.09,0.04c-0.23,0.1-0.46,0.18-0.68,0.28c-0.13,0.06-0.25,0.12-0.38,0.19
				c-0.17,0.1-0.33,0.21-0.48,0.32c-0.19,0.14-0.36,0.28-0.53,0.43c-0.16,0.15-0.31,0.3-0.45,0.45c-0.07,0.08-0.14,0.16-0.2,0.24
				c-0.28,0.35-0.52,0.71-0.72,1.1c-0.1,0.19-0.25,0.35-0.32,0.55c0,0.01-0.01,0.02-0.01,0.02c-0.01,0.02-0.03,0.04-0.04,0.07
				c0,0,0,0,0,0s0,0,0,0c-0.03,0.08-0.04,0.16-0.05,0.24c0,0.01-0.01,0.02-0.01,0.03c0,0.04,0,0.08-0.01,0.13
				c-0.01,0.22,0.02,0.43,0,0.65c-0.03,0.39-0.17,0.8-0.07,1.15c0.05,0.19,0.18,0.35,0.31,0.51c0.07,0.09,0.15,0.19,0.2,0.28
				c0.08,0.13,0.15,0.26,0.23,0.39c0.06,0.09,0.12,0.18,0.2,0.27c0.08,0.09,0.11,0.2,0.17,0.3c0.02,0.03,0.05,0.06,0.08,0.09
				c0.02,0.02,0.06,0.02,0.08,0.04c0.02,0.01,0.04,0.02,0.06,0.03c0.02,0.01,0.04,0.02,0.06,0.03c0.02,0.01,0.05,0.02,0.07,0.04
				c0.4,0.32,0.86,0.59,1.37,0.81c1.04,0.45,2.32,0.7,3.88,0.7c1.13,0,2.36-0.16,3.64-0.42c0.06-0.01,0.13-0.04,0.19-0.05
				c0.22-0.05,0.45-0.11,0.69-0.18c0.15-0.04,0.3-0.09,0.44-0.12c1.68-0.44,3.47-1.08,5.37-1.92c1.05-0.46,2.13-0.98,3.25-1.58
				c0.57-0.3,1.14-0.61,1.73-0.95c0.06,0.03,0.12,0.07,0.19,0.1c0.65,0.36,1.31,0.69,1.99,0.99c1.47,0.66,3.02,1.2,4.62,1.65
				c0.06,0.02,0.11,0.03,0.17,0.05c0.41,0.11,0.78,0.27,1.2,0.37c0.37,0.09,0.78,0.13,1.17,0.2c0.07,0.01,0.15,0.02,0.22,0.04
				c1.63,0.32,3.31,0.55,5.07,0.68c1.01,0.08,2.05,0.12,3.12,0.12c4.7,0,9.04-0.56,13.09-1.56c0.7-0.17,1.39-0.37,2.08-0.58
				c1.59-0.48,3.13-1.04,4.62-1.68c0.02-0.01,0.04-0.01,0.05-0.02c0.61-0.26,1.24-0.49,1.85-0.76c0.12-0.05,0.23-0.1,0.35-0.16
				c0.84-0.42,1.63-0.85,2.38-1.3l0,0c1.07-0.64,2.06-1.3,2.97-1.99l0,0c2.26-1.71,4-3.59,5.22-5.63c0.56-0.93,1.01-1.89,1.35-2.89
				c0.04-0.11,0.07-0.22,0.09-0.33c0.04-0.15,0.06-0.3,0.11-0.46c0.05-0.16,0.09-0.32,0.13-0.49c0.09-0.38,0.16-0.75,0.21-1.11
				c0.04-0.27,0.07-0.55,0.08-0.82c0.03-0.48,0.02-0.95-0.03-1.4c-0.05-0.5-0.16-0.99-0.3-1.47c0-0.01-0.01-0.02-0.01-0.04
				c0-0.02-0.01-0.03-0.01-0.05c-0.05-0.17-0.11-0.33-0.17-0.5c-0.04-0.09-0.07-0.18-0.1-0.28c-0.11-0.3-0.23-0.6-0.39-0.89
				c-0.01-0.03-0.03-0.05-0.04-0.08c-0.04-0.06-0.08-0.12-0.12-0.18c-0.09-0.13-0.19-0.25-0.28-0.38c-0.19-0.29-0.41-0.57-0.64-0.85
				l0,0c-1.41-1.7-3.5-3.2-6.33-4.48c4.69-1.04,8.31-2.26,10.84-3.67c0.31-0.17,0.61-0.35,0.9-0.53c0.94-0.6,1.71-1.25,2.37-1.93
				c0.77-0.8,1.38-1.66,1.85-2.55c0.04-0.07,0.08-0.14,0.12-0.22c0.18-0.37,0.49-0.69,0.63-1.07c0.02-0.06,0.04-0.12,0.05-0.18
				c0.02-0.09,0.03-0.18,0.05-0.27c0.01-0.08,0.03-0.16,0.05-0.24c0.05-0.21,0.09-0.41,0.12-0.61c0.09-0.59,0.08-1.16-0.02-1.69
				c-0.03-0.15-0.07-0.3-0.11-0.45c-0.12-0.41-0.29-0.81-0.53-1.18c-0.05-0.08-0.11-0.16-0.17-0.25c-0.16-0.22-0.34-0.44-0.54-0.64
				c-0.15-0.16-0.31-0.31-0.49-0.46c-1.9-1.6-5.15-2.82-9.71-3.66c1.06-0.14,2.06-0.29,3.03-0.45c2.12-0.35,4.03-0.76,5.73-1.23
				c2.19-0.6,4.04-1.3,5.51-2.1c0.81-0.44,1.55-0.88,2.2-1.34c1.55-1.09,2.63-2.25,3.25-3.47c0-0.01,0.01-0.01,0.01-0.02
				c0,0,0-0.01,0-0.01c0.08-0.15,0.14-0.31,0.2-0.46c0.04-0.09,0.08-0.19,0.11-0.29c0.04-0.11,0.06-0.23,0.08-0.34
				c0.03-0.22,0.04-0.43,0.07-0.65c0.08-0.54,0.07-1.07-0.03-1.58c-0.13-0.69-0.43-1.36-0.89-2.01c0,0,0,0,0,0c0,0,0,0,0,0
				c-0.02-0.03-0.05-0.07-0.08-0.1c-0.29-0.39-0.64-0.77-1.04-1.15c-0.24-0.22-0.48-0.44-0.76-0.65c-0.24-0.19-0.44-0.38-0.68-0.56
				c-0.07-0.05-0.14-0.1-0.21-0.15c0,0-0.01,0-0.01,0c-0.1-0.06-0.21-0.12-0.33-0.18c-0.02-0.01-0.03-0.01-0.05-0.02
				c-0.11-0.05-0.23-0.1-0.35-0.15c-0.14-0.06-0.28-0.12-0.41-0.19c-3.51-1.92-8.78-3.07-15.92-3.42c-1.57-0.08-3.22-0.12-4.96-0.12
				c-7.58,0-14.28,0.71-20.1,2.13c-3.95,0.96-7.51,2.25-10.66,3.87c-0.72,0.36-1.39,0.74-2.03,1.12c-1.1,0.66-2.1,1.35-2.99,2.08
				c-0.85,0.69-1.61,1.4-2.29,2.14c-0.11,0.12-0.21,0.25-0.32,0.37c-0.04,0.05-0.08,0.1-0.12,0.15c-0.08,0.1-0.15,0.2-0.23,0.29
				c-0.05,0.07-0.11,0.13-0.16,0.2c-0.39,0.48-0.77,0.96-1.08,1.46C169.8,170.13,169.58,170.52,169.37,170.92z M182.35,200.11
				c3.61-2.33,7.61-3.5,12.02-3.5c4.42,0,7.62,1.21,9.63,3.59c0.53,0.63,0.9,1.35,1.17,2.13c0.09,0.27,0.17,0.54,0.24,0.81
				c0.06,0.24,0.12,0.48,0.16,0.73c0.06,0.34,0.11,0.69,0.13,1.05c0.01,0.25,0.01,0.51,0,0.77c-0.01,0.41-0.04,0.83-0.1,1.26
				c-0.13,0.95-0.35,1.95-0.69,3.02c-0.04,0.12-0.07,0.23-0.11,0.35c-0.24,0.69-0.55,1.31-0.85,1.95c-1.48,3.14-3.66,5.68-6.68,7.56
				c-0.15,0.09-0.3,0.18-0.45,0.27c-1.08,0.65-2.19,1.19-3.34,1.64c-2.55,0.99-5.27,1.5-8.16,1.5c-2.38,0-4.41-0.36-6.11-1.07
				c-0.45-0.19-0.88-0.4-1.28-0.64c-0.85-0.5-1.6-1.12-2.23-1.84c-1-1.12-1.57-2.45-1.77-3.97c-0.1-0.74-0.1-1.53-0.01-2.36
				c0.11-1.01,0.35-2.09,0.75-3.25c0.22-0.64,0.51-1.21,0.78-1.81c0.2-0.44,0.41-0.88,0.62-1.3c0.08-0.16,0.16-0.33,0.25-0.49
				c0.18-0.32,0.39-0.61,0.59-0.92c0.02-0.04,0.05-0.07,0.07-0.11c0.17-0.25,0.34-0.51,0.51-0.75
				C178.82,202.91,180.41,201.35,182.35,200.11z M217.19,173.88c-1.11,0.44-2.36,0.82-3.76,1.15c-0.7,0.16-1.43,0.32-2.2,0.45
				c-0.39,0.07-0.78,0.13-1.18,0.2c-1.21,0.19-2.5,0.34-3.87,0.46c-0.91,0.08-1.86,0.15-2.84,0.21c-0.53,0.03-1.07,0.05-1.62,0.08
				c-1.49,0.06-3.06,0.09-4.7,0.09h0c-0.71,0-1.39-0.01-2.05-0.02c-0.66-0.01-1.29-0.03-1.91-0.05c-0.45-0.01-0.89-0.03-1.32-0.05
				c-0.43-0.02-0.84-0.04-1.25-0.07s-0.79-0.05-1.17-0.09c-1.13-0.09-2.15-0.22-3.04-0.36c-0.6-0.1-1.15-0.21-1.64-0.33
				c-0.25-0.06-0.49-0.12-0.73-0.18c-0.47-0.13-0.91-0.27-1.31-0.42c-0.2-0.07-0.4-0.15-0.59-0.23c-0.5-0.21-0.95-0.45-1.34-0.7
				c-0.19-0.12-0.36-0.24-0.52-0.37c-0.01-0.01-0.02-0.01-0.03-0.02c-0.17-0.13-0.32-0.27-0.47-0.42c-0.14-0.14-0.27-0.29-0.38-0.45
				c-0.09-0.12-0.17-0.24-0.24-0.36c-0.06-0.09-0.1-0.19-0.15-0.29h0c-0.07-0.15-0.14-0.3-0.19-0.46c-0.04-0.13-0.07-0.25-0.1-0.38
				c-0.02-0.08-0.03-0.17-0.04-0.25h0c-0.02-0.17-0.04-0.34-0.05-0.52c0-0.26,0.01-0.52,0.05-0.79c0.01-0.08,0.01-0.15,0.02-0.23
				c0.01-0.22,0-0.45,0.08-0.68c0.1-0.3,0.33-0.58,0.5-0.88c0.26-0.46,0.57-0.91,0.99-1.35c0.64-0.68,1.44-1.34,2.43-1.99
				c0.42-0.28,0.88-0.55,1.37-0.82c0.16-0.09,0.33-0.18,0.5-0.27c0.51-0.27,1.06-0.53,1.65-0.79c0.19-0.09,0.39-0.17,0.6-0.26
				c0.2-0.09,0.41-0.17,0.62-0.25c0.51-0.2,1.05-0.4,1.6-0.58c0.39-0.13,0.78-0.25,1.18-0.37c0.4-0.12,0.82-0.23,1.24-0.34
				c0.73-0.18,1.48-0.35,2.26-0.51c1.56-0.31,3.23-0.56,5.01-0.74c0.36-0.04,0.74-0.07,1.11-0.11c0.38-0.03,0.76-0.06,1.14-0.09
				c0.17-0.01,0.33-0.03,0.5-0.04c1.42-0.09,2.89-0.15,4.43-0.17c0.51-0.01,1.03-0.01,1.56-0.01c0.42,0,0.82,0,1.23,0.01
				c1.61,0.03,3.1,0.1,4.49,0.23c1.04,0.1,2.02,0.22,2.94,0.38s1.78,0.34,2.58,0.55c0.27,0.07,0.53,0.14,0.78,0.22
				c0.51,0.15,0.99,0.32,1.44,0.49c0.45,0.18,0.88,0.37,1.29,0.57c0.14,0.07,0.32,0.13,0.47,0.19c0.05,0.02,0.1,0.05,0.14,0.07
				c0.15,0.08,0.29,0.17,0.43,0.25c0.27,0.17,0.52,0.35,0.74,0.54c0.11,0.09,0.22,0.19,0.32,0.29c0.42,0.41,0.7,0.87,0.89,1.35
				c0.02,0.05,0.04,0.09,0.05,0.14c0.06,0.18,0.11,0.36,0.15,0.55c0.06,0.29,0.1,0.58,0.11,0.88c0.01,0.39-0.03,0.79-0.15,1.22
				c-0.03,0.11-0.06,0.22-0.1,0.33c-0.06,0.18-0.14,0.36-0.22,0.53c-0.05,0.09-0.1,0.18-0.15,0.27c-0.14,0.25-0.3,0.51-0.48,0.75
				c-0.12,0.17-0.25,0.33-0.39,0.5c-0.54,0.65-1.23,1.27-2.06,1.86C220.61,172.31,219.07,173.13,217.19,173.88z"/>
			<path class="st1" d="M232.82,156.38c0.32,0.14,0.75,0.32,1.19,0.62c0.42,0.27,0.72,0.54,0.95,0.73c0.06,0.05,0.11,0.1,0.17,0.15
				c0.85,0.66,1.57,1.36,2.17,2.09l1.72-0.68l4.05-1.7l4.52-1.81l-2.53,1.51l-2.42,1.48l-2.53,1.37l-2.07,0.92
				c0.43,0.68,0.75,1.4,0.97,2.13l2.24-1.13l2.75-1.51l2.72-1.73l2.33-1.65l2.25-1.79l-0.31-0.67l-0.56-0.31l-0.33-0.53l0.5-1.42
				l-0.67-0.95l0.92-1.51l0.42-2.01v-1.56l-0.53-0.84l-1.36,0.08l-14.6,4.74l-10.52,3.07c3.31,0.65,6.08,1.59,8.32,2.81
				C232.67,156.32,232.75,156.35,232.82,156.38z"/>
			<path class="st1" d="M214.4,168.66l-3.33,0.64l-3.41,0.5l-3.58,0.47l-3.66,0.42l-1.71,0.2l-1.76,0.21l-2.05,0.17l-2,0.11
				l-2.03,0.11l-2.19,0.2l-0.87,0.04c1.46,0.19,3.26,0.32,5.39,0.39c1.19,0.04,2.47,0.06,3.81,0.06c10.45,0,15.88-1.27,18.59-2.33
				c2.2-0.88,3.52-1.72,4.31-2.4l-2.31,0.52L214.4,168.66z"/>
			<path class="st1" d="M207.34,163.58c-7.82,0-14.02,0.89-18.44,2.65c-3.32,1.33-4.88,2.53-5.6,3.3c-0.15,0.16-0.27,0.32-0.38,0.52
				c-0.02,0.03-0.04,0.07-0.06,0.1c0,0.04-0.01,0.08-0.02,0.12c0.11,0.08,0.3,0.21,0.62,0.36l6.61-0.48l7.05-0.67l6.16-0.73
				l5.36-0.78l4.77-0.81l4.22-0.73l2.91-0.71c-0.11-0.05-0.24-0.1-0.38-0.17C218.34,164.66,214.64,163.58,207.34,163.58z"/>
			<path class="st1" d="M179.46,215.53c0.41,0.95,0.97,1.78,1.86,2.39c1.34,0.89,3.13,1.34,5.39,1.34c0.87,0,1.72-0.07,2.56-0.22
				c2.12-0.36,4.15-1.18,6.1-2.47c1.47-0.97,2.63-2.14,3.6-3.44c0.55-0.74,1.04-1.53,1.44-2.37c0.19-0.4,0.37-0.81,0.52-1.25
				c0.27-0.78,0.4-1.51,0.47-2.21c0.04-0.44,0.03-0.85-0.02-1.26c-0.02-0.21-0.05-0.43-0.1-0.63c-0.07-0.35-0.19-0.68-0.33-1
				c-0.11-0.26-0.24-0.5-0.39-0.74c-0.16-0.26-0.3-0.53-0.5-0.77c-0.02-0.02-0.03-0.04-0.04-0.06c-1.54-1.73-3.86-2.6-6.98-2.6
				c-1.3,0-2.56,0.15-3.78,0.44c-2.49,0.59-4.81,1.85-6.98,3.67c-0.34,0.28-0.68,0.58-1.01,0.89c-0.06,0.06-0.13,0.11-0.19,0.15
				c-0.13,0.09-0.26,0.18-0.39,0.3l1.43,0.54c0.35-0.34,0.71-0.58,1.07-0.83c0.16-0.11,0.32-0.23,0.48-0.35
				c0.41-0.32,0.82-0.62,1.23-0.9c1.42-0.97,2.87-1.67,4.36-1.97c0.71-0.14,1.43-0.21,2.15-0.21c1.87,0,3.29,0.46,4.29,1.36
				c0.18,0.16,0.35,0.34,0.5,0.53c0.04,0.05,0.03,0.16,0.06,0.22c0.12,0.19,0.21,0.4,0.28,0.64c0.09,0.31,0.15,0.65,0.19,1.01
				c0.02,0.21,0.01,0.44,0,0.68c-0.03,0.4-0.08,0.82-0.16,1.26c-0.1,0.65-0.12,1.21-0.36,1.98h-6.95h-9.72
				c-0.48,1.45-0.69,2.69-0.66,3.74c0.01,0.24,0.02,0.48,0.05,0.7C179.02,214.62,179.26,215.06,179.46,215.53z M183.06,213.06
				c0.26-0.76,0.62-1.29,1.06-1.61c0.43-0.31,0.96-0.46,1.55-0.46h3.6h6.48c-0.08,0.21-0.16,0.4-0.24,0.6
				c-0.35,0.84-0.76,1.6-1.22,2.28c-0.65,0.98-1.38,1.82-2.25,2.46c-0.9,0.66-1.83,1.15-2.77,1.44c-0.73,0.23-1.47,0.34-2.22,0.34
				c-1.54,0-2.7-0.49-3.5-1.47c-0.34-0.42-0.51-0.9-0.62-1.39C182.78,214.58,182.78,213.87,183.06,213.06
				C183.06,213.06,183.06,213.06,183.06,213.06z"/>
		</g>
	</g>
</g>
</svg>
