<?xml version="1.0" encoding="utf-8"?>
<!-- Generator: Adobe Illustrator 24.0.0, SVG Export Plug-In . SVG Version: 6.00 Build 0)  -->
<svg version="1.1" id="Capa_1" xmlns="http://www.w3.org/2000/svg" xmlns:xlink="http://www.w3.org/1999/xlink" x="0px" y="0px"
	 viewBox="0 0 309.32 309.32" style="enable-background:new 0 0 309.32 309.32;" xml:space="preserve">
<style type="text/css">
	.st0{fill:none;stroke:#1D1D1B;stroke-width:5;stroke-miterlimit:10;}
	.st1{fill:#1D1D1B;}
</style>
<g>
	<g>
		<path class="st0" d="M105.03,116.07v173.96h162.32V95.56C264,23.24,240.4,19.29,240.4,19.29H73.5
			c13.59,0.33,21.71,23.99,26.3,45.61C103.37,81.72,105.03,98.88,105.03,116.07z"/>
		<path class="st0" d="M73.5,19.29c-17.42,0-31.54,43.75-31.54,97.71c0,53.97,14.12,97.71,31.54,97.71
			c17.42,0,31.54-43.75,31.54-97.71C105.03,63.04,90.91,19.29,73.5,19.29z M72.48,159.63c-6,0-10.86-18.89-10.86-42.2
			c0-23.31,4.86-42.2,10.86-42.2s10.86,18.89,10.86,42.2C83.35,140.74,78.48,159.63,72.48,159.63z"/>
		<path class="st0" d="M73.5,214.71h31.54v-76.32c-6.98,68.89-27.79,76.32-27.79,76.32"/>
	</g>
	<g id="LOGO_GAMA_2_">
		<g>
			<path class="st1" d="M153.86,136.33l-0.42,3.5l-0.28,2.12c0.05,0.03,0.1,0.07,0.15,0.1c0.11,0.06,0.22,0.13,0.33,0.19l0.63-8.99
				L153.86,136.33z"/>
			<path class="st1" d="M168.53,228.52l-1.58-5.94c-1.38,0.05-2.83-0.13-4.33-0.55c-0.04-0.01-0.08-0.02-0.12-0.03
				c-0.2-0.04-0.51-0.11-0.87-0.24c-2.28-0.78-4.41-2.02-6.38-3.7l0.39,2.32l0.73,4.22l0.95,3.86l1.09,3.53l1,3.47l1.31,3.3
				l1.37,3.58l1.45,3.66l1.7,4.05l1.81,4.52l-1.51-2.53l-1.48-2.42l-1.37-2.53l-1.14-2.58l-1.2-2.69l-1.12-2.66l-1.09-2.75
				l-0.95-2.86l-0.84-2.94l-0.84-2.97l-0.7-3.08l-0.67-3.19l-0.64-3.33l-0.28-1.92c-0.79-0.85-1.55-1.78-2.28-2.79l0.16,1.13
				l0.53,3.75l0.73,3.64l0.64,3.66l0.84,3.5l0.84,3.5l1.09,3.39l1.12,3.28l1.14,3.16l1.31,3.08l1.42,2.83l1.51,2.75l1.73,2.72
				l1.65,2.33l1.79,2.25l0.67-0.31l0.31-0.56l0.53-0.33l1.42,0.5l0.95-0.67l1.51,0.92l2.01,0.42h1.56l0.84-0.53l-0.08-1.36
				l-4.74-14.6L168.53,228.52z"/>
			<path class="st1" d="M164.71,132.75l-0.95,2.75l-0.84,2.94l-0.84,2.86l-0.75,2.83l-0.73,3l-0.67,2.94l-0.59,2.97l-0.53,3.03
				l-0.29,1.67c0.73-0.05,1.48-0.02,2.24,0.07l0.79-4.57l1.37-6.02l1.48-6.11l1.56-6.16l1.79-6.5l1.73-7l-1.31,2.86l-1.26,2.75
				l-1.12,2.86L164.71,132.75z"/>
			<path class="st1" d="M157.95,157.79l0.21-1.89l0.02-0.13c-0.43,0.95-0.99,1.67-1.58,2.21c-0.04,0.04-0.09,0.08-0.13,0.12
				c0.04-0.01,0.08-0.03,0.12-0.04c0.15-0.05,0.35-0.11,0.58-0.15C157.42,157.86,157.68,157.82,157.95,157.79z"/>
			<path class="st1" d="M160.36,139.83l-1.26,4.94l-0.53,2.53l-0.23,1.12c0.34,0.99,0.53,1.95,0.58,2.9l0.07-0.43l0.42-2.53
				l0.53-2.53l3.56-15.69l0.69-2.8l-0.84,2.47l-0.84,2.53l-0.78,2.53L160.36,139.83z"/>
			<path class="st1" d="M173.39,165.47c0.06,0.07,0.11,0.15,0.17,0.22l0.16-1.79l0.17-2.61l0.36-2.55l0.31-2.53l0.28-2.53l0.42-2.53
				l0.42-2.5l0.42-2.53l0.53-2.53l3.56-15.69l0.69-2.8l-0.84,2.47l-0.84,2.53l-0.78,2.53l-1.37,4.97l-1.26,4.94l-0.53,2.53
				l-0.53,2.53l-0.47,2.58l-0.42,2.53l-0.47,2.61l-0.47,2.66l-0.42,2.61l-0.36,2.78l-0.08,0.56
				C172.5,164.42,172.96,164.93,173.39,165.47z"/>
			<path class="st1" d="M183.6,124.84l-1.12,2.86l-1.09,2.83l-0.95,2.75l-0.84,2.94l-0.84,2.86l-0.75,2.83l-0.73,3l-0.67,2.94
				l-0.59,2.97l-0.53,3.03l-0.56,3.16l-0.53,3.08l-0.53,3.28l-0.3,2.36c0.89,1.13,1.74,2.41,2.54,3.85l0.32-5.99l0.73-6.44
				l1.06-6.13l1.37-6.02l1.48-6.11l1.56-6.16l1.79-6.5l1.73-7l-1.31,2.86L183.6,124.84z"/>
			<path class="st1" d="M186.57,230.93c-0.03-0.01-0.06-0.01-0.09-0.02l-0.05-0.01c-0.22-0.03-0.59-0.09-1.03-0.24
				c-0.68-0.23-1.19-0.57-1.49-0.78c-0.03-0.02-0.07-0.05-0.1-0.07c-2.48-1.26-4.46-3.09-6.05-5.58c-0.93-1.44-1.77-3.21-2.55-5.32
				c-0.61,0.59-1.25,1.11-1.92,1.56l-0.06,0.04c-0.11,0.08-0.26,0.2-0.45,0.33l0.26,1.54l0.95,3.86l1.09,3.53l1,3.47l1.31,3.3
				l1.37,3.58l1.45,3.66l1.7,4.05l1.81,4.52l-1.51-2.53l-1.48-2.42l-1.37-2.53l-1.14-2.58l-1.2-2.69l-1.12-2.66l-1.09-2.75
				l-0.95-2.86l-0.84-2.94l-0.84-2.97l-0.7-3.08l-0.16-0.78c-0.17,0.07-0.33,0.13-0.48,0.19l-0.16,0.06c-0.4,0.15-0.8,0.27-1.2,0.38
				l0.19,1.1l0.84,3.5l0.84,3.5l1.09,3.39l1.12,3.28l1.14,3.16l1.31,3.08l1.42,2.83l1.51,2.75l1.73,2.72l1.65,2.33l1.79,2.25
				l0.67-0.31l0.31-0.56l0.53-0.33l1.42,0.5l0.95-0.67l1.51,0.92l2.01,0.42h1.56l0.84-0.53l-0.08-1.36l-4.74-14.6L186.57,230.93z"/>
			<path class="st1" d="M166.36,159.81c0.13,0.07,0.26,0.13,0.39,0.19c0.37,0.17,0.81,0.39,1.28,0.68c0.1,0.05,0.21,0.12,0.33,0.2
				c1.18,0.8,2.24,1.66,3.21,2.6v-1.28l0.18-4.06l0.57-7.66l-0.22,1.17l-0.34,1.91l-0.8,4.56l-0.22,1.05l-0.13-2.37
				c0.01-0.17,0.01-0.34,0.02-0.51l1.85-14.39l-1.2,4.64l-0.42,1.94l-0.31,1.89l-0.33,2l-0.31,2.11l-0.31,2.44l-0.36,2.75l0.25-5.5
				l0.22-4.47l0.2-3.66l1.06-15.02l-0.42,3.08l-0.42,3.5l-0.95,7.3l-0.42,3.75l-0.53,3.64l-0.53,3.5l-0.42,3.16l0.11-3.08l-0.04-6
				c0,0-0.7,5.57-0.77,6.67l-0.24,3.25C166.34,159.8,166.35,159.81,166.36,159.81z"/>
			<path class="st1" d="M206.04,239.68c-0.04,0-0.07-0.01-0.11-0.01c-0.33-0.03-0.88-0.07-1.52-0.3c-2.95-1-5.43-3.45-7.58-7.47
				c-0.6-1.11-1.15-2.38-1.65-3.8c-0.6,0.68-1.28,1.27-2.02,1.75c-0.21,0.14-0.43,0.27-0.66,0.38l0.23,0.81l1.31,3.3l1.37,3.58
				l1.45,3.66l1.7,4.05l1.81,4.52l-1.51-2.53l-1.48-2.42l-1.37-2.53l-1.14-2.58l-1.2-2.69l-1.12-2.66l-1.09-2.75l-0.4-1.21
				c-0.26,0.08-0.52,0.14-0.79,0.2c-0.42,0.08-0.85,0.13-1.28,0.15l0.11,0.33l1.12,3.28l1.14,3.16l1.31,3.08l1.42,2.83l1.51,2.75
				l1.73,2.72l1.65,2.33l1.79,2.25l0.67-0.31l0.31-0.56l0.53-0.33l1.42,0.5l0.95-0.67l1.51,0.92l2.01,0.42h1.56l0.84-0.53
				l-0.08-1.36l-3.98-12.26C206.34,239.71,206.19,239.71,206.04,239.68z"/>
			<path class="st1" d="M185.15,181.6c0.57-5.08,1.68-8.86,3.36-11.42c0.87-1.33,1.96-2.44,3.33-3.37c0.3-0.2,0.63-0.41,0.99-0.6
				l0.26-4.81l0.73-6.44l1.06-6.13l1.37-6.02l1.48-6.11l1.56-6.16l1.79-6.5l1.73-7l-1.31,2.86l-1.26,2.75l-1.12,2.86l-1.09,2.83
				l-0.95,2.75l-0.84,2.94l-0.84,2.86l-0.75,2.83l-0.73,3l-0.67,2.94l-0.59,2.97l-0.53,3.03l-0.56,3.16l-0.53,3.08l-0.53,3.28
				l-0.42,3.3l0.25-2.78l0.17-2.61l0.36-2.55l0.31-2.53l0.28-2.53l0.42-2.53l0.42-2.5l0.42-2.53l0.53-2.53l3.56-15.69l0.69-2.8
				l-0.84,2.47l-0.84,2.53l-0.78,2.53l-1.37,4.97l-1.26,4.94l-0.53,2.53l-0.53,2.53l-0.47,2.58l-0.42,2.53l-0.47,2.61l-0.47,2.66
				l-0.42,2.61l-0.36,2.78l-0.42,2.75l-0.11-1.97v-1.94l0.18-4.06l0.57-7.66l-0.22,1.17l-0.34,1.91l-0.8,4.56l-0.22,1.05l-0.13-2.37
				c0.01-0.17,0.01-0.34,0.02-0.51l1.85-14.39l-1.2,4.64l-0.42,1.94l-0.31,1.89l-0.33,2l-0.31,2.11l-0.31,2.44l-0.36,2.75l0.25-5.5
				l0.22-4.47l0.2-3.66l1.06-15.02l-0.42,3.08l-0.42,3.5l-0.95,7.3l-0.42,3.75l-0.53,3.64l-0.53,3.5l-0.42,3.16l0.11-3.08l-0.04-6
				c0,0-0.7,5.57-0.77,6.67l-0.39,5.24l-0.17,4.64l-0.11,4.89l-0.14,5.08v5.3l0.14,5.36l0.17,5.41l0.36,5.5l0.42,5.52l0.11,1.33
				l0.31,3.72l0.53,3.72l0.37,2.61c0.02-0.27,0.04-0.55,0.06-0.86c0.05-0.83,0.07-1.75,0.07-2.74l-0.18-13.43l-0.01-0.18l-0.11-2.03
				l-0.2-2.19l-0.11-2.22l-0.11-2.19l-0.14-2.19l-0.06-2.36v-2.39v-2.42l-0.11-2.55v-2.42v-2.55v-2.64l0.11-2.55l0.61,10.49
				L185.15,181.6z"/>
			<path class="st1" d="M218.13,117.71l-1.26,2.75l-1.12,2.86l-1.09,2.83l-0.95,2.75l-0.84,2.94l-0.84,2.86l-0.75,2.83l-0.73,3
				l-0.67,2.94l-0.59,2.97l-0.53,3.03l-0.56,3.16l-0.53,3.08l-0.53,3.28l-0.42,3.3l0.25-2.78l0.17-2.61l0.36-2.55l0.31-2.53
				l0.28-2.53l0.42-2.53l0.42-2.5l0.42-2.53l0.53-2.53l3.56-15.69l0.69-2.8l-0.84,2.47l-0.84,2.53l-0.78,2.53l-1.37,4.97l-1.26,4.94
				l-0.53,2.53l-0.53,2.53l-0.47,2.58l-0.42,2.53l-0.47,2.61l-0.47,2.66l-0.42,2.61l-0.36,2.78l-0.42,2.75l-0.11-1.97v-1.94
				l0.18-4.06l0.57-7.66l-0.22,1.17l-0.34,1.91l-0.8,4.56l-0.22,1.05l-0.13-2.37c0.01-0.17,0.01-0.34,0.02-0.51l1.85-14.39
				l-1.2,4.64l-0.42,1.94l-0.31,1.89l-0.33,2l-0.31,2.11l-0.31,2.44l-0.36,2.75l0.25-5.5l0.22-4.47l0.2-3.66l1.06-15.02l-0.42,3.08
				l-0.42,3.5l-0.95,7.3l-0.42,3.75l-0.53,3.64l-0.53,3.5l-0.42,3.16l0.11-3.08l-0.04-6c0,0-0.7,5.57-0.77,6.67l-0.39,5.24
				l-0.17,4.64l-0.07,3.11c0.43,0.06,0.87,0.16,1.33,0.28v-0.3l0.11-2.55l0.17,2.93c0.24,0.07,0.48,0.14,0.73,0.23
				c1.06,0.36,2.12,0.87,3.34,1.61c0.73,0.45,1.36,0.96,1.92,1.41l0.13,0.11c0.07,0.05,0.13,0.1,0.2,0.16
				c0.22,0.18,0.5,0.4,0.8,0.66c0.49,0.45,0.96,0.93,1.42,1.43v-5.14l0.36-6.75l0.73-6.44l1.06-6.13l1.37-6.02l1.48-6.11l1.56-6.16
				l1.79-6.5l1.73-7L218.13,117.71z"/>
			<path class="st1" d="M201.86,169.76c-0.26-0.13-0.53-0.26-0.8-0.37c-0.17-0.07-0.34-0.13-0.51-0.2c-0.05-0.02-0.1-0.04-0.15-0.06
				c-0.44-0.15-0.86-0.26-1.27-0.35c-0.24-0.05-0.48-0.09-0.71-0.11c-1.67-0.19-3.14,0.17-4.44,1.03c-0.04,0.02-0.07,0.04-0.11,0.07
				c-0.4,0.27-0.78,0.58-1.15,0.93c-0.05,0.05-0.09,0.09-0.14,0.14c-0.38,0.38-0.73,0.81-1.06,1.31c-0.43,0.65-0.81,1.43-1.16,2.31
				c-1.39,3.57-2.08,9.02-2.08,16.36l0.25,18.23c0,0.93-0.02,1.79-0.06,2.57c-0.01,0.13-0.01,0.26-0.02,0.39
				c-0.01,0.25-0.03,0.49-0.05,0.73l0,0c-0.06,0.86-0.15,1.61-0.27,2.27c-0.1,0.58-0.22,1.08-0.36,1.49
				c-0.08,0.24-0.17,0.45-0.27,0.64l0,0c-0.02,0.04-0.04,0.09-0.06,0.13c-0.02,0.03-0.05,0.03-0.06,0.06c0,0,0,0,0,0c0,0,0,0,0,0
				c-0.11,0.18-0.23,0.33-0.35,0.46c-0.34,0.36-0.73,0.56-1.17,0.65c-0.13,0.03-0.26,0.05-0.39,0.06c-0.25,0.02-0.49,0.07-0.75,0.05
				c-0.03,0-0.05,0-0.08,0c-0.1-0.01-0.2-0.03-0.31-0.07c-0.29-0.1-0.54-0.28-0.78-0.47c-0.15-0.11-0.29-0.23-0.44-0.33
				c-0.08-0.06-0.17-0.12-0.25-0.19c-0.14-0.11-0.29-0.23-0.43-0.35c-0.75-0.67-1.4-1.54-1.89-2.76c-0.21-0.55-0.4-1.21-0.55-1.99
				c-0.46-2.26-0.69-5.5-0.69-9.74v-0.49v-2.26v-5.24c0-4.36-0.88-9.22-2.63-14.59c-0.01-0.04-0.03-0.08-0.04-0.12
				c-0.02-0.06-0.04-0.12-0.07-0.18c-0.13-0.39-0.26-0.78-0.4-1.16c-0.87-2.45-1.79-4.62-2.77-6.5c-0.89-1.7-1.83-3.16-2.82-4.38
				c-0.8-0.99-1.65-1.84-2.54-2.58c-0.56-0.47-1.13-0.89-1.71-1.29c-0.04-0.02-0.08-0.03-0.11-0.06c-0.04-0.03-0.08-0.05-0.12-0.07
				c-0.4-0.25-0.82-0.44-1.23-0.64c-0.06-0.03-0.12-0.06-0.18-0.09c-0.04-0.02-0.09-0.05-0.13-0.07c-0.43-0.23-0.85-0.5-1.29-0.72
				c-0.21-0.11-0.41-0.2-0.63-0.28c-0.83-0.28-1.62-0.47-2.39-0.56c-0.83-0.1-1.62-0.08-2.39,0.06c-0.02,0-0.05,0.01-0.07,0.01
				c-0.07,0.01-0.15,0.04-0.22,0.07c-0.04,0.01-0.08,0.03-0.11,0.04c-0.01,0-0.02,0.01-0.02,0.01c-0.49,0.11-1.01,0.29-1.56,0.52
				c-0.12,0.05-0.23,0.1-0.35,0.15c-0.19,0.09-0.38,0.18-0.57,0.28c-0.2,0.1-0.41,0.21-0.62,0.33c-0.03,0.02-0.06,0.04-0.09,0.05
				c-0.18,0.1-0.35,0.19-0.53,0.29c-0.4,0.22-0.81,0.44-1.25,0.74c-0.05-0.08-0.09-0.16-0.12-0.24c-0.05-0.11-0.1-0.22-0.17-0.34
				c-0.1-0.17-0.15-0.32-0.24-0.48c-0.52-0.93-0.93-1.8-1.24-2.62c-0.03-0.07-0.06-0.14-0.08-0.21c-0.01-0.02-0.01-0.04-0.02-0.06
				c-0.29-0.83-0.45-1.59-0.45-2.27c0-0.49,0.15-0.85,0.43-1.1c0.03-0.03,0.06-0.05,0.1-0.07c0.16-0.11,0.35-0.19,0.57-0.23
				c0.14-0.03,0.28-0.05,0.45-0.05c0.04,0,0.06-0.01,0.09-0.02c0.03-0.01,0.06-0.01,0.09-0.02c0.03-0.01,0.06-0.02,0.1-0.02
				c0.13-0.01,0.25-0.03,0.38-0.05c0.15-0.02,0.3-0.05,0.44-0.09c0.16-0.04,0.32-0.09,0.46-0.15c0.02-0.01,0.04-0.02,0.06-0.03
				c0.1-0.05,0.19-0.1,0.29-0.16c0.29-0.17,0.54-0.38,0.75-0.63c0.19-0.22,0.36-0.47,0.49-0.75c0.31-0.66,0.47-1.49,0.47-2.49
				c0-0.65-0.11-1.3-0.3-1.93c-0.12-0.4-0.27-0.81-0.44-1.21c-0.01-0.03-0.02-0.06-0.04-0.09c-0.1-0.23-0.18-0.46-0.28-0.68
				c-0.06-0.13-0.12-0.25-0.19-0.38c-0.1-0.17-0.21-0.33-0.32-0.48c-0.14-0.19-0.28-0.36-0.43-0.53c-0.15-0.16-0.3-0.31-0.45-0.45
				c-0.08-0.07-0.16-0.14-0.24-0.2c-0.35-0.28-0.71-0.52-1.1-0.72c-0.19-0.1-0.35-0.25-0.55-0.32c-0.01,0-0.02-0.01-0.02-0.01
				c-0.02-0.01-0.04-0.03-0.07-0.04c0,0,0,0,0,0s0,0,0,0c-0.08-0.03-0.16-0.04-0.24-0.05c-0.01,0-0.02-0.01-0.03-0.01
				c-0.04,0-0.08,0-0.13-0.01c-0.22-0.01-0.43,0.02-0.65,0c-0.39-0.03-0.8-0.17-1.15-0.07c-0.19,0.05-0.35,0.18-0.51,0.31
				c-0.09,0.07-0.19,0.15-0.28,0.2c-0.13,0.08-0.26,0.15-0.39,0.23c-0.09,0.06-0.18,0.12-0.27,0.2c-0.09,0.08-0.2,0.11-0.3,0.17
				c-0.03,0.02-0.06,0.05-0.09,0.08c-0.02,0.02-0.02,0.06-0.04,0.08c-0.01,0.02-0.02,0.04-0.03,0.06c-0.01,0.02-0.02,0.04-0.03,0.06
				c-0.01,0.02-0.02,0.05-0.04,0.07c-0.32,0.4-0.59,0.86-0.81,1.37c-0.45,1.04-0.7,2.32-0.7,3.88c0,1.13,0.16,2.36,0.42,3.64
				c0.01,0.06,0.04,0.13,0.05,0.19c0.05,0.22,0.11,0.45,0.18,0.69c0.04,0.15,0.09,0.3,0.12,0.44c0.44,1.68,1.08,3.47,1.92,5.37
				c0.46,1.05,0.98,2.13,1.58,3.25c0.3,0.57,0.61,1.14,0.95,1.73c-0.03,0.06-0.07,0.12-0.1,0.19c-0.36,0.65-0.69,1.31-0.99,1.99
				c-0.66,1.47-1.2,3.02-1.65,4.62c-0.02,0.06-0.03,0.11-0.05,0.17c-0.11,0.41-0.27,0.78-0.37,1.2c-0.09,0.37-0.13,0.78-0.2,1.17
				c-0.01,0.07-0.02,0.15-0.04,0.22c-0.32,1.63-0.55,3.31-0.68,5.07c-0.08,1.01-0.12,2.05-0.12,3.12c0,4.7,0.56,9.04,1.56,13.09
				c0.17,0.7,0.37,1.39,0.58,2.08c0.48,1.59,1.04,3.13,1.68,4.62c0.01,0.02,0.01,0.04,0.02,0.05c0.26,0.61,0.49,1.24,0.76,1.85
				c0.05,0.12,0.1,0.23,0.16,0.35c0.42,0.84,0.85,1.63,1.3,2.38l0,0c0.64,1.07,1.3,2.06,1.99,2.97l0,0c1.71,2.26,3.59,4,5.63,5.22
				c0.93,0.56,1.89,1.01,2.89,1.35c0.11,0.04,0.22,0.07,0.33,0.09c0.15,0.04,0.3,0.06,0.46,0.11c0.16,0.05,0.32,0.09,0.49,0.13
				c0.38,0.09,0.75,0.16,1.11,0.21c0.27,0.04,0.55,0.07,0.82,0.08c0.48,0.03,0.95,0.02,1.4-0.03c0.5-0.05,0.99-0.16,1.47-0.3
				c0.01,0,0.02-0.01,0.04-0.01c0.02,0,0.03-0.01,0.05-0.01c0.17-0.05,0.33-0.11,0.5-0.17c0.09-0.04,0.18-0.07,0.28-0.1
				c0.3-0.11,0.6-0.23,0.89-0.39c0.03-0.01,0.05-0.03,0.08-0.04c0.06-0.04,0.12-0.08,0.18-0.12c0.13-0.09,0.25-0.19,0.38-0.28
				c0.29-0.19,0.57-0.41,0.85-0.64l0,0c1.7-1.41,3.2-3.5,4.48-6.33c1.04,4.69,2.26,8.31,3.67,10.84c0.17,0.31,0.35,0.61,0.53,0.9
				c0.6,0.94,1.25,1.71,1.93,2.37c0.8,0.77,1.66,1.38,2.55,1.85c0.07,0.04,0.14,0.08,0.22,0.12c0.37,0.18,0.69,0.49,1.07,0.63
				c0.06,0.02,0.12,0.04,0.18,0.05c0.09,0.02,0.18,0.03,0.27,0.05c0.08,0.01,0.16,0.03,0.24,0.05c0.21,0.05,0.41,0.09,0.61,0.12
				c0.59,0.09,1.16,0.08,1.69-0.02c0.15-0.03,0.3-0.07,0.45-0.11c0.41-0.12,0.81-0.29,1.18-0.53c0.08-0.05,0.16-0.11,0.25-0.17
				c0.22-0.16,0.44-0.34,0.64-0.54c0.16-0.15,0.31-0.31,0.46-0.49c1.6-1.9,2.82-5.15,3.66-9.71c0.14,1.06,0.29,2.06,0.45,3.03
				c0.35,2.12,0.76,4.03,1.23,5.73c0.6,2.19,1.3,4.04,2.1,5.51c0.44,0.81,0.88,1.55,1.34,2.2c1.09,1.55,2.25,2.63,3.47,3.25
				c0.01,0,0.01,0.01,0.02,0.01c0,0,0.01,0,0.01,0c0.15,0.08,0.31,0.14,0.46,0.2c0.09,0.04,0.19,0.08,0.29,0.11
				c0.11,0.04,0.23,0.06,0.34,0.08c0.22,0.03,0.43,0.04,0.65,0.07c0.54,0.08,1.07,0.07,1.58-0.03c0.69-0.13,1.36-0.43,2.01-0.89
				c0,0,0,0,0,0c0,0,0,0,0,0c0.03-0.02,0.07-0.05,0.1-0.08c0.39-0.29,0.77-0.64,1.15-1.04c0.22-0.24,0.44-0.48,0.65-0.76
				c0.19-0.24,0.38-0.44,0.56-0.68c0.05-0.07,0.1-0.14,0.15-0.21c0,0,0-0.01,0-0.01c0.06-0.1,0.12-0.21,0.18-0.33
				c0.01-0.02,0.01-0.03,0.02-0.05c0.05-0.11,0.1-0.23,0.15-0.35c0.06-0.14,0.12-0.28,0.19-0.41c1.92-3.51,3.07-8.78,3.42-15.92
				c0.08-1.57,0.12-3.22,0.12-4.96c0-7.58-0.71-14.28-2.13-20.1c-0.96-3.95-2.25-7.51-3.87-10.66c-0.36-0.72-0.74-1.39-1.12-2.03
				c-0.66-1.1-1.35-2.1-2.08-2.99c-0.69-0.85-1.4-1.61-2.14-2.29c-0.12-0.11-0.25-0.21-0.37-0.32c-0.05-0.04-0.1-0.08-0.15-0.12
				c-0.1-0.08-0.2-0.15-0.29-0.23c-0.07-0.05-0.13-0.11-0.2-0.16c-0.48-0.39-0.96-0.77-1.46-1.08
				C202.65,170.18,202.26,169.96,201.86,169.76z M172.66,182.73c2.33,3.61,3.5,7.61,3.5,12.02c0,4.42-1.21,7.62-3.59,9.63
				c-0.63,0.53-1.35,0.9-2.13,1.17c-0.27,0.09-0.54,0.17-0.81,0.24c-0.24,0.06-0.48,0.12-0.73,0.16c-0.34,0.06-0.69,0.11-1.05,0.13
				c-0.25,0.01-0.51,0.01-0.77,0c-0.41-0.01-0.83-0.04-1.26-0.1c-0.95-0.13-1.95-0.35-3.02-0.69c-0.12-0.04-0.23-0.07-0.35-0.11
				c-0.69-0.24-1.31-0.55-1.95-0.85c-3.14-1.48-5.68-3.66-7.56-6.68c-0.09-0.15-0.18-0.3-0.27-0.45c-0.65-1.08-1.19-2.19-1.64-3.34
				c-0.99-2.55-1.5-5.27-1.5-8.16c0-2.38,0.36-4.41,1.07-6.11c0.19-0.45,0.4-0.88,0.64-1.28c0.5-0.85,1.12-1.6,1.84-2.23
				c1.12-1,2.45-1.57,3.97-1.77c0.74-0.1,1.53-0.1,2.36-0.01c1.01,0.11,2.09,0.35,3.25,0.75c0.64,0.22,1.21,0.51,1.81,0.78
				c0.44,0.2,0.88,0.41,1.3,0.62c0.16,0.08,0.33,0.16,0.49,0.25c0.32,0.18,0.61,0.39,0.92,0.59c0.04,0.02,0.07,0.05,0.11,0.07
				c0.25,0.17,0.51,0.34,0.75,0.51C169.87,179.2,171.43,180.79,172.66,182.73z M198.9,217.57c-0.44-1.11-0.82-2.36-1.15-3.76
				c-0.16-0.7-0.32-1.43-0.45-2.2c-0.07-0.39-0.13-0.78-0.2-1.18c-0.19-1.21-0.34-2.5-0.46-3.87c-0.08-0.91-0.15-1.86-0.21-2.84
				c-0.03-0.53-0.05-1.07-0.08-1.62c-0.06-1.49-0.09-3.06-0.09-4.7v0c0-0.71,0.01-1.39,0.02-2.05c0.01-0.66,0.03-1.29,0.05-1.91
				c0.01-0.45,0.03-0.89,0.05-1.32c0.02-0.43,0.04-0.84,0.07-1.25c0.03-0.4,0.05-0.79,0.09-1.17c0.09-1.13,0.22-2.15,0.36-3.04
				c0.1-0.6,0.21-1.15,0.33-1.64c0.06-0.25,0.12-0.49,0.18-0.73c0.13-0.47,0.27-0.91,0.42-1.31c0.07-0.2,0.15-0.4,0.23-0.59
				c0.21-0.5,0.45-0.95,0.7-1.34c0.12-0.19,0.24-0.36,0.37-0.52c0.01-0.01,0.01-0.02,0.02-0.03c0.13-0.17,0.27-0.32,0.42-0.47
				c0.14-0.14,0.29-0.27,0.45-0.38c0.12-0.09,0.24-0.17,0.36-0.24c0.09-0.06,0.19-0.1,0.29-0.15v0c0.15-0.07,0.3-0.14,0.46-0.19
				c0.13-0.04,0.25-0.07,0.38-0.1c0.08-0.02,0.17-0.03,0.25-0.04v0c0.17-0.02,0.34-0.04,0.52-0.05c0.26,0,0.52,0.01,0.79,0.05
				c0.08,0.01,0.15,0.01,0.23,0.02c0.22,0.01,0.45,0,0.68,0.08c0.3,0.1,0.58,0.33,0.88,0.5c0.46,0.26,0.91,0.57,1.35,0.99
				c0.68,0.64,1.34,1.44,1.99,2.43c0.28,0.42,0.55,0.88,0.82,1.37c0.09,0.16,0.18,0.33,0.27,0.5c0.27,0.51,0.53,1.06,0.79,1.65
				c0.09,0.19,0.17,0.39,0.26,0.6c0.09,0.2,0.17,0.41,0.25,0.62c0.2,0.51,0.4,1.05,0.58,1.6c0.13,0.39,0.25,0.78,0.37,1.18
				c0.12,0.4,0.23,0.82,0.34,1.24c0.18,0.73,0.35,1.48,0.51,2.26c0.31,1.56,0.56,3.23,0.74,5.01c0.04,0.36,0.07,0.74,0.11,1.11
				c0.03,0.38,0.06,0.76,0.09,1.14c0.01,0.17,0.03,0.33,0.04,0.5c0.09,1.42,0.15,2.89,0.17,4.43c0.01,0.51,0.01,1.03,0.01,1.56
				c0,0.42,0,0.82-0.01,1.23c-0.03,1.61-0.1,3.1-0.23,4.49c-0.1,1.04-0.22,2.02-0.38,2.94s-0.34,1.78-0.55,2.58
				c-0.07,0.27-0.14,0.53-0.22,0.78c-0.15,0.51-0.32,0.99-0.49,1.44c-0.18,0.45-0.37,0.88-0.57,1.29c-0.07,0.14-0.13,0.32-0.19,0.47
				c-0.02,0.05-0.05,0.1-0.07,0.14c-0.08,0.15-0.17,0.29-0.25,0.43c-0.17,0.27-0.35,0.52-0.54,0.74c-0.09,0.11-0.19,0.22-0.29,0.32
				c-0.41,0.42-0.87,0.7-1.35,0.89c-0.05,0.02-0.09,0.04-0.14,0.05c-0.18,0.06-0.36,0.11-0.55,0.15c-0.29,0.06-0.58,0.1-0.88,0.11
				c-0.39,0.01-0.79-0.03-1.22-0.15c-0.11-0.03-0.22-0.06-0.33-0.1c-0.18-0.06-0.36-0.14-0.53-0.22c-0.09-0.05-0.18-0.1-0.27-0.15
				c-0.25-0.14-0.51-0.3-0.75-0.48c-0.17-0.12-0.33-0.25-0.5-0.39c-0.65-0.54-1.27-1.23-1.86-2.06
				C200.47,221,199.65,219.46,198.9,217.57z"/>
			<path class="st1" d="M216.39,233.2c-0.14,0.32-0.32,0.75-0.62,1.19c-0.27,0.42-0.54,0.72-0.73,0.95
				c-0.05,0.06-0.1,0.11-0.15,0.17c-0.66,0.85-1.36,1.57-2.09,2.17l0.68,1.72l1.7,4.05l1.81,4.52l-1.51-2.53l-1.48-2.42l-1.37-2.53
				l-0.92-2.07c-0.68,0.43-1.4,0.75-2.13,0.97l1.13,2.24l1.51,2.75l1.73,2.72l1.65,2.33l1.79,2.25l0.67-0.31l0.31-0.56l0.53-0.33
				l1.42,0.5l0.95-0.67l1.51,0.92l2.01,0.42h1.56l0.84-0.53l-0.08-1.36l-4.74-14.6l-3.07-10.52c-0.65,3.31-1.59,6.08-2.81,8.32
				C216.45,233.06,216.42,233.13,216.39,233.2z"/>
			<path class="st1" d="M204.12,214.79l-0.64-3.33l-0.5-3.41l-0.47-3.58l-0.42-3.66l-0.2-1.71l-0.21-1.76l-0.17-2.05l-0.11-2
				l-0.11-2.03l-0.2-2.19l-0.04-0.87c-0.19,1.46-0.32,3.26-0.39,5.39c-0.04,1.19-0.06,2.47-0.06,3.81c0,10.45,1.27,15.88,2.33,18.59
				c0.88,2.2,1.72,3.52,2.4,4.31l-0.52-2.31L204.12,214.79z"/>
			<path class="st1" d="M209.2,207.72c0-7.82-0.89-14.02-2.65-18.44c-1.33-3.32-2.53-4.88-3.3-5.6c-0.16-0.15-0.32-0.27-0.52-0.38
				c-0.03-0.02-0.07-0.04-0.1-0.06c-0.04,0-0.08-0.01-0.12-0.02c-0.08,0.11-0.21,0.3-0.36,0.62l0.48,6.61l0.67,7.05l0.73,6.16
				l0.78,5.36l0.81,4.77l0.73,4.22l0.71,2.91c0.05-0.11,0.1-0.24,0.17-0.38C208.12,218.73,209.2,215.03,209.2,207.72z"/>
			<path class="st1" d="M157.25,179.84c-0.95,0.41-1.78,0.97-2.39,1.86c-0.89,1.34-1.34,3.13-1.34,5.39c0,0.87,0.07,1.72,0.22,2.56
				c0.36,2.12,1.18,4.15,2.47,6.1c0.97,1.47,2.14,2.63,3.44,3.6c0.74,0.55,1.53,1.04,2.37,1.44c0.4,0.19,0.81,0.37,1.25,0.52
				c0.78,0.27,1.51,0.4,2.21,0.47c0.44,0.04,0.85,0.03,1.26-0.02c0.21-0.02,0.43-0.05,0.63-0.1c0.35-0.07,0.68-0.19,1-0.33
				c0.26-0.11,0.5-0.24,0.74-0.39c0.26-0.16,0.53-0.3,0.77-0.5c0.02-0.02,0.04-0.03,0.06-0.04c1.73-1.54,2.6-3.86,2.6-6.98
				c0-1.3-0.15-2.56-0.44-3.78c-0.59-2.49-1.85-4.81-3.67-6.98c-0.28-0.34-0.58-0.68-0.89-1.01c-0.06-0.06-0.11-0.13-0.15-0.19
				c-0.09-0.13-0.18-0.26-0.3-0.39l-0.54,1.43c0.34,0.35,0.58,0.71,0.83,1.07c0.11,0.16,0.23,0.32,0.35,0.48
				c0.32,0.41,0.62,0.82,0.9,1.23c0.97,1.42,1.67,2.87,1.97,4.36c0.14,0.71,0.21,1.43,0.21,2.15c0,1.87-0.46,3.29-1.36,4.29
				c-0.16,0.18-0.34,0.35-0.53,0.5c-0.05,0.04-0.16,0.03-0.22,0.06c-0.19,0.12-0.4,0.21-0.64,0.28c-0.31,0.09-0.65,0.15-1.01,0.19
				c-0.21,0.02-0.44,0.01-0.68,0c-0.4-0.03-0.82-0.08-1.26-0.16c-0.65-0.1-1.21-0.12-1.98-0.36v-6.95v-9.72
				c-1.45-0.48-2.69-0.69-3.74-0.66c-0.24,0.01-0.48,0.02-0.7,0.05C158.16,179.41,157.71,179.64,157.25,179.84z M159.72,183.44
				c0.76,0.26,1.29,0.62,1.61,1.06c0.31,0.43,0.46,0.96,0.46,1.55v3.6v6.48c-0.21-0.08-0.4-0.16-0.6-0.24
				c-0.84-0.35-1.6-0.76-2.28-1.22c-0.98-0.65-1.82-1.38-2.46-2.25c-0.66-0.9-1.15-1.83-1.44-2.77c-0.23-0.73-0.34-1.47-0.34-2.22
				c0-1.54,0.49-2.7,1.47-3.5c0.42-0.34,0.9-0.51,1.39-0.62C158.2,183.17,158.91,183.17,159.72,183.44
				C159.72,183.44,159.72,183.44,159.72,183.44z"/>
		</g>
	</g>
</g>
</svg>
