<?xml version="1.0" encoding="utf-8"?>
<!-- Generator: Adobe Illustrator 24.0.0, SVG Export Plug-In . SVG Version: 6.00 Build 0)  -->
<svg version="1.1" id="Capa_1" xmlns="http://www.w3.org/2000/svg" xmlns:xlink="http://www.w3.org/1999/xlink" x="0px" y="0px"
	 viewBox="0 0 309.32 309.32" style="enable-background:new 0 0 309.32 309.32;" xml:space="preserve">
<style type="text/css">
	.st0{fill:none;stroke:#1D1D1B;stroke-width:5;stroke-miterlimit:10;}
	.st1{fill:#1D1D1B;}
</style>
<g>
	<g>
		<path class="st0" d="M73.5,215.45c-17.42,0-31.54-43.75-31.54-97.71l0,173.03h162.32v-75.32H73.5z"/>
		<path class="st0" d="M73.5,18.55L73.5,18.55c-15.04,0-27.61,32.63-30.77,76.27h0C45.89,51.18,58.46,18.55,73.5,18.55z"/>
		<path class="st0" d="M235.82,18.55H73.5c15.04,0,27.61,32.63,30.76,76.27c0.5,6.9,0.77,14.07,0.77,21.44
			c0,53.97-14.12,97.71-31.54,97.71l0,0h130.79h31.54c17.42,0,31.54-43.75,31.54-97.71C267.36,62.3,253.24,18.55,235.82,18.55z"/>
		<path class="st0" d="M104.26,94.82c-3.15-43.65-15.73-76.27-30.76-76.27c-15.04,0-27.61,32.63-30.77,76.27
			c-0.5,6.9-0.77,14.07-0.77,21.44c0,53.97,14.12,97.71,31.54,97.71c17.42,0,31.54-43.75,31.54-97.71
			C105.03,108.89,104.76,101.73,104.26,94.82z M72.48,158.03c-6,0-10.86-18.89-10.86-42.2c0-7.66,0.53-14.81,1.45-21.01
			c1.88-12.65,5.38-21.2,9.41-21.2c4.03,0,7.54,8.54,9.41,21.2c0.92,6.19,1.45,13.35,1.45,21.01
			C83.35,139.14,78.48,158.03,72.48,158.03z"/>
	</g>
	<g id="LOGO_GAMA_6_">
		<g>
			<path class="st1" d="M81.62,276.07l2.89,0.35l1.75,0.23c0.03-0.05,0.06-0.09,0.08-0.12c0.05-0.09,0.1-0.18,0.16-0.27l-7.42-0.52
				L81.62,276.07z"/>
			<path class="st1" d="M157.77,263.95l-4.91,1.3c0.04,1.14-0.11,2.34-0.45,3.58c-0.01,0.03-0.02,0.07-0.02,0.1
				c-0.04,0.17-0.09,0.42-0.2,0.72c-0.64,1.89-1.67,3.64-3.06,5.27l1.92-0.33l3.49-0.6l3.19-0.78l2.91-0.9l2.87-0.83l2.73-1.08
				l2.96-1.13l3.03-1.2l3.35-1.41l3.74-1.5l-2.09,1.24l-1.99,1.22l-2.09,1.13l-2.13,0.94l-2.22,0.99l-2.2,0.92l-2.27,0.9l-2.36,0.78
				l-2.43,0.69l-2.45,0.69l-2.55,0.58l-2.64,0.55l-2.75,0.53l-1.58,0.23c-0.7,0.65-1.47,1.28-2.31,1.88l0.93-0.13l3.1-0.44l3-0.6
				l3.03-0.53l2.89-0.69l2.89-0.69l2.8-0.9l2.71-0.92l2.61-0.94l2.55-1.08l2.34-1.18l2.27-1.24l2.25-1.43l1.93-1.36l1.86-1.47
				l-0.25-0.55l-0.46-0.25l-0.28-0.44l0.41-1.18l-0.55-0.78l0.76-1.24l0.34-1.66v-1.29l-0.44-0.69l-1.12,0.07l-12.06,3.92
				L157.77,263.95z"/>
			<path class="st1" d="M78.66,267.1l2.27,0.78l2.43,0.69l2.36,0.69l2.34,0.62l2.48,0.6l2.43,0.55l2.45,0.48l2.5,0.44l1.38,0.24
				c-0.04-0.6-0.02-1.22,0.06-1.85l-3.78-0.65l-4.98-1.13l-5.04-1.22l-5.09-1.29l-5.37-1.47l-5.78-1.43l2.36,1.08l2.27,1.04
				l2.36,0.92L78.66,267.1z"/>
			<path class="st1" d="M99.34,272.69l-1.56-0.17l-0.11-0.02c0.78,0.35,1.38,0.82,1.83,1.3c0.03,0.04,0.07,0.07,0.1,0.11
				c-0.01-0.03-0.02-0.06-0.03-0.1c-0.04-0.13-0.09-0.29-0.12-0.48C99.4,273.12,99.37,272.91,99.34,272.69z"/>
			<path class="st1" d="M84.51,270.7l4.08,1.04l2.09,0.44l0.92,0.19c0.82-0.28,1.61-0.44,2.39-0.48l-0.36-0.06l-2.09-0.35
				l-2.09-0.44l-12.96-2.94l-2.31-0.57l2.04,0.69l2.09,0.69l2.09,0.65L84.51,270.7z"/>
			<path class="st1" d="M105.69,259.93c0.06-0.05,0.12-0.09,0.18-0.14l-1.48-0.13l-2.16-0.14l-2.11-0.3l-2.09-0.25l-2.09-0.23
				l-2.09-0.35l-2.06-0.35l-2.09-0.35l-2.09-0.44l-12.96-2.94l-2.31-0.57l2.04,0.69l2.09,0.69l2.09,0.65l4.1,1.13l4.08,1.04
				l2.09,0.44l2.09,0.44l2.13,0.39l2.09,0.35l2.16,0.39l2.2,0.39l2.16,0.35l2.29,0.3l0.46,0.07
				C104.82,260.67,105.24,260.29,105.69,259.93z"/>
			<path class="st1" d="M72.13,251.5l2.36,0.92l2.34,0.9l2.27,0.78l2.43,0.69l2.36,0.69l2.34,0.62l2.48,0.6l2.43,0.55l2.45,0.48
				l2.5,0.44l2.61,0.46l2.55,0.44l2.71,0.44l1.95,0.25c0.93-0.74,1.99-1.44,3.18-2.1l-4.95-0.27l-5.32-0.6l-5.07-0.88l-4.98-1.13
				l-5.04-1.22l-5.09-1.29l-5.37-1.47l-5.78-1.43l2.36,1.08L72.13,251.5z"/>
			<path class="st1" d="M159.75,249.05c-0.01,0.02-0.01,0.05-0.02,0.07l-0.01,0.04c-0.03,0.18-0.08,0.49-0.2,0.85
				c-0.19,0.56-0.47,0.98-0.64,1.23c-0.02,0.03-0.04,0.06-0.06,0.08c-1.04,2.05-2.55,3.68-4.61,5c-1.19,0.77-2.65,1.47-4.39,2.1
				c0.49,0.51,0.92,1.04,1.29,1.59l0.04,0.05c0.07,0.09,0.17,0.22,0.27,0.37l1.27-0.22l3.19-0.78l2.91-0.9l2.87-0.83l2.73-1.08
				l2.96-1.13l3.03-1.2l3.35-1.41l3.74-1.5l-2.09,1.24l-1.99,1.22l-2.09,1.13l-2.13,0.94l-2.22,0.99l-2.2,0.92l-2.27,0.9l-2.36,0.78
				l-2.43,0.69l-2.45,0.69l-2.55,0.58l-0.65,0.14c0.06,0.14,0.11,0.27,0.15,0.4l0.05,0.13c0.12,0.33,0.22,0.66,0.31,0.99l0.91-0.16
				l2.89-0.69l2.89-0.69l2.8-0.9l2.71-0.92l2.61-0.94l2.55-1.08l2.34-1.18l2.27-1.24l2.25-1.43l1.93-1.36l1.86-1.47l-0.25-0.55
				l-0.46-0.25l-0.28-0.44l0.41-1.18l-0.55-0.78l0.76-1.24l0.34-1.66v-1.29l-0.44-0.69l-1.12,0.07l-12.06,3.92L159.75,249.05z"/>
			<path class="st1" d="M101.01,265.74c0.06-0.11,0.11-0.21,0.16-0.32c0.14-0.3,0.32-0.67,0.56-1.06c0.04-0.08,0.1-0.17,0.16-0.27
				c0.66-0.97,1.37-1.85,2.15-2.65h-1.06l-3.35-0.15l-6.32-0.47l0.96,0.18l1.58,0.28l3.77,0.66l0.87,0.18l-1.96,0.11
				c-0.14-0.01-0.28-0.01-0.42-0.01l-11.88-1.52l3.83,0.99l1.61,0.35l1.56,0.25l1.65,0.28l1.74,0.25l2.02,0.25l2.27,0.3l-4.54-0.21
				l-3.69-0.18l-3.03-0.16l-12.4-0.88l2.55,0.35l2.89,0.35l6.03,0.78l3.1,0.35l3,0.44l2.89,0.44l2.61,0.35l-2.55-0.09l-4.96,0.03
				c0,0,4.6,0.57,5.51,0.64l2.69,0.2C101,265.75,101.01,265.74,101.01,265.74z"/>
			<path class="st1" d="M166.98,232.97c0,0.03-0.01,0.06-0.01,0.09c-0.02,0.27-0.06,0.72-0.24,1.26c-0.83,2.44-2.85,4.49-6.17,6.26
				c-0.92,0.5-1.96,0.95-3.14,1.36c0.56,0.5,1.05,1.06,1.45,1.67c0.11,0.18,0.22,0.36,0.32,0.55l0.67-0.19l2.73-1.08l2.96-1.13
				l3.03-1.2l3.35-1.41l3.74-1.5l-2.09,1.24l-1.99,1.22l-2.09,1.13l-2.13,0.94l-2.22,0.99l-2.2,0.92l-2.27,0.9l-1,0.33
				c0.06,0.21,0.12,0.43,0.16,0.66c0.07,0.34,0.11,0.7,0.12,1.06l0.28-0.09l2.71-0.92l2.61-0.94l2.55-1.08l2.34-1.18l2.27-1.24
				l2.25-1.43l1.93-1.36l1.86-1.47l-0.25-0.55l-0.46-0.25l-0.28-0.44l0.41-1.18l-0.55-0.78l0.76-1.24l0.34-1.66v-1.29l-0.44-0.69
				l-1.12,0.07l-10.12,3.29C167.01,232.72,167,232.84,166.98,232.97z"/>
			<path class="st1" d="M119.01,250.22c-4.2-0.47-7.32-1.39-9.43-2.78c-1.1-0.72-2.01-1.62-2.79-2.75
				c-0.17-0.25-0.33-0.52-0.49-0.82l-3.97-0.21l-5.32-0.6l-5.07-0.88l-4.98-1.13l-5.04-1.22l-5.09-1.29l-5.37-1.47l-5.78-1.43
				l2.36,1.08l2.27,1.04l2.36,0.92l2.34,0.9l2.27,0.78l2.43,0.69l2.36,0.69l2.34,0.62l2.48,0.6l2.43,0.55l2.45,0.48l2.5,0.44
				l2.61,0.46l2.55,0.44l2.71,0.44l2.73,0.35l-2.29-0.21l-2.16-0.14l-2.11-0.3l-2.09-0.25L94.14,245l-2.09-0.35l-2.06-0.35
				l-2.09-0.35l-2.09-0.44l-12.96-2.94l-2.31-0.57l2.04,0.69l2.09,0.69l2.09,0.65l4.1,1.13l4.08,1.04l2.09,0.44l2.09,0.44l2.13,0.39
				l2.09,0.35l2.16,0.39l2.2,0.39l2.16,0.35l2.29,0.3l2.27,0.35l-1.63,0.09h-1.6l-3.35-0.15l-6.32-0.47l0.96,0.18l1.58,0.28
				l3.77,0.66l0.87,0.18l-1.96,0.11c-0.14,0-0.28-0.01-0.42-0.01l-11.88-1.52l3.83,0.99l1.6,0.35l1.56,0.25l1.65,0.28l1.74,0.25
				l2.02,0.25l2.27,0.3l-4.54-0.21l-3.69-0.18l-3.03-0.16l-12.4-0.88l2.54,0.35l2.89,0.35l6.03,0.78l3.1,0.35l3,0.44l2.89,0.44
				l2.61,0.35l-2.55-0.09l-4.96,0.03c0,0,4.6,0.57,5.51,0.64l4.33,0.32l3.83,0.14l4.04,0.09l4.2,0.12h4.38l4.43-0.12l4.47-0.14
				l4.54-0.3l4.56-0.35l1.1-0.09l3.07-0.25l3.07-0.44l2.16-0.31c-0.22-0.02-0.46-0.03-0.71-0.05c-0.69-0.04-1.45-0.06-2.26-0.06
				l-11.1,0.15l-0.15,0.01l-1.67,0.09l-1.81,0.16l-1.83,0.09l-1.81,0.09l-1.81,0.12l-1.95,0.05h-1.97h-1.99l-2.11,0.09h-1.99h-2.11
				h-2.18l-2.11-0.09l8.67-0.51L119.01,250.22z"/>
			<path class="st1" d="M66.24,222.98l2.27,1.04l2.36,0.92l2.34,0.9l2.27,0.78l2.43,0.69l2.36,0.69l2.34,0.62l2.48,0.6l2.43,0.55
				l2.45,0.48l2.5,0.44l2.61,0.46l2.55,0.44l2.71,0.44l2.73,0.35l-2.29-0.21l-2.16-0.14l-2.11-0.3l-2.09-0.25l-2.09-0.23l-2.09-0.35
				l-2.06-0.35l-2.09-0.35l-2.09-0.44l-12.96-2.94l-2.31-0.57l2.04,0.69l2.09,0.69l2.09,0.65l4.1,1.13l4.08,1.04l2.09,0.44
				l2.09,0.44l2.13,0.39l2.09,0.35l2.16,0.39l2.2,0.39l2.16,0.35l2.29,0.3l2.27,0.35l-1.63,0.09h-1.6l-3.35-0.15l-6.32-0.47
				l0.96,0.18l1.58,0.28l3.77,0.66l0.87,0.18l-1.96,0.11c-0.14-0.01-0.28-0.01-0.42-0.01l-11.88-1.52l3.83,0.99l1.6,0.35l1.56,0.25
				l1.65,0.28l1.74,0.25l2.02,0.25l2.27,0.3l-4.54-0.21l-3.69-0.18l-3.03-0.16l-12.4-0.88l2.55,0.35l2.89,0.35l6.03,0.78l3.1,0.35
				l3,0.44l2.89,0.44l2.61,0.35l-2.55-0.09l-4.96,0.03c0,0,4.6,0.57,5.51,0.64l4.33,0.32l3.83,0.14l2.57,0.06
				c0.05-0.35,0.13-0.72,0.23-1.1h-0.25l-2.11-0.09l2.42-0.14c0.06-0.2,0.12-0.4,0.19-0.6c0.3-0.88,0.72-1.75,1.33-2.76
				c0.37-0.61,0.79-1.13,1.16-1.59l0.09-0.11c0.04-0.05,0.09-0.11,0.13-0.16c0.15-0.19,0.33-0.42,0.55-0.66
				c0.37-0.4,0.76-0.79,1.18-1.17h-4.25l-5.57-0.3l-5.32-0.6l-5.07-0.88l-4.98-1.13l-5.04-1.22l-5.09-1.29l-5.37-1.47l-5.78-1.43
				L66.24,222.98z"/>
			<path class="st1" d="M109.23,236.42c-0.11,0.22-0.22,0.44-0.31,0.66c-0.06,0.14-0.11,0.28-0.16,0.42
				c-0.01,0.04-0.03,0.08-0.05,0.12c-0.12,0.36-0.22,0.71-0.29,1.05c-0.04,0.2-0.07,0.39-0.09,0.59c-0.16,1.38,0.14,2.59,0.85,3.66
				c0.02,0.03,0.04,0.06,0.06,0.09c0.22,0.33,0.48,0.64,0.77,0.95c0.04,0.04,0.08,0.08,0.11,0.12c0.31,0.31,0.67,0.6,1.08,0.88
				c0.54,0.35,1.18,0.67,1.91,0.95c2.95,1.15,7.45,1.72,13.51,1.72l15.06-0.2c0.77,0,1.48,0.02,2.13,0.05
				c0.11,0,0.22,0.01,0.32,0.02c0.21,0.01,0.41,0.03,0.61,0.04l0,0c0.71,0.05,1.33,0.13,1.87,0.22c0.48,0.08,0.89,0.18,1.23,0.3
				c0.2,0.07,0.37,0.14,0.53,0.22l0,0c0.03,0.02,0.07,0.03,0.11,0.05c0.02,0.01,0.03,0.04,0.05,0.05c0,0,0,0,0,0c0,0,0,0,0,0
				c0.15,0.09,0.27,0.19,0.38,0.29c0.3,0.28,0.46,0.6,0.54,0.96c0.02,0.11,0.04,0.21,0.05,0.32c0.02,0.21,0.05,0.4,0.04,0.62
				c0,0.02,0,0.04,0,0.07c-0.01,0.08-0.03,0.17-0.06,0.25c-0.08,0.24-0.23,0.44-0.39,0.64c-0.09,0.12-0.19,0.24-0.28,0.36
				c-0.05,0.07-0.1,0.14-0.15,0.21c-0.09,0.12-0.19,0.24-0.29,0.35c-0.55,0.62-1.27,1.16-2.28,1.56c-0.45,0.18-1,0.33-1.64,0.46
				c-1.87,0.38-4.54,0.57-8.05,0.57H136h-1.87h-4.33c-3.6,0-7.62,0.73-12.05,2.18c-0.04,0.01-0.07,0.02-0.1,0.04
				c-0.05,0.02-0.1,0.04-0.15,0.05c-0.32,0.11-0.64,0.22-0.96,0.33c-2.03,0.71-3.82,1.48-5.37,2.29c-1.4,0.73-2.61,1.51-3.61,2.33
				c-0.82,0.66-1.52,1.36-2.13,2.1c-0.38,0.46-0.74,0.93-1.06,1.41c-0.02,0.03-0.03,0.06-0.05,0.09c-0.02,0.03-0.04,0.07-0.06,0.1
				c-0.2,0.33-0.36,0.68-0.53,1.02c-0.02,0.05-0.05,0.1-0.07,0.15c-0.02,0.04-0.04,0.07-0.06,0.11c-0.19,0.36-0.41,0.7-0.6,1.06
				c-0.09,0.17-0.17,0.34-0.23,0.52c-0.23,0.68-0.39,1.34-0.46,1.97c-0.08,0.68-0.07,1.34,0.05,1.97c0,0.02,0,0.04,0.01,0.06
				c0.01,0.06,0.04,0.12,0.06,0.19c0.01,0.03,0.02,0.06,0.03,0.09c0,0.01,0.01,0.01,0.01,0.02c0.09,0.4,0.24,0.83,0.43,1.29
				c0.04,0.1,0.08,0.19,0.13,0.29c0.07,0.16,0.15,0.31,0.23,0.47c0.09,0.17,0.17,0.34,0.27,0.51c0.01,0.02,0.03,0.05,0.04,0.08
				c0.08,0.15,0.16,0.29,0.24,0.43c0.18,0.33,0.37,0.67,0.61,1.03c-0.07,0.04-0.13,0.07-0.19,0.1c-0.09,0.04-0.18,0.08-0.28,0.14
				c-0.14,0.08-0.26,0.13-0.4,0.2c-0.77,0.43-1.49,0.77-2.16,1.02c-0.06,0.02-0.12,0.05-0.17,0.07c-0.02,0.01-0.03,0.01-0.05,0.02
				c-0.69,0.24-1.32,0.37-1.87,0.37c-0.4,0-0.7-0.12-0.91-0.36c-0.02-0.03-0.04-0.05-0.06-0.08c-0.09-0.13-0.15-0.29-0.19-0.47
				c-0.02-0.11-0.04-0.23-0.04-0.37c0-0.03-0.01-0.05-0.02-0.08c-0.01-0.02-0.01-0.05-0.02-0.08c-0.01-0.03-0.02-0.05-0.02-0.08
				c-0.01-0.11-0.03-0.21-0.04-0.31c-0.02-0.12-0.04-0.24-0.07-0.36c-0.03-0.13-0.07-0.26-0.12-0.38c-0.01-0.02-0.02-0.03-0.03-0.05
				c-0.04-0.08-0.08-0.16-0.13-0.24c-0.14-0.24-0.32-0.44-0.52-0.62c-0.18-0.16-0.39-0.29-0.62-0.4c-0.55-0.26-1.23-0.39-2.06-0.39
				c-0.54,0-1.07,0.09-1.6,0.24c-0.33,0.1-0.67,0.22-1,0.37c-0.02,0.01-0.05,0.02-0.07,0.03c-0.19,0.08-0.38,0.15-0.56,0.23
				c-0.11,0.05-0.21,0.1-0.31,0.16c-0.14,0.09-0.27,0.18-0.39,0.27c-0.16,0.11-0.3,0.23-0.43,0.35c-0.13,0.12-0.26,0.24-0.37,0.37
				c-0.06,0.06-0.11,0.13-0.17,0.19c-0.23,0.29-0.43,0.59-0.59,0.91c-0.08,0.16-0.2,0.29-0.27,0.46c0,0.01-0.01,0.01-0.01,0.02
				c-0.01,0.02-0.03,0.04-0.03,0.06c0,0,0,0,0,0s0,0,0,0c-0.02,0.07-0.04,0.13-0.04,0.2c0,0.01,0,0.02-0.01,0.03
				c0,0.04,0,0.07,0,0.1c-0.01,0.18,0.01,0.36,0,0.54c-0.02,0.32-0.14,0.66-0.06,0.95c0.04,0.15,0.15,0.29,0.25,0.42
				c0.06,0.08,0.12,0.15,0.17,0.24c0.06,0.11,0.12,0.22,0.19,0.32c0.05,0.08,0.1,0.15,0.16,0.22c0.07,0.08,0.09,0.16,0.14,0.24
				c0.02,0.03,0.04,0.05,0.07,0.08c0.02,0.02,0.05,0.02,0.07,0.04c0.01,0.01,0.03,0.02,0.05,0.03c0.02,0.01,0.03,0.02,0.05,0.03
				c0.02,0.01,0.04,0.02,0.06,0.03c0.33,0.26,0.71,0.48,1.13,0.67c0.86,0.38,1.92,0.58,3.2,0.58c0.94,0,1.95-0.13,3.01-0.35
				c0.05-0.01,0.11-0.03,0.16-0.04c0.18-0.04,0.37-0.09,0.57-0.15c0.12-0.03,0.24-0.07,0.37-0.1c1.39-0.37,2.86-0.89,4.43-1.58
				c0.86-0.38,1.76-0.81,2.68-1.3c0.47-0.25,0.94-0.51,1.43-0.79c0.05,0.03,0.1,0.05,0.15,0.08c0.53,0.29,1.08,0.57,1.64,0.82
				c1.22,0.54,2.49,0.99,3.82,1.36c0.05,0.01,0.09,0.03,0.14,0.04c0.34,0.09,0.65,0.23,0.99,0.31c0.31,0.07,0.64,0.11,0.97,0.16
				c0.06,0.01,0.12,0.02,0.18,0.03c1.34,0.26,2.73,0.45,4.19,0.56c0.84,0.06,1.69,0.1,2.57,0.1c3.88,0,7.46-0.46,10.81-1.29
				c0.58-0.14,1.15-0.31,1.72-0.48c1.31-0.4,2.58-0.86,3.81-1.38c0.01-0.01,0.03-0.01,0.04-0.02c0.51-0.21,1.03-0.41,1.53-0.63
				c0.1-0.04,0.19-0.09,0.29-0.13c0.69-0.35,1.34-0.71,1.97-1.07l0,0c0.89-0.53,1.71-1.07,2.46-1.64l0,0
				c1.86-1.41,3.3-2.97,4.31-4.65c0.46-0.77,0.84-1.56,1.12-2.39c0.03-0.09,0.05-0.18,0.08-0.27c0.03-0.13,0.05-0.25,0.09-0.38
				c0.04-0.13,0.07-0.27,0.1-0.4c0.07-0.31,0.13-0.62,0.17-0.92c0.03-0.23,0.05-0.45,0.07-0.67c0.02-0.39,0.02-0.78-0.02-1.16
				c-0.04-0.42-0.13-0.82-0.25-1.21c0-0.01-0.01-0.02-0.01-0.03c0-0.01-0.01-0.03-0.01-0.04c-0.04-0.14-0.09-0.28-0.14-0.41
				c-0.03-0.08-0.06-0.15-0.09-0.23c-0.09-0.25-0.19-0.5-0.32-0.73c-0.01-0.02-0.02-0.04-0.03-0.07c-0.03-0.05-0.07-0.1-0.1-0.15
				c-0.08-0.11-0.16-0.21-0.23-0.32c-0.16-0.24-0.34-0.47-0.53-0.7l0,0c-1.16-1.4-2.89-2.64-5.23-3.7c3.88-0.86,6.87-1.87,8.96-3.03
				c0.26-0.14,0.51-0.29,0.74-0.44c0.77-0.5,1.42-1.03,1.96-1.6c0.64-0.66,1.14-1.37,1.53-2.11c0.03-0.06,0.07-0.12,0.1-0.18
				c0.15-0.3,0.41-0.57,0.52-0.89c0.02-0.05,0.03-0.1,0.04-0.15c0.02-0.07,0.03-0.15,0.04-0.22c0.01-0.07,0.02-0.13,0.04-0.2
				c0.04-0.17,0.07-0.34,0.1-0.51c0.07-0.49,0.07-0.96-0.02-1.4c-0.03-0.13-0.06-0.25-0.09-0.37c-0.1-0.34-0.24-0.67-0.44-0.97
				c-0.04-0.07-0.09-0.14-0.14-0.2c-0.13-0.18-0.28-0.36-0.44-0.53c-0.12-0.13-0.26-0.26-0.4-0.38c-1.57-1.33-4.25-2.33-8.02-3.02
				c0.87-0.11,1.7-0.24,2.5-0.37c1.75-0.29,3.33-0.63,4.73-1.02c1.81-0.5,3.33-1.08,4.55-1.74c0.67-0.36,1.28-0.73,1.81-1.11
				c1.28-0.9,2.17-1.86,2.68-2.87c0,0,0-0.01,0.01-0.01c0,0,0,0,0-0.01c0.06-0.13,0.12-0.25,0.17-0.38
				c0.03-0.08,0.06-0.16,0.09-0.24c0.03-0.09,0.05-0.19,0.06-0.28c0.03-0.18,0.03-0.36,0.06-0.54c0.07-0.45,0.05-0.88-0.03-1.31
				c-0.11-0.57-0.35-1.13-0.73-1.66c0,0,0,0,0,0c0,0,0,0,0,0c-0.02-0.03-0.04-0.06-0.07-0.08c-0.24-0.32-0.52-0.64-0.86-0.95
				c-0.19-0.18-0.4-0.36-0.63-0.54c-0.2-0.15-0.36-0.31-0.56-0.46c-0.06-0.04-0.11-0.08-0.18-0.13c0,0,0,0-0.01,0
				c-0.08-0.05-0.17-0.1-0.27-0.15c-0.01-0.01-0.03-0.01-0.04-0.02c-0.09-0.04-0.19-0.08-0.29-0.13c-0.12-0.05-0.23-0.1-0.34-0.16
				c-2.9-1.58-7.25-2.54-13.15-2.83c-1.29-0.06-2.66-0.1-4.1-0.1c-6.26,0-11.79,0.59-16.6,1.76c-3.27,0.8-6.2,1.86-8.81,3.2
				c-0.59,0.3-1.15,0.61-1.68,0.93c-0.91,0.55-1.73,1.12-2.47,1.72c-0.7,0.57-1.33,1.16-1.89,1.77c-0.09,0.1-0.18,0.2-0.26,0.31
				c-0.03,0.04-0.07,0.08-0.1,0.12c-0.06,0.08-0.13,0.16-0.19,0.24c-0.04,0.05-0.09,0.11-0.13,0.16c-0.32,0.4-0.64,0.79-0.89,1.21
				C109.58,235.77,109.4,236.09,109.23,236.42z M119.94,260.53c2.98-1.93,6.28-2.89,9.93-2.89c3.65,0,6.29,1,7.95,2.97
				c0.44,0.52,0.74,1.12,0.96,1.76c0.07,0.22,0.14,0.44,0.2,0.67c0.05,0.2,0.1,0.4,0.13,0.6c0.05,0.28,0.09,0.57,0.11,0.87
				c0.01,0.21,0.01,0.42,0,0.64c-0.01,0.34-0.04,0.68-0.08,1.04c-0.11,0.79-0.29,1.61-0.57,2.49c-0.03,0.1-0.06,0.19-0.09,0.29
				c-0.2,0.57-0.45,1.08-0.7,1.61c-1.22,2.59-3.02,4.7-5.52,6.24c-0.12,0.08-0.25,0.15-0.37,0.22c-0.89,0.53-1.81,0.99-2.76,1.35
				c-2.11,0.82-4.35,1.23-6.74,1.23c-1.97,0-3.65-0.3-5.04-0.88c-0.37-0.15-0.72-0.33-1.06-0.52c-0.7-0.42-1.32-0.92-1.84-1.52
				c-0.82-0.92-1.3-2.03-1.46-3.28c-0.08-0.61-0.08-1.26,0-1.95c0.09-0.84,0.29-1.73,0.62-2.68c0.18-0.53,0.42-1,0.64-1.49
				c0.16-0.37,0.34-0.73,0.52-1.08c0.07-0.14,0.14-0.27,0.21-0.4c0.15-0.26,0.32-0.51,0.48-0.76c0.02-0.03,0.04-0.06,0.06-0.09
				c0.14-0.21,0.28-0.42,0.42-0.62C117.03,262.84,118.34,261.55,119.94,260.53z M148.72,238.87c-0.92,0.36-1.95,0.68-3.11,0.95
				c-0.58,0.14-1.18,0.26-1.82,0.37c-0.32,0.06-0.64,0.11-0.98,0.16c-1,0.15-2.06,0.28-3.19,0.38c-0.75,0.07-1.54,0.13-2.35,0.17
				c-0.44,0.02-0.89,0.05-1.34,0.06c-1.23,0.05-2.53,0.07-3.88,0.07h0c-0.58,0-1.15,0-1.69-0.01c-0.54-0.01-1.07-0.02-1.58-0.04
				c-0.37-0.01-0.74-0.03-1.09-0.04c-0.35-0.02-0.7-0.04-1.03-0.06c-0.33-0.02-0.65-0.05-0.97-0.07c-0.93-0.08-1.77-0.18-2.51-0.3
				c-0.5-0.08-0.95-0.17-1.36-0.27c-0.21-0.05-0.41-0.1-0.6-0.15c-0.39-0.11-0.75-0.22-1.08-0.34c-0.17-0.06-0.33-0.13-0.49-0.19
				c-0.41-0.18-0.78-0.37-1.11-0.58c-0.15-0.1-0.3-0.2-0.43-0.31c-0.01-0.01-0.02-0.01-0.02-0.02c-0.14-0.11-0.27-0.23-0.38-0.35
				c-0.12-0.12-0.22-0.24-0.32-0.37c-0.07-0.1-0.14-0.2-0.2-0.3c-0.05-0.08-0.08-0.16-0.12-0.24h0c-0.06-0.13-0.11-0.25-0.15-0.38
				c-0.03-0.1-0.06-0.21-0.08-0.31c-0.01-0.07-0.02-0.14-0.03-0.21h0c-0.02-0.14-0.03-0.28-0.04-0.43c0-0.21,0.01-0.43,0.04-0.65
				c0.01-0.06,0.01-0.12,0.01-0.19c0.01-0.19,0-0.37,0.07-0.56c0.08-0.25,0.27-0.48,0.41-0.72c0.21-0.38,0.47-0.75,0.82-1.12
				c0.53-0.56,1.19-1.11,2-1.64c0.35-0.23,0.73-0.45,1.13-0.67c0.14-0.07,0.27-0.15,0.41-0.22c0.42-0.22,0.88-0.44,1.36-0.65
				c0.16-0.07,0.32-0.14,0.49-0.21c0.17-0.07,0.34-0.14,0.51-0.21c0.42-0.17,0.87-0.33,1.32-0.48c0.32-0.11,0.64-0.21,0.98-0.31
				c0.33-0.1,0.67-0.19,1.02-0.28c0.6-0.15,1.22-0.29,1.87-0.42c1.29-0.25,2.67-0.46,4.14-0.61c0.3-0.03,0.61-0.06,0.92-0.09
				c0.31-0.03,0.62-0.05,0.94-0.07c0.14-0.01,0.27-0.02,0.41-0.03c1.17-0.08,2.39-0.12,3.66-0.14c0.42-0.01,0.85-0.01,1.29-0.01
				c0.34,0,0.68,0,1.01,0.01c1.33,0.02,2.56,0.09,3.71,0.19c0.86,0.08,1.67,0.18,2.43,0.31s1.47,0.28,2.13,0.45
				c0.22,0.06,0.44,0.12,0.64,0.18c0.42,0.13,0.82,0.26,1.19,0.41c0.38,0.15,0.73,0.3,1.06,0.47c0.12,0.06,0.26,0.1,0.39,0.16
				c0.04,0.02,0.08,0.04,0.12,0.06c0.12,0.07,0.24,0.14,0.35,0.21c0.22,0.14,0.43,0.29,0.61,0.45c0.09,0.08,0.18,0.16,0.26,0.24
				c0.35,0.34,0.58,0.71,0.74,1.11c0.01,0.04,0.03,0.07,0.04,0.11c0.05,0.15,0.09,0.3,0.13,0.45c0.05,0.24,0.08,0.48,0.09,0.73
				c0.01,0.32-0.03,0.65-0.12,1.01c-0.02,0.09-0.05,0.18-0.08,0.27c-0.05,0.15-0.11,0.29-0.18,0.44c-0.04,0.08-0.08,0.15-0.13,0.23
				c-0.12,0.21-0.25,0.42-0.4,0.62c-0.1,0.14-0.21,0.28-0.32,0.41c-0.45,0.54-1.02,1.05-1.7,1.54
				C151.55,237.57,150.28,238.25,148.72,238.87z"/>
			<path class="st1" d="M161.63,224.41c0.26,0.11,0.62,0.27,0.99,0.51c0.35,0.23,0.6,0.44,0.78,0.6c0.05,0.04,0.09,0.08,0.14,0.12
				c0.7,0.54,1.3,1.12,1.79,1.73l1.42-0.56l3.35-1.41l3.74-1.5l-2.09,1.24l-1.99,1.22l-2.09,1.13l-1.71,0.76
				c0.35,0.57,0.62,1.16,0.8,1.76l1.85-0.93l2.27-1.24l2.25-1.43l1.93-1.36l1.86-1.47l-0.25-0.55l-0.46-0.25l-0.28-0.44l0.41-1.18
				l-0.55-0.78l0.76-1.24l0.34-1.66v-1.29l-0.44-0.69l-1.12,0.07l-12.06,3.92l-8.69,2.54c2.74,0.54,5.02,1.31,6.87,2.32
				C161.51,224.36,161.57,224.39,161.63,224.41z"/>
			<path class="st1" d="M146.42,234.55l-2.75,0.53l-2.82,0.41l-2.96,0.39l-3.03,0.35l-1.42,0.17l-1.45,0.18l-1.7,0.14l-1.65,0.09
				l-1.67,0.09l-1.81,0.16l-0.72,0.04c1.21,0.16,2.7,0.27,4.45,0.33c0.98,0.03,2.04,0.05,3.15,0.05c8.63,0,13.11-1.05,15.36-1.92
				c1.82-0.73,2.91-1.42,3.56-1.98l-1.91,0.43L146.42,234.55z"/>
			<path class="st1" d="M140.58,230.36c-6.46,0-11.58,0.74-15.23,2.19c-2.74,1.1-4.03,2.09-4.63,2.73
				c-0.12,0.13-0.22,0.27-0.31,0.43c-0.02,0.03-0.03,0.06-0.05,0.08c0,0.03-0.01,0.07-0.01,0.1c0.09,0.07,0.25,0.17,0.51,0.3
				l5.46-0.39l5.82-0.55l5.09-0.6l4.43-0.65l3.94-0.67l3.49-0.6l2.4-0.59c-0.09-0.04-0.2-0.09-0.31-0.14
				C149.67,231.25,146.62,230.36,140.58,230.36z"/>
			<path class="st1" d="M117.56,273.27c0.34,0.78,0.8,1.47,1.53,1.97c1.11,0.74,2.59,1.11,4.45,1.11c0.72,0,1.42-0.06,2.12-0.18
				c1.75-0.3,3.43-0.98,5.04-2.04c1.21-0.8,2.18-1.77,2.97-2.84c0.46-0.61,0.86-1.26,1.19-1.96c0.16-0.33,0.31-0.67,0.43-1.03
				c0.22-0.64,0.33-1.25,0.38-1.83c0.03-0.36,0.02-0.7-0.01-1.04c-0.02-0.18-0.04-0.35-0.08-0.52c-0.06-0.29-0.15-0.56-0.27-0.83
				c-0.09-0.21-0.2-0.42-0.32-0.62c-0.13-0.21-0.25-0.43-0.41-0.63c-0.01-0.02-0.02-0.03-0.04-0.05c-1.27-1.43-3.19-2.14-5.77-2.14
				c-1.07,0-2.11,0.12-3.12,0.36c-2.05,0.49-3.97,1.53-5.77,3.03c-0.28,0.23-0.56,0.48-0.83,0.73c-0.05,0.05-0.1,0.09-0.16,0.13
				c-0.11,0.08-0.22,0.14-0.32,0.25l1.18,0.44c0.29-0.28,0.59-0.48,0.89-0.69c0.13-0.09,0.27-0.19,0.4-0.29
				c0.34-0.26,0.68-0.51,1.02-0.74c1.17-0.8,2.37-1.38,3.6-1.63c0.59-0.12,1.18-0.17,1.78-0.17c1.54,0,2.72,0.38,3.54,1.12
				c0.15,0.14,0.29,0.28,0.42,0.44c0.03,0.04,0.02,0.13,0.05,0.18c0.1,0.15,0.17,0.33,0.23,0.52c0.08,0.25,0.13,0.54,0.15,0.84
				c0.02,0.17,0.01,0.36,0,0.56c-0.02,0.33-0.07,0.68-0.13,1.04c-0.09,0.53-0.1,1-0.3,1.64h-5.74h-8.03
				c-0.39,1.2-0.57,2.22-0.55,3.09c0.01,0.2,0.02,0.39,0.04,0.58C117.2,272.51,117.39,272.88,117.56,273.27z M120.53,271.22
				c0.21-0.63,0.51-1.06,0.87-1.33c0.36-0.26,0.79-0.38,1.28-0.38h2.98h5.35c-0.06,0.17-0.13,0.33-0.2,0.5
				c-0.29,0.7-0.63,1.32-1,1.88c-0.54,0.81-1.14,1.5-1.86,2.03c-0.75,0.55-1.51,0.95-2.29,1.19c-0.6,0.19-1.21,0.28-1.83,0.28
				c-1.27,0-2.23-0.4-2.89-1.21c-0.28-0.35-0.42-0.74-0.51-1.15C120.3,272.48,120.31,271.89,120.53,271.22
				C120.53,271.23,120.53,271.23,120.53,271.22z"/>
		</g>
	</g>
</g>
</svg>
