<?xml version="1.0" encoding="utf-8"?>
<!-- Generator: Adobe Illustrator 24.0.0, SVG Export Plug-In . SVG Version: 6.00 Build 0)  -->
<svg version="1.1" id="Capa_1" xmlns="http://www.w3.org/2000/svg" xmlns:xlink="http://www.w3.org/1999/xlink" x="0px" y="0px"
	 viewBox="0 0 309.32 309.32" style="enable-background:new 0 0 309.32 309.32;" xml:space="preserve">
<style type="text/css">
	.st0{fill:none;stroke:#1D1D1B;stroke-width:5;stroke-miterlimit:10;}
	.st1{fill:#1D1D1B;}
</style>
<g>
	<g>
		<path class="st0" d="M73.5,215.45c-17.42,0-31.54-43.75-31.54-97.71l0,173.03h162.32v-75.32H73.5z"/>
		<path class="st0" d="M73.5,18.55L73.5,18.55c-15.04,0-27.61,32.63-30.77,76.27h0C45.89,51.18,58.46,18.55,73.5,18.55z"/>
		<path class="st0" d="M235.82,18.55H73.5c15.04,0,27.61,32.63,30.76,76.27c0.5,6.9,0.77,14.07,0.77,21.44
			c0,53.97-14.12,97.71-31.54,97.71l0,0h130.79h31.54c17.42,0,31.54-43.75,31.54-97.71C267.36,62.3,253.24,18.55,235.82,18.55z"/>
		<path class="st0" d="M104.26,94.82c-3.15-43.65-15.73-76.27-30.76-76.27c-15.04,0-27.61,32.63-30.77,76.27
			c-0.5,6.9-0.77,14.07-0.77,21.44c0,53.97,14.12,97.71,31.54,97.71c17.42,0,31.54-43.75,31.54-97.71
			C105.03,108.89,104.76,101.73,104.26,94.82z M72.48,158.03c-6,0-10.86-18.89-10.86-42.2c0-7.66,0.53-14.81,1.45-21.01
			c1.88-12.65,5.38-21.2,9.41-21.2c4.03,0,7.54,8.54,9.41,21.2c0.92,6.19,1.45,13.35,1.45,21.01
			C83.35,139.14,78.48,158.03,72.48,158.03z"/>
	</g>
	<g id="LOGO_GAMA_7_">
		<g>
			<path class="st1" d="M149.84,269.16l0.35-2.89l0.23-1.75c-0.05-0.03-0.09-0.06-0.12-0.08c-0.09-0.05-0.18-0.1-0.27-0.16
				l-0.52,7.42L149.84,269.16z"/>
			<path class="st1" d="M140.87,272.11l0.78-2.27l0.69-2.43l0.69-2.36l0.62-2.34l0.6-2.48l0.55-2.43l0.48-2.45l0.44-2.5l0.24-1.38
				c-0.6,0.04-1.22,0.02-1.85-0.06l-0.65,3.78l-1.13,4.98l-1.22,5.04l-1.29,5.09l-1.47,5.37l-1.43,5.78l1.08-2.36l1.04-2.27
				l0.92-2.36L140.87,272.11z"/>
			<path class="st1" d="M146.46,251.44l-0.17,1.56l-0.02,0.11c0.35-0.78,0.82-1.38,1.3-1.83c0.04-0.03,0.07-0.07,0.11-0.1
				c-0.03,0.01-0.06,0.02-0.1,0.03c-0.13,0.04-0.29,0.09-0.48,0.12C146.89,251.38,146.68,251.41,146.46,251.44z"/>
			<path class="st1" d="M144.47,266.27l1.04-4.08l0.44-2.09l0.19-0.92c-0.28-0.82-0.44-1.61-0.48-2.39l-0.06,0.36l-0.35,2.09
				l-0.44,2.09l-2.94,12.96l-0.57,2.31l0.69-2.04l0.69-2.09l0.65-2.09L144.47,266.27z"/>
			<path class="st1" d="M133.7,245.09c-0.05-0.06-0.09-0.12-0.14-0.18l-0.13,1.48l-0.14,2.16l-0.3,2.11l-0.25,2.09l-0.23,2.09
				l-0.35,2.09l-0.35,2.06l-0.35,2.09l-0.44,2.09l-2.94,12.96l-0.57,2.31l0.69-2.04l0.69-2.09l0.65-2.09l1.13-4.1l1.04-4.08
				l0.44-2.09l0.44-2.09l0.39-2.13l0.35-2.09l0.39-2.16l0.39-2.2l0.35-2.16l0.3-2.29l0.07-0.46
				C134.44,245.96,134.06,245.54,133.7,245.09z"/>
			<path class="st1" d="M125.27,278.65l0.92-2.36l0.9-2.34l0.78-2.27l0.69-2.43l0.69-2.36l0.62-2.34l0.6-2.48l0.55-2.43l0.48-2.45
				l0.44-2.5l0.46-2.61l0.44-2.55l0.44-2.71l0.25-1.95c-0.74-0.93-1.44-1.99-2.1-3.18l-0.27,4.95l-0.6,5.32l-0.88,5.07l-1.13,4.98
				l-1.22,5.04l-1.29,5.09l-1.47,5.37l-1.43,5.78l1.08-2.36L125.27,278.65z"/>
			<path class="st1" d="M139.51,249.76c-0.11-0.06-0.21-0.11-0.32-0.16c-0.3-0.14-0.67-0.32-1.06-0.56
				c-0.08-0.04-0.17-0.1-0.27-0.16c-0.97-0.66-1.85-1.37-2.65-2.15v1.06l-0.15,3.35l-0.47,6.32l0.18-0.96l0.28-1.58l0.66-3.77
				l0.18-0.87l0.11,1.96c0,0.14-0.01,0.28-0.01,0.42l-1.52,11.88l0.99-3.83l0.35-1.61l0.25-1.56l0.28-1.65l0.25-1.74l0.25-2.02
				l0.3-2.27l-0.21,4.54l-0.18,3.69l-0.16,3.03l-0.88,12.4l0.35-2.55l0.35-2.89l0.78-6.03l0.35-3.1l0.44-3l0.44-2.89l0.35-2.61
				l-0.09,2.55l0.03,4.96c0,0,0.57-4.6,0.64-5.51l0.2-2.69C139.52,249.77,139.51,249.77,139.51,249.76z"/>
			<path class="st1" d="M126,224.6l-0.3-4.54l-0.35-4.56l-0.07-0.89c-0.22,0-0.46,0.02-0.68,0.02l-0.36,0l0.07,5.53l0.01,0.15
				l0.09,1.67l0.16,1.81l0.09,1.83l0.09,1.81l0.12,1.81l0.05,1.95v3.97l0.09,2.11v6.28l-0.09,2.11l-0.51-8.67l-0.43-5.24
				c-0.47,4.2-1.39,7.32-2.78,9.43c-0.72,1.1-1.62,2.01-2.75,2.79c-0.25,0.17-0.52,0.33-0.82,0.49l-0.21,3.97l-0.6,5.32l-0.88,5.07
				l-1.13,4.98l-1.22,5.04l-1.29,5.09l-1.47,5.37l-1.43,5.78l1.08-2.36l1.04-2.27l0.92-2.36l0.9-2.34l0.78-2.27l0.69-2.43l0.69-2.36
				l0.62-2.34l0.6-2.48l0.55-2.43l0.48-2.45l0.44-2.5l0.46-2.61l0.44-2.54l0.44-2.71l0.35-2.73l-0.21,2.29l-0.14,2.16l-0.3,2.11
				l-0.25,2.09l-0.23,2.09l-0.35,2.09l-0.35,2.06l-0.35,2.09l-0.44,2.09l-2.94,12.96l-0.57,2.31l0.69-2.04l0.69-2.09l0.65-2.09
				l1.13-4.1l1.04-4.08l0.44-2.09l0.44-2.09l0.39-2.13l0.35-2.09l0.39-2.16l0.39-2.2l0.35-2.16l0.3-2.29l0.35-2.27l0.09,1.63v1.6
				l-0.15,3.35l-0.47,6.32l0.18-0.96l0.28-1.58l0.66-3.77l0.18-0.87l0.11,1.96c-0.01,0.14-0.01,0.28-0.02,0.42l-1.52,11.88
				l0.99-3.83l0.35-1.61l0.25-1.56l0.28-1.65l0.25-1.74l0.25-2.02l0.3-2.27l-0.21,4.54l-0.18,3.69l-0.16,3.03l-0.88,12.4l0.35-2.54
				l0.35-2.89l0.78-6.03l0.35-3.1l0.44-3l0.44-2.89l0.35-2.61l-0.09,2.54l0.03,4.96c0,0,0.57-4.6,0.64-5.51l0.32-4.33l0.14-3.83
				l0.09-4.04l0.12-4.2v-4.38l-0.12-4.43L126,224.6z"/>
			<path class="st1" d="M96.75,284.54l1.04-2.27l0.92-2.36l0.9-2.34l0.78-2.27l0.69-2.43l0.69-2.36l0.62-2.34l0.6-2.48l0.55-2.43
				l0.48-2.45l0.44-2.5l0.46-2.61l0.44-2.55l0.44-2.71l0.35-2.73l-0.21,2.29l-0.14,2.16l-0.3,2.11l-0.25,2.09l-0.23,2.09l-0.35,2.09
				l-0.35,2.06l-0.35,2.09l-0.44,2.09l-2.94,12.96l-0.57,2.31l0.69-2.04l0.69-2.09l0.65-2.09l1.13-4.1l1.04-4.08l0.44-2.09
				l0.44-2.09l0.39-2.13l0.35-2.09l0.39-2.16l0.39-2.2l0.35-2.16l0.3-2.29l0.35-2.27l0.09,1.63v1.6l-0.15,3.35l-0.47,6.32l0.18-0.96
				l0.28-1.58l0.66-3.77l0.18-0.87l0.11,1.96c0,0.14-0.01,0.28-0.01,0.42l-1.52,11.88l0.99-3.83l0.35-1.6l0.25-1.56l0.28-1.65
				l0.25-1.74l0.25-2.02l0.3-2.27l-0.21,4.54l-0.18,3.69l-0.16,3.03l-0.88,12.4l0.35-2.55l0.35-2.89l0.78-6.03l0.35-3.1l0.44-3
				l0.44-2.89l0.35-2.61l-0.09,2.55l0.03,4.96c0,0,0.57-4.6,0.64-5.51l0.32-4.33l0.14-3.83l0.06-2.57c-0.35-0.05-0.72-0.13-1.1-0.23
				v0.25l-0.09,2.11l-0.14-2.42c-0.2-0.06-0.4-0.12-0.6-0.19c-0.88-0.3-1.75-0.72-2.76-1.33c-0.61-0.37-1.13-0.79-1.59-1.16
				l-0.11-0.09c-0.05-0.04-0.11-0.09-0.16-0.13c-0.19-0.15-0.42-0.33-0.66-0.55c-0.4-0.37-0.79-0.76-1.17-1.18v4.25l-0.3,5.57
				l-0.6,5.32l-0.88,5.07l-1.13,4.98l-1.22,5.04l-1.29,5.09l-1.47,5.37l-1.43,5.78L96.75,284.54z"/>
			<path class="st1" d="M114.73,214.75c0,0.03,0,0.06,0,0.09c0.05,1.23,0.07,2.53,0.07,3.88c0,0.58,0,1.15-0.01,1.69
				c-0.01,0.54-0.02,1.07-0.04,1.58c-0.01,0.37-0.03,0.74-0.04,1.09c-0.02,0.35-0.04,0.7-0.06,1.03c-0.02,0.33-0.05,0.65-0.07,0.97
				c-0.08,0.93-0.18,1.77-0.3,2.51c-0.08,0.49-0.17,0.95-0.27,1.36c-0.05,0.21-0.1,0.41-0.15,0.6c-0.11,0.39-0.22,0.75-0.34,1.08
				c-0.06,0.17-0.13,0.33-0.19,0.49c-0.18,0.41-0.37,0.78-0.58,1.11c-0.1,0.15-0.2,0.3-0.31,0.43c-0.01,0.01-0.01,0.02-0.02,0.02
				c-0.11,0.14-0.23,0.27-0.35,0.39c-0.12,0.12-0.24,0.22-0.37,0.32c-0.1,0.07-0.2,0.14-0.3,0.2c-0.08,0.05-0.16,0.08-0.24,0.12
				c-0.13,0.06-0.25,0.11-0.38,0.15c-0.1,0.03-0.21,0.06-0.31,0.08c-0.07,0.01-0.14,0.02-0.21,0.03v0
				c-0.14,0.02-0.28,0.03-0.43,0.04c-0.21,0-0.43-0.01-0.65-0.04c-0.06-0.01-0.12-0.01-0.19-0.01c-0.19-0.01-0.37,0-0.56-0.07
				c-0.25-0.08-0.48-0.27-0.72-0.41c-0.38-0.21-0.75-0.47-1.12-0.82c-0.56-0.53-1.11-1.19-1.64-2.01c-0.23-0.35-0.45-0.73-0.67-1.13
				c-0.07-0.14-0.15-0.27-0.22-0.41c-0.22-0.42-0.44-0.88-0.65-1.36c-0.07-0.16-0.14-0.32-0.21-0.49c-0.07-0.17-0.14-0.34-0.21-0.51
				c-0.17-0.42-0.33-0.87-0.48-1.32c-0.11-0.32-0.21-0.64-0.31-0.98c-0.1-0.33-0.19-0.67-0.28-1.02c-0.15-0.6-0.29-1.22-0.42-1.87
				c-0.25-1.29-0.46-2.67-0.61-4.14c-0.03-0.3-0.06-0.61-0.09-0.92c-0.03-0.31-0.05-0.62-0.07-0.94c-0.01-0.14-0.02-0.27-0.03-0.41
				c0-0.07,0-0.15-0.01-0.22c-0.87,0.01-1.73,0.02-2.6,0.03c0.27,3.47,0.74,6.7,1.45,9.63c0.8,3.27,1.86,6.2,3.2,8.81
				c0.3,0.59,0.61,1.15,0.93,1.68c0.55,0.91,1.12,1.73,1.72,2.47c0.57,0.7,1.16,1.33,1.77,1.89c0.1,0.09,0.2,0.18,0.31,0.26
				c0.04,0.03,0.08,0.07,0.12,0.1c0.08,0.06,0.16,0.13,0.24,0.19c0.06,0.04,0.11,0.09,0.16,0.13c0.4,0.32,0.79,0.64,1.21,0.89
				c0.32,0.19,0.64,0.38,0.97,0.54c0.22,0.11,0.44,0.22,0.66,0.31c0.14,0.06,0.28,0.11,0.42,0.16c0.04,0.01,0.08,0.03,0.12,0.05
				c0.36,0.12,0.71,0.22,1.05,0.29c0.2,0.04,0.39,0.07,0.59,0.09c1.38,0.16,2.59-0.14,3.66-0.85c0.03-0.02,0.06-0.04,0.09-0.06
				c0.33-0.22,0.64-0.48,0.95-0.77c0.04-0.04,0.08-0.07,0.12-0.11c0.31-0.31,0.6-0.67,0.88-1.08c0.35-0.54,0.67-1.18,0.95-1.91
				c1.15-2.95,1.72-7.45,1.72-13.51l-0.13-9.48C119.09,214.7,116.91,214.73,114.73,214.75z"/>
			<path class="st1" d="M156.59,253.57c-0.04-0.18-0.09-0.37-0.15-0.57c-0.03-0.12-0.07-0.24-0.1-0.37
				c-0.37-1.39-0.89-2.86-1.58-4.43c-0.38-0.86-0.81-1.76-1.3-2.68c-0.25-0.47-0.51-0.94-0.79-1.43c0.03-0.05,0.05-0.1,0.08-0.15
				c0.29-0.53,0.57-1.08,0.82-1.64c0.54-1.22,0.99-2.49,1.36-3.82c0.01-0.05,0.03-0.09,0.04-0.14c0.09-0.34,0.23-0.65,0.31-0.99
				c0.07-0.31,0.11-0.64,0.16-0.97c0.01-0.06,0.02-0.12,0.03-0.18c0.26-1.34,0.46-2.73,0.56-4.19c0.06-0.84,0.1-1.69,0.1-2.57
				c0-3.88-0.46-7.46-1.29-10.81c-0.14-0.58-0.31-1.15-0.48-1.72c-0.13-0.43-0.31-0.83-0.45-1.25c-1.61-0.46-3.02-1.16-4.33-1.97
				c-1.39-0.12-2.83-0.17-4.3-0.18c2.15,1.2,3.95,2.82,5.31,5c0.08,0.12,0.15,0.25,0.22,0.37c0.53,0.89,0.99,1.81,1.35,2.76
				c0.82,2.11,1.24,4.35,1.24,6.74c0,1.97-0.3,3.65-0.88,5.04c-0.16,0.37-0.33,0.72-0.52,1.06c-0.42,0.7-0.92,1.32-1.52,1.84
				c-0.92,0.82-2.03,1.3-3.28,1.46c-0.61,0.08-1.26,0.08-1.95,0c-0.84-0.09-1.73-0.29-2.68-0.62c-0.53-0.18-1-0.42-1.49-0.64
				c-0.37-0.16-0.73-0.34-1.08-0.52c-0.14-0.07-0.27-0.14-0.4-0.21c-0.26-0.15-0.51-0.32-0.76-0.48c-0.03-0.02-0.06-0.04-0.09-0.06
				c-0.21-0.14-0.42-0.28-0.62-0.42c-1.51-1.09-2.8-2.4-3.82-4c-1.93-2.98-2.89-6.28-2.89-9.93c0-2.89,0.65-5.12,1.89-6.76
				c-1.54,0.12-3.04,0.23-4.5,0.32v6.52c0,3.6,0.73,7.62,2.18,12.05c0.01,0.04,0.02,0.07,0.04,0.1c0.02,0.05,0.04,0.1,0.05,0.15
				c0.11,0.32,0.22,0.64,0.33,0.96c0.71,2.03,1.48,3.82,2.29,5.37c0.73,1.4,1.51,2.61,2.33,3.61c0.66,0.82,1.36,1.52,2.1,2.13
				c0.46,0.38,0.93,0.74,1.41,1.06c0.03,0.02,0.06,0.03,0.09,0.05c0.03,0.02,0.07,0.04,0.1,0.06c0.33,0.2,0.68,0.36,1.02,0.53
				c0.05,0.02,0.1,0.05,0.15,0.07c0.04,0.02,0.07,0.04,0.11,0.06c0.36,0.19,0.7,0.41,1.06,0.6c0.17,0.09,0.34,0.17,0.52,0.23
				c0.68,0.23,1.34,0.39,1.97,0.46c0.68,0.08,1.34,0.07,1.97-0.05c0.02,0,0.04-0.01,0.06-0.01c0.06-0.01,0.12-0.04,0.19-0.06
				c0.03-0.01,0.06-0.02,0.09-0.03c0.01,0,0.01-0.01,0.02-0.01c0.4-0.09,0.83-0.24,1.29-0.43c0.1-0.04,0.19-0.08,0.29-0.13
				c0.16-0.07,0.31-0.15,0.47-0.23c0.17-0.09,0.34-0.17,0.51-0.27c0.02-0.01,0.05-0.03,0.08-0.04c0.15-0.08,0.29-0.16,0.43-0.24
				c0.33-0.18,0.67-0.37,1.03-0.61c0.04,0.07,0.07,0.13,0.1,0.19c0.04,0.09,0.08,0.18,0.14,0.28c0.08,0.14,0.13,0.26,0.2,0.4
				c0.43,0.77,0.77,1.49,1.02,2.16c0.02,0.06,0.05,0.12,0.07,0.17c0.01,0.02,0.01,0.03,0.02,0.05c0.24,0.69,0.37,1.31,0.37,1.87
				c0,0.4-0.12,0.7-0.36,0.91c-0.03,0.02-0.05,0.04-0.08,0.06c-0.13,0.09-0.29,0.15-0.47,0.19c-0.11,0.02-0.23,0.04-0.37,0.04
				c-0.03,0-0.05,0.01-0.08,0.02c-0.02,0.01-0.05,0.01-0.08,0.02c-0.03,0.01-0.05,0.02-0.08,0.02c-0.11,0.01-0.21,0.03-0.31,0.04
				c-0.12,0.02-0.24,0.04-0.36,0.07c-0.13,0.03-0.26,0.07-0.38,0.12c-0.02,0.01-0.03,0.02-0.05,0.03c-0.08,0.04-0.16,0.08-0.24,0.13
				c-0.24,0.14-0.44,0.32-0.62,0.52c-0.16,0.18-0.29,0.39-0.4,0.62c-0.26,0.55-0.39,1.23-0.39,2.06c0,0.54,0.09,1.07,0.24,1.6
				c0.1,0.33,0.22,0.67,0.37,1c0.01,0.02,0.02,0.05,0.03,0.07c0.08,0.19,0.15,0.38,0.23,0.56c0.05,0.11,0.1,0.21,0.16,0.31
				c0.09,0.14,0.18,0.27,0.27,0.39c0.11,0.16,0.23,0.3,0.35,0.43c0.12,0.13,0.24,0.26,0.37,0.37c0.06,0.06,0.13,0.11,0.19,0.17
				c0.29,0.23,0.59,0.43,0.91,0.59c0.16,0.08,0.29,0.2,0.46,0.27c0.01,0,0.01,0.01,0.02,0.01c0.02,0.01,0.04,0.03,0.06,0.03
				c0,0,0,0,0,0c0,0,0,0,0,0c0.07,0.02,0.13,0.04,0.2,0.04c0.01,0,0.02,0,0.03,0.01c0.04,0,0.07,0,0.1,0c0.18,0.01,0.36-0.01,0.54,0
				c0.32,0.02,0.66,0.14,0.95,0.06c0.15-0.04,0.29-0.15,0.42-0.25c0.08-0.06,0.15-0.12,0.23-0.17c0.11-0.06,0.22-0.12,0.32-0.19
				c0.08-0.05,0.15-0.1,0.22-0.16c0.08-0.07,0.16-0.09,0.24-0.14c0.03-0.02,0.05-0.04,0.08-0.07c0.02-0.02,0.02-0.05,0.04-0.07
				c0.01-0.01,0.02-0.03,0.03-0.05c0.01-0.02,0.02-0.03,0.03-0.05c0.01-0.02,0.02-0.04,0.03-0.06c0.26-0.33,0.48-0.71,0.67-1.13
				c0.38-0.86,0.58-1.92,0.58-3.2c0-0.94-0.13-1.95-0.35-3.01C156.63,253.68,156.6,253.62,156.59,253.57z"/>
			<path class="st1" d="M109.01,218.64l-0.45-3.81c-1.43,0.02-2.86,0.03-4.29,0.05c0.28,4.29,0.96,7.83,2.04,10.55
				c1.1,2.74,2.09,4.03,2.73,4.63c0.13,0.12,0.27,0.22,0.43,0.31c0.03,0.02,0.06,0.03,0.08,0.05c0.03,0,0.07,0.01,0.1,0.01
				c0.07-0.09,0.17-0.25,0.3-0.51l-0.39-5.46L109.01,218.64z"/>
			<path class="st1" d="M147.04,233.22c0.78-0.34,1.47-0.8,1.97-1.53c0.74-1.11,1.11-2.59,1.11-4.45c0-0.72-0.06-1.42-0.18-2.12
				c-0.3-1.75-0.98-3.43-2.04-5.04c-0.8-1.21-1.77-2.18-2.84-2.97c-0.61-0.46-1.26-0.86-1.96-1.19c-0.33-0.16-0.67-0.31-1.03-0.43
				c-0.64-0.22-1.25-0.33-1.83-0.38c-0.36-0.03-0.7-0.02-1.04,0.01c-0.18,0.02-0.35,0.04-0.52,0.08c-0.29,0.06-0.56,0.15-0.83,0.27
				c-0.21,0.09-0.42,0.2-0.62,0.32c-0.21,0.13-0.43,0.25-0.63,0.41c-0.02,0.01-0.03,0.02-0.05,0.04c-1.43,1.27-2.14,3.19-2.14,5.77
				c0,1.07,0.12,2.11,0.36,3.12c0.49,2.05,1.53,3.97,3.03,5.77c0.23,0.28,0.48,0.56,0.73,0.83c0.05,0.05,0.09,0.1,0.13,0.16
				c0.08,0.11,0.14,0.22,0.25,0.32l0.44-1.18c-0.28-0.29-0.48-0.59-0.69-0.89c-0.09-0.13-0.19-0.27-0.29-0.4
				c-0.26-0.34-0.51-0.68-0.74-1.02c-0.8-1.17-1.38-2.37-1.63-3.6c-0.12-0.59-0.17-1.18-0.17-1.78c0-1.54,0.38-2.72,1.12-3.54
				c0.14-0.15,0.28-0.29,0.44-0.42c0.04-0.03,0.13-0.02,0.18-0.05c0.15-0.1,0.33-0.17,0.52-0.23c0.25-0.08,0.54-0.13,0.84-0.15
				c0.17-0.02,0.36-0.01,0.56,0c0.33,0.02,0.68,0.07,1.04,0.13c0.53,0.09,1,0.1,1.64,0.3v5.74v8.03c1.2,0.39,2.22,0.57,3.09,0.55
				c0.2-0.01,0.39-0.02,0.58-0.04C146.28,233.58,146.65,233.38,147.04,233.22z M144.99,230.24c-0.63-0.21-1.06-0.51-1.33-0.87
				c-0.26-0.36-0.38-0.79-0.38-1.28v-2.98v-5.35c0.17,0.06,0.33,0.13,0.5,0.2c0.7,0.29,1.32,0.63,1.88,1
				c0.81,0.54,1.5,1.14,2.03,1.86c0.55,0.75,0.95,1.51,1.19,2.29c0.19,0.6,0.28,1.21,0.28,1.83c0,1.27-0.4,2.23-1.21,2.89
				c-0.35,0.28-0.74,0.42-1.15,0.51C146.25,230.47,145.66,230.47,144.99,230.24C144.99,230.24,144.99,230.24,144.99,230.24z"/>
		</g>
	</g>
</g>
</svg>
