<?xml version="1.0" encoding="utf-8"?>
<!-- Generator: Adobe Illustrator 24.0.0, SVG Export Plug-In . SVG Version: 6.00 Build 0)  -->
<svg version="1.1" id="Capa_1" xmlns="http://www.w3.org/2000/svg" xmlns:xlink="http://www.w3.org/1999/xlink" x="0px" y="0px"
	 viewBox="0 0 309.32 309.32" style="enable-background:new 0 0 309.32 309.32;" xml:space="preserve">
<style type="text/css">
	.st0{fill:none;stroke:#1D1D1B;stroke-width:5;stroke-miterlimit:10;}
	.st1{fill:#1D1D1B;}
</style>
<g>
	<g>
		<path class="st0" d="M73.5,215.45c-17.42,0-31.54-43.75-31.54-97.71l0,173.03h162.32v-75.32H73.5z"/>
		<path class="st0" d="M73.5,18.55L73.5,18.55c-15.04,0-27.61,32.63-30.77,76.27h0C45.89,51.18,58.46,18.55,73.5,18.55z"/>
		<path class="st0" d="M235.82,18.55H73.5c15.04,0,27.61,32.63,30.76,76.27c0.5,6.9,0.77,14.07,0.77,21.44
			c0,53.97-14.12,97.71-31.54,97.71l0,0h130.79h31.54c17.42,0,31.54-43.75,31.54-97.71C267.36,62.3,253.24,18.55,235.82,18.55z"/>
		<path class="st0" d="M104.26,94.82c-3.15-43.65-15.73-76.27-30.76-76.27c-15.04,0-27.61,32.63-30.77,76.27
			c-0.5,6.9-0.77,14.07-0.77,21.44c0,53.97,14.12,97.71,31.54,97.71c17.42,0,31.54-43.75,31.54-97.71
			C105.03,108.89,104.76,101.73,104.26,94.82z M72.48,158.03c-6,0-10.86-18.89-10.86-42.2c0-7.66,0.53-14.81,1.45-21.01
			c1.88-12.65,5.38-21.2,9.41-21.2c4.03,0,7.54,8.54,9.41,21.2c0.92,6.19,1.45,13.35,1.45,21.01
			C83.35,139.14,78.48,158.03,72.48,158.03z"/>
	</g>
	<g id="LOGO_GAMA_8_">
		<g>
			<path class="st1" d="M108.53,262.29l-1.3-4.91c-1.14,0.04-2.34-0.11-3.58-0.45c-0.03-0.01-0.07-0.02-0.1-0.02
				c-0.17-0.04-0.42-0.09-0.72-0.2c-1.89-0.64-3.64-1.67-5.27-3.06l0.33,1.92l0.6,3.49l0.78,3.19l0.9,2.91l0.83,2.87l1.08,2.73
				l1.13,2.96l1.2,3.03l1.41,3.35l1.5,3.74l-1.24-2.09l-1.22-1.99l-1.13-2.09l-0.94-2.13l-0.99-2.22l-0.92-2.2l-0.9-2.27l-0.78-2.36
				l-0.69-2.43l-0.69-2.45l-0.58-2.55l-0.55-2.64l-0.53-2.75l-0.23-1.58c-0.65-0.7-1.28-1.47-1.88-2.31l0.13,0.93l0.44,3.1l0.6,3
				l0.53,3.03l0.69,2.89l0.69,2.89l0.9,2.8l0.92,2.71l0.94,2.61l1.08,2.55l1.18,2.34l1.24,2.27l1.43,2.25l1.36,1.93l1.47,1.86
				l0.55-0.25l0.25-0.46l0.44-0.28l1.18,0.41l0.78-0.55l1.24,0.76l1.66,0.34h1.29l0.69-0.44l-0.07-1.12l-3.92-12.06L108.53,262.29z"
				/>
			<path class="st1" d="M123.43,264.28c-0.02-0.01-0.05-0.01-0.07-0.02l-0.04-0.01c-0.18-0.03-0.49-0.08-0.85-0.2
				c-0.56-0.19-0.98-0.47-1.23-0.64c-0.03-0.02-0.06-0.04-0.08-0.06c-2.05-1.04-3.68-2.55-5-4.61c-0.77-1.19-1.47-2.65-2.1-4.39
				c-0.51,0.49-1.04,0.92-1.59,1.29l-0.05,0.04c-0.09,0.07-0.22,0.17-0.37,0.27l0.22,1.27l0.78,3.19l0.9,2.91l0.83,2.87l1.08,2.73
				l1.13,2.96l1.2,3.03l1.41,3.35l1.5,3.74l-1.24-2.09l-1.22-1.99l-1.13-2.09l-0.94-2.13l-0.99-2.22l-0.92-2.2l-0.9-2.27l-0.78-2.36
				l-0.69-2.43l-0.69-2.45L111,257.2l-0.14-0.65c-0.14,0.06-0.27,0.11-0.4,0.15l-0.13,0.05c-0.33,0.12-0.66,0.22-0.99,0.31
				l0.16,0.91l0.69,2.89l0.69,2.89l0.9,2.8l0.92,2.71l0.94,2.61l1.08,2.55l1.18,2.34l1.24,2.27l1.43,2.25l1.36,1.93l1.47,1.86
				l0.55-0.25l0.25-0.46l0.44-0.28l1.18,0.41l0.78-0.55l1.24,0.76l1.66,0.34h1.29l0.69-0.44l-0.07-1.12l-3.92-12.06L123.43,264.28z"
				/>
			<path class="st1" d="M139.51,271.51c-0.03,0-0.06-0.01-0.09-0.01c-0.27-0.02-0.72-0.06-1.26-0.24c-2.44-0.83-4.49-2.85-6.26-6.17
				c-0.5-0.92-0.95-1.96-1.36-3.14c-0.5,0.56-1.06,1.05-1.67,1.45c-0.18,0.11-0.36,0.22-0.55,0.32l0.19,0.67l1.08,2.73l1.13,2.96
				l1.2,3.03l1.41,3.35l1.5,3.74l-1.24-2.09l-1.22-1.99l-1.13-2.09l-0.94-2.13l-0.99-2.22l-0.92-2.2l-0.9-2.27l-0.33-1
				c-0.21,0.06-0.43,0.12-0.66,0.16c-0.34,0.07-0.7,0.11-1.06,0.12l0.09,0.28l0.92,2.71l0.94,2.61l1.08,2.55l1.18,2.34l1.24,2.27
				l1.43,2.25l1.36,1.93l1.47,1.86l0.55-0.25l0.25-0.46l0.44-0.28l1.18,0.41l0.78-0.55l1.24,0.76l1.66,0.34h1.29l0.69-0.44
				l-0.07-1.12l-3.29-10.12C139.76,271.54,139.64,271.53,139.51,271.51z"/>
			<path class="st1" d="M121.93,234.99l-0.09-1.67l-0.16-1.81l-0.09-1.83l-0.09-1.81l-0.12-1.81l-0.05-1.95v-3.97l-0.09-2.11v-3.25
				c-0.39,0.05-0.78,0.1-1.18,0.14l-0.07,2.51v4.38l0.12,4.43l0.14,4.47l0.3,4.54l0.35,4.56l0.09,1.1l0.25,3.07l0.44,3.07l0.31,2.16
				c0.02-0.22,0.03-0.46,0.05-0.71c0.04-0.69,0.06-1.45,0.06-2.26l-0.15-11.09L121.93,234.99z"/>
			<path class="st1" d="M146.69,230.73c-0.8-3.27-1.86-6.2-3.2-8.81c-0.3-0.59-0.61-1.15-0.93-1.68c-0.55-0.91-1.12-1.73-1.72-2.47
				c-0.57-0.7-1.16-1.33-1.77-1.89c-0.1-0.09-0.2-0.18-0.31-0.26c-0.04-0.03-0.08-0.07-0.12-0.1c-0.08-0.06-0.16-0.13-0.24-0.19
				c-0.05-0.04-0.11-0.09-0.16-0.13c-0.23-0.19-0.48-0.35-0.72-0.53c-2.91,0.04-5.86-0.04-8.93-0.19c-0.02,0.02-0.05,0.04-0.07,0.06
				c-0.04,0.04-0.08,0.07-0.12,0.11c-0.31,0.31-0.6,0.67-0.88,1.08c-0.35,0.54-0.67,1.18-0.95,1.91c-1.15,2.95-1.72,7.45-1.72,13.51
				l0.2,15.06c0,0.77-0.02,1.48-0.05,2.13c0,0.11-0.01,0.22-0.02,0.32c-0.01,0.21-0.03,0.41-0.04,0.6v0
				c-0.05,0.71-0.13,1.33-0.22,1.87c-0.08,0.48-0.18,0.89-0.3,1.23c-0.07,0.2-0.14,0.37-0.22,0.53v0c-0.02,0.03-0.03,0.07-0.05,0.11
				c-0.01,0.03-0.04,0.03-0.05,0.05c0,0,0,0,0,0h0c-0.09,0.15-0.19,0.27-0.29,0.38c-0.28,0.3-0.6,0.46-0.96,0.54
				c-0.11,0.02-0.21,0.04-0.32,0.05c-0.21,0.02-0.4,0.05-0.62,0.04c-0.02,0-0.04,0-0.07,0c-0.08-0.01-0.17-0.03-0.25-0.06
				c-0.24-0.08-0.44-0.23-0.64-0.39c-0.12-0.09-0.24-0.19-0.36-0.28c-0.07-0.05-0.14-0.1-0.21-0.15c-0.12-0.09-0.24-0.19-0.35-0.29
				c-0.62-0.55-1.16-1.27-1.56-2.28c-0.18-0.45-0.33-1-0.46-1.64c-0.38-1.87-0.57-4.54-0.57-8.05v-6.6c0-3.6-0.73-7.62-2.18-12.05
				c-0.01-0.04-0.02-0.07-0.04-0.1c-0.02-0.05-0.04-0.1-0.05-0.15c-0.11-0.32-0.22-0.64-0.33-0.96c-0.71-2.03-1.48-3.82-2.29-5.37
				c-0.07-0.14-0.15-0.25-0.23-0.39c-4.93-0.03-9.83-0.58-14.66-1.62c-1.78,0.1-3.57,0.22-5.35,0.28c-0.37,0.93-0.74,1.86-1.02,2.85
				c-0.01,0.05-0.03,0.09-0.04,0.14c-0.09,0.34-0.23,0.65-0.31,0.99c-0.07,0.31-0.11,0.64-0.16,0.97c-0.01,0.06-0.02,0.12-0.03,0.18
				c-0.26,1.34-0.45,2.73-0.56,4.19c-0.06,0.84-0.1,1.69-0.1,2.57c0,3.88,0.46,7.46,1.29,10.81c0.14,0.58,0.31,1.15,0.48,1.72
				c0.4,1.31,0.86,2.58,1.38,3.81c0.01,0.01,0.01,0.03,0.02,0.04c0.21,0.51,0.41,1.03,0.63,1.53c0.04,0.1,0.09,0.19,0.13,0.29
				c0.35,0.69,0.71,1.34,1.07,1.97l0,0c0.53,0.89,1.07,1.71,1.64,2.45v0c1.41,1.86,2.97,3.3,4.65,4.31
				c0.77,0.46,1.56,0.84,2.39,1.12c0.09,0.03,0.18,0.05,0.27,0.08c0.13,0.03,0.25,0.05,0.38,0.09c0.13,0.04,0.27,0.07,0.4,0.1
				c0.31,0.07,0.62,0.13,0.92,0.17c0.23,0.03,0.45,0.05,0.67,0.07c0.39,0.02,0.78,0.02,1.16-0.02c0.42-0.04,0.82-0.13,1.21-0.25
				c0.01,0,0.02-0.01,0.03-0.01c0.01,0,0.03-0.01,0.04-0.01c0.14-0.04,0.28-0.09,0.41-0.14c0.08-0.03,0.15-0.06,0.23-0.09
				c0.25-0.09,0.5-0.19,0.73-0.32c0.02-0.01,0.04-0.02,0.07-0.03c0.05-0.03,0.1-0.07,0.15-0.1c0.11-0.08,0.21-0.16,0.32-0.23
				c0.24-0.16,0.47-0.34,0.7-0.53v0c1.4-1.16,2.64-2.89,3.7-5.23c0.86,3.88,1.87,6.87,3.03,8.96c0.14,0.26,0.29,0.51,0.44,0.74
				c0.5,0.77,1.03,1.42,1.6,1.96c0.66,0.64,1.37,1.14,2.11,1.53c0.06,0.03,0.12,0.07,0.18,0.1c0.3,0.15,0.57,0.41,0.89,0.52
				c0.05,0.02,0.1,0.03,0.15,0.04c0.08,0.02,0.15,0.03,0.22,0.04c0.07,0.01,0.13,0.02,0.2,0.04c0.17,0.04,0.34,0.07,0.51,0.1
				c0.49,0.07,0.96,0.07,1.4-0.02c0.13-0.03,0.25-0.06,0.37-0.09c0.34-0.1,0.67-0.24,0.97-0.44c0.07-0.04,0.14-0.09,0.2-0.14
				c0.18-0.13,0.36-0.28,0.53-0.44c0.13-0.12,0.26-0.26,0.38-0.4c1.33-1.57,2.33-4.25,3.02-8.02c0.11,0.87,0.24,1.7,0.37,2.5
				c0.29,1.75,0.63,3.33,1.02,4.73c0.5,1.81,1.08,3.33,1.74,4.55c0.36,0.67,0.73,1.28,1.11,1.81c0.9,1.28,1.86,2.17,2.87,2.68
				c0,0,0.01,0,0.01,0.01c0,0,0,0,0.01,0c0.13,0.06,0.25,0.12,0.38,0.17c0.08,0.03,0.16,0.06,0.24,0.09
				c0.09,0.03,0.19,0.05,0.28,0.06c0.18,0.03,0.36,0.03,0.54,0.06c0.45,0.07,0.88,0.05,1.31-0.03c0.57-0.11,1.13-0.35,1.66-0.73
				c0,0,0,0,0,0c0,0,0,0,0,0c0.03-0.02,0.06-0.04,0.08-0.07c0.32-0.24,0.64-0.52,0.95-0.86c0.18-0.19,0.36-0.4,0.54-0.63
				c0.15-0.2,0.31-0.36,0.46-0.56c0.04-0.06,0.08-0.11,0.13-0.18c0,0,0,0,0-0.01c0.05-0.08,0.1-0.17,0.15-0.27
				c0.01-0.01,0.01-0.03,0.02-0.04c0.04-0.09,0.09-0.19,0.13-0.29c0.05-0.12,0.1-0.23,0.16-0.34c1.58-2.9,2.54-7.25,2.83-13.15
				c0.06-1.29,0.1-2.66,0.1-4.1C148.45,241.06,147.87,235.54,146.69,230.73z M111.87,242.35c-0.52,0.44-1.12,0.74-1.76,0.96
				c-0.22,0.07-0.44,0.14-0.67,0.2c-0.2,0.05-0.4,0.1-0.6,0.13c-0.28,0.05-0.57,0.09-0.87,0.11c-0.21,0.01-0.42,0.01-0.64,0
				c-0.34-0.01-0.68-0.04-1.04-0.08c-0.79-0.11-1.61-0.29-2.49-0.57c-0.1-0.03-0.19-0.06-0.29-0.09c-0.57-0.2-1.08-0.45-1.61-0.7
				c-2.59-1.22-4.7-3.02-6.24-5.52c-0.08-0.12-0.15-0.25-0.22-0.37c-0.53-0.89-0.99-1.81-1.35-2.76c-0.82-2.11-1.23-4.35-1.23-6.74
				c0-1.97,0.3-3.65,0.88-5.04c0.15-0.37,0.33-0.72,0.52-1.06c0.42-0.7,0.92-1.32,1.52-1.84c0.92-0.82,2.03-1.3,3.28-1.46
				c0.61-0.08,1.26-0.08,1.95,0c0.84,0.09,1.73,0.29,2.68,0.62c0.53,0.18,1,0.42,1.49,0.64c0.37,0.16,0.73,0.34,1.08,0.52
				c0.14,0.07,0.27,0.14,0.4,0.21c0.26,0.15,0.51,0.32,0.76,0.48c0.03,0.02,0.06,0.04,0.09,0.06c0.21,0.14,0.42,0.28,0.62,0.42
				c1.51,1.09,2.8,2.4,3.82,4c1.93,2.98,2.89,6.28,2.89,9.93C114.84,238.05,113.84,240.69,111.87,242.35z M145.68,246.13
				c-0.02,1.33-0.09,2.56-0.19,3.71c-0.08,0.86-0.18,1.67-0.31,2.43c-0.13,0.76-0.28,1.47-0.45,2.13c-0.06,0.22-0.12,0.44-0.18,0.64
				c-0.13,0.42-0.26,0.82-0.41,1.19c-0.15,0.38-0.3,0.73-0.47,1.06c-0.06,0.12-0.1,0.26-0.16,0.39c-0.02,0.04-0.04,0.08-0.06,0.12
				c-0.07,0.12-0.14,0.24-0.21,0.35c-0.14,0.22-0.29,0.43-0.45,0.61c-0.08,0.09-0.16,0.18-0.24,0.26c-0.34,0.35-0.71,0.58-1.11,0.74
				c-0.04,0.01-0.07,0.03-0.11,0.04c-0.15,0.05-0.3,0.09-0.45,0.13c-0.24,0.05-0.48,0.08-0.73,0.09c-0.32,0.01-0.65-0.03-1.01-0.12
				c-0.09-0.02-0.18-0.05-0.27-0.08c-0.15-0.05-0.29-0.11-0.44-0.18c-0.08-0.04-0.15-0.08-0.23-0.13c-0.21-0.12-0.42-0.25-0.62-0.4
				c-0.14-0.1-0.28-0.21-0.41-0.32c-0.54-0.45-1.05-1.02-1.54-1.7c-0.73-1.01-1.41-2.29-2.03-3.84c-0.36-0.92-0.68-1.95-0.95-3.11
				c-0.14-0.58-0.26-1.18-0.37-1.82c-0.06-0.32-0.11-0.64-0.16-0.98c-0.15-1-0.28-2.06-0.38-3.19c-0.07-0.75-0.13-1.54-0.17-2.35
				c-0.02-0.44-0.05-0.89-0.06-1.34c-0.05-1.23-0.07-2.53-0.07-3.88v0c0-0.58,0-1.15,0.01-1.69c0.01-0.54,0.02-1.07,0.04-1.58
				c0.01-0.37,0.03-0.74,0.04-1.09c0.02-0.35,0.04-0.7,0.06-1.03c0.02-0.33,0.05-0.65,0.07-0.97c0.08-0.93,0.18-1.77,0.3-2.51
				c0.08-0.5,0.17-0.95,0.27-1.36c0.05-0.21,0.1-0.41,0.15-0.6c0.11-0.39,0.22-0.75,0.34-1.08c0.06-0.17,0.13-0.33,0.19-0.49
				c0.18-0.41,0.37-0.78,0.58-1.11c0.1-0.15,0.2-0.3,0.31-0.43c0.01-0.01,0.01-0.02,0.02-0.02c0.11-0.14,0.23-0.27,0.35-0.39
				c0.12-0.12,0.24-0.22,0.37-0.32c0.1-0.07,0.2-0.14,0.3-0.2c0.08-0.05,0.16-0.08,0.24-0.12c0.13-0.06,0.25-0.11,0.38-0.15
				c0.1-0.03,0.21-0.06,0.31-0.08c0.07-0.01,0.14-0.02,0.21-0.03v0c0.14-0.02,0.28-0.03,0.43-0.04c0.21,0,0.43,0.01,0.65,0.04
				c0.06,0.01,0.12,0.01,0.19,0.01c0.19,0.01,0.37,0,0.56,0.07c0.25,0.08,0.48,0.27,0.72,0.41c0.38,0.21,0.75,0.47,1.12,0.82
				c0.56,0.53,1.11,1.19,1.64,2.01c0.23,0.35,0.45,0.73,0.67,1.13c0.07,0.14,0.15,0.27,0.22,0.41c0.22,0.42,0.44,0.88,0.65,1.36
				c0.07,0.16,0.14,0.33,0.21,0.49s0.14,0.34,0.21,0.51c0.17,0.42,0.33,0.87,0.48,1.32c0.11,0.32,0.21,0.64,0.31,0.98
				c0.1,0.33,0.19,0.67,0.28,1.02c0.15,0.6,0.29,1.22,0.42,1.87c0.25,1.29,0.46,2.67,0.61,4.14c0.03,0.3,0.06,0.61,0.09,0.92
				c0.03,0.31,0.05,0.62,0.07,0.94c0.01,0.14,0.02,0.27,0.03,0.41c0.08,1.17,0.13,2.39,0.14,3.66c0.01,0.42,0.01,0.85,0.01,1.29
				C145.69,245.46,145.69,245.79,145.68,246.13z"/>
			<path class="st1" d="M148.07,266.16c-0.11,0.26-0.27,0.62-0.51,0.99c-0.23,0.35-0.44,0.6-0.6,0.78
				c-0.04,0.05-0.08,0.09-0.12,0.14c-0.54,0.7-1.12,1.3-1.73,1.79l0.56,1.42l1.41,3.35l1.5,3.74l-1.24-2.09l-1.22-1.99l-1.13-2.09
				l-0.76-1.71c-0.57,0.35-1.16,0.62-1.76,0.8l0.93,1.85l1.24,2.27l1.43,2.25l1.36,1.93l1.47,1.86l0.55-0.25l0.25-0.46l0.44-0.28
				l1.18,0.41l0.78-0.55l1.24,0.76l1.66,0.34h1.29l0.69-0.44l-0.07-1.12L153,267.8l-2.54-8.69c-0.54,2.74-1.31,5.02-2.32,6.87
				C148.12,266.04,148.09,266.1,148.07,266.16z"/>
			<path class="st1" d="M137.93,250.95l-0.53-2.75l-0.41-2.82l-0.39-2.96l-0.35-3.03l-0.17-1.42l-0.18-1.45l-0.14-1.7l-0.09-1.65
				l-0.09-1.67l-0.16-1.81l-0.04-0.72c-0.16,1.21-0.27,2.7-0.33,4.45c-0.03,0.98-0.05,2.04-0.05,3.15c0,8.63,1.05,13.11,1.92,15.36
				c0.73,1.82,1.42,2.91,1.98,3.56l-0.43-1.91L137.93,250.95z"/>
			<path class="st1" d="M142.12,245.11c0-6.46-0.74-11.58-2.19-15.23c-1.1-2.74-2.09-4.03-2.73-4.63c-0.13-0.12-0.27-0.22-0.43-0.31
				c-0.03-0.02-0.06-0.03-0.08-0.05c-0.03,0-0.07-0.01-0.1-0.01c-0.07,0.09-0.17,0.25-0.3,0.51l0.39,5.46l0.55,5.82l0.6,5.09
				l0.65,4.43l0.67,3.94l0.6,3.49l0.59,2.4c0.04-0.09,0.09-0.2,0.14-0.31C141.23,254.2,142.12,251.15,142.12,245.11z"/>
			<path class="st1" d="M99.21,222.09c-0.78,0.34-1.47,0.8-1.97,1.53c-0.74,1.11-1.11,2.59-1.11,4.45c0,0.72,0.06,1.42,0.18,2.12
				c0.3,1.75,0.98,3.43,2.04,5.04c0.8,1.21,1.77,2.18,2.84,2.97c0.61,0.46,1.26,0.86,1.96,1.19c0.33,0.16,0.67,0.31,1.03,0.43
				c0.64,0.22,1.25,0.33,1.83,0.38c0.36,0.03,0.7,0.02,1.04-0.01c0.18-0.02,0.35-0.04,0.52-0.08c0.29-0.06,0.56-0.15,0.83-0.27
				c0.21-0.09,0.42-0.2,0.62-0.32c0.21-0.13,0.43-0.25,0.63-0.41c0.02-0.01,0.03-0.02,0.05-0.04c1.43-1.27,2.14-3.19,2.14-5.77
				c0-1.07-0.12-2.11-0.36-3.12c-0.49-2.05-1.53-3.97-3.03-5.77c-0.23-0.28-0.48-0.56-0.73-0.83c-0.05-0.05-0.09-0.1-0.13-0.16
				c-0.08-0.11-0.14-0.22-0.25-0.32l-0.44,1.18c0.28,0.29,0.48,0.59,0.69,0.89c0.09,0.13,0.19,0.27,0.29,0.4
				c0.26,0.34,0.51,0.68,0.74,1.02c0.8,1.17,1.38,2.37,1.63,3.6c0.12,0.59,0.17,1.18,0.17,1.78c0,1.54-0.38,2.72-1.12,3.54
				c-0.14,0.15-0.28,0.29-0.44,0.42c-0.04,0.03-0.13,0.02-0.18,0.05c-0.15,0.1-0.33,0.17-0.52,0.23c-0.25,0.08-0.54,0.13-0.84,0.15
				c-0.17,0.02-0.36,0.01-0.56,0c-0.33-0.02-0.68-0.07-1.04-0.13c-0.53-0.09-1-0.1-1.64-0.3v-5.74v-8.03
				c-1.2-0.39-2.22-0.57-3.09-0.55c-0.2,0.01-0.39,0.02-0.58,0.04C99.97,221.73,99.6,221.92,99.21,222.09z M101.26,225.06
				c0.63,0.21,1.06,0.51,1.33,0.87c0.26,0.36,0.38,0.79,0.38,1.28v2.98v5.35c-0.17-0.06-0.33-0.13-0.5-0.2
				c-0.7-0.29-1.32-0.63-1.88-1c-0.81-0.54-1.5-1.14-2.03-1.86c-0.55-0.75-0.95-1.51-1.19-2.29c-0.19-0.6-0.28-1.21-0.28-1.83
				c0-1.27,0.4-2.23,1.21-2.89c0.35-0.28,0.74-0.42,1.15-0.51C100,224.83,100.59,224.83,101.26,225.06
				C101.25,225.06,101.26,225.06,101.26,225.06z"/>
		</g>
	</g>
</g>
</svg>
